<?xml version="1.0" encoding="utf-8"?>
<!-- Generator: Adobe Illustrator 25.2.1, SVG Export Plug-In . SVG Version: 6.00 Build 0)  -->
<svg version="1.1" id="Layer_1" xmlns="http://www.w3.org/2000/svg" xmlns:xlink="http://www.w3.org/1999/xlink" x="0px" y="0px"
	 viewBox="0 0 198.4 198.4" style="enable-background:new 0 0 198.4 198.4;" xml:space="preserve">
<style type="text/css">
	.st0{fill:#A0BEE3;}
</style>
<g>
	<path class="st0" d="M98.7,1.1c-54,0-97.8,43.8-97.8,97.8s43.8,97.8,97.8,97.8c54,0,97.8-43.8,97.8-97.8S152.7,1.1,98.7,1.1z
		 M64.3,125.6c-10.3,0-20.6,0-30.8,0c0-9.8,0-19.5,0-29.3c0.1-0.3,0.2-0.6,0.2-0.8C35.3,84,44.2,74.7,55.6,72.6
		c0.8-0.1,1.6-0.3,2.8-0.5c-0.5-0.1-0.6-0.2-0.7-0.2c-9-1.5-15.7-8.9-16.2-17.7C41,45,46.9,36.7,55.7,34.3c0.8-0.2,1.7-0.4,2.6-0.6
		c1.4,0,2.9,0,4.3,0c2.1,0.6,4.2,1,6.1,1.9c7.7,3.6,11.9,11.9,10.7,20.5c-1.1,8-7.8,14.5-16,15.8c-0.1,0-0.2,0.1-0.3,0.2
		c8.2,1.1,14.7,5,19.3,11.5c-2.8,2.3-5.8,4.3-8.2,6.8c-6.4,6.4-9.6,14.3-9.8,23.3C64.3,117.7,64.3,121.6,64.3,125.6z M123.7,139
		c-1.7,3.8-4.4,6.9-7.4,9.6c-5.3,4.8-10.8,9.5-16.3,14.3c-0.4,0.4-0.7,0.8-1.1,1.2c-0.2,0-0.3,0-0.5,0c-0.5-0.5-0.9-1-1.4-1.4
		c-6-5.3-12.1-10.6-17.9-16c-3.1-2.9-5.5-6.5-6.5-10.7c-1.7-7.1,1.7-14.6,8-17c5.5-2.1,10.2-0.6,14.4,3.2c1.3,1.2,2.5,2.3,3.7,3.4
		c1.1-1,2.4-2.2,3.7-3.4c7.3-6.9,17.9-4.9,21.6,4.1C125.8,130.5,125.7,134.8,123.7,139z M112.1,110.4c-5,0-9.4,1.7-13.3,4.8
		c-9-6.4-17.9-6.5-26.7,0.1c-1.2-10.1,7-26.3,24.8-27.9c-4.7-0.8-8.2-2.9-10.7-6.4c-2.5-3.6-3.3-7.6-2.5-11.9
		c1.5-7.3,8.2-12.5,15.8-12.2c7.5,0.3,13.7,6.4,14.4,14c0.6,6.8-3.7,14.7-13.1,16.5c8.7,1,15.6,5,20.4,12.4
		c3.1,4.7,4.4,9.9,4.2,15.7C121.5,112.2,117.1,110.4,112.1,110.4z M163.9,125.6c-10.2,0-20.4,0-30.8,0c0-0.5,0-1,0-1.4
		c-0.1-4.5,0.2-9-0.3-13.5c-1.1-11.4-7-19.9-16.6-25.9c-0.4-0.3-0.9-0.5-1.4-0.9c4.8-6.8,11.3-10.7,19.6-11.7
		c-1.9-0.6-3.7-1.1-5.4-1.8c-7.6-3.4-12.2-11.5-11.2-19.4c1.2-8.9,7.5-15.7,15.9-17.1c0.3,0,0.5-0.2,0.8-0.3c1.4,0,2.9,0,4.3,0
		c0.3,0.1,0.6,0.2,0.8,0.2c8.8,1.4,15.8,9.1,16.2,18.1c0.4,9.2-5.6,17.4-14.4,19.6c-0.7,0.2-1.4,0.3-2.1,0.5
		c0.3,0.2,0.6,0.3,0.8,0.4c10.6,1.3,19.7,9,22.6,19.4c0.4,1.5,0.7,3,1,4.6C163.9,106.1,163.9,115.9,163.9,125.6z"/>
</g>
</svg>
