<svg width="202" height="40" viewBox="0 0 202 40" fill="none" xmlns="http://www.w3.org/2000/svg">
<g clip-path="url(#clip0_444_4515)">
<path fill-rule="evenodd" clip-rule="evenodd" d="M25.5557 11.6853C23.9112 10.5865 21.9778 10 20 10V0C23.9556 0 27.8224 1.17298 31.1114 3.37061C34.4004 5.56823 36.9638 8.69181 38.4776 12.3463C39.9913 16.0008 40.3874 20.0222 39.6157 23.9018C38.844 27.7814 36.9392 31.3451 34.1421 34.1421C31.3451 36.9392 27.7814 38.844 23.9018 39.6157C20.0222 40.3874 16.0008 39.9913 12.3463 38.4776C8.6918 36.9638 5.56823 34.4004 3.37061 31.1114C1.17298 27.8224 0 23.9556 0 20H10C10 21.9778 10.5865 23.9112 11.6853 25.5557C12.7841 27.2002 14.3459 28.4819 16.1732 29.2388C18.0004 29.9957 20.0111 30.1937 21.9509 29.8078C23.8907 29.422 25.6725 28.4696 27.0711 27.0711C28.4696 25.6725 29.422 23.8907 29.8078 21.9509C30.1937 20.0111 29.9957 18.0004 29.2388 16.1732C28.4819 14.3459 27.2002 12.7841 25.5557 11.6853Z" fill="#080517"/>
<path fill-rule="evenodd" clip-rule="evenodd" d="M9.99999 5.28493e-06C9.99999 1.31322 9.74134 2.61358 9.23879 3.82684C8.73624 5.04009 7.99965 6.14248 7.07106 7.07107C6.14248 7.99966 5.04009 8.73625 3.82683 9.2388C2.61357 9.74134 1.31321 10 4.3711e-07 10L0 20C2.62643 20 5.22715 19.4827 7.65367 18.4776C10.0802 17.4725 12.285 15.9993 14.1421 14.1421C15.9993 12.285 17.4725 10.0802 18.4776 7.65367C19.4827 5.22715 20 2.62643 20 0L9.99999 5.28493e-06Z" fill="#080517"/>
<path d="M125.619 14.4531H120.767V29.8654H125.619V14.4531Z" fill="#080517"/>
<path d="M121.307 11.5666C121.814 12.074 122.448 12.3277 123.209 12.3277C123.97 12.3277 124.594 12.074 125.08 11.5666C125.567 11.0381 125.81 10.4038 125.81 9.66385C125.81 8.90277 125.567 8.26849 125.08 7.76111C124.594 7.25369 123.97 7 123.209 7C122.448 7 121.814 7.25369 121.307 7.76111C120.82 8.26849 120.577 8.90277 120.577 9.66385C120.577 10.4038 120.82 11.0381 121.307 11.5666Z" fill="#080517"/>
<path d="M51.1562 29.8657V7.47656H56.1352V25.4894H66.0613V29.8657H51.1562Z" fill="#080517"/>
<path fill-rule="evenodd" clip-rule="evenodd" d="M75.0274 30.2135C73.4418 30.2135 72.0042 29.8647 70.7145 29.167C69.446 28.4482 68.4418 27.4757 67.7018 26.2494C66.9619 25.0232 66.5919 23.649 66.5919 22.1268C66.5919 20.6046 66.9619 19.241 67.7018 18.0359C68.4418 16.8308 69.446 15.8794 70.7145 15.1818C71.983 14.4629 73.4207 14.1035 75.0274 14.1035C76.6342 14.1035 78.0718 14.4524 79.3403 15.15C80.6088 15.8477 81.6131 16.8097 82.353 18.0359C83.093 19.241 83.463 20.6046 83.463 22.1268C83.463 23.649 83.093 25.0232 82.353 26.2494C81.6131 27.4757 80.6088 28.4482 79.3403 29.167C78.0718 29.8647 76.6342 30.2135 75.0274 30.2135ZM75.0274 25.8055C75.7251 25.8055 76.3382 25.6575 76.8668 25.3615C77.3953 25.0444 77.797 24.611 78.0718 24.0613C78.3678 23.4905 78.5158 22.8456 78.5158 22.1268C78.5158 21.408 78.3678 20.7843 78.0718 20.2558C77.7758 19.7061 77.3636 19.2833 76.835 18.9873C76.3276 18.6701 75.7251 18.5116 75.0274 18.5116C74.3509 18.5116 73.7484 18.6701 73.2198 18.9873C72.6913 19.2833 72.279 19.7061 71.983 20.2558C71.687 20.8055 71.5391 21.4397 71.5391 22.1585C71.5391 22.8562 71.687 23.4905 71.983 24.0613C72.279 24.611 72.6913 25.0444 73.2198 25.3615C73.7484 25.6575 74.3509 25.8055 75.0274 25.8055Z" fill="#080517"/>
<path fill-rule="evenodd" clip-rule="evenodd" d="M87.3057 35.8916C88.5953 36.4835 90.0858 36.7795 91.7772 36.7795C93.4262 36.7795 94.8956 36.4518 96.1852 35.7964C97.4749 35.141 98.4896 34.232 99.2296 33.0692C99.9695 31.9064 100.34 30.5322 100.34 28.9465V14.4539H95.5826V15.4894C95.2288 15.1916 94.827 14.9416 94.3776 14.7393C93.553 14.3376 92.6122 14.1367 91.5552 14.1367C90.1387 14.1367 88.8807 14.475 87.7814 15.1515C86.6819 15.8069 85.8152 16.716 85.1809 17.8788C84.5466 19.0205 84.2296 20.3101 84.2296 21.7478C84.2296 23.1643 84.5466 24.4539 85.1809 25.6167C85.8152 26.7795 86.6819 27.6992 87.7814 28.3757C88.8807 29.0522 90.1387 29.3905 91.5552 29.3905C92.5911 29.3905 93.5319 29.1897 94.3776 28.788C94.7872 28.5934 95.1572 28.3641 95.4875 28.1V29.0734C95.4875 30.1516 95.1387 30.9867 94.441 31.5787C93.7645 32.1707 92.8237 32.4666 91.6186 32.4666C90.6461 32.4666 89.811 32.2975 89.1133 31.9592C88.4368 31.621 87.8236 31.1241 87.2739 30.4687L84.293 33.4497C85.0329 34.5068 86.0372 35.3208 87.3057 35.8916ZM94.219 24.6336C93.7327 24.9296 93.1514 25.0776 92.4748 25.0776C91.7983 25.0776 91.2063 24.9296 90.6989 24.6336C90.2126 24.3376 89.8321 23.9359 89.5573 23.4285C89.2824 22.9 89.145 22.3397 89.145 21.7478C89.145 21.1135 89.2824 20.5427 89.5573 20.0353C89.8321 19.5279 90.2232 19.1262 90.7306 18.8302C91.238 18.5342 91.8194 18.3862 92.4748 18.3862C93.1514 18.3862 93.7327 18.5342 94.219 18.8302C94.7264 19.1262 95.1069 19.5279 95.3607 20.0353C95.6355 20.5427 95.7729 21.1135 95.7729 21.7478C95.7729 22.382 95.6355 22.9528 95.3607 23.4602C95.1069 23.9465 94.7264 24.3376 94.219 24.6336Z" fill="#080517"/>
<path fill-rule="evenodd" clip-rule="evenodd" d="M110.551 30.2135C108.965 30.2135 107.527 29.8647 106.238 29.167C104.969 28.4482 103.965 27.4757 103.225 26.2494C102.485 25.0232 102.115 23.649 102.115 22.1268C102.115 20.6046 102.485 19.241 103.225 18.0359C103.965 16.8308 104.969 15.8794 106.238 15.1818C107.506 14.4629 108.944 14.1035 110.551 14.1035C112.157 14.1035 113.595 14.4524 114.863 15.15C116.132 15.8477 117.136 16.8097 117.876 18.0359C118.616 19.241 118.986 20.6046 118.986 22.1268C118.986 23.649 118.616 25.0232 117.876 26.2494C117.136 27.4757 116.132 28.4482 114.863 29.167C113.595 29.8647 112.157 30.2135 110.551 30.2135ZM110.551 25.8055C111.248 25.8055 111.861 25.6575 112.39 25.3615C112.918 25.0444 113.32 24.611 113.595 24.0613C113.891 23.4905 114.039 22.8456 114.039 22.1268C114.039 21.408 113.891 20.7843 113.595 20.2558C113.299 19.7061 112.887 19.2833 112.358 18.9873C111.851 18.6701 111.248 18.5116 110.551 18.5116C109.874 18.5116 109.271 18.6701 108.743 18.9873C108.214 19.2833 107.802 19.7061 107.506 20.2558C107.21 20.8055 107.062 21.4397 107.062 22.1585C107.062 22.8562 107.21 23.4905 107.506 24.0613C107.802 24.611 108.214 25.0444 108.743 25.3615C109.271 25.6575 109.874 25.8055 110.551 25.8055Z" fill="#080517"/>
<path fill-rule="evenodd" clip-rule="evenodd" d="M137.281 30.1833C136.246 30.1833 135.294 29.9825 134.427 29.5808C133.971 29.3694 133.559 29.117 133.191 28.8236V36.3673H128.402V14.4539H133.254V15.5176C133.606 15.2297 133.997 14.9808 134.427 14.771C135.294 14.3481 136.246 14.1367 137.281 14.1367C138.74 14.1367 140.03 14.4856 141.15 15.1833C142.292 15.8809 143.18 16.8323 143.814 18.0374C144.47 19.2425 144.797 20.6167 144.797 22.16C144.797 23.7034 144.47 25.0776 143.814 26.2827C143.18 27.4878 142.292 28.4391 141.15 29.1368C140.03 29.8345 138.74 30.1833 137.281 30.1833ZM136.394 25.807C137.091 25.807 137.694 25.6484 138.201 25.3313C138.73 25.0142 139.142 24.5807 139.438 24.0311C139.734 23.4814 139.882 22.8577 139.882 22.16C139.882 21.4412 139.734 20.807 139.438 20.2573C139.142 19.7076 138.73 19.2848 138.201 18.9888C137.694 18.6716 137.102 18.5131 136.425 18.5131C135.749 18.5131 135.146 18.6716 134.618 18.9888C134.11 19.2848 133.709 19.7076 133.413 20.2573C133.117 20.807 132.969 21.4412 132.969 22.16C132.969 22.8577 133.106 23.4814 133.381 24.0311C133.677 24.5807 134.089 25.0142 134.618 25.3313C135.146 25.6484 135.738 25.807 136.394 25.807Z" fill="#080517"/>
<path d="M149.546 29.8958C150.434 30.1284 151.332 30.2446 152.241 30.2446C154.165 30.2446 155.687 29.8007 156.808 28.9127C157.949 28.0248 158.52 26.8303 158.52 25.3292C158.52 24.3567 158.341 23.5744 157.981 22.9825C157.622 22.3694 157.157 21.8831 156.586 21.5237C156.015 21.1643 155.412 20.8788 154.778 20.6674C154.144 20.456 153.541 20.2763 152.971 20.1283C152.4 19.9803 151.935 19.8112 151.575 19.6209C151.216 19.4306 151.036 19.1769 151.036 18.8598C151.036 18.5638 151.174 18.3418 151.448 18.1938C151.723 18.0247 152.135 17.9402 152.685 17.9402C153.256 17.9402 153.837 18.0564 154.429 18.289C155.042 18.5215 155.592 18.9233 156.078 19.4941L158.837 16.7034C158.14 15.8154 157.231 15.1494 156.11 14.7055C155.011 14.2404 153.806 14.0078 152.495 14.0078C151.248 14.0078 150.159 14.2192 149.229 14.642C148.298 15.0649 147.579 15.6463 147.072 16.3862C146.565 17.105 146.311 17.9613 146.311 18.955C146.311 19.8852 146.491 20.6569 146.85 21.27C147.209 21.8619 147.675 22.3271 148.245 22.6653C148.816 23.0036 149.419 23.2679 150.053 23.4581C150.687 23.6484 151.29 23.8281 151.861 23.9973C152.431 24.1453 152.897 24.325 153.256 24.5364C153.637 24.7267 153.827 25.0121 153.827 25.3926C153.827 25.6886 153.668 25.9211 153.351 26.0903C153.055 26.2594 152.622 26.344 152.051 26.344C151.226 26.344 150.465 26.196 149.768 25.9C149.07 25.5829 148.467 25.1495 147.96 24.5998L145.201 27.3905C145.73 27.9613 146.364 28.4688 147.104 28.9127C147.865 29.3355 148.679 29.6632 149.546 29.8958Z" fill="#080517"/>
<path d="M167.368 30.2142C165.952 30.2142 164.694 29.9288 163.595 29.358C162.516 28.766 161.671 27.9626 161.058 26.9478C160.444 25.9119 160.138 24.728 160.138 23.396V14.4531H164.99V23.3326C164.99 23.8611 165.074 24.3157 165.244 24.6962C165.434 25.0768 165.709 25.3728 166.068 25.5842C166.428 25.7956 166.861 25.9013 167.368 25.9013C168.087 25.9013 168.658 25.6793 169.081 25.2353C169.504 24.7702 169.715 24.136 169.715 23.3326V14.4531H174.567V23.3643C174.567 24.7174 174.261 25.9119 173.647 26.9478C173.034 27.9626 172.189 28.766 171.11 29.358C170.032 29.9288 168.785 30.2142 167.368 30.2142Z" fill="#080517"/>
<path d="M181.831 14.4539H176.979V29.8662H181.831V20.8598C181.831 20.3313 181.937 19.8873 182.148 19.5279C182.381 19.1685 182.688 18.8936 183.068 18.7034C183.449 18.4919 183.882 18.3862 184.368 18.3862C185.066 18.3862 185.647 18.6082 186.112 19.0522C186.599 19.475 186.842 20.0776 186.842 20.8598V29.8662H191.694V20.8598C191.694 20.3313 191.8 19.8873 192.011 19.5279C192.244 19.1685 192.55 18.8936 192.931 18.7034C193.311 18.4919 193.745 18.3862 194.231 18.3862C194.929 18.3862 195.51 18.6082 195.975 19.0522C196.461 19.475 196.704 20.0776 196.704 20.8598V29.8662H201.557V20.3207C201.557 19.0311 201.282 17.9317 200.732 17.0226C200.203 16.0923 199.474 15.3841 198.544 14.8979C197.635 14.3904 196.588 14.1367 195.404 14.1367C194.199 14.1367 193.11 14.401 192.138 14.9296C191.506 15.2663 190.954 15.7009 190.481 16.2333C190.04 15.6764 189.504 15.2207 188.871 14.8661C188.026 14.3799 187.064 14.1367 185.986 14.1367C184.844 14.1367 183.819 14.3799 182.91 14.8661C182.514 15.0684 182.155 15.3107 181.831 15.593V14.4539Z" fill="#080517"/>
</g>
<defs>
<clipPath id="clip0_444_4515">
<rect width="202" height="40" fill="white"/>
</clipPath>
</defs>
</svg>
