<?xml version="1.0" encoding="utf-8"?>
<!-- Generator: Adobe Illustrator 25.2.1, SVG Export Plug-In . SVG Version: 6.00 Build 0)  -->
<svg version="1.1" id="Layer_1" xmlns="http://www.w3.org/2000/svg" xmlns:xlink="http://www.w3.org/1999/xlink" x="0px" y="0px"
	 viewBox="0 0 198.4 198.4" style="enable-background:new 0 0 198.4 198.4;" xml:space="preserve">
<style type="text/css">
	.st0{fill:#A0BEE3;}
</style>
<g>
	<path class="st0" d="M86.1,50.1c0,4.8,0,9.5,0,14.3c8.7,0,17.4,0,26.1,0c0-4.9,0-9.6,0-14.4C103.2,57.7,96.7,57.7,86.1,50.1z"/>
	<path class="st0" d="M57.1,144.4c8.1,7.7,17.7,12.9,28.9,15.5c0-3.1,0-6.1,0-9.3c-9.1-2.3-16.8-7.1-23.5-13.1
		C60.6,139.9,58.9,142.1,57.1,144.4z"/>
	<path class="st0" d="M54,58.3c2.5,1.5,5,2.9,7.2,4.2c3.9-2.8,7.4-5.8,11.3-8.1c3.9-2.3,8.2-4,12.1-5.8c-1-2.5-2.1-5.1-3.1-7.7
		C73,42.6,57.3,52.6,54,58.3z"/>
	<path class="st0" d="M61.2,121.7c2.5,4.4,2.9,9.1,1.5,14.2c4.4-2.5,8.5-4.9,12.7-7.3c-4.4-7.6-8.8-15.2-13.2-22.8
		c-4.2,2.4-8.3,4.8-12.7,7.3C54.8,114.5,58.7,117.2,61.2,121.7z"/>
	<path class="st0" d="M47.9,112.5c0-0.2-0.1-0.5-0.1-0.9c-0.4-3.4-1-6.8-1.3-10.3c-0.3-5,0.3-9.9,1.5-14.8c0.1-0.4,0-1.2-0.2-1.4
		c-2.3-1.5-4.7-2.8-7.3-4.3c-3.4,11-3.8,21.9-1.2,32.7C42.4,113.3,45.1,112.9,47.9,112.5z"/>
	<path class="st0" d="M45.9,121.6c-4.8,0-8.7,3.9-8.8,8.7c0,4.9,3.9,8.8,8.8,8.8c4.8,0,8.7-3.9,8.7-8.7
		C54.8,125.5,50.8,121.6,45.9,121.6z"/>
	<path class="st0" d="M99.3,46.9c4.8,0,8.7-4,8.7-8.8c0-4.9-4.1-9.1-8.9-9c-4.7,0.1-8.7,4.2-8.7,9.1C90.5,43,94.4,47,99.3,46.9z"/>
	<path class="st0" d="M152.4,121.6c-4.9,0-8.8,4-8.8,8.9c0,4.8,3.9,8.7,8.8,8.7c4.8,0,8.8-3.9,8.8-8.7
		C161.3,125.6,157.3,121.6,152.4,121.6z"/>
	<path class="st0" d="M112.5,150.6c0,3.2,0,6.2,0,9.3c11.2-2.6,20.8-7.8,28.8-15.4c-1.8-2.4-3.5-4.6-5.3-7
		C129.2,143.5,121.5,148.3,112.5,150.6z"/>
	<path class="st0" d="M99.2,1.4c-54,0-97.8,43.8-97.8,97.8S45.2,197,99.2,197c54,0,97.8-43.8,97.8-97.8S153.2,1.4,99.2,1.4z
		 M94.8,170.1c-0.3,0-0.6,0-0.9,0c-2.7-0.5-5.5-0.9-8.2-1.4c-14.3-2.8-26.5-9.5-36.7-19.9c-0.7-0.7-1.4-1-2.4-1
		c-7,0.1-12.5-2.8-16-8.9c-3.5-6.1-3-12.3,0.6-18.3c0.3-0.5,0.4-1.4,0.2-2c-4.7-17.2-3-33.9,4.5-50c0-0.1,0.1-0.1,0.2-0.3
		c7.5,4.3,15.1,8.7,22.8,13.2c-2.2,5.7-3.8,11.6-3.7,18.1c3.4-2,6.7-3.9,10.1-5.8c7.3,12.7,14.6,25.3,21.9,38
		c-3.3,1.9-6.5,3.8-10,5.8c5.4,3.3,11.2,4.9,17.4,5.9C94.8,152.4,94.8,161.3,94.8,170.1z M77.3,73.2c0-3.7,0-7.5,0-11.4
		c-5.7,3.1-9.9,7.3-13.8,12.2c-7.6-4.4-15.2-8.8-23.1-13.4c3.2-3.7,6.1-7.4,9.4-10.7c8.9-9.1,19.6-15.1,32-18.2
		c0.9-0.2,1.5-0.7,1.9-1.5c2.7-5.3,7-8.5,12.9-9.6c0.2,0,0.5-0.2,0.7-0.2c1.4,0,2.7,0,4.1,0c1.3,0.3,2.6,0.6,3.8,1
		c4.2,1.6,7.5,4.4,9.6,8.4c0.6,1.2,1.3,1.7,2.6,2c17.1,4.5,30.4,14.5,40.7,29c-7.6,4.4-15.2,8.8-22.9,13.2
		c-3.9-4.8-8.1-9.1-13.7-12.2c0,3.9,0,7.6,0,11.4C106.5,73.2,92,73.2,77.3,73.2z M167.7,139c-3.5,6.1-9,9-16,8.9c-1,0-1.7,0.2-2.4,1
		c-11.5,11.8-25.5,18.7-41.8,20.8c-1,0.1-2,0.3-3,0.5c-0.3,0-0.6,0-0.9,0c0-8.8,0-17.6,0-26.7c6.1-0.9,11.9-2.5,17.4-5.9
		c-3.4-2-6.6-3.9-10-5.8c7.3-12.7,14.6-25.3,21.9-38c3.4,1.9,6.6,3.8,10.1,5.8c0.1-6.4-1.5-12.3-3.8-18.1
		c7.7-4.4,15.3-8.8,22.9-13.2c3.3,7.2,5.7,14.5,6.6,22.2c1.2,9.6,0.5,19.1-2.1,28.4c-0.1,0.5,0,1.2,0.3,1.7
		C170.7,126.6,171.2,132.8,167.7,139z"/>
	<path class="st0" d="M148.8,113c-4.3-2.5-8.4-4.8-12.6-7.3c-4.4,7.6-8.8,15.2-13.2,22.8c4.2,2.4,8.3,4.8,12.6,7.2
		C132.7,125.3,138.7,115.7,148.8,113z"/>
	<path class="st0" d="M151.6,104c-0.3,2.9-0.8,5.8-1.1,8.5c2.9,0.4,5.7,0.8,8.6,1.2c2.5-10.9,2.1-21.7-1.2-32.7
		c-2.3,1.3-4.4,2.6-6.5,3.7c-1,0.5-1.3,1-1,2.2C151.7,92.5,152.3,98.2,151.6,104z"/>
	<path class="st0" d="M144.5,58.3c-5.1-6.9-20.9-16.7-27.6-17.4c-1.1,2.6-2.2,5.2-3.3,7.9c8.6,2.9,16.6,7.2,23.2,13.9
		C139.4,61.2,142,59.7,144.5,58.3z"/>
</g>
</svg>
