<?xml version="1.0" encoding="utf-8"?>
<!-- Generator: Adobe Illustrator 25.2.1, SVG Export Plug-In . SVG Version: 6.00 Build 0)  -->
<svg version="1.1" id="Layer_1" xmlns="http://www.w3.org/2000/svg" xmlns:xlink="http://www.w3.org/1999/xlink" x="0px" y="0px"
	 viewBox="0 0 198.4 198.4" style="enable-background:new 0 0 198.4 198.4;" xml:space="preserve">
<style type="text/css">
	.st0{fill:#A0BEE3;}
</style>
<g>
	<path class="st0" d="M99.2,1.4c-54,0-97.8,43.8-97.8,97.8S45.2,197,99.2,197c54,0,97.8-43.8,97.8-97.8S153.2,1.4,99.2,1.4z
		 M144.5,43.4C125.8,55.8,110.1,71.1,99.2,91C88.4,71.1,72.6,55.9,53.9,43.4C79.5,21.1,119.5,21.4,144.5,43.4z M28.3,93.5
		c0.4-2.7,0.7-5.4,1.1-8.1c1.9-12.5,8.9-26.6,18-36c1.5,0.9,3,1.8,4.5,2.8C66.8,62.3,79.6,74.6,89.1,90c1.8,3,3.2,6.2,4.7,9.3
		c-0.1,0.1-0.2,0.3-0.3,0.4c-1.1,0-2.3,0-3.4,0c-12.9,0.3-25.7,1.2-38.4,3.4c-5.7,1-11.3,2.4-16.8,3.7c-3.8,0.9-5.8-0.3-6.3-4.2
		c0-0.3-0.1-0.6-0.2-0.9C28.3,99,28.3,96.3,28.3,93.5z M170.1,129.8c-0.9,2.1-2.5,3-4.7,3.3c-1.2,0.2-2.3,0.6-3.5,0.7
		c-0.7,0.1-1,0.4-1.1,1.1c-0.6,4.4-3,7.9-6.4,10.4c-11,8.1-23.2,10.3-36.2,6.2c-5.7-1.8-10.1-5.5-12.6-11.1c-0.5-1-0.8-2.1-1.2-3.2
		c-3.5,0-6.9,0-10.3,0c-2,7.2-6.8,12-13.6,14.2c-12.9,4.2-25,2-36-5.8c-2.8-2-4.9-4.7-6.1-8c-0.4-1.2-0.5-2.9-1.3-3.6
		c-0.9-0.8-2.6-0.8-4-1c-2.2-0.3-3.8-1.3-4.7-3.3c0-0.7,0-1.5,0-2.2c1.9-3,2.9-3.4,6.4-2.6c1.3,0.3,2.6,0.6,3.9,0.8
		c0.4,0.1,1-0.1,1.2-0.3C43.6,120,49,117,55,115c8.3-2.7,16.7-3.3,25.1-0.4c6.9,2.4,11.9,6.9,13.9,14.3c3.4,0,6.8,0,9.9,0
		c1.4-2.5,2.5-5.1,4.2-7.2c3.8-4.9,9-7.3,15-8.3c10.5-1.7,20.3,0.2,29.2,5.9c2.4,1.6,4.5,3.5,6.1,5.9c0.3,0.4,1,0.6,1.4,0.5
		c1.3-0.2,2.5-0.5,3.8-0.8c3.5-0.8,4.5-0.4,6.4,2.6C170.1,128.3,170.1,129,170.1,129.8z M169.8,103.3c-0.2,2.9-2.5,4.5-5.4,3.9
		c-6.6-1.5-13.2-3.3-19.8-4.2c-8.9-1.3-17.9-2-26.8-2.7c-4.2-0.4-8.5-0.4-13-0.5c0.5-1.3,1-2.6,1.5-3.8c3.5-7.6,8.4-14.3,13.9-20.5
		c8.2-9.2,17.3-17.4,27.7-24c0.7-0.4,1.4-0.8,2.1-1.3c0.3-0.2,0.6-0.3,1.1-0.6c2.1,2.6,4.2,5.2,6.2,7.9c7.4,10.5,11.5,22.2,12.5,35
		c0,0.4,0.2,0.8,0.2,1.2c0,2.8,0,5.5,0,8.3C170,102.3,169.9,102.8,169.8,103.3z"/>
</g>
</svg>
