<?xml version="1.0" encoding="utf-8"?>
<!-- Generator: Adobe Illustrator 25.2.1, SVG Export Plug-In . SVG Version: 6.00 Build 0)  -->
<svg version="1.1" id="Layer_1" xmlns="http://www.w3.org/2000/svg" xmlns:xlink="http://www.w3.org/1999/xlink" x="0px" y="0px"
	 viewBox="0 0 198.4 198.4" style="enable-background:new 0 0 198.4 198.4;" xml:space="preserve">
<style type="text/css">
	.st0{fill:#A0BEE3;}
</style>
<g>
	<path class="st0" d="M99.2,1.4c-54,0-97.8,43.8-97.8,97.8S45.2,197,99.2,197c54,0,97.8-43.8,97.8-97.8S153.2,1.4,99.2,1.4z
		 M26.1,112.7c-3-1.7-6-3.5-9-5.2c-1.6-0.9-2.3-2.4-2.9-4c0-0.4,0-0.9,0-1.3c0.7-1.5,1.4-3,2.3-4.4c7.6-13,15.2-26.1,22.8-39.1
		c2.2-3.8,4.9-4.5,8.7-2.3c2.7,1.6,5.5,3.2,8.2,4.8c3,1.8,3.9,4.8,2.1,7.8c-8.1,13.9-16.2,27.9-24.4,41.8
		C32,113.7,29.1,114.4,26.1,112.7z M95.2,152c-2.5,3.4-5.1,6.7-7.9,9.8c-0.9,1.1-2.5,1.6-3.7,2.3c-1.1,0-2.2,0-3.3,0
		c-0.9-0.5-1.9-0.8-2.8-1.4c-2.7-1.8-3.8-5.2-2.9-8.3c0.1-0.5,0.2-0.9,0.4-1.5c-4.4,2.3-7.8,2.1-10.5-0.6c-2.6-2.6-2.9-6-0.7-10.2
		c-4.1,2-7.8,1.8-10.7-1.7c-2-2.4-2-5.5-0.2-9.1c-0.6,0.3-0.9,0.5-1.3,0.6c-3.2,1.6-6.9,0.8-9.2-1.8c-2.3-2.6-2.6-6.5-0.5-9.4
		c2.4-3.2,4.9-6.3,7.4-9.4c2.2-2.6,6-3.3,9.1-1.7c3.1,1.5,4.7,4.9,4.1,8.3c-0.1,0.5-0.2,1-0.4,1.9c0.9-1.1,1.6-1.9,2.2-2.7
		c2.8-3.4,7.1-4.2,10.5-1.9c3.5,2.3,4.4,6.7,2.2,10.6c-0.1,0.1-0.2,0.3-0.4,0.7c0.6-0.3,1-0.4,1.4-0.6c3.2-1.5,7-0.6,9.2,2
		c2.2,2.6,2.3,6.4,0.3,9.3c-1,1.4-2.1,2.7-3.4,4.4c0.9-0.4,1.3-0.6,1.8-0.8c3.1-1.3,6.6-0.5,8.8,2C96.7,145.5,97.2,149.3,95.2,152z
		 M149,130.1c-2,1.5-2.4,1.5-4.5,0.1c-9.3-6.7-18.7-13.5-28-20.2c-0.7-0.5-1.5-1.1-2.2-1c-0.9,0.1-2.2,0.7-2.5,1.4
		c-0.4,0.8,0,2.1,0.3,3c0.2,0.5,1,0.9,1.5,1.3c8.5,6.1,17,12.3,25.6,18.4c1.1,0.8,1.5,1.7,1.1,2.8c-0.6,1.5-1.3,3.1-2.3,4.3
		c-1.9,2.1-3,2.1-5.3,0.4c-8.3-6-16.5-11.9-24.8-17.9c-0.5-0.4-1-0.8-1.5-1c-1.3-0.6-2.5-0.4-3.4,0.9c-0.8,1.2-0.7,2.4,0.3,3.5
		c0.4,0.4,0.9,0.7,1.3,1c7.7,5.6,15.4,11.2,23.2,16.7c0.9,0.7,1.3,1.4,1,2.3c-0.5,1.5-1.1,3.1-2,4.2c-2,2.4-3.3,2.5-5.8,0.7
		c-4.4-3.1-8.7-6.3-13.1-9.4c-1.6-1.1-3-1.1-4,0c-1.3,1.3-1,3.1,0.6,4.3c3.8,2.8,7.7,5.6,11.6,8.3c1.1,0.8,1.4,1.6,1.1,2.8
		c-0.9,5.2-6.7,8-11.3,5.4c-2.6-1.5-4.9-3.4-7.3-5.1c5.5-9.4,4.1-16.2-4.2-21.1c-0.1-2,0-4-0.4-5.8c-1-5-4.2-8.3-9.1-9.8
		c-1-0.3-1.5-0.7-1.7-1.8c-1.8-7.1-8.7-11.2-15.9-9.5c-1,0.2-1.5,0-2.2-0.8c-5.2-6.3-14.5-6.5-20-0.4c-1.7,1.9-3.2,3.9-4.8,6
		c-1-0.6-1.3-1.1-0.7-2.1c7.7-13.1,15.3-26.2,22.9-39.3c0.1-0.2,0.3-0.4,0.4-0.6c3,1.4,5.9,2.7,9,4.1c-2.6,3.1-5.2,6.3-7.9,9.5
		c-2.1,2.6-3.1,5.4-2.3,8.8c0.8,3.5,2.8,5.8,6.1,7.1c10.1,4.2,20.4,1.5,27.2-7.1c2.1-2.7,4.2-5.4,6.3-8.1c0.5-0.6,1-1.2,1.6-1.9
		c3,2.2,6,4.3,8.9,6.5c12.2,8.9,24.5,17.7,36.7,26.6C153,120.7,153.3,126.9,149,130.1z M152.6,112.3c-0.2,0.2-0.5,0.4-0.8,0.7
		c-2.8-2-5.6-4-8.3-6c-12.3-8.9-24.6-17.9-36.9-26.8c-3.4-2.4-5.4-2.3-8.1,1c-2.7,3.2-5.1,6.5-7.7,9.8c-5.3,6.6-12.8,8.7-20.6,5.6
		c-3.2-1.3-4.2-4.6-2-7.2c5.6-6.8,11.3-13.6,17-20.4c2.9-3.5,6.8-5.2,11.4-5.2c5.4,0,10.8,0,16.3,0c2.7,0,5.1,0.7,7.4,2.1
		c1.9,1.1,3.7,2.2,5.5,3.3c2.8,1.8,5.8,2.7,9.1,2.7c0.6,0,1.4,0.4,1.7,0.9c6.8,11.6,13.6,23.3,20.4,34.9c0.1,0.2,0.2,0.5,0.3,0.8
		C155.6,109.6,154.1,111,152.6,112.3z M180,107.4c-2.6,1.4-5.1,2.9-7.6,4.4c-3.1,1.8-6.1,1-7.9-2.1c-8.1-13.9-16.2-27.7-24.2-41.6
		c-1.8-3.1-1-6.1,2.1-7.9c2.9-1.7,5.7-3.4,8.6-5c3.2-1.8,6.1-1.1,7.9,2.1c8.1,13.8,16.2,27.7,24.2,41.6c0.5,0.8,0.7,1.7,1.1,2.6
		c0,0.3,0,0.7,0,1C183.7,104.8,182.2,106.3,180,107.4z"/>
</g>
</svg>
