<?xml version="1.0" encoding="utf-8"?>
<!-- Generator: Adobe Illustrator 25.2.1, SVG Export Plug-In . SVG Version: 6.00 Build 0)  -->
<svg version="1.1" id="Layer_1" xmlns="http://www.w3.org/2000/svg" xmlns:xlink="http://www.w3.org/1999/xlink" x="0px" y="0px"
	 viewBox="0 0 198.4 198.4" style="enable-background:new 0 0 198.4 198.4;" xml:space="preserve">
<style type="text/css">
	.st0{fill:#A0BEE3;}
</style>
<g>
	<path class="st0" d="M99.3,106.9c6.4-0.1,11.6-5.4,11.6-11.7c0-6.4-5.4-11.8-11.8-11.7c-6.4,0.1-11.6,5.4-11.6,11.7
		C87.5,101.6,92.9,107,99.3,106.9z M99.2,91c2.3,0,4.3,2,4.2,4.3c0,2.3-1.9,4.2-4.2,4.2c-2.3,0-4.3-2-4.2-4.3
		C95,92.9,96.9,91,99.2,91z"/>
	<path class="st0" d="M62.8,111.3c-2.5,0-4.9,0-7.3,0c0,3.5,0,7,0,10.5c2.5,0,4.9,0,7.3,0C62.8,118.2,62.8,114.8,62.8,111.3z"/>
	<path class="st0" d="M79.6,151.6c2.5,0,4.8,0,7.4,0c0-8.7,0-17.3,0-25.9c2.9,0,5.6,0,8.5,0c0,8.7,0,17.3,0,25.9c2.5,0,4.9,0,7.4,0
		c0-8.6,0-17.2,0-25.9c2.9,0,5.6,0,8.5,0c0,8.7,0,17.3,0,25.9c2.5,0,5,0,7.4,0c0-11.2,0-22.3,0-33.4c-13.1,0-26.1,0-39.2,0
		C79.6,129.4,79.6,140.5,79.6,151.6z"/>
	<path class="st0" d="M55.7,143.1c2.4,0,4.8,0,7.3,0c0-3.6,0-7,0-10.5c-2.5,0-4.9,0-7.3,0C55.7,136.1,55.7,139.6,55.7,143.1z"/>
	<path class="st0" d="M99.2,1.4c-54,0-97.8,43.8-97.8,97.8S45.2,197,99.2,197c54,0,97.8-43.8,97.8-97.8S153.2,1.4,99.2,1.4z
		 M35.5,86.2c0-0.3,0.3-0.7,0.5-1c5.2-6.5,10.4-13.1,15.6-19.6c0.3-0.4,1-0.8,1.5-0.8c11.5,0,23,0,34.5,0c0.2,0,0.4,0,0.9,0.1
		c-2.6,3.1-5,5.9-7.4,8.8C76.4,79.3,71.7,85,67,90.6c-0.4,0.4-1,0.8-1.5,0.8c-9.8,0-19.6,0-29.4,0c-0.2,0-0.3,0-0.6-0.1
		C35.4,89.7,35.4,87.9,35.5,86.2z M163,159.1c-42.5,0-85,0-127.6,0c0-2.5,0-5,0-7.6c2.4,0,4.6,0,6.9,0c0-17.6,0-35,0-52.6
		c0.6,0,1,0,1.4,0c8.2,0,16.4,0,24.7,0c0.9,0,1.5-0.3,2.1-1c8-9.6,16-19.1,24-28.7c0.6-0.7,0.9-1.5,0.9-2.5c0-11.9,0-23.7,0-35.6
		c9.7,0,19.4,0,29.1,0c0,0.5-0.1,1-0.1,1.5c0,5.9,0,11.8,0,17.7c0,0.5,0,1,0,1.6c-7.3,0-14.4,0-21.5,0c-0.1,0.3-0.1,0.4-0.1,0.5
		c0,5,0,10,0,15c0,0.5,0.3,1,0.6,1.4c8.1,9.7,16.3,19.4,24.4,29.2c0.5,0.6,1,0.8,1.8,0.8c8.3,0,16.6,0,24.9,0c0.4,0,0.9,0,1.5,0
		c0,17.6,0,35.1,0,52.7c2.4,0,4.6,0,6.9,0C163,154.1,163,156.6,163,159.1z M163,91.5c-9.9,0-19.8,0-29.7,0c-0.6,0-1.3-0.3-1.7-0.7
		c-7-8.3-13.9-16.6-20.9-24.9c-0.2-0.2-0.4-0.5-0.7-0.9c0.5,0,0.9-0.1,1.3-0.1c11.2,0,22.4,0,33.6,0c0.9,0,1.4,0.3,2,0.9
		c5.1,6.4,10.1,12.7,15.2,19.1c0.3,0.3,0.6,0.6,0.8,0.9C163,87.6,163,89.6,163,91.5z"/>
	<path class="st0" d="M135.4,143.1c2.5,0,4.8,0,7.3,0c0-3.6,0-7.1,0-10.6c-2.5,0-4.9,0-7.3,0C135.4,136.1,135.4,139.6,135.4,143.1z"
		/>
	<path class="st0" d="M135.6,121.8c2.5,0,4.8,0,7.3,0c0-3.6,0-7.1,0-10.5c-2.5,0-4.9,0-7.3,0C135.6,114.8,135.6,118.3,135.6,121.8z"
		/>
</g>
</svg>
