<svg width="164" height="40" viewBox="0 0 164 40" fill="none" xmlns="http://www.w3.org/2000/svg">
<g clip-path="url(#clip0_427_4619)">
<path d="M48.1042 28.2463H59.7717V24.7341H52.2511V11.5049H48.1042V28.2463Z" fill="white"/>
<path d="M66.6842 25.9043C65.0208 25.9043 64.1539 24.4526 64.1539 22.2751C64.1539 20.0975 65.0208 18.6224 66.6842 18.6224C68.3476 18.6224 69.2379 20.0975 69.2379 22.2751C69.2379 24.4526 68.3476 25.9043 66.6842 25.9043ZM66.7076 28.6204C70.5734 28.6204 73.1036 25.8809 73.1036 22.2751C73.1036 18.6692 70.5734 15.9297 66.7076 15.9297C62.8654 15.9297 60.2882 18.6692 60.2882 22.2751C60.2882 25.8809 62.8654 28.6204 66.7076 28.6204Z" fill="white"/>
<path d="M79.7949 32.3902C81.5755 32.3902 83.1452 31.9921 84.1995 31.0555C85.1601 30.1892 85.7926 28.878 85.7926 27.075V16.2575H82.1378V17.5453H82.0909C81.3881 16.5384 80.3103 15.9062 78.7172 15.9062C75.7418 15.9062 73.6801 18.3882 73.6801 21.9004C73.6801 25.5765 76.1869 27.5902 78.8812 27.5902C80.3338 27.5902 81.2475 27.0048 81.9503 26.2087H82.0441V27.4028C82.0441 28.8545 81.3646 29.6975 79.7481 29.6975C78.4829 29.6975 77.8503 29.1589 77.6395 28.5267H73.9378C74.3126 31.0321 76.4915 32.3902 79.7949 32.3902ZM79.7715 24.757C78.3423 24.757 77.4052 23.5862 77.4052 21.7833C77.4052 19.957 78.3423 18.7862 79.7715 18.7862C81.3646 18.7862 82.2081 20.1443 82.2081 21.7599C82.2081 23.4458 81.4349 24.757 79.7715 24.757Z" fill="white"/>
<path d="M93.3077 25.9043C91.6443 25.9043 90.7775 24.4526 90.7775 22.2751C90.7775 20.0975 91.6443 18.6224 93.3077 18.6224C94.9712 18.6224 95.8615 20.0975 95.8615 22.2751C95.8615 24.4526 94.9712 25.9043 93.3077 25.9043ZM93.3312 28.6204C97.1969 28.6204 99.7267 25.8809 99.7267 22.2751C99.7267 18.6692 97.1969 15.9297 93.3312 15.9297C89.4889 15.9297 86.9117 18.6692 86.9117 22.2751C86.9117 25.8809 89.4889 28.6204 93.3312 28.6204Z" fill="white"/>
<path d="M100.842 28.2463H104.661V16.2581H100.842V28.2463ZM100.842 14.5956H104.661V11.5049H100.842V14.5956Z" fill="white"/>
<path d="M106.318 32.2028H110.137V27.0048H110.184C110.933 28.0116 112.034 28.6204 113.581 28.6204C116.72 28.6204 118.805 26.1384 118.805 22.2516C118.805 18.6458 116.861 15.9062 113.674 15.9062C112.034 15.9062 110.863 16.6321 110.043 17.7092H109.973V16.2575H106.318V32.2028ZM112.597 25.6702C110.957 25.6702 110.02 24.3355 110.02 22.3921C110.02 20.4487 110.863 18.9736 112.526 18.9736C114.166 18.9736 114.94 20.3316 114.94 22.3921C114.94 24.4292 114.049 25.6702 112.597 25.6702Z" fill="white"/>
<path d="M125.023 28.6204C128.162 28.6204 130.482 27.2623 130.482 24.6399C130.482 21.5726 127.998 21.0341 125.89 20.6828C124.367 20.4019 123.008 20.2848 123.008 19.4419C123.008 18.6926 123.734 18.3414 124.671 18.3414C125.726 18.3414 126.452 18.6692 126.592 19.7463H130.107C129.919 17.3814 128.092 15.9062 124.695 15.9062C121.86 15.9062 119.517 17.2175 119.517 19.7463C119.517 22.556 121.743 23.118 123.828 23.4692C125.421 23.7502 126.874 23.8672 126.874 24.9443C126.874 25.717 126.147 26.1384 124.999 26.1384C123.734 26.1384 122.938 25.5531 122.797 24.3589H119.189C119.306 27.0048 121.508 28.6204 125.023 28.6204Z" fill="white"/>
<path d="M135.669 28.5973C137.332 28.5973 138.387 27.9417 139.254 26.771H139.324V28.2461H142.979V16.2578H139.16V22.9544C139.16 24.3827 138.363 25.3661 137.051 25.3661C135.833 25.3661 135.247 24.6403 135.247 23.329V16.2578H131.452V24.1251C131.452 26.7944 132.904 28.5973 135.669 28.5973Z" fill="white"/>
<path d="M144.64 28.2458H148.459V21.5258C148.459 20.0975 149.162 19.0906 150.357 19.0906C151.505 19.0906 152.044 19.8399 152.044 21.1277V28.2458H155.862V21.5258C155.862 20.0975 156.542 19.0906 157.76 19.0906C158.908 19.0906 159.447 19.8399 159.447 21.1277V28.2458H163.266V20.4487C163.266 17.756 161.907 15.9062 159.189 15.9062C157.643 15.9062 156.354 16.5619 155.417 18.0136H155.37C154.761 16.7258 153.566 15.9062 151.997 15.9062C150.263 15.9062 149.115 16.7258 148.365 17.9667H148.295V16.2575H144.64V28.2458Z" fill="white"/>
<path d="M24.8049 1.92855L20.9655 0.900391L17.73 12.9683L14.809 2.07331L10.9695 3.10146L14.1256 14.8727L6.26465 7.01647L3.45401 9.82543L12.0764 18.4428L1.33858 15.5673L0.309814 19.4044L12.0423 22.5462C11.908 21.9672 11.8369 21.3639 11.8369 20.744C11.8369 16.3561 15.3961 12.799 19.7866 12.799C24.1771 12.799 27.7363 16.3561 27.7363 20.744C27.7363 21.3599 27.6661 21.9595 27.5334 22.5351L38.1961 25.3904L39.2248 21.5533L27.4457 18.399L38.1843 15.5233L37.1555 11.6862L25.3768 14.8404L33.2377 6.98421L30.4271 4.17525L21.9242 12.673L24.8049 1.92855Z" fill="#D5EB45"/>
<path d="M27.523 22.5801C27.1938 23.9709 26.4989 25.2204 25.5453 26.2214L33.2699 33.9415L36.0806 31.1326L27.523 22.5801Z" fill="#D5EB45"/>
<path d="M25.4673 26.3018C24.5022 27.2868 23.2827 28.022 21.915 28.4008L24.7259 38.8847L28.5652 37.8565L25.4673 26.3018Z" fill="#D5EB45"/>
<path d="M21.7716 28.4394C21.1371 28.6024 20.472 28.6891 19.7866 28.6891C19.0523 28.6891 18.3413 28.5896 17.6662 28.4033L14.8528 38.8968L18.6922 39.9249L21.7716 28.4394Z" fill="#D5EB45"/>
<path d="M17.5305 28.3644C16.1838 27.9668 14.9859 27.2223 14.0405 26.2344L6.29694 33.9734L9.10757 36.7824L17.5305 28.3644Z" fill="#D5EB45"/>
<path d="M13.976 26.1666C13.0468 25.1725 12.3701 23.9397 12.0479 22.5703L1.35046 25.435L2.37922 29.2721L13.976 26.1666Z" fill="#D5EB45"/>
</g>
<defs>
<clipPath id="clip0_427_4619">
<rect width="164" height="40" fill="white"/>
</clipPath>
</defs>
</svg>
