<svg width="166" height="40" viewBox="0 0 166 40" fill="none" xmlns="http://www.w3.org/2000/svg">
<g clip-path="url(#clip0_444_4544)">
<path d="M50.0713 28.6087H61.7421V25.0965H54.2193V11.8672H50.0713V28.6087Z" fill="#080517"/>
<path d="M68.6563 26.2657C66.9924 26.2657 66.1252 24.8139 66.1252 22.6364C66.1252 20.4588 66.9924 18.9837 68.6563 18.9837C70.3202 18.9837 71.2107 20.4588 71.2107 22.6364C71.2107 24.8139 70.3202 26.2657 68.6563 26.2657ZM68.6797 28.9817C72.5465 28.9817 75.0775 26.2422 75.0775 22.6364C75.0775 19.0305 72.5465 16.291 68.6797 16.291C64.8363 16.291 62.2584 19.0305 62.2584 22.6364C62.2584 26.2422 64.8363 28.9817 68.6797 28.9817Z" fill="#080517"/>
<path d="M81.7707 32.7515C83.5517 32.7515 85.1219 32.3534 86.1765 31.4168C87.1373 30.5505 87.7701 29.2393 87.7701 27.4364V16.6188H84.1142V17.9066H84.0673C83.3643 16.8998 82.2862 16.2676 80.6926 16.2676C77.7164 16.2676 75.6541 18.7495 75.6541 22.2617C75.6541 25.9378 78.1616 27.9515 80.8567 27.9515C82.3097 27.9515 83.2237 27.3661 83.9267 26.57H84.0205V27.7642C84.0205 29.2159 83.3408 30.0588 81.7238 30.0588C80.4583 30.0588 79.8255 29.5203 79.6146 28.8881H75.9118C76.2868 31.3934 78.4663 32.7515 81.7707 32.7515ZM81.7472 25.1183C80.3177 25.1183 79.3803 23.9476 79.3803 22.1447C79.3803 20.3183 80.3177 19.1476 81.7472 19.1476C83.3408 19.1476 84.1845 20.5056 84.1845 22.1212C84.1845 23.8071 83.4111 25.1183 81.7472 25.1183Z" fill="#080517"/>
<path d="M95.2874 26.2657C93.6235 26.2657 92.7563 24.8139 92.7563 22.6364C92.7563 20.4588 93.6235 18.9837 95.2874 18.9837C96.9513 18.9837 97.8414 20.4588 97.8414 22.6364C97.8414 24.8139 96.9513 26.2657 95.2874 26.2657ZM95.3108 28.9817C99.1772 28.9817 101.708 26.2422 101.708 22.6364C101.708 19.0305 99.1772 16.291 95.3108 16.291C91.4674 16.291 88.8895 19.0305 88.8895 22.6364C88.8895 26.2422 91.4674 28.9817 95.3108 28.9817Z" fill="#080517"/>
<path d="M102.824 28.6087H106.644V16.6204H102.824V28.6087ZM102.824 14.9579H106.644V11.8672H102.824V14.9579Z" fill="#080517"/>
<path d="M108.301 32.5642H112.121V27.3661H112.168C112.918 28.3729 114.019 28.9817 115.566 28.9817C118.707 28.9817 120.792 26.4998 120.792 22.6129C120.792 19.0071 118.847 16.2676 115.66 16.2676C114.019 16.2676 112.848 16.9934 112.027 18.0705H111.957V16.6188H108.301V32.5642ZM114.582 26.0315C112.941 26.0315 112.004 24.6968 112.004 22.7534C112.004 20.81 112.848 19.3349 114.512 19.3349C116.152 19.3349 116.925 20.6929 116.925 22.7534C116.925 24.7905 116.035 26.0315 114.582 26.0315Z" fill="#080517"/>
<path d="M127.012 28.9817C130.152 28.9817 132.472 27.6237 132.472 25.0012C132.472 21.9339 129.988 21.3954 127.879 21.0442C126.355 20.7632 124.996 20.6461 124.996 19.8032C124.996 19.0539 125.723 18.7027 126.66 18.7027C127.715 18.7027 128.441 19.0305 128.582 20.1076H132.097C131.91 17.7427 130.082 16.2676 126.683 16.2676C123.848 16.2676 121.504 17.5788 121.504 20.1076C121.504 22.9173 123.731 23.4793 125.816 23.8305C127.41 24.1115 128.863 24.2286 128.863 25.3056C128.863 26.0783 128.136 26.4998 126.988 26.4998C125.723 26.4998 124.926 25.9144 124.785 24.7203H121.176C121.293 27.3661 123.496 28.9817 127.012 28.9817Z" fill="#080517"/>
<path d="M137.661 28.9606C139.325 28.9606 140.379 28.305 141.246 27.1343H141.317V28.6094H144.973V16.6211H141.153V23.3177C141.153 24.746 140.356 25.7294 139.043 25.7294C137.825 25.7294 137.239 25.0035 137.239 23.6923V16.6211H133.442V24.4884C133.442 27.1577 134.895 28.9606 137.661 28.9606Z" fill="#080517"/>
<path d="M146.635 28.6071H150.455V21.8871C150.455 20.4588 151.158 19.452 152.353 19.452C153.501 19.452 154.04 20.2012 154.04 21.489V28.6071H157.86V21.8871C157.86 20.4588 158.54 19.452 159.758 19.452C160.907 19.452 161.446 20.2012 161.446 21.489V28.6071H165.266V20.81C165.266 18.1173 163.906 16.2676 161.188 16.2676C159.641 16.2676 158.352 16.9232 157.415 18.3749H157.368C156.759 17.0871 155.563 16.2676 153.993 16.2676C152.259 16.2676 151.111 17.0871 150.361 18.3281H150.291V16.6188H146.635V28.6071Z" fill="#080517"/>
<path fill-rule="evenodd" clip-rule="evenodd" d="M19.6284 39.3388C30.4143 39.3388 39.1578 30.6029 39.1578 19.8266C39.1578 9.05035 30.4143 0.314453 19.6284 0.314453C8.8426 0.314453 0.098999 9.05035 0.098999 19.8266C0.098999 30.6029 8.8426 39.3388 19.6284 39.3388ZM22.6427 15.3901C24.3074 13.7268 24.3074 11.0301 22.6427 9.3668C20.978 7.70351 18.2789 7.70351 16.6141 9.3668C14.9494 11.0301 14.9494 13.7268 16.6141 15.3901L19.6284 18.4017L22.6427 15.3901ZM24.0689 22.8383C25.7337 24.5016 28.4327 24.5016 30.0975 22.8383C31.7622 21.175 31.7622 18.4783 30.0975 16.815C28.4327 15.1518 25.7337 15.1518 24.0689 16.815L21.0546 19.8267L24.0689 22.8383ZM22.6427 30.2865C24.3074 28.6232 24.3074 25.9265 22.6427 24.2632L19.6284 21.2516L16.6141 24.2632C14.9494 25.9265 14.9494 28.6232 16.6141 30.2865C18.2789 31.9498 20.978 31.9498 22.6427 30.2865ZM9.15931 22.8383C7.49458 21.175 7.49458 18.4783 9.15931 16.815C10.8241 15.1518 13.5232 15.1518 15.188 16.815L18.2022 19.8267L15.188 22.8383C13.5232 24.5016 10.8241 24.5016 9.15931 22.8383Z" fill="#080517"/>
</g>
<defs>
<clipPath id="clip0_444_4544">
<rect width="166" height="40" fill="white"/>
</clipPath>
</defs>
</svg>
