<?xml version="1.0" encoding="utf-8"?>
<!-- Generator: Adobe Illustrator 25.2.1, SVG Export Plug-In . SVG Version: 6.00 Build 0)  -->
<svg version="1.1" id="Layer_1" xmlns="http://www.w3.org/2000/svg" xmlns:xlink="http://www.w3.org/1999/xlink" x="0px" y="0px"
	 viewBox="0 0 140 140" style="enable-background:new 0 0 140 140;" xml:space="preserve">
<style type="text/css">
	.st0{fill:#A0BEE2;}
	.st1{fill:#080517;}
</style>
<circle class="st0" cx="70" cy="70" r="70"/>
<circle class="st1" cx="70" cy="70" r="32.3"/>
<path class="st1" d="M75.1,22.2c-3.1-0.4-4.8-2.7-4.4-6c0.4-3.3,2.5-5.2,5.7-4.8c3.1,0.4,4.6,2.2,4.3,4.8l0,0.1L78.2,16l0-0.1
	c0.2-1.5-0.4-2.1-2-2.3c-1.8-0.2-2.6,0.3-2.9,2.8s0.4,3.2,2.1,3.4c1.7,0.2,2.3-0.2,2.5-1.7l0-0.1l2.5,0.3l0,0.1
	C80.1,21.1,78.2,22.5,75.1,22.2z"/>
<path class="st1" d="M85.6,24.6c-2.4-0.9-3.3-2.9-2.5-5.2c0.8-2.4,2.8-3.4,5.2-2.5c2.4,0.9,3.2,2.9,2.4,5.2
	C89.9,24.4,88,25.4,85.6,24.6z M86.3,22.6c1.2,0.4,1.8,0.1,2.3-1.3c0.5-1.5,0.3-2.1-0.9-2.5c-1.2-0.4-1.8-0.1-2.3,1.3
	C84.8,21.6,85,22.2,86.3,22.6z"/>
<path class="st1" d="M93.3,27.9l-2-1.2l4.1-6.8l1.9,1.1l-0.7,1.2l0.1,0c0.8-0.5,1.9-0.7,3.1,0.1c1.8,1.1,1.8,2.7,0.9,4.1l-2.6,4.3
	l-2-1.2l2.4-3.9c0.6-0.9,0.5-1.5-0.6-2.1c-1-0.6-1.6-0.5-2.2,0.5L93.3,27.9z"/>
<path class="st1" d="M102.6,34.7c-1.5-1.4-1.8-2.6-0.5-4l2.2-2.5l-0.9-0.8l1.3-1.5l1,0.9l1.6-1.1l1.4,1.2l-1.2,1.4l1.7,1.5l-1.3,1.5
	l-1.7-1.5L104,32c-0.5,0.5-0.3,0.7,0.4,1.4l0.7,0.6l-1.3,1.5C103.5,35.4,103,35,102.6,34.7z"/>
<path class="st1" d="M106.6,39c-0.9-1.1-1-2.4,0.1-3.3c1-0.8,2.1-0.6,3.3,0.6l2,1.9l0.2-0.2c0.7-0.6,0.5-1.1,0-1.8
	c-0.6-0.7-1-0.9-1.7-0.4l-0.1,0.1l-1.4-1.8l0.1-0.1c1.5-1.2,3.4-0.8,4.8,0.9c1.5,1.8,1.2,3.6-0.4,4.9l-3.7,2.9l-1.4-1.7l0.8-0.7
	l-0.1-0.1C108.5,40.3,107.5,40.1,106.6,39z M108.3,37.3c-0.3,0.3-0.2,0.6,0.2,1.2c0.6,0.7,1.4,1.4,2.4,0.6l-1.7-1.6
	C108.8,37.2,108.5,37.1,108.3,37.3z"/>
<path class="st1" d="M112.7,48c-1.2-2.3-0.5-4.3,1.8-5.5c2.2-1.2,4.4-0.6,5.6,1.7c1,1.9,0.6,3.8-1.2,4.7l-0.2,0.1l-1.1-2.1l0.1-0.1
	c0.8-0.4,0.8-1,0.4-1.9c-0.5-1-1.2-1.2-2.5-0.5c-1.3,0.7-1.5,1.4-1,2.4c0.5,0.9,1,1.2,1.8,0.8l0.1-0.1l1.1,2.1l-0.2,0.1
	C115.6,50.8,113.7,49.9,112.7,48z"/>
<path class="st1" d="M116.4,56.6c-0.6-2-0.2-3.1,1.6-3.7l3.2-1l-0.4-1.2l1.9-0.6l0.4,1.3l1.9-0.1l0.6,1.8l-1.8,0.6l0.7,2.1l-1.9,0.6
	l-0.7-2.1l-3,1c-0.7,0.2-0.7,0.5-0.3,1.4l0.3,0.9l-1.9,0.6C116.8,57.7,116.6,57.2,116.4,56.6z"/>
<path class="st1" d="M118.2,67.7c-0.2-3.1,1.4-4.7,4-4.9l6.4-0.4l0.1,2.3l-6.4,0.4c-1.5,0.1-2,0.7-1.9,2.4c0.1,1.7,0.6,2.2,2.2,2.1
	l6.4-0.4l0.1,2.4l-6.4,0.4C120.2,72.2,118.4,70.8,118.2,67.7z"/>
<path class="st1" d="M117.8,78.1c0.4-2.5,1.5-3.5,3.4-3.2l0,0l-0.3,2.2l-0.3,0c-0.6-0.1-0.8,0.2-0.9,1.4c-0.1,1,0,1.1,0.4,1.2
	c0.4,0.1,0.5-0.1,0.9-1.2l0.4-1.2c0.5-1.5,1.3-2.2,2.7-2s2.3,1.5,2,3.8c-0.3,1.9-1.4,3.2-3.2,3l-0.2,0l0.3-2.2l0.2,0
	c0.5,0.1,0.8-0.1,1-1.1c0.1-0.9,0-1.2-0.4-1.2c-0.4-0.1-0.5,0.1-0.8,1l-0.5,1.4c-0.6,1.6-1.4,2.2-2.7,2
	C118.3,81.6,117.5,80.2,117.8,78.1z"/>
<path class="st1" d="M121.4,91.1l-0.9-1.3l1.4-0.9l0.8,1.4l0.1,0l0.9-1.3l1.3,1.1l-1.1,1.2l0.1,0.1l1.5,0.5l-0.6,1.6l-1.4-0.7
	l-0.1,0.1l0,1.6l-1.7-0.1l0.2-1.6l-0.1-0.1l-1.5,0.5l-0.4-1.6l1.6-0.3L121.4,91.1z"/>
<path class="st1" d="M108.4,100.5c1.9-2.5,4.8-2.7,7.4-0.7c2.6,2,3.2,4.8,1.3,7.3c-1.9,2.5-4.2,2.8-6.3,1.3l-0.1-0.1l1.5-2l0.1,0
	c1.2,0.9,2,0.7,3-0.6c1.1-1.4,1-2.4-1-3.9c-2-1.5-3-1.3-4,0.1c-1,1.3-1,2.1,0.2,3.1l0.1,0l-1.5,2l-0.1-0.1
	C106.8,105.3,106.5,103,108.4,100.5z"/>
<path class="st1" d="M101,108.3c2-1.6,4.1-1.4,5.8,0.5c1.6,1.9,1.5,4.1-0.4,5.8c-1.9,1.6-4.1,1.4-5.7-0.6
	C99,112.1,99.1,109.9,101,108.3z M102.4,109.9c-1,0.8-1,1.5,0,2.7c1,1.2,1.7,1.3,2.6,0.5c1-0.8,1-1.5,0-2.7
	C104,109.1,103.4,109,102.4,109.9z"/>
<path class="st1" d="M94.3,113.3l2.1-1.1l3.8,7l-1.9,1l-0.7-1.2l-0.1,0c0.1,1-0.4,2-1.6,2.6c-1.8,1-3.2,0.2-4.1-1.3l-2.4-4.4
	l2.1-1.1l2.2,4c0.5,1,1,1.1,2.1,0.6c1-0.5,1.3-1.1,0.7-2.1L94.3,113.3z"/>
<path class="st1" d="M83.8,117.9c2-0.6,3.1-0.2,3.7,1.5l1.1,3.2l1.2-0.4l0.6,1.9l-1.3,0.4l0.2,1.9l-1.8,0.6l-0.6-1.8l-2.1,0.7
	l-0.6-1.9l2.1-0.7l-1-2.9c-0.2-0.7-0.5-0.7-1.4-0.3l-0.9,0.3l-0.6-1.9C82.7,118.3,83.3,118.1,83.8,117.9z"/>
<path class="st1" d="M78,119.2c1.4-0.2,2.6,0.4,2.8,1.8c0.2,1.2-0.6,2.1-2.2,2.6l-2.6,0.8l0,0.2c0.1,0.9,0.7,1,1.6,0.9
	c1-0.1,1.3-0.5,1.2-1.3l0-0.2l2.2-0.3l0,0.2c0.3,1.9-1,3.3-3.2,3.6c-2.3,0.3-3.7-0.7-4-2.8l-0.7-4.6l2.2-0.3l0.2,1.1l0.1,0
	C75.9,120.2,76.6,119.4,78,119.2z M78.6,121.5c-0.1-0.4-0.4-0.5-1.1-0.4c-1,0.1-1.9,0.5-1.7,1.8l2.2-0.7
	C78.5,122,78.7,121.8,78.6,121.5z"/>
<path class="st1" d="M67,119.9c2.6,0.1,3.9,1.8,3.8,4.3c-0.1,2.5-1.7,4.1-4.3,4c-2.1-0.1-3.6-1.5-3.5-3.4l0-0.2l2.4,0.1l0,0.1
	c0,0.9,0.5,1.2,1.4,1.3c1.1,0.1,1.6-0.5,1.7-1.9c0.1-1.5-0.4-2-1.5-2.1c-1,0-1.5,0.2-1.5,1.1l0,0.1l-2.4-0.1l0-0.2
	C63.2,121,64.9,119.8,67,119.9z"/>
<path class="st1" d="M57.7,118.7c2,0.4,2.8,1.4,2.4,3.2l-0.7,3.3l1.2,0.3l-0.4,1.9l-1.3-0.3l-0.8,1.7l-1.8-0.4l0.4-1.8l-2.2-0.5
	l0.4-1.9l2.2,0.5l0.7-3c0.1-0.7-0.1-0.8-1.1-1l-1-0.2l0.4-1.9C56.6,118.6,57.2,118.6,57.7,118.7z"/>
<path class="st1" d="M47.2,114.8c2.7,1.4,3.4,3.6,2.2,5.9l-2.9,5.8l-2.1-1.1l2.9-5.7c0.7-1.3,0.4-2-1.1-2.8
	c-1.5-0.8-2.3-0.6-2.9,0.8l-2.9,5.7l-2.1-1.1l2.9-5.8C42.4,114.1,44.5,113.4,47.2,114.8z"/>
<path class="st1" d="M38.6,109.2c1.9,1.6,2.3,3,1.1,4.5l0,0l-1.8-1.4l0.2-0.3c0.4-0.5,0.2-0.8-0.7-1.5c-0.8-0.6-1-0.6-1.2-0.3
	c-0.3,0.3-0.2,0.5,0.6,1.4l0.8,0.9c1,1.2,1.3,2.2,0.4,3.4c-0.9,1.1-2.5,1.2-4.3-0.2c-1.5-1.2-2.1-2.8-1-4.2l0.1-0.2l1.8,1.4
	l-0.1,0.2c-0.3,0.4-0.3,0.8,0.5,1.4c0.7,0.6,1,0.6,1.3,0.3c0.2-0.3,0.2-0.5-0.4-1.2l-0.9-1.1c-1.1-1.3-1.2-2.3-0.4-3.3
	C35.3,107.8,36.8,107.8,38.6,109.2z"/>
<path class="st1" d="M25.5,105.7l1.6-0.2l0.1,1.7l-1.6-0.1l-0.1,0.1l0.6,1.5l-1.6,0.6l-0.4-1.6l-0.2,0l-1.2,1.1l-1-1.3l1.3-0.9
	l0-0.2l-1.4-0.8l1-1.4l1.2,1l0.1,0l0.3-1.6l1.6,0.5l-0.6,1.5L25.5,105.7z"/>
<path class="st1" d="M23.9,89.8c1.2,2.9,0,5.5-3.1,6.8s-5.7,0.3-7-2.6c-1.2-2.9-0.3-5.1,2.1-6.1l0.1-0.1l1,2.3l-0.1,0
	c-1.4,0.6-1.6,1.4-1,2.9c0.7,1.6,1.6,2.1,3.9,1.1s2.6-1.9,1.9-3.5c-0.6-1.5-1.4-1.9-2.8-1.3l-0.1,0L18,87l0.1-0.1
	C20.5,85.9,22.7,86.9,23.9,89.8z"/>
<path class="st1" d="M20.9,79.5c0.4,2.5-0.9,4.3-3.4,4.7c-2.5,0.4-4.3-0.8-4.8-3.3c-0.4-2.5,0.9-4.2,3.4-4.7
	C18.6,75.8,20.4,77,20.9,79.5z M18.8,79.8c-0.2-1.3-0.8-1.6-2.3-1.3c-1.5,0.3-1.9,0.8-1.7,2c0.2,1.3,0.8,1.6,2.3,1.4
	C18.6,81.6,19,81.1,18.8,79.8z"/>
<path class="st1" d="M19.9,71l-0.1,2.3l-7.9-0.3l0.1-2.2l1.4,0l0-0.1c-0.9-0.5-1.5-1.3-1.5-2.7c0.1-2.1,1.5-2.9,3.2-2.8l5,0.2
	L20,67.9l-4.6-0.1c-1.1,0-1.5,0.3-1.5,1.5c0,1.1,0.3,1.6,1.5,1.7L19.9,71z"/>
<path class="st1" d="M21.3,59.7c-0.4,2-1.4,2.8-3.2,2.4l-3.3-0.7l-0.3,1.2l-1.9-0.4l0.3-1.3l-1.7-0.8l0.4-1.8l1.8,0.4l0.5-2.2
	l1.9,0.4l-0.5,2.2l3,0.6c0.7,0.1,0.8-0.1,1-1.1l0.2-1l1.9,0.4C21.4,58.5,21.4,59.2,21.3,59.7z"/>
<path class="st1" d="M23,54.1c-0.5,1.3-1.6,2-2.9,1.5C19,55.1,18.6,54,19,52.4l0.6-2.7l-0.2-0.1c-0.9-0.3-1.2,0.1-1.6,0.9
	c-0.4,0.9-0.2,1.3,0.5,1.6l0.2,0.1l-0.8,2.1l-0.2-0.1c-1.8-0.7-2.4-2.5-1.5-4.6c0.9-2.2,2.5-2.8,4.5-2l4.4,1.7l-0.8,2l-1-0.4l0,0.1
	C23.3,51.7,23.6,52.7,23,54.1z M20.8,53.4c0.4,0.2,0.6-0.1,0.9-0.7c0.4-0.9,0.5-1.9-0.6-2.4l-0.5,2.2C20.4,53,20.5,53.3,20.8,53.4z"
	/>
<path class="st1" d="M27.9,44.3c-1.4,2.2-3.5,2.5-5.6,1.1c-2.1-1.4-2.7-3.5-1.2-5.7c1.1-1.8,3.1-2.4,4.7-1.3l0.2,0.1l-1.3,2
	l-0.1-0.1c-0.8-0.5-1.3-0.2-1.8,0.6c-0.6,1-0.4,1.7,0.8,2.5c1.2,0.8,1.9,0.7,2.6-0.3c0.5-0.8,0.6-1.4-0.2-1.9l-0.1-0.1l1.3-2
	l0.2,0.1C28.9,40.4,29.1,42.5,27.9,44.3z"/>
<path class="st1" d="M33.7,36.9c-1.4,1.5-2.6,1.7-4,0.5L27.2,35L26.3,36l-1.4-1.3l0.9-1l-1.1-1.6l1.3-1.4l1.4,1.2l1.5-1.6l1.4,1.3
	l-1.5,1.6l2.3,2.1c0.5,0.5,0.7,0.3,1.4-0.4l0.7-0.7l1.4,1.3C34.4,35.9,34,36.4,33.7,36.9z"/>
<path class="st1" d="M42.4,29.8c-2.6,1.7-4.8,1.2-6.2-1.1l-3.5-5.4l2-1.3l3.5,5.4c0.8,1.3,1.5,1.4,3,0.4c1.5-0.9,1.6-1.7,0.8-2.9
	l-3.5-5.4l2-1.3l3.5,5.4C45.4,25.9,45,28.1,42.4,29.8z"/>
<path class="st1" d="M51.5,25.1c-2.3,0.9-3.8,0.5-4.5-1.3l0,0l2.1-0.8l0.1,0.3c0.2,0.5,0.6,0.5,1.7,0.1c0.9-0.3,1-0.5,0.9-0.9
	c-0.2-0.4-0.4-0.4-1.4-0.2l-1.2,0.2c-1.6,0.3-2.6,0-3.1-1.4c-0.5-1.4,0.2-2.8,2.3-3.6c1.8-0.7,3.5-0.4,4.2,1.3l0.1,0.2l-2.1,0.8
	l-0.1-0.2c-0.2-0.5-0.5-0.7-1.4-0.3c-0.9,0.3-1,0.6-0.9,1c0.1,0.4,0.3,0.4,1.3,0.2l1.5-0.2c1.7-0.3,2.6,0.1,3.1,1.4
	C54.4,23,53.6,24.3,51.5,25.1z"/>
<path class="st1" d="M61.1,15.6L60.4,17L59,16.2l0.9-1.4l-0.1-0.1l-1.6-0.2l0.3-1.7l1.6,0.4l0.1-0.1l-0.3-1.6l1.7-0.2l0.1,1.6
	l0.1,0.1l1.4-0.8l0.7,1.5l-1.5,0.6l0,0.1l1.2,1.1l-1.2,1.2l-1-1.2L61.1,15.6z"/>
<g>
	<path class="st0" d="M41,75.2c0,0,3-11.4,12.9-14.1c4.1-1.1,7.9-0.3,10.8,1.1c3.9,1.9,7.2,5.4,7.2,5.4s1.6,1.7,4.2,3.9
		c3.9,3.3,10.8,6.1,17.8,1.7c0,0-3.8,7.3-15.7,4.1C65.6,72.7,55.5,59.5,41,75.2z"/>
	<path class="st0" d="M46.2,76.1c0,0,4.9-5.7,15.6-2.7c5.1,1.4,7.6,2.3,12.3,3.8c10.2,3.2,15.9,2.5,26.1-3.3c0,0-6.6,13.8-24.1,7.3
		C60.5,75.2,56.1,71,46.2,76.1z"/>
	<path class="st0" d="M53.9,76.7c0,0,3.8-1.6,9.2,1c5.5,2.6,7.7,3.7,11.2,3.7c0,0-5.9,1.6-12.2-1.8C55.8,76.3,53.9,76.7,53.9,76.7z"
		/>
</g>
</svg>
