<svg width="20" height="20" viewBox="0 0 20 20" fill="none" xmlns="http://www.w3.org/2000/svg">
<path d="M17.165 13.8934C16.7972 13.4277 15.868 12.8975 14.4133 12.318C14.389 12.2278 14.3386 12.1468 14.2683 12.0853C14.198 12.0237 14.111 11.9844 14.0183 11.9723C13.558 11.9046 13.0844 11.5499 12.5135 11.4661C12.4424 11.4554 12.3699 11.4604 12.3009 11.4806C12.2733 11.156 12.2531 10.9415 12.164 10.3626C12.6971 9.84432 13.0656 9.18047 13.2237 8.45397C13.5485 8.23191 13.7844 7.90219 13.8896 7.52307C13.9949 7.14394 13.9628 6.73981 13.799 6.38207C14.0273 5.42655 13.9641 4.42454 13.6176 3.50524C13.8605 3.2316 14.0207 2.89465 14.0797 2.53356C14.0897 2.46964 14.0846 2.40429 14.065 2.34266C14.0453 2.28103 14.0116 2.22481 13.9665 2.17845C13.9214 2.1321 13.8661 2.09687 13.805 2.07556C13.744 2.05424 13.6788 2.04743 13.6146 2.05565C13.0729 2.14026 12.5185 2.04518 12.0359 1.78496C10.7988 1.27817 9.41204 1.27806 8.17484 1.78465C7.67019 2.04047 7.22747 2.40339 6.87763 2.84806C6.52779 3.29273 6.27925 3.80842 6.14939 4.35911C5.95379 5.07178 5.95427 5.82404 6.15078 6.53646C6.03995 6.89581 6.05016 7.2816 6.17986 7.63458C6.30956 7.98755 6.55156 8.28818 6.86869 8.49028C7.03283 9.18984 7.37819 9.83389 7.87008 10.3577C7.78574 10.9031 7.76116 11.1434 7.7312 11.4932C7.65293 11.4638 7.56854 11.4545 7.48573 11.466C6.92639 11.5485 6.42339 11.8403 5.9449 11.9104C5.84013 11.924 5.74302 11.9726 5.66925 12.0482C5.59548 12.1238 5.54936 12.2221 5.53834 12.3272C4.16566 12.865 3.28275 13.3617 2.92426 13.8034C2.19307 14.7049 1.93154 17.897 1.90407 18.258C1.89836 18.3403 1.92543 18.4216 1.97937 18.484C2.03331 18.5464 2.10975 18.585 2.19202 18.5913C2.27428 18.5975 2.35569 18.571 2.41849 18.5175C2.48129 18.464 2.52038 18.3879 2.52724 18.3056C2.59773 17.3785 2.89345 14.8337 3.4095 14.1971C3.5714 13.9978 4.0754 13.5809 5.63919 12.9575C5.89774 14.4547 5.95357 16.5777 4.53468 17.102C4.43621 17.137 4.35206 17.2036 4.29532 17.2913C4.23858 17.3791 4.21244 17.4831 4.22096 17.5873C4.24385 17.8155 4.2643 18.0377 4.28352 18.2541C4.29145 18.3361 4.33148 18.4117 4.39488 18.4644C4.45828 18.5171 4.53993 18.5426 4.62204 18.5353C4.70415 18.5281 4.78008 18.4887 4.83328 18.4257C4.88648 18.3627 4.91264 18.2813 4.90608 18.1991C4.89021 18.0188 4.87312 17.8348 4.85481 17.6471C6.63356 16.8935 6.57587 14.3938 6.18965 12.5009C6.63153 12.4065 7.04455 12.2008 7.43233 12.1118C7.50733 12.6294 7.62866 13.1393 7.79488 13.6352C8.20045 14.9118 9.04579 15.7049 10.0013 15.7049C10.9696 15.7046 11.7936 14.931 12.2053 13.6352C12.3712 13.1401 12.4924 12.631 12.5675 12.1142C12.9437 12.2133 13.3322 12.4595 13.7751 12.5616C13.3995 14.4251 13.3875 16.8995 15.1453 17.6471C15.127 17.8351 15.1099 18.0191 15.0941 18.1991C15.0875 18.2813 15.1137 18.3627 15.1669 18.4257C15.2201 18.4887 15.296 18.5281 15.3781 18.5353C15.4602 18.5426 15.5419 18.5171 15.6053 18.4644C15.6687 18.4117 15.7087 18.3361 15.7166 18.2541C15.7359 18.0377 15.7563 17.8155 15.7792 17.586C15.7875 17.482 15.7612 17.3781 15.7043 17.2905C15.6475 17.2029 15.5633 17.1365 15.4649 17.1017C14.0474 16.5792 14.081 14.4515 14.3375 12.9592C15.9853 13.6291 16.5088 14.0705 16.6743 14.2804C17.1684 14.9066 17.418 17.3947 17.4726 18.3005C17.4775 18.3832 17.5151 18.4605 17.5771 18.5155C17.6391 18.5705 17.7204 18.5987 17.8031 18.5937C17.8858 18.5888 17.9632 18.5512 18.0182 18.4892C18.0732 18.4272 18.1013 18.3459 18.0964 18.2632C18.0753 17.9098 17.8687 14.7854 17.165 13.8934ZM6.75148 4.52665C6.85533 4.062 7.06049 3.62601 7.35233 3.24983C7.64416 2.87364 8.01546 2.56653 8.43972 2.35044C9.61983 1.79808 11.1906 2.07732 11.7899 2.35991C12.284 2.60838 12.8331 2.72754 13.3857 2.70628C13.3294 2.87032 13.2319 3.01712 13.1025 3.13261C13.0353 3.1879 12.9875 3.26329 12.9663 3.3477C12.945 3.43212 12.9514 3.52113 12.9844 3.60167C13.3093 4.3948 13.3927 5.26619 13.2243 6.10656C12.9363 5.66632 12.7781 5.15392 12.7677 4.62798C12.7662 4.5638 12.7498 4.50084 12.72 4.444C12.6901 4.38717 12.6476 4.33799 12.5956 4.30031C12.5436 4.26263 12.4836 4.23745 12.4203 4.22674C12.357 4.21603 12.2921 4.22008 12.2306 4.23858C11.5195 4.44626 10.7833 4.55531 10.0425 4.56267C9.26298 4.56989 8.48643 4.46589 7.73628 4.25383C7.67559 4.23603 7.61164 4.2323 7.54929 4.24292C7.48694 4.25355 7.42784 4.27824 7.37646 4.31514C7.32509 4.35203 7.28281 4.40015 7.25283 4.45584C7.22285 4.51153 7.20596 4.57333 7.20344 4.63652C7.18282 5.15887 7.00213 5.66225 6.68586 6.07848C6.58966 5.56293 6.6121 5.03224 6.75148 4.52665ZM7.45247 8.23149C7.44351 8.18583 7.42448 8.14274 7.39677 8.10536C7.36905 8.06798 7.33335 8.03726 7.29225 8.01542C7.09382 7.91283 6.93165 7.75181 6.82765 7.55411C6.72365 7.35641 6.68282 7.13155 6.71069 6.90991C7.01322 6.81048 7.68795 5.916 7.80738 4.92003C8.54026 5.10406 9.29359 5.194 10.0492 5.18767C10.7609 5.18039 11.4691 5.0862 12.158 4.90721C12.254 5.90167 12.9036 7.00329 13.3298 6.99063C13.3358 7.1945 13.2871 7.39627 13.1889 7.57504C13.0908 7.75382 12.9466 7.90312 12.7714 8.0075C12.7349 8.03112 12.7037 8.06211 12.6798 8.09847C12.656 8.13483 12.6399 8.17578 12.6328 8.21868C12.1621 11.0571 8.14317 11.7615 7.45247 8.23149ZM10.0013 15.0799C9.32778 15.0799 8.71071 14.4537 8.39058 13.446C8.24461 13.015 8.13509 12.5726 8.06317 12.1233L8.10707 12.1103C8.16853 12.0923 8.22301 12.056 8.26313 12.0061C8.30325 11.9562 8.32707 11.8952 8.33138 11.8313C8.37138 11.2333 8.39393 11.1581 8.4343 10.8455C9.37293 11.453 10.66 11.3285 11.5914 10.7874C11.6155 10.9686 11.7024 11.5871 11.7024 11.8304C11.7073 11.8931 11.731 11.9528 11.7703 12.0019C11.8097 12.0509 11.8629 12.087 11.923 12.1054L11.9385 12.1102C11.8673 12.5641 11.7573 13.011 11.6096 13.446C11.2895 14.4537 10.6733 15.0796 10.0013 15.0799Z" fill="#080517"/>
</svg>
