<svg width="20" height="20" viewBox="0 0 20 20" fill="none" xmlns="http://www.w3.org/2000/svg">
<g clip-path="url(#clip0_613_459)">
<path d="M17.1875 20H2.8125C2.06658 20 1.35121 19.7037 0.823762 19.1762C0.296316 18.6488 0 17.9334 0 17.1875L0 2.8125C0 2.06658 0.296316 1.35121 0.823762 0.823762C1.35121 0.296316 2.06658 0 2.8125 0L17.1875 0C17.9334 0 18.6488 0.296316 19.1762 0.823762C19.7037 1.35121 20 2.06658 20 2.8125V17.1875C20 17.9334 19.7037 18.6488 19.1762 19.1762C18.6488 19.7037 17.9334 20 17.1875 20ZM2.8125 0.625C2.23234 0.625 1.67594 0.855468 1.2657 1.2657C0.855468 1.67594 0.625 2.23234 0.625 2.8125V17.1875C0.625 17.7677 0.855468 18.3241 1.2657 18.7343C1.67594 19.1445 2.23234 19.375 2.8125 19.375H17.1875C17.7677 19.375 18.3241 19.1445 18.7343 18.7343C19.1445 18.3241 19.375 17.7677 19.375 17.1875V2.8125C19.375 2.23234 19.1445 1.67594 18.7343 1.2657C18.3241 0.855468 17.7677 0.625 17.1875 0.625H2.8125Z" fill="#080517"/>
<path d="M16.2859 4.50615C15.4861 3.63627 14.5144 2.94186 13.4324 2.46685C12.3504 1.99184 11.1816 1.74658 9.99995 1.74658C8.81827 1.74658 7.64945 1.99184 6.56745 2.46685C5.48544 2.94186 4.51381 3.63627 3.71401 4.50615C3.6628 4.56174 3.63347 4.63401 3.63146 4.70957C3.62945 4.78512 3.65489 4.85885 3.70307 4.91709L6.20307 7.9374C6.22812 7.97195 6.25998 8.001 6.29669 8.02277C6.3334 8.04454 6.37418 8.05855 6.41651 8.06395C6.45885 8.06936 6.50184 8.06603 6.54284 8.05418C6.58383 8.04233 6.62197 8.02221 6.6549 7.99506C6.68782 7.96791 6.71484 7.9343 6.73427 7.89631C6.75371 7.85832 6.76516 7.81674 6.76792 7.77416C6.77068 7.73157 6.76468 7.68887 6.7503 7.64869C6.73593 7.6085 6.71347 7.57169 6.68432 7.54052L4.36713 4.72802C5.77961 3.30033 7.68077 2.46114 9.68745 2.37959V3.1249C9.68745 3.20778 9.72037 3.28726 9.77898 3.34587C9.83758 3.40447 9.91707 3.4374 9.99995 3.4374C10.0828 3.4374 10.1623 3.40447 10.2209 3.34587C10.2795 3.28726 10.3124 3.20778 10.3124 3.1249V2.37959C12.3214 2.46122 14.2245 3.30222 15.6374 4.73271L13.3046 7.55927C13.2772 7.59071 13.2563 7.62732 13.2432 7.66695C13.2302 7.70658 13.2252 7.74843 13.2285 7.79002C13.2319 7.83162 13.2436 7.87212 13.2628 7.90913C13.2821 7.94615 13.3086 7.97893 13.3407 8.00554C13.3729 8.03215 13.41 8.05206 13.45 8.06408C13.4899 8.0761 13.5319 8.08 13.5734 8.07554C13.6149 8.07109 13.6551 8.05836 13.6916 8.03812C13.7281 8.01789 13.7601 7.99054 13.7859 7.95771L16.2968 4.91709C16.345 4.85885 16.3704 4.78512 16.3684 4.70957C16.3664 4.63401 16.3371 4.56174 16.2859 4.50615Z" fill="#080517"/>
<path d="M11.3453 7.45612L10.2828 5.17956C10.2576 5.12587 10.2176 5.08048 10.1675 5.04868C10.1174 5.01688 10.0593 5 9.99999 5C9.94067 5 9.88257 5.01688 9.83249 5.04868C9.78241 5.08048 9.74241 5.12587 9.71718 5.17956L8.65468 7.45612C8.03597 7.67307 7.47897 8.03654 7.03124 8.5155C6.97447 8.576 6.94405 8.65658 6.94669 8.7395C6.94933 8.82243 6.9848 8.90091 7.0453 8.95768C7.10581 9.01446 7.18638 9.04487 7.26931 9.04223C7.35223 9.0396 7.43072 9.00412 7.48749 8.94362C7.81014 8.59984 8.19983 8.32583 8.6325 8.13853C9.06517 7.95122 9.53164 7.85458 10.0031 7.85458C10.4746 7.85458 10.9411 7.95122 11.3737 8.13853C11.8064 8.32583 12.1961 8.59984 12.5187 8.94362C12.5776 8.99307 12.6526 9.01909 12.7294 9.01672C12.8062 9.01435 12.8795 8.98376 12.9352 8.93078C12.9909 8.8778 13.0251 8.80616 13.0313 8.72955C13.0375 8.65294 13.0152 8.57673 12.9687 8.5155C12.521 8.03654 11.964 7.67307 11.3453 7.45612ZM9.43124 7.26862L9.99999 6.05143L10.5687 7.26862C10.1914 7.21653 9.80862 7.21653 9.43124 7.26862Z" fill="#080517"/>
</g>
<defs>
<clipPath id="clip0_613_459">
<rect width="20" height="20" fill="white"/>
</clipPath>
</defs>
</svg>
