<?xml version="1.0" encoding="utf-8"?>
<!-- Generator: Adobe Illustrator 25.2.1, SVG Export Plug-In . SVG Version: 6.00 Build 0)  -->
<svg version="1.1" id="Layer_1" xmlns="http://www.w3.org/2000/svg" xmlns:xlink="http://www.w3.org/1999/xlink" x="0px" y="0px"
	 viewBox="0 0 198.4 198.4" style="enable-background:new 0 0 198.4 198.4;" xml:space="preserve">
<style type="text/css">
	.st0{fill:#000000;}
</style>
<g>
	<path class="st0" d="M166.2,170.1c-30.1,34.9-101.6,35.7-133.8,0c-0.5,0.3-1,0.5-1.5,0.9c-7.5,4.7-16.5,4.1-22.9-1.6
		c-6.4-5.7-8.4-14.7-4.6-22.5c7.1-14.6,16.1-27.9,27.5-39.5c9.3-9.5,19.7-17.5,31.6-23.6c0.4-0.2,0.8-0.5,1.3-0.8
		c-3.9-5.4-6.8-11.1-8.1-17.6c-0.5-2.8-1-5.6-1-8.4c0-8.7-0.7-17.5,0.4-26.1C57,15.3,69.5,3.6,85.3,2.3c9.9-0.8,20-0.7,29.9,0.3
		c15.5,1.6,28,15.6,28.5,31.2c0.3,8.6,0.3,17.2-0.1,25.8c-0.4,8.6-3.7,16.3-8.9,23.4c2.7,1.5,5.3,2.9,7.8,4.4
		c21.8,13.1,37.7,31.7,49.6,53.9c1.7,3.1,3.5,6.3,4.3,9.7c1.8,8-0.8,14.8-7.5,19.5c-6.8,4.8-14,4.8-21.2,0.6
		C167.2,170.8,166.7,170.5,166.2,170.1z M176.5,166.4c10,0.1,15.6-8.5,11.6-16.4c-3.1-6.1-6.5-12.1-10.3-17.8
		C166,114.3,151,99.8,131.8,90c-1.8-0.9-2.9-0.8-4.5,0.5c-16.3,13.3-39.5,13.4-55.8,0.3c-1.8-1.5-3.1-1.7-5.2-0.6
		c-25.9,13.5-43.5,34.7-56.2,60.5c-2.6,5.3-0.1,11.6,4.9,14.4c5.2,2.8,11.7,1.2,15.1-3.8c1-1.4,1.7-3,2.5-4.6
		c5.4-10.3,12-19.7,20-28.1c2.7-2.8,5.7-2.4,7,0.8c2.9,7.4,8.2,12.5,15.2,15.9c12.6,6.2,25.8,6.6,39.1,3.6
		c11.4-2.6,20.6-8.4,25.2-19.9c1-2.4,3.9-3,6-1.2c1.3,1.1,2.4,2.5,3.6,3.8c7.6,8.5,13.7,18,18.9,28.2
		C169.6,164.1,173.1,166.3,176.5,166.4z M143.5,137.6c-4.1,6.4-9.2,11.1-15.6,14.4c-11.5,6-23.8,7.1-36.4,5.9
		c-14.9-1.4-27.6-7.1-36.3-19.9c-0.1-0.1-0.3-0.1-0.6-0.1c-6.6,7.6-12.2,15.9-16.6,25.1c-0.3,0.6,0.2,2.1,0.7,2.7
		c5.5,5.9,11.9,10.7,19.1,14.1c23.4,11.1,47.5,11.8,71.9,4.4c11.4-3.4,21.3-9.7,29.5-18.4c0.6-0.7,1.2-2.2,0.9-2.9
		C155.9,153.8,150.4,145.5,143.5,137.6z M62.3,58.8c0.2,1.4,0.4,2.5,0.6,3.5C66.1,80.3,82,93.5,99.8,93
		c18.6-0.5,33.8-14.1,36.2-32.5c0.2-1.4,0.4-3.2-0.3-4.2c-3.6-5.7-7.5-11.2-11.4-16.9c-3.8,4.3-8.2,7-13.7,8c-3.7,0.6-5.6-1-5.3-4.8
		c0.1-1.8,0.4-3.5,0.7-6C93,47.9,78.1,53.9,62.3,58.8z M62.6,50.7c11.1-3.5,21.9-7.8,31.5-14.4c4.8-3.3,9.2-7,12.2-12.1
		c1.2-1.9,2.4-3.6,4.9-3c2.8,0.6,3,2.9,3,5.2c0,3.9,0,7.7,0,11.6c2.7-1.4,4.6-3.9,6-6.8c1.6-3.2,4.6-3.7,6.8-1.1
		c0.6,0.8,1.2,1.6,1.7,2.5c2.3,3.3,4.5,6.7,6.8,10c0.5-2.8,0.6-5.5,0.5-8.1c-0.6-12.1-9.6-22.9-21.6-24.1c-9.7-1-19.6-1.1-29.3-0.3
		c-11.8,1-20.9,9.8-22.5,21.1C61.8,37.5,62.6,43.9,62.6,50.7z"/>
</g>
</svg>
