<svg width="24" height="24" viewBox="0 0 24 24" fill="none" xmlns="http://www.w3.org/2000/svg">
<path d="M20.5717 3.42847H22.286C22.5133 3.42847 22.7313 3.51877 22.8921 3.67952C23.0528 3.84026 23.1431 4.05828 23.1431 4.28561V17.9999C23.1431 18.2272 23.0528 18.4452 22.8921 18.606C22.7313 18.7667 22.5133 18.857 22.286 18.857H1.71456C1.48724 18.857 1.26922 18.7667 1.10847 18.606C0.947728 18.4452 0.857422 18.2272 0.857422 17.9999V4.28561C0.857422 4.05828 0.947728 3.84026 1.10847 3.67952C1.26922 3.51877 1.48724 3.42847 1.71456 3.42847H3.42885" stroke="#080517" stroke-width="1.5" stroke-linecap="round" stroke-linejoin="round"/>
<path d="M10.2866 18.8569L8.57227 23.1426" stroke="#080517" stroke-width="1.5" stroke-linecap="round" stroke-linejoin="round"/>
<path d="M13.7148 18.8569L15.4291 23.1426" stroke="#080517" stroke-width="1.5" stroke-linecap="round" stroke-linejoin="round"/>
<path d="M6.85742 23.1428H17.1431" stroke="#080517" stroke-width="1.5" stroke-linecap="round" stroke-linejoin="round"/>
<path d="M12.0508 3.42847V5.9999" stroke="#080517" stroke-width="1.5" stroke-linecap="round" stroke-linejoin="round"/>
<path d="M6.85742 6.42847L9.08599 7.71418" stroke="#080517" stroke-width="1.5" stroke-linecap="round" stroke-linejoin="round"/>
<path d="M6.85742 12.4285L9.08599 11.1428" stroke="#080517" stroke-width="1.5" stroke-linecap="round" stroke-linejoin="round"/>
<path d="M12.0508 15.4284V12.8569" stroke="#080517" stroke-width="1.5" stroke-linecap="round" stroke-linejoin="round"/>
<path d="M17.2461 12.4285L15.0176 11.1428" stroke="#080517" stroke-width="1.5" stroke-linecap="round" stroke-linejoin="round"/>
<path d="M17.2461 6.42847L15.0176 7.71418" stroke="#080517" stroke-width="1.5" stroke-linecap="round" stroke-linejoin="round"/>
<path d="M12.0516 12.8571C13.9452 12.8571 15.4802 11.3221 15.4802 9.42857C15.4802 7.53502 13.9452 6 12.0516 6C10.1581 6 8.62305 7.53502 8.62305 9.42857C8.62305 11.3221 10.1581 12.8571 12.0516 12.8571Z" stroke="#080517" stroke-width="1.5" stroke-linecap="round" stroke-linejoin="round"/>
</svg>
