<svg width="24" height="24" viewBox="0 0 24 24" fill="none" xmlns="http://www.w3.org/2000/svg">
<path d="M5.99979 6.85742H2.57122C1.62445 6.85742 0.856934 7.62493 0.856934 8.57171V15.4289C0.856934 16.3756 1.62445 17.1431 2.57122 17.1431H5.99979C6.94656 17.1431 7.71408 16.3756 7.71408 15.4289V8.57171C7.71408 7.62493 6.94656 6.85742 5.99979 6.85742Z" stroke="#080517" stroke-width="1.5" stroke-linecap="round" stroke-linejoin="round"/>
<path d="M21.4284 6.85742H17.9998C17.053 6.85742 16.2855 7.62493 16.2855 8.57171V15.4289C16.2855 16.3756 17.053 17.1431 17.9998 17.1431H21.4284C22.3752 17.1431 23.1427 16.3756 23.1427 15.4289V8.57171C23.1427 7.62493 22.3752 6.85742 21.4284 6.85742Z" stroke="#080517" stroke-width="1.5" stroke-linecap="round" stroke-linejoin="round"/>
<path d="M7.71387 12H16.2853" stroke="#080517" stroke-width="1.5" stroke-linecap="round" stroke-linejoin="round"/>
</svg>
