<?xml version="1.0" encoding="utf-8"?>
<!-- Generator: Adobe Illustrator 25.2.1, SVG Export Plug-In . SVG Version: 6.00 Build 0)  -->
<svg version="1.1" id="Layer_1" xmlns="http://www.w3.org/2000/svg" xmlns:xlink="http://www.w3.org/1999/xlink" x="0px" y="0px"
	 viewBox="0 0 198.4 198.4" style="enable-background:new 0 0 198.4 198.4;" xml:space="preserve">
<style type="text/css">
	.st0{fill:#000000;}
</style>
<g>
	<path class="st0" d="M1.4,122.2c1.1-1.5,2-3.1,3.2-4.4c2.8-3.3,5.7-6.5,8.7-9.7c3.3-3.6,6.3-7.4,8.8-11.7c1.5-2.7,3.8-4.9,5.6-7.4
		c1.3-1.8,2.7-3.7,3.8-5.7c2.9-5.3,5.7-10.7,8.5-16c0.6-1.2,0.9-2.5,1.3-3.7c0.7-2.2,1.4-4.5,2.3-6.6c2.6-6.4,5.5-12.7,8-19.2
		c2.9-7.5,7.8-12.8,15.3-15.7c5.1-2,9.9-4.6,15.5-5.3c2-0.2,3.9-0.5,5.9-0.5C94,16,100,16,105.9,16c4.7,0,9.2,1,13.4,3.1
		c4.3,2.2,8.6,4.5,13,6.4c6.4,2.9,8.7,8.3,9.3,14.6c0.4,3.9,0.8,7.6,3,10.9c0.5,0.8,1.5,1.2,2.2,1.9c1.2,1.1,2.6,2.1,3.4,3.4
		c2.3,4,4.3,8.2,6.3,12.4c0.8,1.7,1.6,3.7,1.8,5.5c0.4,3.8-1.8,7.2-5.1,8.6c-4,1.7-8.8,0.4-11.9-2.8c-1.2-1.3-2.8-2.2-3.7-2.9
		c-4.5,3.8-8.6,7.1-12.6,10.5c1,1.1,2,2.2,3.1,3.4c0.7-0.5,1.6-1.2,2.4-1.8c3.9-2.8,8.5-2.1,11.5,1.7c0.3,0.4,1.1,0.8,1.7,0.8
		c4.5,0.1,7.4,3,7,7.4c-0.4,4.1-0.1,8,1.9,11.7c0.2,0.4,0.4,1,0.4,1.5c-0.1,5,2,9.4,3.2,14.1c1,4,3.1,7.4,5.6,10.6
		c0.4,0.6,1.2,0.9,1.9,1.2c3.7,1.8,5.2,4.3,4.9,8.4c-0.3,3.1,1.6,5.8,4.6,6.7c3,0.8,4.6,3.1,4.8,6.4c0.3,4.6,0.7,9.2,1.2,13.9
		c0.1,1,0.7,2.1,1.2,2.9c1.5,2.1,1.9,4.3,0.7,6.6c-1.2,2.3-3.2,3.4-5.7,3.4c-9.6,0-19.2,0-28.8,0c-12.2,0-24.3,0-36.5,0
		c-3.7,0-6.3-1.5-7.9-4.9c-0.3-0.6-0.8-1.1-1.3-1.5c-5.2-4.1-7.8-9.4-8.5-16c-0.8-8.6-3.8-16.4-8.4-23.7c-0.3-0.4-1-0.8-1.5-0.8
		c-15-1.9-30-3.9-45.1-5.8c-10.1-1.3-20.2-2.6-30.3-3.8c-2.8-0.4-4.5-2.2-5.6-4.5C1.4,124.2,1.4,123.2,1.4,122.2z M7.5,123.6
		c11.9,1.5,23.3,2.9,34.8,4.4c13.7,1.7,27.4,3.6,41.1,5.2c2.7,0.3,4.9,1.1,5.9,3.8c0.4,1.1,1.3,2.1,1.8,3.1
		c3.8,7.3,6.7,14.9,7.3,23.1c0.4,5.3,2.5,9.3,6.9,12.3c0.9,0.6,1.9,1.4,2.1,2.3c0.5,2.1,1.7,2.3,3.5,2.3c20.9,0,41.8,0,62.6,0
		c0.5,0,1.1-0.1,1.6-0.1c-3.4-6.7-3.2-13.8-3.5-20.8c-4.5-1.9-4.5-1.9-7.7-6.1c-1.4-1.9-2.2-4-1.7-6.4c0.5-2-0.3-2.9-2.1-3.6
		c-1-0.4-2-1-2.6-1.8c-3.2-4-5.9-8.3-7.2-13.3c-1.7-6.5-3.7-13-5.2-19.6c-0.6-2.7-0.5-5.7-0.6-8.5c0-0.7,0-1.3,0-2.1
		c-3.1,0.5-5.5-0.2-7.2-2.7c-1.2-1.8-1.8-1.9-3.7-0.6c-1.7,1.3-3.4,2.6-5.2,3.9c-1.8,1.2-3.8,1.8-6,1.3c-1.5-0.4-2.1-1.3-1.6-2.8
		c0.4-1.1,0.8-2.1,1.2-3.1c-4.3-2.7-5-6.3-1.8-9.9c1.3-1.5,3-2.8,4.7-3.9c3.2-2,6-4.5,7.8-7.9c1-1.8,2.3-2.1,4-1.5
		c1.4,0.5,2.8,1.4,4.2,1.7c2.2,0.5,3.8,1.5,4.9,3.6c0.9,1.8,4,2.3,5.4,1.3c1.3-0.9,1.4-2.9,0.3-4.9c-0.2-0.3-0.4-0.5-0.5-0.8
		c-1.8-3.3-3.8-6.6-5.4-10.1c-0.7-1.5-1-3.1-3.1-3.3c-0.5-0.1-0.9-0.7-1.2-1.1c-3.5-4.6-5.5-9.7-5.7-15.7c-0.1-4.5-1.7-8.4-6.4-10.4
		c-3.5-1.5-6.8-3.6-10.3-5.1c-3.2-1.4-6.6-2.8-10.1-3.3c-4.7-0.6-9.5-0.4-14.3-0.4c-3.9,0-8-0.2-11.8,0.7c-4.7,1.1-9.1,3.1-13.6,4.7
		c-5.9,2.2-9.7,6.3-12,12.2c-2.8,7.1-5.9,14-8.9,21c-0.4,1-0.6,2.1-0.9,3.1c-0.8,2.4-1.5,4.9-2.6,7.1c-2.4,4.8-4.9,9.6-7.6,14.3
		c-1.6,2.8-3.6,5.5-5.4,8.2c-1.6,2.2-3.5,4.2-4.8,6.6c-2.3,4.2-5.3,7.9-8.5,11.5C14.8,115.5,11.3,119.4,7.5,123.6z"/>
	<path class="st0" d="M197,102.3c-2.6,5.6-8.6,6.7-13,2.3c-1.2-1.2-2.4-1.9-4.2-2c-5.8-0.4-9-6.2-6.1-11.3c2.8-5.1,5.7-6,10.3-4.8
		c6.2,1.7,10.9,5,13.1,11.3C197,99.2,197,100.8,197,102.3z M190.6,101.5c0.6-2.5-0.2-4-1.4-5.3c-1.9-2.2-4.5-3.1-7.2-3.9
		c-1.1-0.3-1.9-0.2-2.4,0.8c-0.4,0.7-1,1.9-0.8,2.3c0.4,0.6,1.5,1,2.4,1c2.4,0.1,4.4,1,6.1,2.7C188.2,100,189.4,100.6,190.6,101.5z"
		/>
	<path class="st0" d="M195.5,59.7c0,7.9-7.6,17.7-15.3,19.8c-4.7,1.3-9.8-0.5-12.6-4.6c-0.6-0.8-1-1.7-1.5-2.7
		c-1.1-2.3-2.2-4.7-3.4-7.1c-1.1-2.3-2.2-4.4-4.3-6.1c-3.7-3.1-3.5-7.1,0.1-10.3c0.6-0.5,0.9-1.3,1.1-2.1c0.5-2,0.8-3.9,1.3-5.9
		c0.5-1.9,1.1-3.8,1.5-5.7c1.1-5.4,7.1-8.6,12.7-6.2c1.8,0.8,3.6,2.2,4.8,3.8c4.3,5.8,8.4,11.8,12.6,17.7
		C194.6,53.4,195.5,56.4,195.5,59.7z M162,53.9c0.3,0.4,0.6,0.8,0.9,1c2.1,1.3,3.3,3.2,4.3,5.4c1.5,3.2,3,6.4,4.6,9.6
		c1.8,3.8,5.3,4.8,8.9,2.6c2.9-1.7,5.2-4.1,6.9-7c2.5-4.2,2.4-8.3-0.4-12.3c-4-5.6-7.9-11.2-11.9-16.8c-0.5-0.7-1.3-1.5-2.1-1.9
		c-2.5-1.2-4.3-0.2-4.8,2.5c-0.2,1.3-0.7,2.6-1.1,3.9c-0.5,1.7-1.3,3.4-1.4,5.1C165.5,49.3,164.6,51.9,162,53.9z"/>
	<path class="st0" d="M157.2,12.1c0.6,0.1,1.6,0.2,2.6,0.4c4.9,1.1,6.9,6.6,3.7,10.4c-2.4,2.8-5.3,5.3-8.2,7.6
		c-2.8,2.2-6.5,1.9-8.9-0.4c-2.8-2.6-3.4-6.4-1.7-9.5C147.3,15.8,150.9,12.3,157.2,12.1z M159.1,19c-0.6-0.3-0.7-0.5-0.9-0.5
		c-3.1-0.8-8,2.4-8.4,5.6c-0.1,0.5,0.4,1.2,0.8,1.6c0.2,0.2,1,0.1,1.3-0.2C154.3,23.4,156.6,21.2,159.1,19z"/>
</g>
</svg>
