<svg width="24" height="24" viewBox="0 0 24 24" fill="none" xmlns="http://www.w3.org/2000/svg">
<g clip-path="url(#clip0_443_399)">
<path d="M2.57171 10.2891H4.28599C4.51332 10.2891 4.73134 10.3794 4.89208 10.5401C5.05283 10.7009 5.14314 10.9189 5.14314 11.1462V15.4319C5.14314 15.6592 5.05283 15.8773 4.89208 16.038C4.73134 16.1988 4.51332 16.2891 4.28599 16.2891H2.57171C2.11705 16.2891 1.68102 16.1085 1.35952 15.787C1.03803 15.4655 0.857422 15.0294 0.857422 14.5748V12.0033C0.857422 11.5487 1.03803 11.1127 1.35952 10.7912C1.68102 10.4697 2.11705 10.2891 2.57171 10.2891V10.2891Z" stroke="#080517" stroke-width="1.5" stroke-linecap="round" stroke-linejoin="round"/>
<path d="M21.4288 16.2891H19.7145C19.4872 16.2891 19.2691 16.1988 19.1084 16.038C18.9477 15.8773 18.8574 15.6592 18.8574 15.4319V11.1462C18.8574 10.9189 18.9477 10.7009 19.1084 10.5401C19.2691 10.3794 19.4872 10.2891 19.7145 10.2891H21.4288C21.8834 10.2891 22.3195 10.4697 22.641 10.7912C22.9625 11.1127 23.1431 11.5487 23.1431 12.0033V14.5748C23.1431 15.0294 22.9625 15.4655 22.641 15.787C22.3195 16.1085 21.8834 16.2891 21.4288 16.2891V16.2891Z" stroke="#080517" stroke-width="1.5" stroke-linecap="round" stroke-linejoin="round"/>
<path d="M16.2861 21.0033C17.1954 21.0033 18.0675 20.6421 18.7105 19.9991C19.3535 19.3562 19.7147 18.4841 19.7147 17.5748V16.2891" stroke="#080517" stroke-width="1.5" stroke-linecap="round" stroke-linejoin="round"/>
<path d="M14.1431 18.8594C14.7115 18.8594 15.2565 19.0851 15.6584 19.487C16.0602 19.8889 16.286 20.4339 16.286 21.0022C16.286 21.5706 16.0602 22.1156 15.6584 22.5175C15.2565 22.9193 14.7115 23.1451 14.1431 23.1451H11.5717C11.0034 23.1451 10.4584 22.9193 10.0565 22.5175C9.65463 22.1156 9.42886 21.5706 9.42886 21.0022C9.42886 20.4339 9.65463 19.8889 10.0565 19.487C10.4584 19.0851 11.0034 18.8594 11.5717 18.8594H14.1431Z" stroke="#080517" stroke-width="1.5" stroke-linecap="round" stroke-linejoin="round"/>
<path d="M4.28598 10.2879V8.57366C4.28598 6.52771 5.09873 4.56555 6.54544 3.11884C7.99215 1.67213 9.95431 0.859375 12.0003 0.859375C14.0462 0.859375 16.0084 1.67213 17.4551 3.11884C18.9018 4.56555 19.7146 6.52771 19.7146 8.57366V10.2879" stroke="#080517" stroke-width="1.5" stroke-linecap="round" stroke-linejoin="round"/>
<path d="M9.42886 6.85938V9.4308" stroke="#080517" stroke-width="1.5" stroke-linecap="round" stroke-linejoin="round"/>
<path d="M14.5717 6.85938V9.4308" stroke="#080517" stroke-width="1.5" stroke-linecap="round" stroke-linejoin="round"/>
<path d="M9.42886 12.8594C9.42886 15.1394 14.5717 15.1394 14.5717 12.8594" stroke="#080517" stroke-width="1.5" stroke-linecap="round" stroke-linejoin="round"/>
</g>
<defs>
<clipPath id="clip0_443_399">
<rect width="24" height="24" fill="white"/>
</clipPath>
</defs>
</svg>
