<svg width="24" height="24" viewBox="0 0 24 24" fill="none" xmlns="http://www.w3.org/2000/svg">
<g clip-path="url(#clip0_427_5103)">
<path d="M12.8057 11.8287C12.5514 11.9391 12.2772 11.9961 12 11.9961C11.7228 11.9961 11.4485 11.9391 11.1942 11.8287L1.42282 7.303C1.26414 7.22297 1.1308 7.10046 1.03764 6.94913C0.944471 6.79779 0.895142 6.62357 0.895142 6.44586C0.895142 6.26814 0.944471 6.09392 1.03764 5.94258C1.1308 5.79125 1.26414 5.66874 1.42282 5.58871L11.1942 1.02871C11.4485 0.918302 11.7228 0.861328 12 0.861328C12.2772 0.861328 12.5514 0.918302 12.8057 1.02871L22.5771 5.55443C22.7358 5.63446 22.8691 5.75696 22.9623 5.9083C23.0554 6.05963 23.1048 6.23386 23.1048 6.41157C23.1048 6.58928 23.0554 6.76351 22.9623 6.91484C22.8691 7.06618 22.7358 7.18868 22.5771 7.26871L12.8057 11.8287Z" stroke="#080517" stroke-width="1.5" stroke-linecap="round" stroke-linejoin="round"/>
<path d="M23.1428 12.6006L12.6857 17.4177C12.4623 17.5196 12.2197 17.5723 11.9743 17.5723C11.7288 17.5723 11.4862 17.5196 11.2628 17.4177L0.857117 12.6006" stroke="#080517" stroke-width="1.5" stroke-linecap="round" stroke-linejoin="round"/>
<path d="M23.1428 18.1719L12.6857 22.989C12.4623 23.0909 12.2197 23.1436 11.9743 23.1436C11.7288 23.1436 11.4862 23.0909 11.2628 22.989L0.857117 18.1719" stroke="#080517" stroke-width="1.5" stroke-linecap="round" stroke-linejoin="round"/>
</g>
<defs>
<clipPath id="clip0_427_5103">
<rect width="24" height="24" fill="white"/>
</clipPath>
</defs>
</svg>
