<?xml version="1.0" encoding="utf-8"?>
<!-- Generator: Adobe Illustrator 25.2.1, SVG Export Plug-In . SVG Version: 6.00 Build 0)  -->
<svg version="1.1" id="Layer_1" xmlns="http://www.w3.org/2000/svg" xmlns:xlink="http://www.w3.org/1999/xlink" x="0px" y="0px"
	 viewBox="0 0 198.4 198.4" style="enable-background:new 0 0 198.4 198.4;" xml:space="preserve">
<style type="text/css">
	.st0{fill:#FFFFFF;}
</style>
<g>
	<path class="st0" d="M197,95.7c-1,1.4-2.4,1.9-4.1,1.9c-3.7-0.1-7.3,0.7-10.7,2.3c-0.7,0.4-1.5,1.2-1.8,1.9
		c-2.1,6.4-5.5,11.8-10.2,16.5c-4.9,4.8-9.7,9.7-14.6,14.6c-0.4,0.4-0.9,0.9-1.5,1.6c1.2,0.3,2.1,0.5,3.1,0.6
		c6.2,0.8,12.2,0.5,17.9-2.2c0.3-0.2,0.7-0.3,1-0.5c1.7-0.6,3.2,0,3.8,1.5c0.6,1.4,0.1,2.9-1.5,3.7c-3.8,1.9-7.8,3.1-12,3.4
		c-7.4,0.6-14.4-0.5-21.1-3.9c-9.7-4.9-19.4-4.8-29.1,0c-11.2,5.5-22.5,5.6-33.8,0.1c-10.1-5-20-4.8-30,0.1
		c-10.8,5.3-21.7,5.2-32.6,0.2c-2.3-1.1-3.1-2.6-2.3-4.3c0.8-1.7,2.5-2,4.8-0.9c3.9,1.9,8,3,12.3,3c0.5,0,1-0.1,1.7-0.1
		c-1.1-3.8-2.1-7.3-3.1-10.9c-1.8-6.2-3.6-12.5-5.3-18.7c-0.3-1-0.7-1.5-1.8-1.9c-2.9-1-5.8-2.2-8.6-3.5c-3.8-1.7-7.8-2.8-12-2.8
		c-1.7,0-3.1-0.4-4.1-1.9c0-0.6,0-1.3,0-1.9c0.8-1.5,2-2,3.8-2c5.2,0.1,10.2,1.2,14.9,3.5c1.7,0.8,3.4,1.6,5.5,2.5
		c-1.7-6-3.3-11.6-4.9-17.2c-0.6-2.1-1.3-4.3-1.8-6.4c-1.3-5.9,0.9-11.9,6-15.2c6.5-4.3,13.2-8.4,19.8-12.6c1.7-1.1,3.3-0.8,4.2,0.6
		c1,1.4,0.5,3.1-1.2,4.2c-6.3,4-12.6,8-18.8,12c-3.9,2.5-5.4,6.3-4.1,10.7c5.7,20.1,11.4,40.2,17.2,60.3c0.1,0.2,0.2,0.5,0.4,1.1
		c2.6-1,5.3-1.8,7.7-3.1c6.8-3.6,14-4.8,21.6-4.1c4.1,0.4,7.9,1.6,11.7,3.3c3.1,1.4,6.3,2.6,9.7,4c-2.1-3.7-3.9-7-5.9-10.2
		c-0.2-0.4-1-0.6-1.6-0.6c-2.2-0.1-4.3,0.1-6.5-0.3c-4.2-0.7-7.4-3.1-9.2-7c-6.4-13.6-12.7-27.2-19-40.8c-0.8-1.7-0.4-3,1-4.2
		C64.3,61.7,76.7,51,89.1,40.3c1.3-1.1,2.5-1.2,4-0.4c4.2,2.2,8.4,4.3,12.6,6.4c0.9,0.4,2,1.2,2.6,0c0.3-0.5-0.3-1.7-0.8-2.4
		c-1.5-1.7-3.2-3.3-4.8-4.9c-2.3-2.4-1.8-4.5,1.3-5.6c4.4-1.5,8.8-3,13.2-4.5c1.3-0.4,2.4-1.1,2.1-2.7c-0.3-1.7-1.6-1.7-3-1.6
		c-10.5,1.4-21.1,2.8-31.6,4.3c-1.6,0.2-3.3,0.9-4.7,1.8c-6.6,4-13,8.2-19.5,12.3c-0.4,0.3-0.8,0.6-1.3,0.8
		c-1.5,0.6-2.8,0.3-3.6-1.1c-0.8-1.3-0.5-2.6,0.6-3.6c0.4-0.3,0.8-0.6,1.3-0.9c6.5-4.1,13-8.2,19.5-12.4c3.2-2.1,6.7-2.6,10.3-3.1
		c9.5-1.3,19-2.6,28.6-3.9c4.5-0.6,8.3,1.9,9.2,5.9c0.9,4.2-1.2,7.8-5.5,9.4c-3.2,1.1-6.4,2.2-10.3,3.5c1.2,1,2.2,1.7,3,2.5
		c2.8,2.8,3.2,6.5,1,9.5c-2.1,2.9-5.8,3.7-9.4,1.9c-3.6-1.8-7.1-3.7-10.7-5.4c-0.5-0.3-1.5-0.2-1.9,0.1C79.7,56,68.5,65.7,57.3,75.4
		c-0.1,0.1-0.1,0.2-0.3,0.5c2.3,5,4.7,10.2,7.1,15.3c0.2,0.3,0.8,0.6,1.2,0.7c3.6,0.3,7.3,0.2,10.8,0.9c3.4,0.7,6.7,2.3,10.2,3.5
		c-0.1,0.1,0.1,0,0.1-0.1c2.5-6.8,6.9-12.2,12-17.2c6.1-5.8,11.8-12,17.9-17.8c17.4-16.5,46.6-13,59.4,7.2c1.1,1.8,1,3.4-0.4,4.4
		c-1.4,1-3,0.5-4.3-1.1c-0.2-0.3-0.4-0.5-0.5-0.8c-4.6-6.5-10.7-11.1-18.4-13.1c-13.5-3.5-25,0.1-34.5,10.3
		c-0.1,0.1-0.1,0.2-0.2,0.4c22.6,8.7,38.3,24.4,47.2,47.2c0.5-0.5,1-0.8,1.4-1.2c8.5-8.4,11.8-18.5,10-30.3
		c-0.4-2.4,0.4-3.8,2.2-4.1c1.8-0.3,3.1,0.8,3.3,3.1c0.4,3.4,0.6,6.8,0.8,10c3.5-0.4,7.1-0.9,10.7-1.3c1.8-0.2,3.1,0.4,4,2
		C197,94.4,197,95.1,197,95.7z M105.5,79.9c-2.2,2.2-4.2,4.2-6.2,6.3c-13.3,13.7-12.7,35.3,1.4,48.1c0.7,0.7,2.1,1.1,3,0.9
		c2.8-0.6,5.5-1.4,8.2-2.4c2.5-0.9,4.8-2.3,7.4-3.1c9.2-2.8,18.3-2.5,27.1,1.5c0.7,0.3,1.8,0.6,2.3,0.2c1.6-1.1,3-2.5,4.7-4
		c-1.7-1.5-3-2.6-4.1-3.8c-0.8-0.8-1.4-0.9-2.5-0.6c-3.6,1.2-6.9,0.4-9.7-2.2c-1.6-1.5-3.2-3.1-4.7-4.7c-2.9-2.9-3.8-6.3-2.4-10.1
		c0.5-1.4-0.3-1.8-0.9-2.6c-0.7-0.8-1.3-1.2-2.6-0.8c-3.6,1.3-6.9,0.5-9.7-2.2c-1.8-1.7-3.4-3.4-5.1-5.1c-2.1-2.2-3.5-5.1-2.4-7.8
		c1.2-3.2-0.6-4.6-2.4-6.4C106.5,80.9,106.1,80.5,105.5,79.9z M156.8,123.4c3.3-2.9,3.4-2.9,2-6.4c-8-20.7-22.4-35.1-43.2-43
		c-3.4-1.3-3.8-1.1-5.9,2.2c1.1,1,2.2,2.2,3.5,3.2c0.5,0.4,1.5,0.7,2.1,0.5c3.9-1.2,7.3-0.4,10.2,2.5c1.5,1.5,3.1,3.1,4.6,4.6
		c2.8,2.8,3.6,6.3,2.3,10c-0.4,1.3,0.1,1.8,0.9,2.6c0.7,0.7,1.3,1.3,2.6,0.8c3.7-1.3,7.1-0.5,10,2.4c1.7,1.7,3.4,3.3,5,5
		c2,2.2,3.3,4.9,2.4,7.7c-1,3,0.2,4.6,2.2,6.2C155.9,122,156.3,122.7,156.8,123.4z M67.1,97.6c2.5,5.5,5,10.7,7.4,15.9
		c2.2,4.6,5.4,6.2,10.1,5.2c0-5.6,0-11.1,0-16.6C79.2,99.3,73.6,97.1,67.1,97.6z M114.5,88.2c0.4,1.2,0.4,2.1,0.9,2.6
		c1.9,2.1,3.9,4.2,6,6c1.4,1.2,3.4,0.9,4.7-0.4c1.3-1.3,1.5-3.5,0.3-4.9c-1.8-2-3.7-3.9-5.6-5.7c-1.1-1-2.6-1.3-3.9-0.4
		C115.9,86.2,115.2,87.4,114.5,88.2z M144.1,118.4c1.1-0.9,2.4-1.6,3.1-2.6c0.9-1.4,0.5-3-0.6-4.2c-1.6-1.7-3.2-3.3-4.8-4.9
		c-1.7-1.6-4-1.6-5.5-0.1c-1.5,1.5-1.5,3.7,0.2,5.4c1.5,1.6,3.1,3.2,4.7,4.7C141.9,117.4,142.9,117.7,144.1,118.4z"/>
	<path class="st0" d="M1.4,167.9c1-1.5,2.3-1.9,4.1-1.9c5.1,0.2,10.1,1.2,14.7,3.6c7.4,4,15.2,5.2,23.3,3.2c3.1-0.8,6.1-2.3,9-3.5
		c10.1-4.4,20.3-4.5,30.3,0.1c5.9,2.8,11.9,4.9,18.5,4.2c2.5-0.2,4.9-0.7,7.3-1.2c1.9-0.4,3.3,0.2,3.8,1.9c0.5,1.6-0.3,3.1-2.2,3.6
		c-8.7,2.5-17.4,2.4-25.7-1.5c-5.7-2.6-11.3-4.8-17.7-4.6c-5.2,0.2-10,1.7-14.6,3.9c-10.6,5.1-21.4,5.2-32,0.2
		c-5.1-2.4-10.2-4.1-15.9-4.2c-1,0-1.9-1.2-2.8-1.9C1.4,169.2,1.4,168.5,1.4,167.9z"/>
	<path class="st0" d="M197,169.8c-0.8,1.5-2.1,2-3.8,2c-5.2-0.1-10,1.6-14.6,3.9c-8.3,4.1-17,4.7-25.8,2.4c-2.7-0.7-5.4-1.9-7.9-3.1
		c-6.9-3.4-14.1-4-21.5-2.5c-2.3,0.5-3.8-0.3-4.2-2.1c-0.3-1.7,0.7-3,3-3.5c8.5-1.8,16.7-1.4,24.5,2.6c6.8,3.5,13.9,5,21.4,3.6
		c3-0.6,5.9-1.6,8.6-2.9c5.1-2.4,10.4-4,16.1-4.2c1.8-0.1,3.3,0.3,4.2,1.9C197,168.5,197,169.2,197,169.8z"/>
	<path class="st0" d="M124.2,124.8c-8.6-0.4-15.7-7.6-16.1-16.3c-0.1-2.1,0.8-3.4,2.5-3.6c1.8-0.2,3,1,3.2,3.2
		c0.6,6.3,4.7,10.5,10.8,11c2.3,0.2,3.7,1.4,3.5,3.1C128,124,126.7,124.9,124.2,124.8z"/>
</g>
</svg>
