<svg width="24" height="24" viewBox="0 0 24 24" fill="none" xmlns="http://www.w3.org/2000/svg">
<g clip-path="url(#clip0_430_13970)">
<path d="M18.9677 14.8672C18.4763 14.3556 17.8837 14.0821 17.2556 14.0821C16.6326 14.0821 16.0348 14.3506 15.5232 14.8622L13.9226 16.4578C13.7909 16.3868 13.6592 16.321 13.5326 16.2551C13.3502 16.164 13.178 16.0779 13.0311 15.9867C11.5317 15.0344 10.1691 13.7934 8.86229 12.1877C8.22911 11.3873 7.80362 10.7136 7.49464 10.0298C7.91 9.64991 8.29496 9.25482 8.6698 8.87491C8.81163 8.73308 8.95346 8.58619 9.09529 8.44436C10.159 7.38063 10.159 6.00285 9.09529 4.93913L7.71245 3.55628C7.55542 3.39926 7.39333 3.23716 7.24137 3.07507C6.93745 2.76102 6.61833 2.43684 6.28908 2.13291C5.79774 1.64664 5.21016 1.38831 4.59218 1.38831C3.97421 1.38831 3.3765 1.64664 2.86996 2.13291C2.86489 2.13798 2.86489 2.13798 2.85983 2.14304L1.13761 3.88047C0.489239 4.52883 0.119467 5.31903 0.0384213 6.23586C-0.0831474 7.71495 0.352474 9.09272 0.686788 9.99436C1.50738 12.2079 2.7332 14.2594 4.56179 16.4578C6.78042 19.107 9.44987 21.1989 12.4992 22.673C13.6643 23.2251 15.2193 23.8785 16.9567 23.99C17.0631 23.995 17.1745 24.0001 17.2759 24.0001C18.446 24.0001 19.4286 23.5797 20.1986 22.7439C20.2036 22.7338 20.2138 22.7287 20.2188 22.7186C20.4822 22.3994 20.7862 22.1107 21.1053 21.8017C21.3231 21.594 21.546 21.3762 21.7638 21.1483C22.2652 20.6266 22.5286 20.0187 22.5286 19.3957C22.5286 18.7676 22.2602 18.1648 21.7486 17.6583L18.9677 14.8672ZM20.7811 20.2011C20.776 20.2011 20.776 20.2061 20.7811 20.2011C20.5835 20.4138 20.3809 20.6063 20.1631 20.819C19.8339 21.1331 19.4995 21.4623 19.1855 21.8321C18.6739 22.3792 18.0711 22.6375 17.2809 22.6375C17.2049 22.6375 17.1239 22.6375 17.0479 22.6324C15.5435 22.5362 14.1455 21.9486 13.0969 21.4471C10.2299 20.0592 7.71245 18.0888 5.62045 15.5916C3.89316 13.5097 2.73826 11.5849 1.97339 9.51822C1.50231 8.25694 1.33009 7.27426 1.40607 6.3473C1.45672 5.75465 1.68466 5.26331 2.10509 4.84288L3.83238 3.11559C4.08058 2.88259 4.34398 2.75595 4.60231 2.75595C4.92143 2.75595 5.17977 2.94844 5.34186 3.11053C5.34692 3.11559 5.35199 3.12066 5.35705 3.12573C5.66604 3.41445 5.95983 3.71331 6.26882 4.03243C6.42585 4.19452 6.58794 4.35661 6.75003 4.52377L8.13287 5.90661C8.6698 6.44354 8.6698 6.93995 8.13287 7.47687C7.98598 7.62377 7.84415 7.77066 7.69725 7.91249C7.27176 8.34812 6.86653 8.75335 6.42585 9.14844C6.41571 9.15857 6.40558 9.16364 6.40052 9.17377C5.9649 9.60939 6.04594 10.0349 6.13712 10.3236C6.14219 10.3388 6.14725 10.354 6.15232 10.3692C6.51196 11.2404 7.01849 12.061 7.78843 13.0386L7.79349 13.0437C9.19153 14.7659 10.6656 16.1083 12.2915 17.1365C12.4992 17.2682 12.712 17.3746 12.9146 17.4759C13.0969 17.5671 13.2692 17.6532 13.416 17.7444C13.4363 17.7545 13.4566 17.7697 13.4768 17.7798C13.6491 17.8659 13.8111 17.9065 13.9783 17.9065C14.3987 17.9065 14.6621 17.6431 14.7482 17.5569L16.4806 15.8246C16.6528 15.6524 16.9263 15.4447 17.2455 15.4447C17.5595 15.4447 17.8178 15.6422 17.9749 15.8145C17.9799 15.8195 17.9799 15.8195 17.985 15.8246L20.776 18.6156C21.2978 19.1323 21.2978 19.6641 20.7811 20.2011Z" fill="#080517"/>
<path d="M12.9711 5.70908C14.2982 5.93196 15.5038 6.56006 16.4662 7.52248C17.4286 8.4849 18.0516 9.69046 18.2796 11.0176C18.3353 11.3519 18.624 11.5849 18.9533 11.5849C18.9938 11.5849 19.0293 11.5798 19.0698 11.5748C19.4446 11.514 19.6928 11.1594 19.632 10.7846C19.3585 9.17886 18.5987 7.71497 17.4387 6.555C16.2788 5.39503 14.8149 4.63522 13.2092 4.36169C12.8343 4.30091 12.4848 4.54911 12.419 4.91888C12.3531 5.28866 12.5962 5.6483 12.9711 5.70908Z" fill="#080517"/>
<path d="M23.9723 10.5872C23.5215 7.94303 22.2754 5.53698 20.3607 3.62227C18.446 1.70757 16.04 0.461487 13.3958 0.0106694C13.0261 -0.0551803 12.6766 0.198088 12.6107 0.56786C12.5499 0.942697 12.7981 1.29221 13.173 1.35806C15.5334 1.75822 17.6862 2.87767 19.3983 4.58469C21.1104 6.29679 22.2248 8.44957 22.6249 10.81C22.6807 11.1443 22.9694 11.3773 23.2986 11.3773C23.3392 11.3773 23.3746 11.3723 23.4151 11.3672C23.7849 11.3115 24.0382 10.9569 23.9723 10.5872Z" fill="#080517"/>
</g>
<defs>
<clipPath id="clip0_430_13970">
<rect width="24" height="24" fill="white"/>
</clipPath>
</defs>
</svg>
