<?xml version="1.0" encoding="utf-8"?>
<!-- Generator: Adobe Illustrator 25.2.1, SVG Export Plug-In . SVG Version: 6.00 Build 0)  -->
<svg version="1.1" id="Layer_1" xmlns="http://www.w3.org/2000/svg" xmlns:xlink="http://www.w3.org/1999/xlink" x="0px" y="0px"
	 viewBox="0 0 198.4 198.4" style="enable-background:new 0 0 198.4 198.4;" xml:space="preserve">
<style type="text/css">
	.st0{fill:#000000;}
</style>
<g>
	<path class="st0" d="M139.5,89.9c4.3-17.7,19.7-23.5,31.7-20.7c13.2,3.1,21.7,15.6,19.7,29.3c-1.6,11.2-12.2,24.3-31.4,21.6
		c1.4,2.4,2.4,4.5,5.6,5.2c2.4,0.5,4.8,2.2,6.7,3.9c6,5.5,12.9,7.7,20.8,6.9c2.5-0.2,4.2,1,4.5,3.1c0.2,2-1,3.6-3.5,3.9
		c-9.9,1.1-18.7-1.4-26.2-8.3c-1-0.9-2.1-1.7-3.3-2.4c-2.3-1.3-4.6-1.1-6.7,0.5c-1.4,1.1-2.7,2.2-4,3.4c-9.5,9.2-20.9,9.7-31.2,1.3
		c-3.3-2.7-6.9-4.6-11.1-5.1c-5.7-0.8-10.6,1.1-14.8,4.9c-3.4,3.1-7.2,5.3-11.9,6c-6.7,1.1-12.2-1.6-17.3-5.5
		c-1.6-1.2-3.1-2.4-4.7-3.5c-3.4-2.1-6.9-2.2-10.3-0.1c-8.4,5.1-17.6,7.8-27.3,8.9c-2.6,0.3-4.4-1-4.6-3.1c-0.2-2.1,1.2-3.5,3.8-3.8
		c8.9-0.9,17.3-3.6,25.1-8.2c2.2-1.3,5.1-1.5,7.6-2.2c1.1-0.3,2.3-0.5,3.1-1.1c11.7-8.7,23.3-17.5,34.9-26.2
		c3.6-2.7,4.2-5.1,2.5-9.3c-5.4-13.6-10.9-27.2-16.2-40.9c-3.1-7.9,0.9-16.1,8.7-18.2c1.5-0.4,3-0.5,4.5-0.5c19.4,0,38.7,0,58.1,0
		c8.7,0,15,5.2,16.3,13.3c1.4,8.6-5.1,17.2-13.9,17.5c-9.6,0.4-19.2,0.1-28.8,0.2c-1.4,0-2.7,0.5-4.1,0.7c0.5,1.3,0.8,2.8,1.6,4
		c4.9,7.6,10,15.2,15,22.8C138.5,88.7,139,89.2,139.5,89.9z M154.9,125.8c-0.5-0.7-1-1.5-1.5-2.3C141,104.8,128.6,86,116.1,67.3
		c-2-3-2.6-6.2-0.9-9.5c1.7-3.3,4.7-4.5,8.3-4.5c9.7,0.1,19.4,0,29,0c5.1,0,8.9-3.8,8.8-8.6c-0.1-4.7-3.8-8.4-8.8-8.4
		c-19.8,0-39.6,0-59.4,0c-2.6,0-4.4,1.2-5.7,3.3c-1.4,2.4-1.1,4.7-0.1,7.1c5.3,13.2,10.6,26.4,15.8,39.7c3,7.6,1.5,13.2-5.1,18.2
		c-10,7.5-19.9,14.9-29.9,22.4c-0.7,0.5-1.3,1-2.1,1.6c2.2,1.7,4.1,3.3,6.2,4.8c6.5,4.6,11.6,4.5,17.9-0.3c0.8-0.6,1.6-1.3,2.4-1.9
		c6.8-5.2,14.3-7.1,22.8-4.9c4.9,1.3,8.9,4.2,12.9,7.2c6.4,4.7,12.5,4.4,19.4-1.4C150.2,130.1,152.4,128,154.9,125.8z M165.3,75.5
		c-10.7,0-19,8.2-19,18.9c0,10.6,8.4,19,18.9,19c10.5,0,19-8.6,19-19C184.1,83.9,175.7,75.5,165.3,75.5z"/>
	<path class="st0" d="M174.4,168.6c-8.5,0.1-15.9-2.7-22.1-8.6c-4.1-3.9-7.4-3.9-11.7-0.2c-1.4,1.3-2.7,2.6-4.2,3.8
		c-8.7,7.1-19.4,7.1-28.2,0.2c-0.8-0.6-1.6-1.3-2.4-1.9c-7.7-5.9-17.1-5.7-24.4,0.8c-4.7,4.2-10,6.7-16.5,6.1
		c-4.9-0.4-9.2-2.6-13-5.7c-1.5-1.2-3.1-2.5-4.7-3.5c-3.4-2.1-6.9-2-10.3,0c-8.5,5-17.6,7.9-27.4,8.8c-2.8,0.3-4.5-0.8-4.7-3
		c-0.2-2.2,1.2-3.7,4-3.9c9-0.8,17.3-3.5,25-8.2c6.1-3.7,14.3-2.4,20.2,2.8c2.7,2.4,5.6,4.4,9.1,5.5c3.5,1.1,6.8,0.6,9.8-1.4
		c1.4-0.9,2.7-1.9,4-3c10.1-8.3,22.7-8.6,33.1-0.6c1.1,0.8,2.2,1.6,3.4,2.4c6.8,4.6,12.9,4.1,19.1-1.3c1.6-1.4,3.1-2.9,4.7-4.2
		c6.2-4.8,13-4.7,18.6,0.7c6.2,5.9,13.3,8.2,21.7,7.6c2.8-0.2,4.4,1.1,4.5,3.3c0.1,2.1-1.5,3.6-4.2,3.8
		C176.7,168.7,175.5,168.6,174.4,168.6z"/>
	<path class="st0" d="M29.2,89c-7.6,0-15.1,0-22.7,0c-0.9,0-1.8,0-2.6-0.2c-1.7-0.5-2.6-1.7-2.5-3.4c0.1-1.7,1-2.9,2.7-3.2
		C5,82,5.9,82,6.7,82c14.9,0,29.8,0,44.7,0c3.6,0,5.3,1.1,5.3,3.4c0.1,2.4-1.7,3.6-5.4,3.6C44,89,36.6,89,29.2,89z"/>
	<path class="st0" d="M46,54.6c4.4,0,8.7,0,13.1,0c2.6,0,4.1,1.4,4.1,3.5c0,2.1-1.6,3.5-4.2,3.5c-8.7,0-17.5,0-26.2,0
		c-2.6,0-4.1-1.4-4.1-3.5c0-2.2,1.5-3.4,4.1-3.4C37.3,54.6,41.7,54.6,46,54.6z"/>
	<path class="st0" d="M32.2,75.3c-4.3,0-8.6,0-12.9,0c-2.6,0-4.1-1.3-4.1-3.4c0-2.1,1.5-3.5,4.1-3.5c8.7,0,17.4,0,26.2,0
		c2.6,0,4.1,1.4,4,3.6c0,2.1-1.5,3.4-4,3.4C41,75.3,36.6,75.3,32.2,75.3z"/>
	<path class="st0" d="M65.2,75.2c-1.8,0-3.6,0.1-5.4,0c-2-0.1-3.3-1.4-3.4-3.2c-0.1-2,1.1-3.6,3.2-3.7c3.8-0.1,7.7-0.1,11.5,0
		c2.1,0.1,3.4,1.6,3.3,3.6c0,1.9-1.4,3.3-3.5,3.3C69,75.3,67.1,75.2,65.2,75.2z"/>
</g>
</svg>
