<svg width="24" height="24" viewBox="0 0 24 24" fill="none" xmlns="http://www.w3.org/2000/svg">
<g clip-path="url(#clip0_443_366)">
<path d="M12.0003 23.1451C18.1543 23.1451 23.1431 18.1563 23.1431 12.0022C23.1431 5.8482 18.1543 0.859375 12.0003 0.859375C5.84625 0.859375 0.857422 5.8482 0.857422 12.0022C0.857422 18.1563 5.84625 23.1451 12.0003 23.1451Z" stroke="#080517" stroke-width="1.5" stroke-linecap="round" stroke-linejoin="round"/>
<path d="M0.857422 12H23.1431" stroke="#080517" stroke-width="1.5" stroke-linecap="round" stroke-linejoin="round"/>
<path d="M16.286 12.0022C16.0755 16.0771 14.5746 19.9794 12.0003 23.1451C9.42595 19.9794 7.92505 16.0771 7.71454 12.0022C7.92505 7.92739 9.42595 4.02506 12.0003 0.859375C14.5746 4.02506 16.0755 7.92739 16.286 12.0022V12.0022Z" stroke="#080517" stroke-width="1.5" stroke-linecap="round" stroke-linejoin="round"/>
</g>
<defs>
<clipPath id="clip0_443_366">
<rect width="24" height="24" fill="white"/>
</clipPath>
</defs>
</svg>
