<?xml version="1.0" encoding="utf-8"?>
<!-- Generator: Adobe Illustrator 25.2.1, SVG Export Plug-In . SVG Version: 6.00 Build 0)  -->
<svg version="1.1" id="Layer_1" xmlns="http://www.w3.org/2000/svg" xmlns:xlink="http://www.w3.org/1999/xlink" x="0px" y="0px"
	 viewBox="0 0 198.4 198.4" style="enable-background:new 0 0 198.4 198.4;" xml:space="preserve">
<style type="text/css">
	.st0{fill:#FFFFFF;}
</style>
<g>
	<path class="st0" d="M197,123.2c-3.7,3.8-7.3,7.8-11.3,11.3c-15.1,13.4-31.8,24-50.9,30.7c-12,4.2-24.3,6.5-37,6.3
		c-15.3-0.2-29.8-4-43.7-10.1c-19-8.4-35.5-20.4-50-35.1c-1-1-1.8-2.1-2.7-3.2c0-0.8,0-1.5,0-2.3c3.6-3.7,7.1-7.6,11-11.1
		c14-12.5,29.6-22.6,47.1-29.5c13-5.1,26.5-8,40.6-7.9c17,0.2,33,4.6,48.3,12c17.3,8.3,32.4,19.5,45.8,33.1c1,1,1.9,2.2,2.8,3.3
		C197,121.7,197,122.5,197,123.2z M57.2,122.1c0,23.1,18.8,42,42,42c23.2,0,42-18.8,42.1-41.9c0-23.1-18.8-42-42-42
		C76.1,80.1,57.2,99,57.2,122.1z M134.2,157.4c20.8-8,38.2-20.1,53.6-35.2c-9.9-12-43.4-34-53.2-35
		C153.3,106.3,153.9,137.5,134.2,157.4z M63.8,157.1c-9.2-9.9-14.2-21.5-14.2-35c0-13.5,5-25.1,14.2-35.1
		c-20.4,7.7-37.8,19.8-53.3,35C26.1,137.4,43.5,149.5,63.8,157.1z"/>
	<path class="st0" d="M103,42.2c0,3.6,0,7.1,0,10.7c0,2.6-1.5,4.3-3.7,4.4c-2.3,0.1-3.9-1.7-3.9-4.4c0-7.2,0-14.5,0-21.7
		c0-2.6,1.5-4.3,3.7-4.4c2.3-0.1,3.9,1.7,3.9,4.4C103,34.9,103,38.5,103,42.2z"/>
	<path class="st0" d="M144.2,39c3.6-0.1,5.5,2.9,4.2,5.5c-0.8,1.7-1.9,3.3-2.8,5c-2.9,4.9-5.7,9.9-8.6,14.8c-0.9,1.5-2.3,2.5-3.9,2
		c-1.2-0.4-2.4-1.4-3-2.5c-0.4-0.8-0.2-2.3,0.3-3.2c3.6-6.5,7.4-13,11.2-19.4C142.3,40.1,143.7,39.5,144.2,39z"/>
	<path class="st0" d="M68.7,62.3c-0.2,2-0.9,3.3-2.5,3.9c-1.7,0.6-3.2,0.2-4.3-1.2c-0.7-0.8-1.1-1.8-1.7-2.8
		c-3.3-5.8-6.7-11.5-10-17.3c-1.2-2.1-0.6-4.4,1.3-5.4c1.9-1,3.9-0.4,5.2,1.6c0.1,0.1,0.1,0.2,0.2,0.3c3.6,6.3,7.3,12.5,10.9,18.8
		C68.2,60.9,68.5,61.8,68.7,62.3z"/>
	<path class="st0" d="M99.2,103c10.5,0,19.1,8.6,19.1,19c0,10.5-8.6,19.1-19.2,19.1c-10.5-0.1-19-8.7-19-19.1
		C80.1,111.6,88.7,103,99.2,103z"/>
</g>
</svg>
