<svg width="24" height="24" viewBox="0 0 24 24" fill="none" xmlns="http://www.w3.org/2000/svg">
<g clip-path="url(#clip0_443_248)">
<path d="M20.1431 17.1451C20.7365 17.1451 21.3165 17.321 21.8098 17.6507C22.3032 17.9803 22.6877 18.4489 22.9148 18.997C23.1418 19.5452 23.2012 20.1484 23.0855 20.7304C22.9697 21.3123 22.684 21.8469 22.2645 22.2664C21.8449 22.686 21.3104 22.9717 20.7284 23.0874C20.1465 23.2032 19.5433 23.1438 18.9951 22.9167C18.4469 22.6897 17.9784 22.3051 17.6487 21.8118C17.3191 21.3185 17.1431 20.7384 17.1431 20.1451V3.85938C17.1431 3.26603 17.3191 2.68601 17.6487 2.19267C17.9784 1.69932 18.4469 1.3148 18.9951 1.08774C19.5433 0.860675 20.1465 0.801265 20.7284 0.917021C21.3104 1.03278 21.8449 1.3185 22.2645 1.73806C22.684 2.15761 22.9697 2.69216 23.0855 3.27411C23.2012 3.85605 23.1418 4.45925 22.9148 5.00743C22.6877 5.55561 22.3032 6.02414 21.8098 6.35379C21.3165 6.68343 20.7365 6.85938 20.1431 6.85938H3.85742C3.26408 6.85938 2.68406 6.68343 2.19071 6.35379C1.69736 6.02414 1.31285 5.55561 1.08578 5.00743C0.858722 4.45925 0.799312 3.85605 0.915067 3.27411C1.03082 2.69216 1.31655 2.15761 1.7361 1.73806C2.15566 1.3185 2.69021 1.03278 3.27215 0.917021C3.8541 0.801265 4.4573 0.860675 5.00547 1.08774C5.55365 1.3148 6.02219 1.69932 6.35183 2.19267C6.68148 2.68601 6.85742 3.26603 6.85742 3.85938V20.1451C6.85742 20.7384 6.68148 21.3185 6.35183 21.8118C6.02219 22.3051 5.55365 22.6897 5.00547 22.9167C4.4573 23.1438 3.8541 23.2032 3.27215 23.0874C2.69021 22.9717 2.15566 22.686 1.7361 22.2664C1.31655 21.8469 1.03082 21.3123 0.915067 20.7304C0.799312 20.1484 0.858722 19.5452 1.08578 18.997C1.31285 18.4489 1.69736 17.9803 2.19071 17.6507C2.68406 17.321 3.26408 17.1451 3.85742 17.1451H20.1431Z" stroke="#080517" stroke-width="1.5" stroke-linecap="round" stroke-linejoin="round"/>
</g>
<defs>
<clipPath id="clip0_443_248">
<rect width="24" height="24" fill="white"/>
</clipPath>
</defs>
</svg>
