<?xml version="1.0" encoding="utf-8"?>
<!-- Generator: Adobe Illustrator 25.2.1, SVG Export Plug-In . SVG Version: 6.00 Build 0)  -->
<svg version="1.1" id="Layer_1" xmlns="http://www.w3.org/2000/svg" xmlns:xlink="http://www.w3.org/1999/xlink" x="0px" y="0px"
	 viewBox="0 0 198.4 198.4" style="enable-background:new 0 0 198.4 198.4;" xml:space="preserve">
<style type="text/css">
	.st0{fill:#FFFFFF;}
</style>
<g>
	<path class="st0" d="M24.3,123.6c7.2-2.9,13.9-6,20.8-8.4c34-11.8,68.2-12.4,102.6-2c1.3,0.4,2.7,1.5,3.3,2.7
		c0.4,0.8-0.1,2.7-0.8,3.2c-1,0.7-2.7,1-4,0.8c-5.2-1.2-10.2-2.8-15.4-3.9c-36.2-7.3-70.7-2.4-103.5,14.4c-0.8,0.4-1.7,0.9-2.5,1.3
		c-2.2,1.1-3.9,0.8-5-1.4c-1.2-2.2-2.1-4.6-2.6-7.1c-2.1-10-3.2-20.1-2.2-30.3c2-19.7,10.1-36.4,24.3-50.1
		c17.8-17.1,39.2-25.7,64-25.2c21.1,0.5,39.2,8.6,54.4,23.2c1.8,1.8,2,3.9,0.5,5.4c-1.5,1.5-3.4,1.3-5.4-0.3
		c-3.7-3.1-7.5-6.2-11.6-9.6c-1.8,3.3-3.5,5.9-4.8,8.8c-4.4,9.3-6.4,19.1-7.3,29.2c-0.4,4.7-0.4,9.4-0.6,14.2c0,1-0.1,1.7,1.3,2
		c16,3,31.3,8.1,45.9,15.4c0.2,0.1,0.5,0.2,1.1,0.4c0.1-1.1,0.2-2.1,0.2-3.1c0.1-16.4-4.3-31.4-13.6-44.9c-0.3-0.5-0.7-0.9-1-1.4
		c-1.3-2-1.1-4,0.6-5.2c1.7-1.2,3.7-0.8,5.1,1.1c1.2,1.6,2.3,3.2,3.3,4.9c10.1,16.6,14.3,34.7,12,54.1c-0.5,4.6-1.5,9.2-2.3,13.7
		c0,0.3-0.1,0.6-0.2,0.8c-2.1,6.4-3.7,7.1-9.7,4.2c-3.7-1.8-7.3-3.5-11-5.3c-2.1-1-3-2.9-2.1-4.8c0.8-1.8,2.7-2.4,4.8-1.6
		c1.9,0.8,3.7,1.6,5.6,2.4c1.8,0.8,3.6,1.7,5.9,2.8c0.6-3.3,1.3-6.3,1.7-9.4c0.1-0.4-0.7-1.1-1.3-1.4c-11.8-6.2-24.2-10.8-37.2-14
		c-17.3-4.2-34.7-5.4-52.4-3.9c-21.5,1.9-41.9,7.9-61.1,17.9c-1,0.5-1.4,1-1.1,2.2C23.3,118.1,23.7,120.9,24.3,123.6z M21.9,106.2
		c0.5-0.2,0.8-0.3,1.2-0.5c14.4-7.1,29.5-12.2,45.3-15.1c1.6-0.3,1.8-1,1.8-2.3c0.1-9.1-0.8-18.1-2.6-27.1c-0.6-2.8,0.5-4.7,2.7-5
		c2.1-0.3,3.6,1,4.1,3.8c0.5,2.6,1,5.3,1.3,8c0.6,6.1,1,12.3,1.6,18.4c0.2,2.4,1,3,3.3,2.6c10.9-1.8,21.8-1.9,32.8-0.7
		c2.6,0.3,5.1,0.5,8,0.8c0-9.9,0.7-19.5,2.7-29c2.1-9.5,5.3-18.5,10.8-26.6c-20.7-11.8-50.6-11.8-71-0.1c1.7,3.3,3.6,6.4,5.2,9.8
		c1.6,3.2,1.1,5.3-1,6.2c-2.2,1-3.8-0.1-5.5-3.5c-1.5-3.1-3.3-6-5-9.1C31.2,53.3,19.9,82.7,21.9,106.2z"/>
	<path class="st0" d="M88.4,152.2c7.3-3.8,14.4-3.7,21.1-0.3c1.5-4.4,2.7-8.9,4.6-13c5.2-10.7,13.6-14.8,25.3-13.3
		c9,1.2,17.7,3.4,25.5,8.4c2.9,1.9,5.4,4.4,8.1,6.5c0.7,0.6,1.7,1.1,2.6,1.1c4.4,0.1,8.7,0,13.1,0.1c5.4,0,8.2,2.9,8.2,8.2
		c0,2.3,0,4.5,0,6.8c-0.1,4.3-3.2,7.4-7.5,7.5c-4.5,0.1-9,0.1-13.5,0c-1.3,0-2.2,0.4-3.1,1.4c-1.7,2-3.6,3.8-5.6,5.4
		c-1.9,1.5-3.9,1.3-5.2-0.4c-1.2-1.6-1-3.7,0.9-4.9c4.7-3.1,6.7-7.2,5.8-12.7c-0.1-0.8-0.2-1.8,0-2.6c0.7-3.5-1.1-5.7-3.7-7.7
		c-7.4-5.9-16.1-8.6-25.3-9.8c-2.7-0.3-5.5-0.4-8.2,0c-4.4,0.7-8,3.1-10.1,6.9c-4.3,7.5-6,15.4-3.1,23.9c2.3,6.8,7.4,10.6,14.5,10.1
		c5.6-0.3,11.2-1.4,16.8-2.2c0.6-0.1,1.3-0.4,1.9-0.4c1.8-0.2,3.5,0.8,3.8,2.5c0.4,1.9-0.2,3.6-2,4.1c-8.5,2.3-17.1,4.3-26,2.5
		c-8.4-1.7-13.7-7-15.9-15c-1.6-5.8-5.7-7.7-10.8-8.6c-3.2-0.5-6.4,0.3-9.2,2c-2.2,1.3-3.6,2.9-4.3,5.6
		c-2.2,9.2-10.4,15.9-19.8,16.3c-10.2,0.4-20.1-1.3-29.5-5.6c-4.9-2.2-9.2-5.3-12.7-9.4c-0.6-0.7-1.8-1.2-2.7-1.2
		c-4.3-0.1-8.6,0-12.9-0.1c-5.4,0-8.3-3-8.3-8.4c0-2.2,0-4.4,0-6.5c0.1-4.4,3.1-7.5,7.6-7.6c4.6-0.1,9.2,0,13.7-0.1
		c0.9,0,2-0.4,2.6-1.1c6.7-7.1,15.1-10.9,24.4-13.2c2-0.5,3.7,0.6,4.2,2.5c0.5,1.9-0.5,3.6-2.7,4.3c-3.4,1.2-7.1,2-10.2,3.7
		c-3.7,2-6.9,4.7-10.3,7.2c-0.7,0.5-1,1.7-1.1,2.6c-0.1,3.3,0,6.5-0.1,9.8c-0.1,1.8,0.6,3,1.7,4.3c4.8,5.3,11,8,17.7,9.7
		c5.9,1.5,12,2.3,18.1,2c5.9-0.3,10-3.3,12.3-8.6c3.8-8.4,1.6-21.1-4.7-27.8c-2.5-2.6-5.4-4.4-9.1-4.7c-0.4,0-0.9-0.2-1.3-0.2
		c-2.6-0.6-3.6-1.8-3.3-3.9c0.3-2,1.9-3.2,4.4-2.9c4.3,0.4,8.3,1.7,11.6,4.4c6.1,5,9.1,11.8,10.7,19.2
		C88.1,149.9,88.2,150.9,88.4,152.2z M8.5,157c4.8,0,9.4,0,14.1,0c0-2.8,0-5.5,0-8.3c-4.8,0-9.4,0-14.1,0
		C8.5,151.6,8.5,154.2,8.5,157z M175.8,148.8c0,2.9,0,5.5,0,8.2c4.8,0,9.4,0,14.1,0c0-2.8,0-5.5,0-8.2
		C185.1,148.8,180.6,148.8,175.8,148.8z"/>
</g>
</svg>
