<svg width="30" height="30" viewBox="0 0 30 30" fill="none" xmlns="http://www.w3.org/2000/svg">
<g clip-path="url(#clip0_474_168)">
<path d="M25.1784 21.4275C25.9201 21.4275 26.6451 21.6474 27.2618 22.0594C27.8785 22.4715 28.3592 23.0572 28.643 23.7424C28.9268 24.4276 29.0011 25.1816 28.8564 25.909C28.7117 26.6365 28.3545 27.3047 27.8301 27.8291C27.3056 28.3536 26.6374 28.7107 25.91 28.8554C25.1826 29.0001 24.4286 28.9258 23.7434 28.642C23.0581 28.3582 22.4725 27.8775 22.0604 27.2608C21.6484 26.6442 21.4284 25.9191 21.4284 25.1775V4.82031C21.4284 4.07863 21.6484 3.35361 22.0604 2.73693C22.4725 2.12024 23.0581 1.63959 23.7434 1.35577C24.4286 1.07194 25.1826 0.997675 25.91 1.14237C26.6374 1.28706 27.3056 1.64422 27.8301 2.16866C28.3545 2.69311 28.7117 3.3613 28.8564 4.08873C29.0011 4.81615 28.9268 5.57015 28.643 6.25538C28.3592 6.9406 27.8785 7.52627 27.2618 7.93833C26.6451 8.35038 25.9201 8.57031 25.1784 8.57031H4.82129C4.07961 8.57031 3.35459 8.35038 2.7379 7.93833C2.12122 7.52627 1.64057 6.9406 1.35674 6.25538C1.07291 5.57015 0.998651 4.81615 1.14335 4.08873C1.28804 3.3613 1.64519 2.69311 2.16964 2.16866C2.69409 1.64422 3.36227 1.28706 4.0897 1.14237C4.81713 0.997675 5.57113 1.07194 6.25635 1.35577C6.94158 1.63959 7.52725 2.12024 7.9393 2.73693C8.35136 3.35361 8.57129 4.07863 8.57129 4.82031V25.1775C8.57129 25.9191 8.35136 26.6442 7.9393 27.2608C7.52725 27.8775 6.94158 28.3582 6.25635 28.642C5.57113 28.9258 4.81713 29.0001 4.0897 28.8554C3.36227 28.7107 2.69409 28.3536 2.16964 27.8291C1.64519 27.3047 1.28804 26.6365 1.14335 25.909C0.998651 25.1816 1.07291 24.4276 1.35674 23.7424C1.64057 23.0572 2.12122 22.4715 2.7379 22.0594C3.35459 21.6474 4.07961 21.4275 4.82129 21.4275H25.1784Z" stroke="#080517" stroke-width="1.5" stroke-linecap="round" stroke-linejoin="round"/>
</g>
<defs>
<clipPath id="clip0_474_168">
<rect width="30" height="30" fill="white"/>
</clipPath>
</defs>
</svg>
