<?xml version="1.0" encoding="utf-8"?>
<!-- Generator: Adobe Illustrator 25.2.1, SVG Export Plug-In . SVG Version: 6.00 Build 0)  -->
<svg version="1.1" id="Layer_1" xmlns="http://www.w3.org/2000/svg" xmlns:xlink="http://www.w3.org/1999/xlink" x="0px" y="0px"
	 viewBox="0 0 198.4 198.4" style="enable-background:new 0 0 198.4 198.4;" xml:space="preserve">
<style type="text/css">
	.st0{fill:#FFFFFF;}
</style>
<g>
	<path class="st0" d="M1.4,97.7c0.7-3.9,1.2-7.9,2.3-11.8C8,69.8,18,58,32.1,49.6c1.7-1,3.3-0.7,4.2,0.7c0.9,1.4,0.5,3.1-1.3,4.2
		c-6.1,3.7-11.6,8.1-16,13.7C9.8,79.7,6.3,92.9,7.3,107.5c0.1,2.1,0.5,4.2,0.8,6.2c0.1,0.6,0.3,1.2,0.4,1.7c2.2-1.7,4.4-3.3,6.5-5
		c0.3-0.3,0.3-1.1,0.3-1.7c-0.9-10.3,0.5-20.2,5.6-29.3c5.6-10.1,14.3-16.7,24.6-21.4c9.5-4.3,19.5-6.6,29.7-8
		c0.7-0.1,1.5-0.2,2.2-0.4c0-2.6,0-5,0-7.9c-4.7,0.8-9.3,1.3-13.8,2.4c-5.3,1.2-10.5,2.9-15.8,4.4c-2.3,0.7-3.8,0.3-4.4-1.5
		c-0.6-1.8,0.3-3.1,2.6-3.9c9.8-3.6,19.9-5.7,30.2-6.8c1.2-0.1,2.1-0.4,2.9-1.5c1.3-1.8,3.2-2.7,5.4-2.7c9.8,0,19.6,0,29.4,0
		c2.2,0,4.1,0.9,5.4,2.7c0.8,1.1,1.6,1.4,2.8,1.5c13.3,1.5,26.2,4.4,38.3,10.3c15,7.3,26.4,18,32.5,33.8c2,5.1,3.2,10.4,3.7,15.9
		c0,0.5,0.2,1,0.3,1.5c0,3.3,0,6.6,0,9.9c-0.5,3.3-0.9,6.5-1.6,9.8c-0.6,2.7-1.3,5.5-2.2,8.1c-1.1,2.9-1.7,5.7-1.3,8.8
		c1,8.6-2.7,14.6-9.9,18.8c-0.9,0.5-1.8,1.2-2.7,1.7c-1.6,0.9-3.2,0.5-4-0.9c-0.8-1.3-0.5-2.8,0.9-3.8c2.1-1.5,4.3-3,6.4-4.6
		c2.4-1.8,3.6-4.2,3.6-7.2c0-4.8,0-9.7,0-14.5c0-3.5-1.6-6.1-4.6-7.8c-8.6-4.9-18-7.6-27.8-9c-7.3-1.1-14.7-1.6-22,0.3
		c-6.8,1.8-12.5,5.3-16.7,11c-3,4.1-6.6,7.4-11.9,8.3c-6.9,1.2-12.9-0.4-17.6-5.7c-0.5-0.5-0.9-1-1.4-1.6c-6.6-9.3-16-13-27-13.1
		c-13.4-0.1-26.2,2.9-38.3,8.8c-4.6,2.2-6.9,5.5-6.5,10.7c0.3,4.1,0.1,8.3,0,12.4c0,3.2,1.2,5.6,3.7,7.5c12.3,9.4,26,15.2,41.7,15.2
		c9.5,0,18-3.2,24.5-10.6c6.4-7.3,14.6-8.6,23.5-6.8c4.3,0.9,7.7,3.6,10.6,6.8c8,8.8,18.1,11.2,29.4,10.4c6.1-0.4,12-2.1,17.7-4.3
		c0.4-0.2,0.8-0.3,1.3-0.4c1.7-0.4,3.1,0.2,3.6,1.6c0.6,1.5,0,3.1-1.7,3.7c-4.3,1.4-8.5,3-12.9,4c-9.7,2.3-19.3,2-28.7-1.8
		c-4.8-2-9.1-4.8-12.5-8.8c-4.8-5.7-11-6.9-18-5.6c-3.4,0.6-5.9,2.7-8.1,5.1c-9,9.9-20.4,13.4-33.3,12.4c-15.2-1.2-28.8-7-40.8-16.4
		c-3.8-2.9-5.9-6.7-5.7-11.5c0.2-5.6-0.6-10.9-2.4-16.3c-1.4-4.1-1.7-8.6-2.5-12.9c-0.1-0.5-0.2-1.1-0.3-1.6
		C1.4,104.3,1.4,101,1.4,97.7z M21,107.4c0.6-0.2,1.1-0.4,1.6-0.6c10.4-4,21.2-6.5,32.4-6.5c4.7,0,9.4,0.6,14,1.6
		c7.7,1.8,14,6.1,18.9,12.5c2,2.7,4.2,5.2,7.6,6.1c5.8,1.7,10.6,0,14.9-5.7c7.2-9.4,16.9-13.8,28.4-14.5c11.1-0.7,21.8,1.3,32.3,4.7
		c2.1,0.7,4.3,1.5,6.4,2.3c1.6-16.1-4.3-31.4-20.7-41c-11.4-6.6-23.9-9.5-36.8-11c-0.6-0.1-1.3,0.3-1.9,0.5
		c-1.6,0.4-3.2,1.3-4.9,1.3c-9.2,0.1-18.5,0.1-27.7,0c-1.2,0-2.6,0-3.5-0.7c-1.9-1.3-3.9-1.2-6-0.8c-1.1,0.2-2.1,0.3-3.2,0.5
		c-10.9,1.8-21.5,4.7-31.1,10.4C25.2,76.1,19.4,91.4,21,107.4z M121,49.4c0.3,0.1,0.5,0.2,0.8,0.2c0.4,0.1,0.9,0.1,1.3,0.2
		c10.3,1.3,20.4,3.7,29.9,8c11,5,20.1,12.2,25.6,23.3c4.3,8.7,5.4,17.9,4.6,27.5c0,0.6,0,1.4,0.3,1.7c2.1,1.7,4.3,3.4,6.4,5
		c1.4-5.1,1.8-14.5,0.9-20.7c-2.6-17.5-11.7-30.6-26.7-39.8c-10.5-6.4-22.1-9.8-34.2-11.9c-2.9-0.5-5.8-0.9-8.9-1.3
		C121,44.5,121,47,121,49.4z M99.3,37.7c-4.6,0-9.2,0-13.7,0c-1.7,0-2.5,0.5-2.4,2.3c0.1,3,0.1,6.1,0,9.2c0,1.7,0.7,2.2,2.3,2.2
		c9.2,0,18.3,0,27.5,0c1.8,0,2.4-0.7,2.3-2.4c-0.1-3-0.1-6,0-9c0-1.8-0.7-2.3-2.4-2.3C108.3,37.7,103.8,37.7,99.3,37.7z"/>
	<path class="st0" d="M144.1,110.7c7.2,0.3,14.1,1.6,20.5,4.9c1.7,0.9,3.3,1.9,4.8,3c7.3,5.7,8.7,13.9,3.7,21.6
		c-4.4,6.8-10.9,10.9-18.4,13.5c-7.2,2.5-14.5,2.6-21.7,0.2c-9.8-3.3-15.8-12-15.3-21.7c0.6-10.2,7.7-18.3,18-20.4
		C138.5,111.3,141.3,111.1,144.1,110.7z M144.4,116.7c0-0.2-0.1-0.3-0.1-0.5c-3.3,0.7-6.8,1.1-10,2.2c-6.7,2.3-10.7,8-10.8,14.7
		c-0.1,6.7,3.7,12.4,10.4,15c8.5,3.4,16.6,2.1,24.4-2.1c4.6-2.4,8.5-5.6,10.9-10.4c2.1-4.2,1.5-8.1-2-11.3c-1.6-1.4-3.4-2.7-5.3-3.7
		C156.4,117.9,150.5,116.8,144.4,116.7z"/>
	<path class="st0" d="M54.4,110.4c3.9,0.8,7.9,1.2,11.6,2.5c9.2,3.2,14.8,11.3,14.6,20.6c-0.2,9.5-6.1,17.4-15.5,20.5
		c-13.4,4.4-30.2-0.8-38.7-12.1c-3.2-4.3-5-9-3.6-14.5c0.9-3.7,3.2-6.6,6.2-8.9c5.5-4.3,11.9-6.2,18.6-7.2c2.2-0.3,4.4-0.4,6.6-0.6
		C54.3,110.7,54.3,110.6,54.4,110.4z M54.2,116.7c-7.4,0.2-14.4,1.5-20.7,5.7c-6.3,4.2-7.2,10-2.6,16c3.8,5,8.9,8.1,14.8,10
		c7.4,2.4,14.7,2.4,21.6-1.7c10.3-6.2,10.3-20.6-0.1-26.9C63.2,117.4,58.8,116.6,54.2,116.7z"/>
	<path class="st0" d="M110.6,44.4c0,0.8,0.1,1.5,0,2.3c-0.2,1.6-1.5,2.7-3,2.5c-1.6-0.2-2.5-1.1-2.6-2.7c-0.1-1.3-0.1-2.5,0-3.8
		c0.1-1.8,1.2-3,2.7-3.1c1.6-0.1,2.9,1.2,3,3.1C110.7,43.3,110.6,43.9,110.6,44.4C110.6,44.4,110.6,44.4,110.6,44.4z"/>
</g>
</svg>
