<?xml version="1.0" encoding="utf-8"?>
<!-- Generator: Adobe Illustrator 25.2.1, SVG Export Plug-In . SVG Version: 6.00 Build 0)  -->
<svg version="1.1" id="Layer_1" xmlns="http://www.w3.org/2000/svg" xmlns:xlink="http://www.w3.org/1999/xlink" x="0px" y="0px"
	 viewBox="0 0 198.4 198.4" style="enable-background:new 0 0 198.4 198.4;" xml:space="preserve">
<style type="text/css">
	.st0{fill:#000000;}
</style>
<g>
	<path class="st0" d="M144.8,51.4c0,27.6-22.5,50-50.1,50c-27.7,0-50-22.4-50-50c0-27.6,22.4-50,50.1-50
		C122.4,1.4,144.8,23.9,144.8,51.4z M94.6,87.8c20.1,0.1,36.5-16.3,36.5-36.4c0-20-16.2-36.3-36.3-36.4C74.7,15,58.4,31.2,58.3,51.2
		C58.2,71.4,74.4,87.7,94.6,87.8z"/>
	<path class="st0" d="M197,137.8c0,21.8-18.8,38.6-40.5,36.3c-0.8-0.1-1.9,0.5-2.5,1c-6.4,6.3-12.7,12.6-19,19c-2,2-4.2,2.9-7,2.9
		c-6.3-0.1-12.6,0-19,0c-4.8,0-7.5-2.7-7.6-7.5c0-6.5,0-12.9,0-19.4c0-2.5,0.9-4.5,2.7-6.3c6-5.9,11.8-11.9,17.8-17.7
		c1.9-1.8,2.6-3.6,2.4-6.3c-0.9-17.8,10.6-33.1,27.7-37.3C175,96.9,197,114.2,197,137.8z M115.1,183.3c3.3,0,6.4,0.1,9.4-0.1
		c1.1-0.1,2.5-0.6,3.3-1.4c6.6-6.4,13-12.9,19.5-19.4c2.4-2.4,4.9-3.2,8.3-2.5c16,3.5,30.5-10.2,27.5-26
		c-2.4-12.7-14.3-21-26.7-18.5c-12.6,2.5-20.6,14.5-17.9,27.3c0.8,3.5-0.1,6.2-2.6,8.6c-6.5,6.4-13,12.9-19.4,19.4
		c-0.6,0.6-1.2,1.4-1.2,2.1C115.1,176.3,115.1,179.6,115.1,183.3z"/>
	<path class="st0" d="M50.6,188c-10.9,0-21.7,0-32.6,0c-10.2,0-16.5-6.3-16.5-16.5c0-5.5-0.3-11,0.4-16.4c1.2-9.6,6.8-16.9,14-22.9
		c10-8.4,21.8-13.4,34.3-17c19.2-5.5,38.8-6.9,58.7-5.4c3.9,0.3,6.5,3.4,6.3,7.2c-0.2,3.6-3.2,6.4-6.9,6.4c-6-0.1-11.9-0.5-17.9-0.4
		c-19,0.5-37.4,3.7-54.6,12.3c-5.4,2.7-10.3,6-14.5,10.4c-4.1,4.3-6.5,9.2-6.2,15.3c0.2,3.4,0,6.8,0,10.2c0,2.6,0.3,2.9,3,2.9
		c21.9,0,43.8,0,65.7,0c0.9,0,1.9,0,2.8,0.1c3.6,0.6,6.1,3.7,5.9,7.2c-0.2,3.5-3.1,6.3-6.8,6.3C74,188,62.3,188,50.6,188z"/>
	<path class="st0" d="M150.8,137.7c0.1-5.5,4.5-9.8,10-9.7c5.4,0.1,9.7,4.4,9.6,9.9c0,5.4-4.5,9.9-9.9,9.8
		C155.1,147.7,150.8,143.2,150.8,137.7z"/>
</g>
</svg>
