<svg width="24" height="24" viewBox="0 0 24 24" fill="none" xmlns="http://www.w3.org/2000/svg">
<g clip-path="url(#clip0_430_7155)">
<path d="M12.8058 11.8285C12.5515 11.9389 12.2773 11.9959 12.0001 11.9959C11.7229 11.9959 11.4486 11.9389 11.1944 11.8285L1.42294 7.30276C1.26427 7.22272 1.13092 7.10022 1.03776 6.94888C0.944593 6.79755 0.895264 6.62332 0.895264 6.44561C0.895264 6.2679 0.944593 6.09367 1.03776 5.94234C1.13092 5.791 1.26427 5.6685 1.42294 5.58847L11.1944 1.02847C11.4486 0.918058 11.7229 0.861084 12.0001 0.861084C12.2773 0.861084 12.5515 0.918058 12.8058 1.02847L22.5772 5.55418C22.7359 5.63421 22.8692 5.75672 22.9624 5.90805C23.0556 6.05939 23.1049 6.23361 23.1049 6.41133C23.1049 6.58904 23.0556 6.76326 22.9624 6.9146C22.8692 7.06593 22.7359 7.18844 22.5772 7.26847L12.8058 11.8285Z" stroke="#080517" stroke-width="1.5" stroke-linecap="round" stroke-linejoin="round"/>
<path d="M23.1429 12.5999L12.6857 17.417C12.4624 17.5189 12.2198 17.5716 11.9743 17.5716C11.7288 17.5716 11.4862 17.5189 11.2629 17.417L0.857178 12.5999" stroke="#080517" stroke-width="1.5" stroke-linecap="round" stroke-linejoin="round"/>
<path d="M23.1429 18.1714L12.6857 22.9885C12.4624 23.0904 12.2198 23.1431 11.9743 23.1431C11.7288 23.1431 11.4862 23.0904 11.2629 22.9885L0.857178 18.1714" stroke="#080517" stroke-width="1.5" stroke-linecap="round" stroke-linejoin="round"/>
</g>
<defs>
<clipPath id="clip0_430_7155">
<rect width="24" height="24" fill="white"/>
</clipPath>
</defs>
</svg>
