<svg width="24" height="24" viewBox="0 0 24 24" fill="none" xmlns="http://www.w3.org/2000/svg">
<g clip-path="url(#clip0_443_377)">
<path d="M17.314 6.6875C19.1654 7.47869 21.2478 7.53994 23.1425 6.85893" stroke="#080517" stroke-width="1.5" stroke-linecap="round" stroke-linejoin="round"/>
<path d="M6.85673 23.1466C7.53712 21.2458 7.47591 19.1584 6.6853 17.3008C6.06647 15.8218 5.89905 14.1927 6.20409 12.6186C6.50914 11.0446 7.27302 9.59597 8.39959 8.45513C9.55445 7.31221 11.0218 6.53677 12.6167 6.22656" stroke="#080517" stroke-width="1.5" stroke-linecap="round" stroke-linejoin="round"/>
<path d="M11.3141 17.7794C12.9167 17.4666 14.3904 16.685 15.5484 15.5337C16.6769 14.3941 17.4421 12.9454 17.7473 11.3708C18.0524 9.7963 17.8838 8.16663 17.2627 6.68795C16.4882 4.82993 16.4453 2.74769 17.1427 0.859375" stroke="#080517" stroke-width="1.5" stroke-linecap="round" stroke-linejoin="round"/>
<path d="M0.856934 17.1442C2.75251 16.46 4.83812 16.5274 6.68551 17.3328" stroke="#080517" stroke-width="1.5" stroke-linecap="round" stroke-linejoin="round"/>
<path d="M8.46826 8.45312L15.5483 15.5331" stroke="#080517" stroke-width="1.5" stroke-linecap="round" stroke-linejoin="round"/>
</g>
<defs>
<clipPath id="clip0_443_377">
<rect width="24" height="24" fill="white"/>
</clipPath>
</defs>
</svg>
