<svg width="24" height="24" viewBox="0 0 24 24" fill="none" xmlns="http://www.w3.org/2000/svg">
<g clip-path="url(#clip0_427_5405)">
<path d="M12 22.9542C13.1256 22.9542 14.2402 22.7325 15.2801 22.3017C16.3201 21.8709 17.265 21.2396 18.0609 20.4436C18.8568 19.6477 19.4882 18.7028 19.919 17.6629C20.3497 16.6229 20.5714 15.5084 20.5714 14.3827V9.61702C20.5715 7.51134 19.7966 5.47929 18.3943 3.90845" stroke="#080517" stroke-width="1.5" stroke-linecap="round" stroke-linejoin="round"/>
<path d="M3.42859 11.52V14.3829C3.42801 16.0702 3.92548 17.7202 4.85864 19.1261C5.7918 20.5319 7.11914 21.631 8.6743 22.2857" stroke="#080517" stroke-width="1.5" stroke-linecap="round" stroke-linejoin="round"/>
<path d="M16.2857 2.19423C14.317 1.05764 11.9775 0.749632 9.7817 1.33796C7.58593 1.92628 5.7138 3.36275 4.57712 5.33138C4.10908 6.13971 3.77885 7.02032 3.59998 7.93709" stroke="#080517" stroke-width="1.5" stroke-linecap="round" stroke-linejoin="round"/>
<path d="M11.1086 6.01708C11.7392 5.88618 12.391 5.89847 13.0161 6.05305C13.6413 6.20762 14.2237 6.50053 14.7206 6.91018C15.2174 7.31984 15.616 7.83579 15.8869 8.41999C16.1578 9.00419 16.2941 9.64175 16.2858 10.2856V13.0456" stroke="#080517" stroke-width="1.5" stroke-linecap="round" stroke-linejoin="round"/>
<path d="M15.1886 16.6456C14.6053 17.2953 13.8375 17.7514 12.9879 17.9527C12.1383 18.1541 11.2475 18.0912 10.4346 17.7724C9.6218 17.4536 8.92572 16.8941 8.43956 16.1689C7.9534 15.4436 7.70035 14.5872 7.71429 13.7141V10.2856C7.71103 9.6968 7.82769 9.11352 8.05715 8.57129" stroke="#080517" stroke-width="1.5" stroke-linecap="round" stroke-linejoin="round"/>
<path d="M12 10.4741V13.337" stroke="#080517" stroke-width="1.5" stroke-linecap="round" stroke-linejoin="round"/>
</g>
<defs>
<clipPath id="clip0_427_5405">
<rect width="24" height="24" fill="white"/>
</clipPath>
</defs>
</svg>
