<?xml version="1.0" encoding="utf-8"?>
<!-- Generator: Adobe Illustrator 25.2.1, SVG Export Plug-In . SVG Version: 6.00 Build 0)  -->
<svg version="1.1" id="Layer_1" xmlns="http://www.w3.org/2000/svg" xmlns:xlink="http://www.w3.org/1999/xlink" x="0px" y="0px"
	 viewBox="0 0 198.4 198.4" style="enable-background:new 0 0 198.4 198.4;" xml:space="preserve">
<style type="text/css">
	.st0{fill:#FFFFFF;}
</style>
<g>
	<path class="st0" d="M197,129.8c-3.8,5.1-8.5,8.9-14.7,10.6c-9.3,2.6-17.5,0.4-24.7-5.8c-0.5-0.4-0.9-0.8-1.5-1.4
		c-5.3,5.2-11.5,8.2-18.9,8.2c-7.4,0-13.7-3-19-8.3c-5.3,5.2-11.5,8.3-18.9,8.3c-7.4,0-13.7-3-19.1-8.3c-5.2,5.2-11.4,8.2-18.9,8.3
		c-7.4,0-13.7-2.9-19-8.2c-0.4,0.4-0.9,0.7-1.3,1.1c-12,10.9-29.8,9.1-39.2-4.2c-0.1-0.1-0.3-0.3-0.4-0.4c0-0.6,0-1.3,0-1.9
		c2-2.7,3.6-2.7,5.7-0.1c8.4,10.1,22,10.7,31,1.4c0.7-0.7,1.2-2,1.2-3c0.1-6.1,0.1-12.2,0.1-18.3c0-0.6,0-1.2,0-1.7
		c0.2-1.8,1.4-2.9,3-2.7c1.8,0.1,2.6,1.2,2.6,2.9c0,3.5,0,7,0,10.5c0,2.3,0.3,4.6-0.1,6.9c-0.6,3.8,1.3,6.1,4.2,8
		c0.9,0.6,1.9,1.2,3.2,2c0-1.2,0-1.9,0-2.7c0-24.4,0-48.8,0-73.2c0-9.6,4-16.9,12.8-21c13.4-6.3,29.4,3.7,29.8,18.5
		c0.2,6.6,0,13.2,0.1,19.9c0,0.7,0,1.4,0,2.2c2.4,0,4.7,0,7.1,0c0-0.5,0.1-1,0.1-1.6c0-6.4,0.1-12.9,0-19.3
		c-0.1-14.4-10-26-24.1-28.5c-15.7-2.8-31.7,9.3-32.8,25.2c-0.4,6.3-0.2,12.6-0.3,18.9c0,6.9,0,13.8,0,20.6c0,0.5,0,1,0,1.5
		c-0.1,2-1.1,3.2-2.8,3.2c-1.7,0-2.9-1.2-2.9-3.3c-0.1-2.9,0-5.7,0-8.6c0-0.7,0-1.4,0-2.3c-0.9,0-1.7,0-2.4,0c-10.3,0-20.6,0-30.9,0
		c-0.6,0-1.3,0-1.9-0.1c-1.4-0.2-2.3-1.1-2.4-2.5c-0.1-1.4,0.5-2.5,1.9-2.9c0.7-0.2,1.5-0.2,2.3-0.2c10.3,0,20.6,0,30.9,0
		c0.7,0,1.5,0,2.5,0c0-0.9,0-1.7,0-2.4c0.1-7.3-0.2-14.7,0.3-22c1.2-17.9,17-31.9,34.9-31.2C88.1,22.5,98,29.2,104.4,41
		c0.2,0.3,0.3,0.7,0.5,1c0,0.1,0.1,0.1,0.2,0.3c0.3-0.5,0.6-0.9,0.8-1.4c7.1-13.8,21.6-21.1,36.9-18.5c14.4,2.5,25.9,14.8,27.8,29.7
		c0.4,2.8,0.3,5.7,0.3,8.6c0,5.5,0,11.1,0,16.7c0.8,0,1.5,0.1,2.2,0.1c6.5,0,13,0,19.5,0c1.8,0,3.3,0.3,4.3,1.8c0,0.6,0,1.3,0,1.9
		c-0.9,1.7-2.3,2-4.1,2c-23.1,0-46.2,0-69.3,0c-0.8,0-1.6,0-2.4,0c-0.1,0.6-0.1,0.8-0.1,1.1c0,14.1,0,28.1,0,42.2
		c0,0.8,0.5,1.8,1.1,2.4c8.9,9.5,22.8,8.8,31.2-1.4c1.8-2.2,3.6-2.3,5.3-0.1c9,11,23.5,11.1,32.6,0.2c2-2.4,3.7-2.4,5.6,0.3
		C197,128.5,197,129.1,197,129.8z M165.3,77.5c0-2.4,0-4.7,0-7c-0.1-6.2,0.3-12.4-0.5-18.5C163,36.5,147.3,25.2,132,28
		c-14.2,2.6-24,14.2-24,28.6c0,25,0,50,0,75.1c0,0.5,0.1,1.1,0.1,2.2c2-1.5,3.6-2.8,5.3-4c1.4-1.1,1.9-2.4,1.9-4.3
		c-0.1-18.3,0-36.7,0-55c0-4.7-0.1-9.4,0-14.1c0.4-15.2,15.1-25.4,28.8-20.1C153.5,39.9,159,48.5,158,60c-0.1,1.6-1.2,2.5-2.8,2.5
		c-1.6,0-2.6-1-2.8-2.6c-0.1-1.5,0-2.9-0.1-4.4c-0.4-9.7-9.8-16.8-19.2-14.5c-7.1,1.7-11.9,8.1-12,15.8c-0.1,6.3,0,12.6,0,18.9
		c0,0.5,0.1,1.1,0.1,1.6c10.5,0,20.7,0,30.9,0c0.1-0.2,0.1-0.3,0.1-0.3c0-1.8,0-3.6,0.1-5.3c0-2.1,1.1-3.4,2.8-3.4
		c1.8,0,2.9,1.3,2.9,3.5c0,1.9,0,3.8,0,5.7C160.6,77.5,162.8,77.5,165.3,77.5z M58.3,77.4c10.3,0,20.6,0,30.9,0
		c0-7.4,0.1-14.6,0-21.8c-0.1-7.8-6.7-14.4-14.4-14.8C66.7,40.3,59.1,46,58.5,54C57.9,61.7,58.3,69.5,58.3,77.4z M58.2,117.2
		c0,6.1,0,12.1,0,18.6c2.4-0.2,4.8-0.1,7-0.5c5.1-0.9,9.1-3.8,12.3-7.8c1.1-1.4,2.3-2.1,3.9-1.2c0.7,0.3,1.2,1.1,1.7,1.7
		c5,5.8,11.2,8.5,19,7.5c0-6.2,0-12.2,0-18.3C87.5,117.2,72.9,117.2,58.2,117.2z M58.3,83.3c0,4.8,0,9.4,0,14c14.8,0,29.3,0,43.9,0
		c0-4.8,0-9.4,0-14C87.5,83.3,72.9,83.3,58.3,83.3z M58.3,103.4c0,2.7,0,5.2,0,7.8c14.7,0,29.3,0,43.9,0c0-2.7,0-5.2,0-7.8
		C87.5,103.4,72.9,103.4,58.3,103.4z"/>
	<path class="st0" d="M137.2,168.3c-10.4,10.3-26.5,11.4-38,0.2c-1.9,1.4-3.7,2.9-5.7,4.2c-1.7,1.2-3.4,0.8-4.3-0.6
		c-0.9-1.5-0.4-2.9,1.3-4.2c2.1-1.7,4.2-3.5,6.1-5.4c1.8-1.9,3.5-1.9,5.3,0.2c4.7,5.7,10.5,8.7,18,8.1c6-0.5,10.7-3.4,14.5-7.9
		c2-2.4,3.6-2.4,5.6-0.1c9.1,10.9,23.5,10.8,32.5,0c0.5-0.6,1.2-1.5,1.9-1.5c1.1,0,2.4,0.4,3.1,1.1c1.1,1.1,0.6,2.5-0.3,3.6
		c-3.7,4.7-8.4,8.2-14.3,9.7c-9.1,2.4-17.2,0.2-24.3-6C138.2,169.2,137.8,168.8,137.2,168.3z"/>
	<path class="st0" d="M61.2,168.3c-4.1,4-8.8,6.9-14.4,7.8c-10.5,1.7-18.9-2.1-25.5-10.3c-1.2-1.5-1-3.2,0.2-4.2
		c1.3-1.1,3-0.8,4.3,0.8c4.6,5.7,10.5,8.8,17.9,8.3c5.9-0.4,10.6-3.2,14.4-7.6c2.5-2.9,3.7-2.9,6.2,0c4,4.6,8.9,7.4,15.2,7.7
		c0.2,0,0.4,0,0.6,0c1.9,0.2,3.1,1.5,3,3c-0.1,1.6-1.4,2.7-3.3,2.7c-6.1-0.1-11.4-2.2-16.1-6C62.9,169.8,62.1,169,61.2,168.3z"/>
</g>
</svg>
