<?xml version="1.0" encoding="utf-8"?>
<!-- Generator: Adobe Illustrator 25.2.1, SVG Export Plug-In . SVG Version: 6.00 Build 0)  -->
<svg version="1.1" id="Layer_1" xmlns="http://www.w3.org/2000/svg" xmlns:xlink="http://www.w3.org/1999/xlink" x="0px" y="0px"
	 viewBox="0 0 198.4 198.4" style="enable-background:new 0 0 198.4 198.4;" xml:space="preserve">
<style type="text/css">
	.st0{fill:#FFFFFF;}
</style>
<g>
	<path class="st0" d="M197,148.5c-1.8,4.7-5.3,6.5-10.2,6.1c-1.7-0.1-3.4,0-5.2,0c-1.2,0-2,0.2-2.6,1.3c-1.1,2-3,2.8-5.1,2.9
		c-5.1,0.2-9,2.4-12.6,6.2c-8.2,8.6-18.6,11.5-30.1,10.2c-10.2-1.1-18.7-5.7-24.4-14.5c-1-1.5-1.6-3.3-2.6-4.9
		c-0.3-0.5-1-1.1-1.6-1.1c-2.3-0.1-4.6-0.1-6.9,0c-0.5,0-1.3,0.5-1.5,0.9c-6.2,13.9-17.5,19.6-32,19.7c-10.5,0.1-19.5-3.7-26.5-11.7
		c-2.8-3.1-6.4-4.5-10.5-4.7c-2.7-0.2-4.9-1-6.3-3.5c-0.2-0.4-1-0.6-1.6-0.7c-1.9-0.1-3.8-0.2-5.7,0c-4.9,0.4-8.4-1.4-10.2-6.1
		c0-1.1,0-2.3,0-3.4c1.6-4.7,5-6.7,9.8-6.3c1.1,0.1,2.2,0,3.2,0c2.2,0.1,4.3,0.3,5.7-2.2c0.5-0.9,2.2-1.4,3.4-1.8
		c1.2-0.4,2.5-0.3,3.8-0.5c3.7-0.6,6.5-2.5,9-5.2c13.7-15,39.7-14.8,52.8,0.6c2,2.3,3.3,5.1,4.7,7.8c0.5,1,1,1.5,2.1,1.4
		c2.2-0.1,4.3,0.1,6.5-0.1c0.6,0,1.5-0.6,1.8-1.2c5-11.6,14.3-17.4,26.3-19.2c9.1-1.4,17.6,0.5,25.4,5.5c1.2,0.7,2.1,1.8,1.5,3.1
		c-0.4,1-1.5,1.9-2.5,2.2c-0.7,0.2-1.8-0.4-2.6-0.9c-5.6-3.4-11.7-4.9-18.2-4.6c-5.9,0.3-11.4,2-16.2,5.4
		c-13.4,9.7-12.7,27.4,1.5,36c11.9,7.3,29.6,5.7,39.1-5.5c3.2-3.7,7.4-5.7,12.2-6.4c-1.6-4.4-1.6-8.7-0.1-13c-2.2-0.8-4.7-1.7-7-2.7
		c-0.8-0.3-1.5-0.8-2.1-1.3c-1.2-1.1-1.5-2.4-0.6-3.7c0.9-1.3,2.3-1.8,3.7-0.9c3.1,2.1,6.7,2.7,10.3,3.1c1.9,0.2,3.4,1.2,4.3,2.8
		c0.5,1,1.2,1.3,2.3,1.2c1.9-0.1,3.8,0.1,5.7,0c4.9-0.3,8.2,1.6,9.8,6.3C197,146.2,197,147.3,197,148.5z M27.7,153.3
		c4.9,0.7,9.1,2.8,12.4,6.5c9.5,11.1,27.3,12.5,39.1,5.2c14.1-8.8,14.7-26.4,1.1-36c-12.1-8.6-30.1-6.7-40,4.2
		c-3.1,3.5-6.9,5.7-11.6,6.5c-0.4,0.1-0.8,0.3-0.9,0.3C29.1,144.6,29.3,148.9,27.7,153.3z M22.9,144.5c-4.7,0-9.2,0-13.7,0
		c-1.3,0-2.2,0.9-2,2.1c0.2,0.8,1.2,2.1,1.9,2.1c4.5,0.2,9.1,0.1,13.7,0.1C22.9,147.3,22.9,146.1,22.9,144.5z M175.5,148.8
		c4.6,0,9,0,13.4,0c1.3,0,2.2-0.7,2.3-2c0.1-1.4-0.7-2.2-2.1-2.2c-4.5-0.1-9,0-13.6,0C175.5,146,175.5,147.3,175.5,148.8z
		 M95.9,144.6c0,1.5,0,2.8,0,4.1c2.3,0,4.5,0,6.6,0c0-1.5,0-2.8,0-4.2c-1.8,0-3.5,0-5.3,0C96.8,144.5,96.4,144.6,95.9,144.6z"/>
	<path class="st0" d="M99.4,23.1c38.2,0.2,70.5,26.5,78.3,64c1.3,6,1.8,12.2,2.4,18.3c0.6,5.9-4.3,10.2-10.2,9.3
		c-29.6-4.6-59.3-6.3-89.3-5.1c-17.5,0.7-34.9,2.4-52.2,5.1c-5.5,0.9-10.6-3.1-10.2-8.6c1-14.5,3.3-28.7,10.6-41.6
		C35.5,52.9,44.3,43.4,55.4,36c0.4-0.2,0.8-0.5,1.1-0.7c1.9-1.2,3.6-0.9,4.5,0.6c0.9,1.5,0.4,3-1.3,4.2c-2.7,1.9-5.4,3.9-8,5.8
		c-0.3,0.2-0.5,0.4-0.7,0.6c-2.9,2.5-3.1,3.1-0.5,6c1.3,1.5,3.2,2.7,4.9,3.8c1.9,1.2,4.1,2.1,5.9,3.5c5,3.6,7.4,9.7,5.8,14.9
		c-1.2,4-4.1,6.6-7.5,8.5c-5.1,2.9-10.3,5.5-15.4,8.4c-6.2,3.5-12.4,7.1-18.5,10.7c-1.4,0.8-2.2,3.4-1.5,5c0.8,1.8,2.2,2,4,1.8
		c27.5-4.2,55.1-6.1,83-5.3c19.9,0.5,39.8,2.3,59.5,5.3c1.7,0.3,3.1-0.1,3.7-1.8c0.6-1.6-0.1-4.2-1.3-4.9
		c-8.6-4.9-17.2-9.7-25.7-14.5c-2.5-1.4-5.1-2.8-7.7-4.2c-0.7-0.4-1.4-0.8-2.1-1.3c-10.7-7.2-6.5-18,0-22.6c2-1.4,4.3-2.5,6.5-3.6
		c2.6-1.3,4.5-3.2,5.7-5.9c0.4-0.8,0.4-1.4-0.4-2.1c-11.8-10.5-25.5-16.8-41.2-18.7c-12.9-1.5-25.4,0.2-37.4,5.2
		c-2.1,0.9-3.8,0.3-4.4-1.4c-0.6-1.6,0.2-3,2.4-3.9C78.4,25.1,88.7,23,99.4,23.1z M44,53.2C33.2,65.4,27,79.3,25.2,95.5
		c0.6-0.3,1-0.4,1.4-0.6c5.8-3.2,11.6-6.5,17.5-9.7c4.6-2.6,9.4-4.9,13.8-7.7c5.2-3.3,5.4-8.7,0.5-12.6c-1.6-1.3-3.4-2.2-5.2-3.1
		C49.3,59.8,46.1,57.4,44,53.2z M173.3,95.5c-1.9-16.1-8.1-30.1-18.8-42.2c-1.7,3-3.7,5.4-6.6,7c-1.9,1-4,1.8-5.7,3.1
		c-1.7,1.2-3.4,2.7-4.5,4.5c-2,3.1-1.4,6,1.4,8.3c1.7,1.4,3.7,2.6,5.7,3.7c9.1,5,18.2,10,27.2,15C172.4,95.1,172.7,95.2,173.3,95.5z
		"/>
	<path class="st0" d="M136.1,126.2c7.5,0.1,14.4,2.5,19.8,8.4c6.4,7,6.5,16.7,0.2,23.9c-10.1,11.5-30.9,11.4-40.8-0.3
		c-6.4-7.5-5.7-18,1.7-24.9C122.2,128.4,128.6,126.3,136.1,126.2z M137.6,132c-7.1,0-11.9,1.6-15.7,4.5c-7,5.5-7.1,14.2-0.4,20
		c7.7,6.6,21.2,6.5,28.8-0.2c6.2-5.5,6.3-13.7,0.1-19.1C146.3,133.5,141.3,132,137.6,132z"/>
	<path class="st0" d="M64.5,126.3c6.3,0.2,13.6,2.7,19,9.3c6,7.4,5.3,16.9-1.4,23.9c-9.9,10.2-29,10.2-38.9,0
		c-8.7-8.9-6.9-21.9,4.1-28.8C51.9,127.6,57.1,126.2,64.5,126.3z M62.3,161.4c6.2,0,11.8-2.2,15.5-5.8c5.3-5.3,5.3-12.7,0-18
		c-7.5-7.4-22.3-7.6-30-0.3c-6,5.7-5.7,13.8,0.6,19.1C52.5,160,57.4,161.3,62.3,161.4z"/>
</g>
</svg>
