<svg width="24" height="24" viewBox="0 0 24 24" fill="none" xmlns="http://www.w3.org/2000/svg">
<g clip-path="url(#clip0_454_2593)">
<path d="M15.0172 22.286C16.0729 22.9671 17.3309 23.2639 18.5797 23.1265C19.8285 22.9892 20.992 22.426 21.8744 21.5318L22.6458 20.7775C22.984 20.4315 23.1734 19.967 23.1734 19.4832C23.1734 18.9994 22.984 18.5348 22.6458 18.1889L19.3715 14.9489C19.0285 14.6118 18.5668 14.4229 18.0858 14.4229C17.6048 14.4229 17.1431 14.6118 16.8001 14.9489V14.9489C16.4542 15.2871 15.9896 15.4765 15.5058 15.4765C15.022 15.4765 14.5574 15.2871 14.2115 14.9489L9.06866 9.80604C8.89709 9.63697 8.76086 9.43548 8.66786 9.21328C8.57487 8.99109 8.52699 8.75262 8.52699 8.51175C8.52699 8.27088 8.57487 8.03242 8.66786 7.81022C8.76086 7.58803 8.89709 7.38653 9.06866 7.21747V7.21747C9.40578 6.87443 9.59468 6.41271 9.59468 5.93175C9.59468 5.45079 9.40578 4.98907 9.06866 4.64604L5.81151 1.38889C5.46558 1.05069 5.00101 0.861328 4.51723 0.861328C4.03344 0.861328 3.56887 1.05069 3.22294 1.38889L2.46866 2.16032C1.57439 3.04274 1.01123 4.20615 0.873861 5.45495C0.736493 6.70375 1.0333 7.96176 1.71437 9.01747C5.26302 14.2473 9.77826 18.7509 15.0172 22.286V22.286Z" stroke="white" stroke-linecap="round" stroke-linejoin="round"/>
</g>
<defs>
<clipPath id="clip0_454_2593">
<rect width="24" height="24" fill="white"/>
</clipPath>
</defs>
</svg>
