<?xml version="1.0" encoding="utf-8"?>
<!-- Generator: Adobe Illustrator 25.2.1, SVG Export Plug-In . SVG Version: 6.00 Build 0)  -->
<svg version="1.1" id="Layer_1" xmlns="http://www.w3.org/2000/svg" xmlns:xlink="http://www.w3.org/1999/xlink" x="0px" y="0px"
	 viewBox="0 0 198.4 198.4" style="enable-background:new 0 0 198.4 198.4;" xml:space="preserve">
<style type="text/css">
	.st0{fill:#000000;}
</style>
<g>
	<path class="st0" d="M1.4,192.4c0.9-4.5,1.8-8.9,2.7-13.4c1.9-10.4,3.6-20.8,5.8-31.1c3.7-17,14.4-27.7,31.3-31.8
		c11.8-2.8,23.8-5,35.9-7.5c0-0.7,0-1.4,0-2.1c0-5.3,0.1-10.7-0.1-16c0-0.9-0.5-2-1.2-2.5C66.3,80,61.5,69.9,61.4,57.6
		c-0.1-6.1-0.1-12.2,0-18.3c0.3-24.1,21.7-41.6,45.4-37.1C122,5,135,18.4,136.6,33.8c1.1,10.4,1.3,20.9-0.3,31.2
		c-1.4,8.9-5.9,16.3-13,22c-1.5,1.2-2.1,2.4-2,4.3c0.1,5.7,0,11.3,0,17.1c6.3,1.4,12.5,2.7,18.6,4c6.7,1.5,13.5,2.5,20.1,4.6
		c16.2,5,25.8,16.1,28.9,32.8c2.7,14.1,5.2,28.1,7.8,42.2c0.5,2.6,0.1,3.6-2.1,4.9c-64.4,0-128.9,0-193.3,0
		C1.4,195.4,1.4,193.9,1.4,192.4z M134,117.8c0,2.8,0.2,5.5-0.1,8.2c-0.2,1.6-0.6,3.4-1.6,4.7c-5,6.9-10.1,13.7-15.3,20.5
		c-1.6,2.1-2.4,4.1-2.2,7c0.4,7.6,0.2,15.1,0.2,22.7c0,2.3-1.1,3.4-3.4,3.5c-4,0.1-8,0.1-12,0c-2.3,0-3.4-1.1-3.4-3.4
		c0-2.1,0-4.2,0-6.2c-0.6-0.2-1-0.4-1.4-0.5c-7.9-2.5-12.3-9.9-10.9-18c0.1-0.9-0.2-2-0.7-2.7c-5.6-7.6-11.4-15.2-17-22.8
		c-0.9-1.2-1.4-3-1.5-4.5c-0.2-2.8-0.1-5.6-0.1-8.6c-8.2,1.8-16.2,3.2-24,5.4c-13.1,3.8-21.4,12.6-24.5,25.9
		c-1.3,5.6-2.1,11.2-3.1,16.9c-0.7,4-1.5,8.1-2.2,12.2c12.8,0,25.4,0,38.1,0c0-9.4,0-18.8,0-28.1c2.2,0,4.2,0,6.3,0
		c0,13.8,0,27.4,0,41c29.5,0,58.8,0,88.3,0c0-13.6,0-27.2,0-40.7c2.2,0,4.1,0,6.3,0c0,9.4,0,18.7,0,28.1c12.8,0,25.4,0,38.1,0
		c-1.7-9.6-3.3-19-5.1-28.3c-2.3-11.3-8.8-19.7-19.2-24.6c-3.8-1.8-8.1-2.6-12.2-3.6C145.6,120.2,139.9,119.1,134,117.8z M67.9,46.8
		c-0.1,1-0.2,1.4-0.2,1.8c0,3.8,0,7.6,0.1,11.5c1,20.6,22.4,35,41.8,27.8c12.7-4.8,19.9-14.2,21-27.8c0.3-4.2,0.1-8.5,0.1-13.2
		c-2.4,2.4-4.4,4.5-6.4,6.6c-1.1,1.2-2.3,1.6-3.9,1.6c-14.1,0-28.1,0-42.2,0c-1.7,0-2.9-0.5-4-1.7C72.2,51.2,70.2,49.2,67.9,46.8z
		 M130,32.8c-2.4-13.1-14.9-26.4-33.3-25C80.1,9,70,22.5,68.6,32.8C89,32.8,109.5,32.8,130,32.8z M127.9,116.7c-5-1.7-5-1.7-8.5,1.7
		c-0.4,0.4-0.7,0.7-1.1,1.1c-10,10.9-29.2,11-38.8-0.8c-2.4-3-4.8-3.9-8.2-2.3c-0.1,0-0.2,0.1-0.5,0.3c0,2.7-0.1,5.6,0,8.4
		c0,0.9,0.3,1.9,0.9,2.6c4.9,6.6,9.9,13.1,14.8,19.6c0.3,0.4,0.6,0.7,1,1.1c3.3-3.3,7.1-5.2,11.8-5.2c4.7,0,8.5,2,11.8,5.3
		c5.5-7.3,10.9-14.4,16.2-21.5c0.2-0.3,0.4-0.7,0.4-1C127.9,123,127.9,119.8,127.9,116.7z M83.5,92.7c0,6.9,0,13.5,0,20.2
		c0,0.4,0.1,0.8,0.3,1c2.5,2.6,4.9,5.1,8.5,6.3c8.4,2.8,15.5,0.7,21.5-5.5c0.6-0.6,1.1-1.7,1.1-2.6c0.1-5.8,0-11.6,0-17.4
		c0-0.7,0-1.3,0-2.1C103.4,97,95.7,97.2,83.5,92.7z M129.5,39.4c-20.4,0-40.2,0-60.6,0c3.2,3.2,6.1,6,9,8.8c0.4,0.4,1.1,0.5,1.7,0.5
		c13,0,26.1,0,39.1,0c0.6,0,1.3-0.1,1.7-0.5C123.5,45.4,126.3,42.5,129.5,39.4z M108.6,177.9c0-0.6,0.1-1.1,0.1-1.6
		c0-5.5,0-10.9,0-16.4c0-1.1-0.1-2.2-0.4-3.2c-1.1-4.8-5.9-7.8-10.8-6.9c-5,0.9-8.3,5.3-7.7,10.2c0.6,4.8,3.6,7.8,8.4,8.4
		c3.6,0.5,4.1,1,4.1,4.8c0,1.5,0,3,0,4.7C104.6,177.9,106.5,177.9,108.6,177.9z M8.5,190.5c13.6,0,26.9,0,40.2,0c0-2.1,0-4,0-5.9
		c-0.2-0.1-0.2-0.2-0.3-0.2c-12.6,0-25.2-0.1-37.8,0c-0.4,0-1,0.5-1.1,0.9C9.1,186.9,8.8,188.6,8.5,190.5z M188.9,184.5
		c-13.1,0-26.1,0-39,0c0,2.1,0,4,0,6c13.5,0,26.8,0,40.2,0C189.6,188.4,189.2,186.4,188.9,184.5z"/>
	<path class="st0" d="M96.2,162.1c0-2,0-3.9,0-6c2,0,4,0,6,0c0,2,0,3.9,0,6C100.3,162.1,98.4,162.1,96.2,162.1z"/>
</g>
</svg>
