<?xml version="1.0" encoding="utf-8"?>
<!-- Generator: Adobe Illustrator 25.2.1, SVG Export Plug-In . SVG Version: 6.00 Build 0)  -->
<svg version="1.1" id="Layer_1" xmlns="http://www.w3.org/2000/svg" xmlns:xlink="http://www.w3.org/1999/xlink" x="0px" y="0px"
	 viewBox="0 0 198.4 198.4" style="enable-background:new 0 0 198.4 198.4;" xml:space="preserve">
<style type="text/css">
	.st0{fill:#000000;}
</style>
<g>
	<path class="st0" d="M60.3,104.3C30.4,84.4,27,43.9,50,19.2c22.2-23.8,59.8-23.7,82,0.2c22.8,24.6,19.5,64.9-10.7,85.1
		c0.8,0.3,1.4,0.6,2,0.8c4.3,2,8.7,4,13,6.2c4,2.1,5.2,6.2,3.3,9.8c-2,3.6-6.2,4.6-10.2,2.3c-28.6-15.9-61.1-13.5-86.5,6.6
		c-14.4,11.4-23.3,26.3-27.3,44.2c-1,4.5,2.2,8.4,7,8.5c4.9,0.1,9.9,0,14.8,0c31.7,0,63.4,0,95.2,0c4.7,0,7.8,2.8,7.8,6.9
		c0,3.7-2.7,6.7-6.4,7c-0.4,0-0.9,0-1.3,0c-36.7,0-73.3,0-110,0c-12.7,0-23-11.1-20.9-23.1c1.1-6.6,3.1-13.2,5.8-19.3
		c10.2-23.5,27.5-40,51.4-49.3c0.4-0.2,0.8-0.3,1.2-0.5C60.2,104.6,60.2,104.5,60.3,104.3z M90.8,99.3c22.9,0.1,41.9-18.5,42.1-41.3
		c0.2-23.5-18.4-42.5-41.6-42.6c-23.3-0.1-42.2,18.5-42.3,41.7C48.8,80.4,67.4,99.2,90.8,99.3z"/>
	<path class="st0" d="M155.1,162.1c-7.1,0-14,0.1-20.8,0c-5.5-0.1-8.9-5.6-6.3-10.3c1.4-2.5,3.6-3.6,6.5-3.6c6,0,11.9,0,17.9,0
		c0.8,0,1.6,0,2.5,0c0-0.7,0.1-1.4,0.1-2c0-4.1,0-8.1,0-12.2c0-10.4,1.7-13.7,6.9-13.7c5.3,0,7,3.3,7,13.9c0,4.4,0,8.9,0,13.3
		c0,0.1,0,0.3,0.1,0.8c0.7,0,1.5,0,2.2,0c6,0,11.9,0,17.9,0c4.5,0,7.6,2.8,7.7,6.9c0.1,4.1-3.1,7.1-7.7,7.1c-6,0-11.9,0-17.9,0
		c-0.7,0-1.4,0-2.3,0c0,3.5,0,6.8,0,10.2c0,3.3,0,6.7,0,10c0,4.6-2.9,7.8-7,7.7c-4,0-6.9-3.2-6.9-7.6c0-6,0-11.9,0-17.9
		C155.1,163.7,155.1,163,155.1,162.1z"/>
</g>
</svg>
