<svg width="24" height="24" viewBox="0 0 24 24" fill="none" xmlns="http://www.w3.org/2000/svg">
<g clip-path="url(#clip0_427_5417)">
<path d="M12 23.1429C18.154 23.1429 23.1428 18.1541 23.1428 12C23.1428 5.846 18.154 0.857178 12 0.857178C5.84594 0.857178 0.857117 5.846 0.857117 12C0.857117 18.1541 5.84594 23.1429 12 23.1429Z" stroke="#080517" stroke-width="1.5" stroke-linecap="round" stroke-linejoin="round"/>
<path d="M0.857117 12H23.1428" stroke="#080517" stroke-width="1.5" stroke-linecap="round" stroke-linejoin="round"/>
<path d="M16.2857 12C16.0751 16.0749 14.5743 19.9772 11.9999 23.1429C9.42564 19.9772 7.92475 16.0749 7.71423 12C7.92475 7.92519 9.42564 4.02287 11.9999 0.857178C14.5743 4.02287 16.0751 7.92519 16.2857 12V12Z" stroke="#080517" stroke-width="1.5" stroke-linecap="round" stroke-linejoin="round"/>
</g>
<defs>
<clipPath id="clip0_427_5417">
<rect width="24" height="24" fill="white"/>
</clipPath>
</defs>
</svg>
