<svg width="165" height="50" viewBox="0 0 165 50" fill="none" xmlns="http://www.w3.org/2000/svg">
<path d="M70.606 34.26C65.666 34.26 62.858 30.828 62.858 25.29C62.858 19.856 65.978 16.32 71.152 16.32C75.806 16.32 78.64 18.816 78.64 22.82V23.002H75.676V22.82C75.676 20.194 74.35 19.024 71.022 19.024C67.356 19.024 65.848 20.766 65.848 25.29C65.848 29.814 67.408 31.556 71.256 31.556C74.454 31.556 75.962 30.62 75.962 27.89V27.474H70.528V25.056H78.666V34H76.092V31.27H75.988C75.338 32.856 73.518 34.26 70.606 34.26ZM83.4122 38.42C82.7102 38.42 81.9042 38.316 81.4622 38.186V35.898H83.2302C84.3482 35.898 84.7382 35.716 85.1542 34.754L85.6482 33.662L80.1622 21.078H83.2562L85.8562 27.344L87.0262 30.152H87.2342L88.3002 27.344L90.6662 21.078H93.7602L87.6502 35.534C86.6882 37.822 85.4402 38.42 83.4122 38.42ZM97.9243 34H95.1163V21.078H97.6903V23.496H97.7943C98.3923 22.118 99.7443 20.818 102.214 20.818C104.476 20.818 105.88 21.858 106.504 23.496H106.582C107.18 22.144 108.506 20.818 111.054 20.818C114.382 20.818 115.864 22.95 115.864 25.888V34H113.056V26.512C113.056 24.198 112.354 23.236 110.014 23.236C107.882 23.236 106.894 24.12 106.894 26.486V34H104.086V26.512C104.086 24.198 103.384 23.236 101.044 23.236C98.9123 23.236 97.9243 24.12 97.9243 26.46V34ZM121.438 34H118.63V16.58H126.04C129.68 16.58 132.358 18.738 132.358 22.482C132.358 26.226 129.68 28.384 126.04 28.384H121.438V34ZM126.378 19.102H121.438V25.862H126.378C128.666 25.862 129.576 24.978 129.576 22.482C129.576 19.986 128.666 19.102 126.378 19.102ZM137.026 34H134.218V21H136.792V23.054H136.922C137.442 21.858 138.638 20.818 140.536 20.818C143.24 20.818 144.28 22.794 144.28 25.212V26.07H141.472V25.55C141.472 23.834 140.978 23.21 139.34 23.21C137.65 23.21 137.026 23.86 137.026 25.576V34ZM152.003 34.26C148.025 34.26 145.555 31.556 145.555 27.526C145.555 23.522 148.025 20.818 152.003 20.818C155.955 20.818 158.347 23.522 158.347 27.526C158.347 31.556 155.955 34.26 152.003 34.26ZM152.003 31.764C154.707 31.764 155.643 30.438 155.643 27.526C155.643 24.64 154.707 23.314 152.003 23.314C149.273 23.314 148.311 24.64 148.311 27.526C148.311 30.438 149.273 31.764 152.003 31.764ZM163.309 34H159.747V29.97H163.309V34Z" fill="white"/>
<path d="M50 25C50 38.8071 38.8071 50 25 50C11.1929 50 0 38.8071 0 25C0 11.1929 11.1929 0 25 0C38.8071 0 50 11.1929 50 25Z" fill="#D5EB45"/>
<path d="M33.3967 31.4918L18.5068 16.6025L16.6059 18.5034L31.4958 33.3926L33.3967 31.4918Z" fill="#D5EB45" stroke="#080517" stroke-miterlimit="10"/>
<path d="M21.2157 14.4953L18.3149 11.5947L11.5973 18.3121L14.498 21.2127L21.2157 14.4953Z" fill="#D5EB45" stroke="#080517" stroke-miterlimit="10"/>
<path d="M16.7475 13.1625L14.585 11L11.0026 14.5822L13.1652 16.7447L16.7475 13.1625Z" fill="#D5EB45" stroke="#080517" stroke-miterlimit="10"/>
<path d="M28.7843 35.5047L31.6851 38.4053L38.4027 31.6879L35.502 28.7873L28.7843 35.5047Z" fill="#D5EB45" stroke="#080517" stroke-miterlimit="10"/>
<path d="M33.253 36.8375L35.4155 39L38.9979 35.4178L36.8353 33.2553L33.253 36.8375Z" fill="#D5EB45" stroke="#080517" stroke-miterlimit="10"/>
<path d="M18.5081 33.3961L33.3979 18.5068L31.497 16.606L16.6071 31.4953L18.5081 33.3961Z" fill="#D5EB45" stroke="#080517" stroke-miterlimit="10"/>
<path d="M35.5046 21.217L38.4053 18.3164L31.6876 11.5991L28.7869 14.4996L35.5046 21.217Z" fill="#D5EB45" stroke="#080517" stroke-miterlimit="10"/>
<path d="M36.8374 16.7494L39 14.5869L35.4176 11.0047L33.2551 13.1672L36.8374 16.7494Z" fill="#D5EB45" stroke="#080517" stroke-miterlimit="10"/>
<path d="M14.494 28.785L11.5933 31.6855L18.3109 38.4029L21.2116 35.5023L14.494 28.785Z" fill="#D5EB45" stroke="#080517" stroke-miterlimit="10"/>
<path d="M13.1626 33.2516L11 35.4141L14.5823 38.9963L16.7449 36.8338L13.1626 33.2516Z" fill="#D5EB45" stroke="#080517" stroke-miterlimit="10"/>
</svg>
