<?xml version="1.0" encoding="utf-8"?>
<!-- Generator: Adobe Illustrator 25.2.1, SVG Export Plug-In . SVG Version: 6.00 Build 0)  -->
<svg version="1.1" id="Layer_1" xmlns="http://www.w3.org/2000/svg" xmlns:xlink="http://www.w3.org/1999/xlink" x="0px" y="0px"
	 viewBox="0 0 600 242.7" style="enable-background:new 0 0 600 242.7;" xml:space="preserve">
<style type="text/css">
	.st0{fill:#FFFFFF;}
</style>
<g>
	<path class="st0" d="M5,156.4c0,0,30.1-113.8,129.2-141.2c41.3-11.4,78.7-3.4,108.2,10.9c39.3,19.1,71.8,54.1,71.8,54.1
		s16.3,16.9,42.2,38.5c39.3,32.9,108,60.8,177.8,16.5c0,0-37.5,73.3-156.7,40.8C250.8,131.1,150,0.1,5,156.4z"/>
	<path class="st0" d="M56.7,165.3c0,0,49.2-56.4,155.3-26.9c50.6,14,75.5,22.9,122.8,37.8c102.2,32.2,158.3,25,260.3-33.3
		c0,0-66,138-240.1,72.4C199.2,156.4,155.8,114.4,56.7,165.3z"/>
	<path class="st0" d="M133.6,171.1c0,0,37.8-15.7,92.2,10.2s76.7,37,112.2,37c0,0-58.7,15.7-122.2-17.8S133.6,171.1,133.6,171.1z"/>
</g>
</svg>
