<svg width="82" height="82" viewBox="0 0 82 82" fill="none" xmlns="http://www.w3.org/2000/svg">
<g opacity="0.1">
<path d="M64.6979 59.2551L22.1554 16.7144L16.7242 22.1453L59.2668 64.686L64.6979 59.2551Z" fill="white" stroke="#080517" stroke-miterlimit="10"/>
<path d="M29.8948 10.6937L21.6071 2.40625L2.41382 21.5987L10.7016 29.8861L29.8948 10.6937Z" fill="white" stroke="#080517" stroke-miterlimit="10"/>
<path d="M17.1286 6.88554L10.9498 0.707031L0.71455 10.9419L6.89332 17.1204L17.1286 6.88554Z" fill="white" stroke="#080517" stroke-miterlimit="10"/>
<path d="M51.5195 70.7189L59.8073 79.0063L79.0005 59.8139L70.7128 51.5265L51.5195 70.7189Z" fill="white" stroke="#080517" stroke-miterlimit="10"/>
<path d="M64.2872 74.5285L70.466 80.707L80.7012 70.4722L74.5224 64.2937L64.2872 74.5285Z" fill="white" stroke="#080517" stroke-miterlimit="10"/>
<path d="M22.1587 64.696L64.7013 22.1553L59.2701 16.7243L16.7275 59.265L22.1587 64.696Z" fill="white" stroke="#080517" stroke-miterlimit="10"/>
<path d="M70.7201 29.8997L79.0079 21.6123L59.8146 2.41987L51.5269 10.7073L70.7201 29.8997Z" fill="white" stroke="#080517" stroke-miterlimit="10"/>
<path d="M74.5283 17.1351L80.7071 10.9565L70.4718 0.721684L64.293 6.9002L74.5283 17.1351Z" fill="white" stroke="#080517" stroke-miterlimit="10"/>
<path d="M10.6897 51.5226L2.40194 59.8101L21.5952 79.0025L29.883 70.7151L10.6897 51.5226Z" fill="white" stroke="#080517" stroke-miterlimit="10"/>
<path d="M6.88589 64.2844L0.707115 70.4629L10.9424 80.6977L17.1211 74.5192L6.88589 64.2844Z" fill="white" stroke="#080517" stroke-miterlimit="10"/>
</g>
</svg>
