<?xml version="1.0" encoding="utf-8"?>
<!-- Generator: Adobe Illustrator 25.2.1, SVG Export Plug-In . SVG Version: 6.00 Build 0)  -->
<svg version="1.1" id="Layer_1" xmlns="http://www.w3.org/2000/svg" xmlns:xlink="http://www.w3.org/1999/xlink" x="0px" y="0px"
	 viewBox="0 0 198.4 198.4" style="enable-background:new 0 0 198.4 198.4;" xml:space="preserve">
<style type="text/css">
	.st0{clip-path:url(#SVGID_2_);}
	.st1{fill:#A5D3F9;}
	.st2{opacity:0.65;}
	.st3{fill:#A1D6FF;}
	.st4{fill:none;stroke:#CBE6FF;stroke-width:0.3828;stroke-miterlimit:10;}
	.st5{clip-path:url(#SVGID_2_);fill:none;}
	.st6{fill:#FF6658;}
	.st7{opacity:0.46;fill:#FF6658;}
	.st8{opacity:0.48;fill:#FF6658;}
	.st9{fill:#259BFC;}
	.st10{opacity:0.22;fill:#1E4D89;}
	.st11{opacity:0.48;fill:#259BFC;}
	.st12{fill:#FD8E18;}
	.st13{opacity:0.46;fill:#FFAA53;}
	.st14{fill:none;}
	.st15{fill:#FFFFFF;}
	.st16{fill:#4E2626;}
	.st17{fill:#0065CC;}
	.st18{fill:#004FA1;}
	.st19{opacity:0.22;}
	.st20{fill:#1E4D89;}
	.st21{fill:#69C1FF;}
	.st22{opacity:0.46;fill:#69C1FF;}
	.st23{opacity:0.22;fill:#69C1FF;}
</style>
<g>
	<g>
		<defs>
			<circle id="SVGID_1_" cx="99.2" cy="99.2" r="97.8"/>
		</defs>
		<clipPath id="SVGID_2_">
			<use xlink:href="#SVGID_1_"  style="overflow:visible;"/>
		</clipPath>
		<g class="st0">
			<rect x="-15" y="-1.9" class="st1" width="228.4" height="202.1"/>
			<g class="st2">
				<rect x="165.6" y="107.1" class="st3" width="9.5" height="8.3"/>
				<rect x="4.5" y="123.8" class="st3" width="9.5" height="8.3"/>
				<rect x="203.9" y="107.1" class="st3" width="9.5" height="8.3"/>
				<rect x="89.7" y="15.5" class="st3" width="9.5" height="8.3"/>
				<rect x="118.2" y="173.7" class="st3" width="9.5" height="8.3"/>
				<rect x="99.2" y="132.1" class="st3" width="9.5" height="8.3"/>
			</g>
			<g>
				<g>
					<polyline class="st4" points="-14.4,-1.2 -14.4,7.2 -14.4,15.5 -14.4,23.8 -14.4,32.2 -14.4,40.5 -14.4,48.8 -14.4,57.1 
						-14.4,65.5 -14.4,73.8 -14.4,82.1 -14.4,90.5 -14.4,98.8 -14.4,107.1 -14.4,115.4 -14.4,123.8 -14.4,132.1 -14.4,140.4 
						-14.4,148.7 -14.4,157.1 -14.4,165.4 -14.4,173.7 -14.4,182.1 -14.4,190.4 -14.4,198.7 					"/>
					<polyline class="st4" points="-4.9,-1.2 -4.9,7.2 -4.9,15.5 -4.9,23.8 -4.9,32.2 -4.9,40.5 -4.9,48.8 -4.9,57.1 -4.9,65.5 
						-4.9,73.8 -4.9,82.1 -4.9,90.5 -4.9,98.8 -4.9,107.1 -4.9,115.4 -4.9,123.8 -4.9,132.1 -4.9,140.4 -4.9,148.7 -4.9,157.1 
						-4.9,165.4 -4.9,173.7 -4.9,182.1 -4.9,190.4 -4.9,198.7 					"/>
					<polyline class="st4" points="4.5,-1.2 4.5,7.2 4.5,15.5 4.5,23.8 4.5,32.2 4.5,40.5 4.5,48.8 4.5,57.1 4.5,65.5 4.5,73.8 
						4.5,82.1 4.5,90.5 4.5,98.8 4.5,107.1 4.5,115.4 4.5,123.8 4.5,132.1 4.5,140.4 4.5,148.7 4.5,157.1 4.5,165.4 4.5,173.7 
						4.5,182.1 4.5,190.4 4.5,198.7 					"/>
					<polyline class="st4" points="14,-1.2 14,7.2 14,15.5 14,23.8 14,32.2 14,40.5 14,48.8 14,57.1 14,65.5 14,73.8 14,82.1 
						14,90.5 14,98.8 14,107.1 14,115.4 14,123.8 14,132.1 14,140.4 14,148.7 14,157.1 14,165.4 14,173.7 14,182.1 14,190.4 
						14,198.7 					"/>
					<polyline class="st4" points="23.5,-1.2 23.5,7.2 23.5,15.5 23.5,23.8 23.5,32.2 23.5,40.5 23.5,48.8 23.5,57.1 23.5,65.5 
						23.5,73.8 23.5,82.1 23.5,90.5 23.5,98.8 23.5,107.1 23.5,115.4 23.5,123.8 23.5,132.1 23.5,140.4 23.5,148.7 23.5,157.1 
						23.5,165.4 23.5,173.7 23.5,182.1 23.5,190.4 23.5,198.7 					"/>
					<polyline class="st4" points="32.9,-1.2 32.9,7.2 32.9,15.5 32.9,23.8 32.9,32.2 32.9,40.5 32.9,48.8 32.9,57.1 32.9,65.5 
						32.9,73.8 32.9,82.1 32.9,90.5 32.9,98.8 32.9,107.1 32.9,115.4 32.9,123.8 32.9,132.1 32.9,140.4 32.9,148.7 32.9,157.1 
						32.9,165.4 32.9,173.7 32.9,182.1 32.9,190.4 32.9,198.7 					"/>
					<polyline class="st4" points="42.4,-1.2 42.4,7.2 42.4,15.5 42.4,23.8 42.4,32.2 42.4,40.5 42.4,48.8 42.4,57.1 42.4,65.5 
						42.4,73.8 42.4,82.1 42.4,90.5 42.4,98.8 42.4,107.1 42.4,115.4 42.4,123.8 42.4,132.1 42.4,140.4 42.4,148.7 42.4,157.1 
						42.4,165.4 42.4,173.7 42.4,182.1 42.4,190.4 42.4,198.7 					"/>
					<polyline class="st4" points="51.9,-1.2 51.9,7.2 51.9,15.5 51.9,23.8 51.9,32.2 51.9,40.5 51.9,48.8 51.9,57.1 51.9,65.5 
						51.9,73.8 51.9,82.1 51.9,90.5 51.9,98.8 51.9,107.1 51.9,115.4 51.9,123.8 51.9,132.1 51.9,140.4 51.9,148.7 51.9,157.1 
						51.9,165.4 51.9,173.7 51.9,182.1 51.9,190.4 51.9,198.7 					"/>
					<polyline class="st4" points="61.3,-1.2 61.3,7.2 61.3,15.5 61.3,23.8 61.3,32.2 61.3,40.5 61.3,48.8 61.3,57.1 61.3,65.5 
						61.3,73.8 61.3,82.1 61.3,90.5 61.3,98.8 61.3,107.1 61.3,115.4 61.3,123.8 61.3,132.1 61.3,140.4 61.3,148.7 61.3,157.1 
						61.3,165.4 61.3,173.7 61.3,182.1 61.3,190.4 61.3,198.7 					"/>
					<polyline class="st4" points="70.8,-1.2 70.8,7.2 70.8,15.5 70.8,23.8 70.8,32.2 70.8,40.5 70.8,48.8 70.8,57.1 70.8,65.5 
						70.8,73.8 70.8,82.1 70.8,90.5 70.8,98.8 70.8,107.1 70.8,115.4 70.8,123.8 70.8,132.1 70.8,140.4 70.8,148.7 70.8,157.1 
						70.8,165.4 70.8,173.7 70.8,182.1 70.8,190.4 70.8,198.7 					"/>
					<polyline class="st4" points="80.3,-1.2 80.3,7.2 80.3,15.5 80.3,23.8 80.3,32.2 80.3,40.5 80.3,48.8 80.3,57.1 80.3,65.5 
						80.3,73.8 80.3,82.1 80.3,90.5 80.3,98.8 80.3,107.1 80.3,115.4 80.3,123.8 80.3,132.1 80.3,140.4 80.3,148.7 80.3,157.1 
						80.3,165.4 80.3,173.7 80.3,182.1 80.3,190.4 80.3,198.7 					"/>
					<polyline class="st4" points="89.7,-1.2 89.7,7.2 89.7,15.5 89.7,23.8 89.7,32.2 89.7,40.5 89.7,48.8 89.7,57.1 89.7,65.5 
						89.7,73.8 89.7,82.1 89.7,90.5 89.7,98.8 89.7,107.1 89.7,115.4 89.7,123.8 89.7,132.1 89.7,140.4 89.7,148.7 89.7,157.1 
						89.7,165.4 89.7,173.7 89.7,182.1 89.7,190.4 89.7,198.7 					"/>
					<polyline class="st4" points="99.2,-1.2 99.2,7.2 99.2,15.5 99.2,23.8 99.2,32.2 99.2,40.5 99.2,48.8 99.2,57.1 99.2,65.5 
						99.2,73.8 99.2,82.1 99.2,90.5 99.2,98.8 99.2,107.1 99.2,115.4 99.2,123.8 99.2,132.1 99.2,140.4 99.2,148.7 99.2,157.1 
						99.2,165.4 99.2,173.7 99.2,182.1 99.2,190.4 99.2,198.7 					"/>
					<polyline class="st4" points="108.7,-1.2 108.7,7.2 108.7,15.5 108.7,23.8 108.7,32.2 108.7,40.5 108.7,48.8 108.7,57.1 
						108.7,65.5 108.7,73.8 108.7,82.1 108.7,90.5 108.7,98.8 108.7,107.1 108.7,115.4 108.7,123.8 108.7,132.1 108.7,140.4 
						108.7,148.7 108.7,157.1 108.7,165.4 108.7,173.7 108.7,182.1 108.7,190.4 108.7,198.7 					"/>
					<polyline class="st4" points="118.2,-1.2 118.2,7.2 118.2,15.5 118.2,23.8 118.2,32.2 118.2,40.5 118.2,48.8 118.2,57.1 
						118.2,65.5 118.2,73.8 118.2,82.1 118.2,90.5 118.2,98.8 118.2,107.1 118.2,115.4 118.2,123.8 118.2,132.1 118.2,140.4 
						118.2,148.7 118.2,157.1 118.2,165.4 118.2,173.7 118.2,182.1 118.2,190.4 118.2,198.7 					"/>
					<polyline class="st4" points="127.6,-1.2 127.6,7.2 127.6,15.5 127.6,23.8 127.6,32.2 127.6,40.5 127.6,48.8 127.6,57.1 
						127.6,65.5 127.6,73.8 127.6,82.1 127.6,90.5 127.6,98.8 127.6,107.1 127.6,115.4 127.6,123.8 127.6,132.1 127.6,140.4 
						127.6,148.7 127.6,157.1 127.6,165.4 127.6,173.7 127.6,182.1 127.6,190.4 127.6,198.7 					"/>
					<polyline class="st4" points="137.1,-1.2 137.1,7.2 137.1,15.5 137.1,23.8 137.1,32.2 137.1,40.5 137.1,48.8 137.1,57.1 
						137.1,65.5 137.1,73.8 137.1,82.1 137.1,90.5 137.1,98.8 137.1,107.1 137.1,115.4 137.1,123.8 137.1,132.1 137.1,140.4 
						137.1,148.7 137.1,157.1 137.1,165.4 137.1,173.7 137.1,182.1 137.1,190.4 137.1,198.7 					"/>
					<polyline class="st4" points="146.6,-1.2 146.6,7.2 146.6,15.5 146.6,23.8 146.6,32.2 146.6,40.5 146.6,48.8 146.6,57.1 
						146.6,65.5 146.6,73.8 146.6,82.1 146.6,90.5 146.6,98.8 146.6,107.1 146.6,115.4 146.6,123.8 146.6,132.1 146.6,140.4 
						146.6,148.7 146.6,157.1 146.6,165.4 146.6,173.7 146.6,182.1 146.6,190.4 146.6,198.7 					"/>
					<polyline class="st4" points="156,-1.2 156,7.2 156,15.5 156,23.8 156,32.2 156,40.5 156,48.8 156,57.1 156,65.5 156,73.8 
						156,82.1 156,90.5 156,98.8 156,107.1 156,115.4 156,123.8 156,132.1 156,140.4 156,148.7 156,157.1 156,165.4 156,173.7 
						156,182.1 156,190.4 156,198.7 					"/>
					<polyline class="st4" points="165.5,-1.2 165.5,7.2 165.5,15.5 165.5,23.8 165.5,32.2 165.5,40.5 165.5,48.8 165.5,57.1 
						165.5,65.5 165.5,73.8 165.5,82.1 165.5,90.5 165.5,98.8 165.5,107.1 165.5,115.4 165.5,123.8 165.5,132.1 165.5,140.4 
						165.5,148.7 165.5,157.1 165.5,165.4 165.5,173.7 165.5,182.1 165.5,190.4 165.5,198.7 					"/>
					<polyline class="st4" points="175,-1.2 175,7.2 175,15.5 175,23.8 175,32.2 175,40.5 175,48.8 175,57.1 175,65.5 175,73.8 
						175,82.1 175,90.5 175,98.8 175,107.1 175,115.4 175,123.8 175,132.1 175,140.4 175,148.7 175,157.1 175,165.4 175,173.7 
						175,182.1 175,190.4 175,198.7 					"/>
					<polyline class="st4" points="184.4,-1.2 184.4,7.2 184.4,15.5 184.4,23.8 184.4,32.2 184.4,40.5 184.4,48.8 184.4,57.1 
						184.4,65.5 184.4,73.8 184.4,82.1 184.4,90.5 184.4,98.8 184.4,107.1 184.4,115.4 184.4,123.8 184.4,132.1 184.4,140.4 
						184.4,148.7 184.4,157.1 184.4,165.4 184.4,173.7 184.4,182.1 184.4,190.4 184.4,198.7 					"/>
					<polyline class="st4" points="193.9,-1.2 193.9,7.2 193.9,15.5 193.9,23.8 193.9,32.2 193.9,40.5 193.9,48.8 193.9,57.1 
						193.9,65.5 193.9,73.8 193.9,82.1 193.9,90.5 193.9,98.8 193.9,107.1 193.9,115.4 193.9,123.8 193.9,132.1 193.9,140.4 
						193.9,148.7 193.9,157.1 193.9,165.4 193.9,173.7 193.9,182.1 193.9,190.4 193.9,198.7 					"/>
					<polyline class="st4" points="203.4,-1.2 203.4,7.2 203.4,15.5 203.4,23.8 203.4,32.2 203.4,40.5 203.4,48.8 203.4,57.1 
						203.4,65.5 203.4,73.8 203.4,82.1 203.4,90.5 203.4,98.8 203.4,107.1 203.4,115.4 203.4,123.8 203.4,132.1 203.4,140.4 
						203.4,148.7 203.4,157.1 203.4,165.4 203.4,173.7 203.4,182.1 203.4,190.4 203.4,198.7 					"/>
					<polyline class="st4" points="212.8,-1.2 212.8,7.2 212.8,15.5 212.8,23.8 212.8,32.2 212.8,40.5 212.8,48.8 212.8,57.1 
						212.8,65.5 212.8,73.8 212.8,82.1 212.8,90.5 212.8,98.8 212.8,107.1 212.8,115.4 212.8,123.8 212.8,132.1 212.8,140.4 
						212.8,148.7 212.8,157.1 212.8,165.4 212.8,173.7 212.8,182.1 212.8,190.4 212.8,198.7 					"/>
				</g>
				<g>
					<polyline class="st4" points="-14.4,198.7 -4.9,198.7 4.5,198.7 14,198.7 23.5,198.7 32.9,198.7 42.4,198.7 51.9,198.7 
						61.3,198.7 70.8,198.7 80.3,198.7 89.7,198.7 99.2,198.7 108.7,198.7 118.2,198.7 127.6,198.7 137.1,198.7 146.6,198.7 
						156,198.7 165.5,198.7 175,198.7 184.4,198.7 193.9,198.7 203.4,198.7 212.8,198.7 					"/>
					<polyline class="st4" points="-14.4,190.4 -4.9,190.4 4.5,190.4 14,190.4 23.5,190.4 32.9,190.4 42.4,190.4 51.9,190.4 
						61.3,190.4 70.8,190.4 80.3,190.4 89.7,190.4 99.2,190.4 108.7,190.4 118.2,190.4 127.6,190.4 137.1,190.4 146.6,190.4 
						156,190.4 165.5,190.4 175,190.4 184.4,190.4 193.9,190.4 203.4,190.4 212.8,190.4 					"/>
					<polyline class="st4" points="-14.4,182.1 -4.9,182.1 4.5,182.1 14,182.1 23.5,182.1 32.9,182.1 42.4,182.1 51.9,182.1 
						61.3,182.1 70.8,182.1 80.3,182.1 89.7,182.1 99.2,182.1 108.7,182.1 118.2,182.1 127.6,182.1 137.1,182.1 146.6,182.1 
						156,182.1 165.5,182.1 175,182.1 184.4,182.1 193.9,182.1 203.4,182.1 212.8,182.1 					"/>
					<polyline class="st4" points="-14.4,173.7 -4.9,173.7 4.5,173.7 14,173.7 23.5,173.7 32.9,173.7 42.4,173.7 51.9,173.7 
						61.3,173.7 70.8,173.7 80.3,173.7 89.7,173.7 99.2,173.7 108.7,173.7 118.2,173.7 127.6,173.7 137.1,173.7 146.6,173.7 
						156,173.7 165.5,173.7 175,173.7 184.4,173.7 193.9,173.7 203.4,173.7 212.8,173.7 					"/>
					<polyline class="st4" points="-14.4,165.4 -4.9,165.4 4.5,165.4 14,165.4 23.5,165.4 32.9,165.4 42.4,165.4 51.9,165.4 
						61.3,165.4 70.8,165.4 80.3,165.4 89.7,165.4 99.2,165.4 108.7,165.4 118.2,165.4 127.6,165.4 137.1,165.4 146.6,165.4 
						156,165.4 165.5,165.4 175,165.4 184.4,165.4 193.9,165.4 203.4,165.4 212.8,165.4 					"/>
					<polyline class="st4" points="-14.4,157.1 -4.9,157.1 4.5,157.1 14,157.1 23.5,157.1 32.9,157.1 42.4,157.1 51.9,157.1 
						61.3,157.1 70.8,157.1 80.3,157.1 89.7,157.1 99.2,157.1 108.7,157.1 118.2,157.1 127.6,157.1 137.1,157.1 146.6,157.1 
						156,157.1 165.5,157.1 175,157.1 184.4,157.1 193.9,157.1 203.4,157.1 212.8,157.1 					"/>
					<polyline class="st4" points="-14.4,148.7 -4.9,148.7 4.5,148.7 14,148.7 23.5,148.7 32.9,148.7 42.4,148.7 51.9,148.7 
						61.3,148.7 70.8,148.7 80.3,148.7 89.7,148.7 99.2,148.7 108.7,148.7 118.2,148.7 127.6,148.7 137.1,148.7 146.6,148.7 
						156,148.7 165.5,148.7 175,148.7 184.4,148.7 193.9,148.7 203.4,148.7 212.8,148.7 					"/>
					<polyline class="st4" points="-14.4,140.4 -4.9,140.4 4.5,140.4 14,140.4 23.5,140.4 32.9,140.4 42.4,140.4 51.9,140.4 
						61.3,140.4 70.8,140.4 80.3,140.4 89.7,140.4 99.2,140.4 108.7,140.4 118.2,140.4 127.6,140.4 137.1,140.4 146.6,140.4 
						156,140.4 165.5,140.4 175,140.4 184.4,140.4 193.9,140.4 203.4,140.4 212.8,140.4 					"/>
					<polyline class="st4" points="-14.4,132.1 -4.9,132.1 4.5,132.1 14,132.1 23.5,132.1 32.9,132.1 42.4,132.1 51.9,132.1 
						61.3,132.1 70.8,132.1 80.3,132.1 89.7,132.1 99.2,132.1 108.7,132.1 118.2,132.1 127.6,132.1 137.1,132.1 146.6,132.1 
						156,132.1 165.5,132.1 175,132.1 184.4,132.1 193.9,132.1 203.4,132.1 212.8,132.1 					"/>
					<polyline class="st4" points="-14.4,123.8 -4.9,123.8 4.5,123.8 14,123.8 23.5,123.8 32.9,123.8 42.4,123.8 51.9,123.8 
						61.3,123.8 70.8,123.8 80.3,123.8 89.7,123.8 99.2,123.8 108.7,123.8 118.2,123.8 127.6,123.8 137.1,123.8 146.6,123.8 
						156,123.8 165.5,123.8 175,123.8 184.4,123.8 193.9,123.8 203.4,123.8 212.8,123.8 					"/>
					<polyline class="st4" points="-14.4,115.4 -4.9,115.4 4.5,115.4 14,115.4 23.5,115.4 32.9,115.4 42.4,115.4 51.9,115.4 
						61.3,115.4 70.8,115.4 80.3,115.4 89.7,115.4 99.2,115.4 108.7,115.4 118.2,115.4 127.6,115.4 137.1,115.4 146.6,115.4 
						156,115.4 165.5,115.4 175,115.4 184.4,115.4 193.9,115.4 203.4,115.4 212.8,115.4 					"/>
					<polyline class="st4" points="-14.4,107.1 -4.9,107.1 4.5,107.1 14,107.1 23.5,107.1 32.9,107.1 42.4,107.1 51.9,107.1 
						61.3,107.1 70.8,107.1 80.3,107.1 89.7,107.1 99.2,107.1 108.7,107.1 118.2,107.1 127.6,107.1 137.1,107.1 146.6,107.1 
						156,107.1 165.5,107.1 175,107.1 184.4,107.1 193.9,107.1 203.4,107.1 212.8,107.1 					"/>
					<polyline class="st4" points="-14.4,98.8 -4.9,98.8 4.5,98.8 14,98.8 23.5,98.8 32.9,98.8 42.4,98.8 51.9,98.8 61.3,98.8 
						70.8,98.8 80.3,98.8 89.7,98.8 99.2,98.8 108.7,98.8 118.2,98.8 127.6,98.8 137.1,98.8 146.6,98.8 156,98.8 165.5,98.8 
						175,98.8 184.4,98.8 193.9,98.8 203.4,98.8 212.8,98.8 					"/>
					<polyline class="st4" points="-14.4,90.5 -4.9,90.5 4.5,90.5 14,90.5 23.5,90.5 32.9,90.5 42.4,90.5 51.9,90.5 61.3,90.5 
						70.8,90.5 80.3,90.5 89.7,90.5 99.2,90.5 108.7,90.5 118.2,90.5 127.6,90.5 137.1,90.5 146.6,90.5 156,90.5 165.5,90.5 
						175,90.5 184.4,90.5 193.9,90.5 203.4,90.5 212.8,90.5 					"/>
					<polyline class="st4" points="-14.4,82.1 -4.9,82.1 4.5,82.1 14,82.1 23.5,82.1 32.9,82.1 42.4,82.1 51.9,82.1 61.3,82.1 
						70.8,82.1 80.3,82.1 89.7,82.1 99.2,82.1 108.7,82.1 118.2,82.1 127.6,82.1 137.1,82.1 146.6,82.1 156,82.1 165.5,82.1 
						175,82.1 184.4,82.1 193.9,82.1 203.4,82.1 212.8,82.1 					"/>
					<polyline class="st4" points="-14.4,73.8 -4.9,73.8 4.5,73.8 14,73.8 23.5,73.8 32.9,73.8 42.4,73.8 51.9,73.8 61.3,73.8 
						70.8,73.8 80.3,73.8 89.7,73.8 99.2,73.8 108.7,73.8 118.2,73.8 127.6,73.8 137.1,73.8 146.6,73.8 156,73.8 165.5,73.8 
						175,73.8 184.4,73.8 193.9,73.8 203.4,73.8 212.8,73.8 					"/>
					<polyline class="st4" points="-14.4,65.5 -4.9,65.5 4.5,65.5 14,65.5 23.5,65.5 32.9,65.5 42.4,65.5 51.9,65.5 61.3,65.5 
						70.8,65.5 80.3,65.5 89.7,65.5 99.2,65.5 108.7,65.5 118.2,65.5 127.6,65.5 137.1,65.5 146.6,65.5 156,65.5 165.5,65.5 
						175,65.5 184.4,65.5 193.9,65.5 203.4,65.5 212.8,65.5 					"/>
					<polyline class="st4" points="-14.4,57.1 -4.9,57.1 4.5,57.1 14,57.1 23.5,57.1 32.9,57.1 42.4,57.1 51.9,57.1 61.3,57.1 
						70.8,57.1 80.3,57.1 89.7,57.1 99.2,57.1 108.7,57.1 118.2,57.1 127.6,57.1 137.1,57.1 146.6,57.1 156,57.1 165.5,57.1 
						175,57.1 184.4,57.1 193.9,57.1 203.4,57.1 212.8,57.1 					"/>
					<polyline class="st4" points="-14.4,48.8 -4.9,48.8 4.5,48.8 14,48.8 23.5,48.8 32.9,48.8 42.4,48.8 51.9,48.8 61.3,48.8 
						70.8,48.8 80.3,48.8 89.7,48.8 99.2,48.8 108.7,48.8 118.2,48.8 127.6,48.8 137.1,48.8 146.6,48.8 156,48.8 165.5,48.8 
						175,48.8 184.4,48.8 193.9,48.8 203.4,48.8 212.8,48.8 					"/>
					<polyline class="st4" points="-14.4,40.5 -4.9,40.5 4.5,40.5 14,40.5 23.5,40.5 32.9,40.5 42.4,40.5 51.9,40.5 61.3,40.5 
						70.8,40.5 80.3,40.5 89.7,40.5 99.2,40.5 108.7,40.5 118.2,40.5 127.6,40.5 137.1,40.5 146.6,40.5 156,40.5 165.5,40.5 
						175,40.5 184.4,40.5 193.9,40.5 203.4,40.5 212.8,40.5 					"/>
					<polyline class="st4" points="-14.4,32.2 -4.9,32.2 4.5,32.2 14,32.2 23.5,32.2 32.9,32.2 42.4,32.2 51.9,32.2 61.3,32.2 
						70.8,32.2 80.3,32.2 89.7,32.2 99.2,32.2 108.7,32.2 118.2,32.2 127.6,32.2 137.1,32.2 146.6,32.2 156,32.2 165.5,32.2 
						175,32.2 184.4,32.2 193.9,32.2 203.4,32.2 212.8,32.2 					"/>
					<polyline class="st4" points="-14.4,23.8 -4.9,23.8 4.5,23.8 14,23.8 23.5,23.8 32.9,23.8 42.4,23.8 51.9,23.8 61.3,23.8 
						70.8,23.8 80.3,23.8 89.7,23.8 99.2,23.8 108.7,23.8 118.2,23.8 127.6,23.8 137.1,23.8 146.6,23.8 156,23.8 165.5,23.8 
						175,23.8 184.4,23.8 193.9,23.8 203.4,23.8 212.8,23.8 					"/>
					<polyline class="st4" points="-14.4,15.5 -4.9,15.5 4.5,15.5 14,15.5 23.5,15.5 32.9,15.5 42.4,15.5 51.9,15.5 61.3,15.5 
						70.8,15.5 80.3,15.5 89.7,15.5 99.2,15.5 108.7,15.5 118.2,15.5 127.6,15.5 137.1,15.5 146.6,15.5 156,15.5 165.5,15.5 
						175,15.5 184.4,15.5 193.9,15.5 203.4,15.5 212.8,15.5 					"/>
					<polyline class="st4" points="-14.4,7.2 -4.9,7.2 4.5,7.2 14,7.2 23.5,7.2 32.9,7.2 42.4,7.2 51.9,7.2 61.3,7.2 70.8,7.2 
						80.3,7.2 89.7,7.2 99.2,7.2 108.7,7.2 118.2,7.2 127.6,7.2 137.1,7.2 146.6,7.2 156,7.2 165.5,7.2 175,7.2 184.4,7.2 
						193.9,7.2 203.4,7.2 212.8,7.2 					"/>
					<polyline class="st4" points="-14.4,-1.2 -4.9,-1.2 4.5,-1.2 14,-1.2 23.5,-1.2 32.9,-1.2 42.4,-1.2 51.9,-1.2 61.3,-1.2 
						70.8,-1.2 80.3,-1.2 89.7,-1.2 99.2,-1.2 108.7,-1.2 118.2,-1.2 127.6,-1.2 137.1,-1.2 146.6,-1.2 156,-1.2 165.5,-1.2 
						175,-1.2 184.4,-1.2 193.9,-1.2 203.4,-1.2 212.8,-1.2 					"/>
				</g>
			</g>
		</g>
		<circle class="st5" cx="99.2" cy="99.2" r="97.8"/>
		<g class="st0">
			<circle class="st3" cx="23.5" cy="132.1" r="2.7"/>
			<path class="st3" d="M131.1,148.8c-2.1,0.8-2.7,1.4-3.4,3.4c-0.8-2.1-1.4-2.7-3.4-3.4c2.1-0.8,2.7-1.4,3.4-3.4
				C128.4,147.4,129,148,131.1,148.8z"/>
			<path class="st3" d="M111.9,40.5c-1.9,0.7-2.5,1.3-3.2,3.2c-0.7-1.9-1.3-2.5-3.2-3.2c1.9-0.7,2.5-1.3,3.2-3.2
				C109.4,39.2,110,39.8,111.9,40.5z"/>
		</g>
		<g class="st0">
			<g>
				<path class="st6" d="M53.2,138.1c0,2.9-2.4,5.3-5.3,5.3c-1.2,0-2.2-0.4-3.1-1c-1.3-1-2.2-2.5-2.2-4.3c0-2.9,2.4-5.3,5.3-5.3
					c0.2,0,0.4,0,0.6,0C51.2,133.1,53.2,135.3,53.2,138.1z"/>
				<path class="st7" d="M53.2,138.1c0,2.9-2.4,5.3-5.3,5.3c-1.2,0-2.2-0.4-3.1-1c1.5,0.1,3.1-0.4,4.3-1.4c1.7-1.5,2.3-4.1,1.4-6.1
					c-0.4-0.9-1.1-1.6-1.9-2.2C51.2,133.1,53.2,135.3,53.2,138.1z"/>
				<g>
					<path class="st8" d="M43.3,137.2c0.1-0.6,0.5-1.1,0.9-1.1c0.4,0,0.7,0.6,0.6,1.2c-0.1,0.6-0.5,1.1-0.9,1.1
						C43.4,138.3,43.2,137.8,43.3,137.2z"/>
					<path class="st8" d="M44.5,135c0.2-0.3,0.6-0.5,0.8-0.4c0.2,0.1,0.3,0.5,0.1,0.8c-0.2,0.3-0.6,0.5-0.8,0.4
						C44.3,135.7,44.2,135.4,44.5,135z"/>
				</g>
			</g>
			<g>
				<path class="st9" d="M172.1,130.7c-2.2,2-5.5,1.9-7.6-0.3c-0.8-0.8-1.2-1.9-1.4-3c-0.2-1.7,0.3-3.4,1.7-4.6
					c2.2-2,5.5-1.9,7.6,0.3c0.1,0.2,0.3,0.3,0.4,0.5C174.3,125.8,174.1,128.9,172.1,130.7z"/>
				<path class="st10" d="M172.1,130.7c-2.2,2-5.5,1.9-7.6-0.3c-0.8-0.8-1.2-1.9-1.4-3c1,1.2,2.4,2.1,3.9,2.2
					c2.2,0.2,4.5-1.1,5.4-3.1c0.4-0.9,0.5-1.9,0.3-2.9C174.3,125.8,174.1,128.9,172.1,130.7z"/>
				<g>
					<path class="st11" d="M165.9,122.8c0.5-0.4,1.2-0.4,1.4,0c0.3,0.3,0.1,0.9-0.4,1.3c-0.5,0.4-1.2,0.4-1.4,0
						C165.2,123.7,165.4,123.1,165.9,122.8z"/>
					<path class="st11" d="M168.3,122.2c0.4-0.1,0.8,0.1,0.9,0.3c0.1,0.3-0.2,0.5-0.6,0.6c-0.4,0.1-0.8-0.1-0.9-0.3
						C167.7,122.5,167.9,122.2,168.3,122.2z"/>
				</g>
			</g>
			<g>
				<path class="st12" d="M93.4,63.2c-2.2,2-5.5,1.9-7.5-0.3c-0.8-0.8-1.2-1.9-1.4-2.9c-0.2-1.6,0.3-3.4,1.7-4.6
					c2.2-2,5.5-1.9,7.5,0.3c0.1,0.2,0.3,0.3,0.4,0.5C95.7,58.3,95.4,61.3,93.4,63.2z"/>
				<path class="st13" d="M93.4,63.2c-2.2,2-5.5,1.9-7.5-0.3c-0.8-0.8-1.2-1.9-1.4-2.9c1,1.2,2.4,2,3.9,2.2c2.2,0.2,4.5-1.1,5.4-3.1
					c0.4-0.9,0.5-1.9,0.3-2.9C95.7,58.3,95.4,61.3,93.4,63.2z"/>
				<g>
					<path class="st8" d="M87.3,55.3c0.5-0.4,1.2-0.4,1.4,0c0.3,0.3,0.1,0.9-0.4,1.2c-0.5,0.4-1.2,0.4-1.4,0
						C86.6,56.2,86.8,55.6,87.3,55.3z"/>
					<path class="st8" d="M89.7,54.7c0.4-0.1,0.8,0.1,0.9,0.3c0.1,0.3-0.2,0.5-0.6,0.6c-0.4,0.1-0.8-0.1-0.9-0.3
						C89,55,89.3,54.7,89.7,54.7z"/>
				</g>
			</g>
		</g>
		<g class="st0">
			<g>
				<g>
					<g>
						<g>
							<g>
								<polygon class="st14" points="87.5,103.7 87.5,103.7 87.5,103.7 								"/>
								<polygon class="st14" points="87.5,103.7 87.5,103.7 87.5,103.7 								"/>
								<path class="st12" d="M117.2,102c0.5,7.6-1.9,15.5-7.2,21.7l-7.8-7l-4.2-3.8c2.4-2.9,3.4-6.5,3.2-10.1l5.6-0.3L117.2,102z"
									/>
								<path class="st15" d="M117.2,102l-10.5,0.6l-5.6,0.3c-0.3-3.4-1.8-6.8-4.6-9.3l3.8-4.2l7-7.8C113.4,87,116.7,94.4,117.2,102
									z"/>
								<g>
									<g>
										<g>
											<g>
												<path class="st16" d="M114.8,116.1c0,0,0-0.1,0.1-0.3c0.1-0.2,0.2-0.4,0.3-0.7c0.2-0.6,0.6-1.5,0.8-2.4
													c0.6-1.9,0.9-4.1,1.1-5.2c0.1-1.2,0.3-3.9,0.1-6.2c-0.1-1.2-0.3-2.3-0.4-3.1c-0.1-0.4-0.2-0.7-0.2-1
													c0-0.2-0.1-0.4-0.1-0.4c0,0,0,0.1,0.1,0.4c0.1,0.2,0.1,0.6,0.2,1c0.2,0.8,0.4,1.9,0.5,3.1c0.3,2.4,0.2,5.1,0,6.3
													c-0.1,1.2-0.5,3.4-1.1,5.3c-0.3,0.9-0.6,1.8-0.9,2.4c-0.1,0.3-0.3,0.5-0.3,0.7C114.8,116,114.8,116.1,114.8,116.1z"/>
											</g>
										</g>
									</g>
								</g>
								<path class="st15" d="M110,123.7c-0.1,0.2-0.3,0.3-0.4,0.4c-5.4,6.1-12.8,9.4-20.3,10l-0.6-10.5l-0.3-5.6
									c3.4-0.3,6.7-1.9,9.2-4.6c0.1-0.1,0.3-0.3,0.4-0.4l4.2,3.8L110,123.7z"/>
								<path class="st12" d="M88.4,118.1l0.3,5.6l0.6,10.5c-7.8,0.6-15.9-1.9-22.2-7.5l7-7.8l3.8-4.2
									C80.8,117.3,84.6,118.4,88.4,118.1z"/>
								<path class="st15" d="M85.8,73.8l0.6,10.5l0.3,5.6c-3.6,0.1-7.2,1.5-9.8,4.3l-4.2-3.8l-7.8-7C70.5,77.4,78.1,74.1,85.8,73.8
									z"/>
								<path class="st12" d="M107.3,81.6l-7,7.8l-3.8,4.2c0,0-0.1-0.1-0.1-0.1c-2.8-2.5-6.2-3.7-9.7-3.6l-0.3-5.6l-0.6-10.5
									C93.4,73.5,101.1,76,107.3,81.6C107.2,81.5,107.2,81.5,107.3,81.6z"/>
								<path class="st15" d="M77.8,114.6l-3.8,4.2l-7,7.8c0,0-0.1-0.1-0.1-0.1c-6.3-5.6-9.7-13.3-10.1-21.1l10.5-0.6l5.6-0.3
									c0.1,3.7,1.7,7.4,4.7,10C77.7,114.6,77.7,114.6,77.8,114.6z"/>
								<path class="st12" d="M76.9,94.2c-0.1,0.1-0.3,0.3-0.4,0.4c-2.5,2.8-3.7,6.4-3.6,9.9l-5.6,0.3l-10.5,0.6
									C56.5,97.8,59,90,64.5,83.9c0.1-0.1,0.3-0.3,0.4-0.4l7.8,7L76.9,94.2z"/>
								<g>
									<g>
										<g>
											<g>
												<path class="st16" d="M57.3,98.7c0,0,0,0.1,0,0.3c0,0.2-0.1,0.5-0.1,0.8c-0.1,0.7-0.2,1.6-0.2,2.6
													c-0.1,2,0.1,4.3,0.3,5.5c0.2,1.2,0.7,3.9,1.5,6.2c0.4,1.2,0.9,2.2,1.2,3c0.2,0.4,0.3,0.7,0.4,0.9
													c0.1,0.2,0.1,0.3,0.1,0.3s-0.1-0.1-0.2-0.3c-0.1-0.2-0.3-0.5-0.5-0.9c-0.4-0.8-0.9-1.8-1.3-3c-0.9-2.3-1.4-5.1-1.6-6.3
													c-0.2-1.2-0.4-3.5-0.3-5.5c0.1-1,0.2-1.9,0.3-2.6c0.1-0.3,0.1-0.6,0.2-0.8C57.3,98.8,57.3,98.7,57.3,98.7z"/>
											</g>
										</g>
									</g>
								</g>
							</g>
							<path class="st13" d="M100.3,89.4c-3.7-3.4-8.7-5.3-13.9-5.1c-1.9,0.1-3.8,0.4-5.8,1c-3.1,1.1-5.8,2.9-8,5.1
								c-3.6,3.8-5.6,9-5.4,14.4c0.1,1.9,0.4,3.7,1,5.6c1.2,3.4,3.1,6.3,5.6,8.5c4,3.5,9.3,5.3,14.7,4.9c1.6-0.1,3.2-0.5,4.7-1
								c3.5-1.2,6.5-3.3,8.7-6c3.3-3.9,5-9,4.6-14.1c-0.1-1.6-0.4-3.3-1-4.9C104.6,94.4,102.7,91.5,100.3,89.4z M97.9,113
								c-0.1,0.2-0.2,0.3-0.4,0.4c-2.5,2.8-5.8,4.3-9.2,4.6c-3.7,0.3-7.6-0.8-10.6-3.4c0,0-0.1-0.1-0.1-0.1c-3-2.7-4.6-6.3-4.7-10
								c-0.1-3.5,1.1-7.1,3.6-9.9c0.1-0.1,0.3-0.3,0.4-0.4c2.7-2.8,6.2-4.2,9.8-4.3c3.4-0.1,6.9,1.1,9.7,3.6c0,0,0.1,0.1,0.1,0.1
								c2.8,2.5,4.3,5.9,4.6,9.3C101.4,106.4,100.3,110,97.9,113z"/>
							<path class="st13" d="M113,104.6c1.6,0.6,1.7,4.3,0.2,8.3c-1.4,4-3.9,6.8-5.4,6.2c-1.6-0.6,0.6-3,2-7
								C111.3,108.1,111.5,104,113,104.6z"/>
							<path class="st13" d="M61.9,101.9c-1-0.3-1.2-2.6-0.5-5.1c0.7-2.6,2.1-4.4,3.1-4.1c1,0.3-0.2,1.9-1,4.5
								C62.9,99.6,62.9,102.2,61.9,101.9z"/>
						</g>
						<g>
							<g>
								<g>
									<g>
										<g>
											<g>
												<g>
													<path class="st15" d="M66,120.4c0,0,0.1,0.1,0.2,0.2c0.1,0.2,0.4,0.4,0.6,0.7c0.5,0.6,1.3,1.3,2.1,2.1
														c1.7,1.6,3.9,3,5.1,3.7c1.2,0.7,4,2.2,6.8,2.9c1.4,0.4,2.7,0.6,3.6,0.8c0.5,0.1,0.9,0.1,1.2,0.2c0.3,0,0.4,0.1,0.4,0.1
														c0,0-0.2,0-0.4,0c-0.3,0-0.7,0-1.2-0.1c-1-0.1-2.3-0.3-3.7-0.7c-2.8-0.7-5.7-2.1-6.9-2.8c-1.2-0.7-3.4-2.2-5.1-3.9
														c-0.8-0.8-1.5-1.6-2-2.2c-0.2-0.3-0.4-0.6-0.6-0.7C66,120.5,66,120.4,66,120.4z"/>
												</g>
											</g>
										</g>
									</g>
									<g>
										<g>
											<g>
												<g>
													<path class="st15" d="M64.8,118.6c-0.1,0.1-0.6-0.5-0.8-0.8c-0.2-0.2-0.5-1.2-0.3-1.2c0.1,0,0.5,0.8,0.7,1.1
														C64.5,117.9,64.9,118.5,64.8,118.6z"/>
												</g>
											</g>
										</g>
									</g>
								</g>
								<g>
									<g>
										<g>
											<g>
												<path class="st15" d="M100.1,81.8c0,0-0.4-0.2-0.9-0.5c-0.5-0.3-1.1-0.6-1.4-0.7c-0.3-0.2-1-0.5-1.7-0.7
													c-0.7-0.2-1.3-0.4-1.3-0.5c0,0,0.6,0,1.3,0.2c0.7,0.2,1.4,0.5,1.8,0.7c0.3,0.2,0.9,0.5,1.4,0.8
													C99.8,81.4,100.2,81.8,100.1,81.8z"/>
											</g>
										</g>
									</g>
								</g>
							</g>
						</g>
					</g>
				</g>
			</g>
			<g>
				<g>
					<path class="st9" d="M68.5,40.4c2,3.5,2.2,7.2,0.4,8.4l0,0c0,0-0.1,0.1-0.1,0.1c-0.1,0-0.1,0.1-0.2,0.1c-1.9,0.9-5-1.2-7-4.7
						c-0.2-0.3-0.3-0.6-0.5-0.9c-1.6-3.3-1.6-6.6,0.2-7.6c0.1,0,0.1-0.1,0.2-0.1c0.7-0.3,1.5-0.3,2.4,0.1
						C65.5,36.5,67.2,38.2,68.5,40.4z"/>
					<rect x="57.7" y="36.8" transform="matrix(0.87 -0.4931 0.4931 0.87 -13.8034 36.1763)" class="st9" width="8.1" height="15"/>
					<path class="st10" d="M68.5,40.4c2,3.5,2.2,7.2,0.4,8.4l0,0c0,0-0.1,0.1-0.1,0.1c-0.1,0-0.1,0.1-0.2,0.1l-6.7,3.8l-5.4-9.5
						c0.5,0.1,0.9,0.1,1.4,0.2c1.1,0.1,2.2,0.1,3.3-0.1c0.4-0.1,0.8-0.2,1.2-0.3c0.9-0.3,1.9-0.7,2.5-1.4c0.2-0.2,0.3-0.4,0.5-0.6
						c0.7-1.3,0.3-3.1-0.6-4.3c-0.3-0.4-0.6-0.7-0.9-1C65.5,36.5,67.2,38.2,68.5,40.4z"/>
					<path class="st17" d="M61.6,44.3c2,3.6,2.2,7.4,0.3,8.5c-1.9,1.1-5.1-1-7.1-4.6c-2-3.6-2.2-7.4-0.3-8.5
						C56.4,38.7,59.6,40.7,61.6,44.3z"/>
					<path class="st18" d="M59.5,45.5c0.8,1.4,0.8,2.9,0.1,3.3c-0.7,0.4-2-0.4-2.8-1.8c-0.8-1.4-0.8-2.9-0.1-3.3
						C57.5,43.3,58.7,44.1,59.5,45.5z"/>
				</g>
				<path class="st12" d="M58.1,47.9l-15.6,8.9c-0.7,0.4-1.5,0.1-1.9-0.5l0,0c-0.4-0.7-0.1-1.5,0.5-1.9l15.6-8.9
					c0.7-0.4,1.5-0.1,1.9,0.5l0,0C59,46.7,58.7,47.5,58.1,47.9z"/>
				<g>
					<path class="st9" d="M48.1,52c2,3.5,2.1,7.2,0.4,8.4l0,0c0,0-0.1,0.1-0.1,0.1s-0.1,0.1-0.2,0.1c-1.9,0.9-5-1.2-7-4.7
						c-0.2-0.4-0.4-0.7-0.6-1.1c-1.5-3.2-1.4-6.4,0.3-7.4c0.1,0,0.1-0.1,0.2-0.1c1.5-0.7,3.8,0.4,5.6,2.7
						C47.2,50.6,47.7,51.3,48.1,52z"/>
					<rect x="37.3" y="48.3" transform="matrix(0.87 -0.4931 0.4931 0.87 -22.1484 27.6286)" class="st9" width="8.1" height="15"/>
					<path class="st10" d="M48.1,52c2,3.5,2.1,7.2,0.4,8.4l0,0c0,0-0.1,0.1-0.1,0.1s-0.1,0.1-0.2,0.1l-6.7,3.8l-1.7-3
						c0.4-2.5-0.2-5.2-1.8-7.2c0.8,0.3,1.7,0.5,2.6,0.6c1.1,0.1,2.2,0.1,3.3-0.1c0.4-0.1,0.8-0.2,1.2-0.3c0.6-0.3,1.2-0.6,1.6-1.2
						c0.5-0.9,0.5-2,0.1-2.9c0,0,0-0.1-0.1-0.1C47.2,50.6,47.7,51.3,48.1,52z"/>
					<path class="st17" d="M41.2,55.9c2,3.6,2.2,7.4,0.3,8.5c-1.9,1.1-5.1-1-7.1-4.6c-2-3.6-2.2-7.4-0.3-8.5
						C36,50.2,39.2,52.3,41.2,55.9z"/>
					<path class="st18" d="M38.3,57.6c0.7,1.3,0.8,2.6,0.1,3c-0.7,0.4-1.8-0.3-2.5-1.6c-0.7-1.3-0.8-2.6-0.1-3
						C36.4,55.6,37.5,56.3,38.3,57.6z"/>
				</g>
			</g>
		</g>
		<g class="st0">
			<g>
				<path class="st17" d="M129.2,90c-4.4-4.2-8.8-14.5-5.2-22.2c1.5-3.3,3.6-5.4,6.2-6.4c1.1-0.4,2.4-0.6,3.6-0.5
					c1.3,0.1,2.5,0.5,3.7,1.1c2.6,1.3,4.7,3.1,6.9,4.8c2.4,1.8,4.6,3.8,6.9,5.8c3.3,2.9,6.6,5.9,9.7,8.9c0.5,0.4,0.9,0.9,1.4,1.3
					c5.7,5.5,10.5,10.6,12.4,13c4.2,5.5,3.7,10.6-1.6,15c-4.6,3.9-15.3,2.9-22.9-2.1c-0.5-0.3-0.9-0.7-1.3-1.1
					c-3.8-3.7-2.6-9.2-1.8-13.2c0.4-1.7,0.9-4,0.5-4.5c0,0,0-0.1-0.1-0.1c-0.7-0.7-3.5,0.2-5.7,0.9c-2.5,0.8-5.4,1.8-8,1.6
					C132.4,92.3,130.8,91.5,129.2,90z"/>
				<path class="st10" d="M129.2,90c-4.4-4.2-8.8-14.5-5.2-22.2c1.5-3.3,3.6-5.4,6.2-6.4c1.1-0.4,2.4-0.6,3.6-0.5
					c1.3,0.1,2.5,0.5,3.7,1.1c2.6,1.3,4.7,3.1,6.9,4.8c2.4,1.8,4.6,3.8,6.9,5.8c3.3,2.9,6.6,5.9,9.7,8.9c0.5,0.4,0.9,0.9,1.4,1.3
					c5.7,5.5,10.5,10.6,12.4,13c4.2,5.5,3.7,10.6-1.6,15c-4.6,3.9-15.3,2.9-22.9-2.1c-0.5-0.3-0.9-0.7-1.3-1.1
					c-3.8-3.7-2.6-9.2-1.8-13.2c0.4-1.7,0.9-4,0.5-4.5c0,0,0-0.1-0.1-0.1c-0.7-0.7-3.5,0.2-5.7,0.9c-2.5,0.8-5.4,1.8-8,1.6
					C132.4,92.3,130.8,91.5,129.2,90z"/>
				<path class="st17" d="M128.6,90.7c-4.4-4.2-8.8-14.5-5.2-22.2c1.5-3.3,3.6-5.4,6.2-6.4c1.1-0.4,2.4-0.6,3.6-0.5
					c1.3,0.1,2.5,0.5,3.7,1.1c2.6,1.3,4.7,3.1,6.9,4.8c2.4,1.8,4.6,3.8,6.9,5.8c3.3,2.9,6.6,5.9,9.7,8.9c0.5,0.4,0.9,0.9,1.4,1.3
					c5.7,5.5,10.5,10.6,12.4,13c4.2,5.5,3.7,10.6-1.6,15c-4.6,3.9-15.3,2.9-22.9-2.1c-0.5-0.3-0.9-0.7-1.3-1.1
					c-3.8-3.7-2.6-9.2-1.8-13.2c0.4-1.7,0.9-4,0.5-4.5c0,0,0-0.1-0.1-0.1c-0.7-0.7-3.5,0.2-5.7,0.9c-2.5,0.8-5.4,1.8-8,1.6
					C131.8,93,130.1,92.2,128.6,90.7z"/>
				<g>
					<path class="st3" d="M123.7,58.8c-1.1,1.2-1.1,3,0.1,4.1c1.2,1.1,3,1.1,4.1-0.1c1.1-1.2,1.1-3-0.1-4.1
						C126.7,57.6,124.9,57.7,123.7,58.8z"/>
					<polygon class="st3" points="128.7,61.6 127.7,63.3 122.7,60.2 123.6,59 127.4,58.8 					"/>
					<g>
						<g>
							<g>
								<g>
									<path class="st16" d="M125,58c0,0,0.6-0.2,1.3-0.1c0.7,0.1,1.5,0.6,1.8,0.9c0.3,0.3,0.8,1.3,0.7,2.2c0,0.9-0.5,1.6-0.6,1.6
										c0,0,0.4-0.7,0.4-1.6c0-0.9-0.5-1.7-0.8-2c-0.3-0.3-0.9-0.8-1.6-0.9C125.6,57.9,125,58.1,125,58z"/>
								</g>
							</g>
						</g>
					</g>
					<path class="st17" d="M123,59.8c-1.1,1.2-1.1,3,0.1,4.1c1.2,1.1,3,1.1,4.1-0.1c1.1-1.2,1.1-3-0.1-4.1
						C126,58.6,124.2,58.7,123,59.8z"/>
				</g>
				<path class="st3" d="M171.7,110.5c-0.8,0.7-1.8,1.2-3,1.5c-4.8,1.3-12.4,0.1-18.2-3.7c-2.2-1.5-3.1-3.5-3.3-5.7
					c-0.1-0.5-0.1-1,0-1.5c0-1.2,0.2-2.5,0.5-3.7c0.1-0.5,0.2-1,0.3-1.5c0.6-2.6,1.1-4.9,0.3-6c-2.2-2.9-9.4,2.3-14.8,2
					c-3.9-0.3-8.8-7.4-9.8-14.6c-0.1-0.5-0.1-1-0.1-1.5c-0.1-1.3,0-2.5,0.3-3.7c0.1-0.5,0.2-1,0.4-1.5c0.1-0.4,0.3-0.8,0.5-1.2
					c2-4.4,4.8-5.8,7.1-6c1.8-0.2,3.6,0.3,5.2,1.3c2.5,1.6,5.4,3.8,8.4,6.3c0.1,0.1,0.1,0.1,0.2,0.2c0.6,0.5,1.3,1,1.9,1.6
					c1.4,1.2,2.9,2.5,4.4,3.8c0.6,0.5,1.2,1.1,1.8,1.6c7.9,7.1,15.4,14.7,18.6,18.5c0.4,0.4,0.7,0.8,0.9,1.1
					c0.1,0.1,0.2,0.3,0.3,0.4c1,1.3,1.6,2.6,1.9,3.8c0.1,0.5,0.2,1,0.3,1.5C175.8,106,174.1,108.4,171.7,110.5z"/>
				<g>
					<path class="st3" d="M180.4,111.6c-1.1,1.2-3,1.2-4.1,0.1c-1.2-1.1-1.2-3-0.1-4.1s3-1.2,4.1-0.1
						C181.5,108.6,181.5,110.5,180.4,111.6z"/>
					<polygon class="st3" points="177.5,106.8 175.8,107.8 179.1,112.7 180.3,111.8 180.3,107.9 					"/>
					<g>
						<g>
							<g>
								<g>
									<path class="st16" d="M175.8,107.6c0,0,0.3-0.5,1-0.8c0.6-0.3,1.5-0.4,1.9-0.3c0.4,0,1.4,0.5,1.9,1.2
										c0.5,0.7,0.6,1.5,0.6,1.5c0,0-0.1-0.8-0.7-1.4c-0.5-0.7-1.4-1-1.8-1.1c-0.4-0.1-1.2-0.1-1.8,0.2
										C176.3,107.2,175.9,107.7,175.8,107.6z"/>
								</g>
							</g>
						</g>
					</g>
					<path class="st17" d="M179.5,112.4c-1.1,1.2-3,1.2-4.1,0.1c-1.2-1.1-1.2-3-0.1-4.1c1.1-1.2,3-1.2,4.1-0.1
						C180.5,109.4,180.6,111.2,179.5,112.4z"/>
				</g>
			</g>
			<path class="st10" d="M168.7,112c-4.8,1.3-12.4,0.1-18.2-3.7c-7.3-4.8-0.1-15.6-2.3-18.5c-2.2-2.9-9.4,2.3-14.8,2
				c-5.4-0.4-12.8-13.8-8.8-22.7c2-4.4,4.8-5.8,7.1-6c1.8-0.2,3.6,0.3,5.2,1.3c2.5,1.6,5.4,3.8,8.4,6.3c-0.6,0-1.1,0-1.7,0.1
				c-2.7,0.2-5.5,0.8-7.8,2.2c-2.3,1.4-4.2,3.7-4.6,6.4c-0.4,2.7,0.9,5.7,3.4,6.8c2.7,1.3,5.8,0.2,8.7-0.5c2.9-0.7,6.6-0.7,8.2,1.8
				c1.4,2.2,0.4,5.1,0.1,7.7c-0.7,6,2.8,12.1,8.1,14.9C162.4,111.6,165.6,112.2,168.7,112z"/>
			<g>
				<g>
					<g>
						<g>
							<g>
								<path class="st16" d="M152.4,107.5c0,0,0.1,0,0.2,0.1c0.2,0.1,0.4,0.2,0.6,0.3c0.5,0.3,1.3,0.6,2.1,0.9
									c1.6,0.6,3.6,1,4.7,1.2c1,0.2,3.5,0.3,5.6,0c1.1-0.1,2.1-0.4,2.8-0.5c0.4-0.1,0.6-0.2,0.9-0.2c0.2-0.1,0.3-0.1,0.3-0.1
									c0,0-0.1,0.1-0.3,0.1c-0.2,0.1-0.5,0.2-0.8,0.3c-0.7,0.2-1.7,0.5-2.8,0.6c-2.2,0.4-4.6,0.2-5.7,0c-1.1-0.1-3.1-0.6-4.7-1.2
									c-0.8-0.3-1.6-0.7-2.1-1c-0.3-0.2-0.5-0.3-0.6-0.4C152.4,107.6,152.4,107.5,152.4,107.5z"/>
							</g>
						</g>
					</g>
				</g>
				<g>
					<g>
						<g>
							<g>
								<path class="st16" d="M126.4,76.2c0,0-0.1-0.3-0.1-0.8c0-0.5-0.1-1.2,0-1.9c0.1-1.5,0.7-3.1,1.1-3.8
									c0.4-0.8,1.5-2.5,2.9-3.6c0.7-0.6,1.4-1,2-1.3c0.3-0.1,0.5-0.2,0.7-0.3c0.2-0.1,0.3-0.1,0.3-0.1c0,0-0.3,0.2-0.9,0.5
									c-0.5,0.3-1.2,0.7-1.9,1.3c-1.4,1.1-2.5,2.8-2.8,3.6c-0.4,0.8-1,2.3-1.2,3.7c-0.1,0.7-0.1,1.4-0.1,1.9
									C126.4,75.9,126.4,76.2,126.4,76.2z"/>
							</g>
						</g>
					</g>
				</g>
				<g>
					<g>
						<g>
							<g>
								<path class="st16" d="M150.6,90.8c0,0,0-0.7-0.3-1.4c-0.3-0.7-0.8-1.4-1.2-1.7c-0.3-0.3-1.3-0.9-2.2-1c-0.5-0.1-0.9,0-1.2,0
									c-0.3,0.1-0.5,0.1-0.5,0.1c0,0,0.2-0.1,0.5-0.2c0.3-0.1,0.8-0.1,1.3-0.1c1,0.1,2,0.6,2.4,1c0.4,0.3,1,1.1,1.2,1.8
									c0.1,0.4,0.2,0.7,0.2,1C150.7,90.6,150.7,90.8,150.6,90.8z"/>
							</g>
						</g>
					</g>
				</g>
			</g>
			<g class="st19">
				<path class="st20" d="M147.4,72.4l-23.7-0.5c0.1-0.5,0.2-1,0.4-1.5l21.4,0.5C146.1,71.3,146.8,71.8,147.4,72.4z"/>
				<path class="st20" d="M153.6,77.8l-30-0.6c-0.1-0.5-0.1-1-0.1-1.5l28.3,0.6C152.4,76.7,153,77.2,153.6,77.8z"/>
				<path class="st20" d="M173.4,97.9l-25.8-0.5c0.1-0.5,0.2-1,0.3-1.5l24.3,0.5c0.4,0.4,0.7,0.8,0.9,1.1
					C173.2,97.6,173.3,97.7,173.4,97.9z"/>
				<path class="st20" d="M175.6,103.2l-28.4-0.6c-0.1-0.5-0.1-1,0-1.5l28.2,0.6C175.5,102.1,175.5,102.7,175.6,103.2z"/>
			</g>
		</g>
		<g class="st0">
			<g>
				<g>
					<g>
						<g>
							<path class="st21" d="M197.9,211.5c-0.6,0.3-1.2,0.4-1.8,0.5c-3.4,0.4-6.5-2-6.9-5.4c-1.4-11.5-8.4-22.8-19.3-31
								c-9.1-6.9-20.7-11.7-35.3-14.6c-0.1,0-0.1,0-0.2,0c-1.4-0.4-2.1-3-1.6-6.2c0-0.2,0.1-0.3,0.1-0.5c0.6-3.4,2.4-5.8,3.9-5.6
								c0,0,0.1,0,0.1,0c16.5,3.3,29.8,8.8,40.4,16.8c13.5,10.2,22.4,24.6,24.2,39.4C201.8,207.8,200.3,210.4,197.9,211.5z"/>
						</g>
					</g>
					<path class="st21" d="M132.8,154.3c0.6-3.3,2.4-5.8,3.9-5.6c0,0,0,0,0,0c0,0,0,0,0.1,0c1.5,0.4,2.2,3.3,1.6,6.7
						c-0.6,3.3-2.4,5.8-3.9,5.6c0,0-0.1,0-0.1,0c0,0-0.1,0-0.1,0C132.9,160.6,132.2,157.6,132.8,154.3z"/>
					<path class="st22" d="M133.9,154.5c0.3-1.4,0.9-2.4,1.5-2.3c0,0,0,0,0,0c0,0,0,0,0,0c0.5,0.1,0.8,1.3,0.5,2.7
						c-0.3,1.4-0.9,2.4-1.5,2.3c0,0,0,0,0,0c0,0,0,0,0,0C133.9,157.1,133.7,155.9,133.9,154.5z"/>
				</g>
				<path class="st22" d="M197.9,211.5c-0.6,0.3-1.2,0.4-1.8,0.5c-3.4,0.4-6.5-2-6.9-5.4c-1.4-11.5-8.4-22.8-19.3-31
					c-9.1-6.9-20.7-11.7-35.3-14.6c-0.1,0-0.1,0-0.2,0c-1.4-0.4-2.1-3-1.6-6.2c0.2,0,0.3,0,0.4,0c8.6,0.5,17,2.6,24.9,6.2
					c4.4,2,8.6,4.4,12.5,7.3c12.7,9.3,22.1,23,26.3,38.1C197.3,208.1,197.7,209.8,197.9,211.5z"/>
			</g>
			<g>
				<g>
					<g>
						<path class="st21" d="M-35.7,42.5c0.6-0.2,1.2-0.3,1.9-0.3c3.4-0.1,6.3,2.6,6.4,6C-27,59.8-21,71.7-11,80.8
							c8.5,7.7,19.6,13.5,33.9,17.7c0.1,0,0.1,0,0.2,0.1c1.4,0.5,1.8,3.2,1.1,6.3c0,0.2-0.1,0.3-0.1,0.5c-0.9,3.3-2.9,5.6-4.4,5.2
							c0,0-0.1,0-0.1,0C3.3,105.7-9.4,99-19.3,90.1c-12.6-11.4-20.1-26.5-20.5-41.5C-39.9,45.8-38.2,43.3-35.7,42.5z"/>
					</g>
					<path class="st21" d="M24,105.3c-0.9,3.3-2.9,5.6-4.4,5.2c0,0,0,0,0,0c0,0,0,0-0.1,0c-1.5-0.5-1.9-3.5-1-6.8
						c0.9-3.3,2.9-5.6,4.4-5.2c0,0,0.1,0,0.1,0c0,0,0.1,0,0.1,0C24.5,99.1,25,102.1,24,105.3z"/>
					<path class="st22" d="M22.9,105c-0.4,1.3-1.1,2.3-1.7,2.2c0,0,0,0,0,0c0,0,0,0,0,0c-0.5-0.2-0.6-1.4-0.3-2.7
						c0.4-1.3,1.1-2.3,1.7-2.2c0,0,0,0,0,0c0,0,0,0,0,0C23.2,102.5,23.3,103.7,22.9,105z"/>
				</g>
				<path class="st22" d="M-35.7,42.5c0.6-0.2,1.2-0.3,1.9-0.3c3.4-0.1,6.3,2.6,6.4,6C-27,59.8-21,71.7-11,80.8
					c8.5,7.7,19.6,13.5,33.9,17.7c0.1,0,0.1,0,0.2,0.1c1.4,0.5,1.8,3.2,1.1,6.3c-0.2,0-0.3-0.1-0.4-0.1c-8.5-1.3-16.7-4.2-24.2-8.4
					c-4.2-2.4-8.2-5.2-11.8-8.4c-11.8-10.4-20-24.9-22.8-40.4C-35.4,45.9-35.6,44.2-35.7,42.5z"/>
			</g>
			<g>
				<g>
					<path class="st21" d="M126.8,38.6C126.8,38.6,126.9,38.6,126.8,38.6c9.4-14.9,19.6-25.8,31.4-33.2c14.9-9.4,32.1-12.6,47.2-8.9
						c3.5,0.9,5.6,4.4,4.7,7.9c-0.1,0.6-0.4,1.1-0.6,1.6c-1.4,2.5-4.3,3.9-7.2,3.1c-11.7-2.9-25.2-0.3-37.2,7.3
						c-10.1,6.3-19,15.8-27.2,28.9c0,0-0.1,0.1-0.1,0.2c-0.9,1.2-3.7,0.9-6.5-0.7c-0.2-0.1-0.3-0.2-0.5-0.3
						C127.8,42.7,126,40,126.8,38.6z"/>
				</g>
				<path class="st23" d="M126.8,38.6C126.8,38.6,126.9,38.6,126.8,38.6c9.4-14.9,19.6-25.8,31.4-33.2c14.9-9.4,32.1-12.6,47.2-8.9
					c3.5,0.9,5.6,4.4,4.7,7.9c-0.1,0.6-0.4,1.1-0.6,1.6c-2.2-0.8-4.5-1.3-6.7-1.7c-5.8-1-11.7-0.9-17.5,0c-6.6,1.1-13.1,3.2-19,6.3
					c-14.4,7.5-25.8,19.9-34.5,33.6c-0.1,0.2-0.2,0.4-0.4,0.6c-0.2-0.1-0.3-0.2-0.5-0.3C127.8,42.7,126,40,126.8,38.6z"/>
				<path class="st21" d="M130.8,44.5c-3-1.9-4.8-4.5-4-5.9c0,0,0,0,0,0c0,0,0,0,0-0.1c0.9-1.3,4-0.9,7,0.9c3,1.9,4.7,4.5,4,5.9
					c0,0,0,0,0,0.1c0,0,0,0.1-0.1,0.1C136.8,46.8,133.8,46.4,130.8,44.5z"/>
				<path class="st23" d="M131.4,43.5c-1.2-0.8-2-1.8-1.7-2.3c0,0,0,0,0,0c0,0,0,0,0,0c0.3-0.5,1.6-0.3,2.8,0.5
					c1.2,0.8,2,1.8,1.7,2.3c0,0,0,0,0,0c0,0,0,0,0,0C133.8,44.5,132.6,44.3,131.4,43.5z"/>
			</g>
		</g>
	</g>
</g>
</svg>
