<?xml version="1.0" encoding="utf-8"?>
<!-- Generator: Adobe Illustrator 25.2.1, SVG Export Plug-In . SVG Version: 6.00 Build 0)  -->
<svg version="1.1" id="Layer_1" xmlns="http://www.w3.org/2000/svg" xmlns:xlink="http://www.w3.org/1999/xlink" x="0px" y="0px"
	 viewBox="0 0 198.4 198.4" style="enable-background:new 0 0 198.4 198.4;" xml:space="preserve">
<style type="text/css">
	.st0{clip-path:url(#SVGID_2_);}
	.st1{fill:#86C2EB;}
	.st2{opacity:0.65;}
	.st3{fill:#A1D6FF;}
	.st4{fill:none;stroke:#CBE6FF;stroke-width:0.3828;stroke-miterlimit:10;}
	.st5{fill:none;}
	.st6{clip-path:url(#SVGID_4_);}
	.st7{fill:#FD8E18;}
	.st8{fill:#F57B00;}
	.st9{opacity:0.46;fill:#D47828;}
	.st10{opacity:0.46;fill:#FFAA53;}
	.st11{fill:#FF6658;}
	.st12{fill:#D54A3D;}
	.st13{opacity:0.46;fill:#953228;}
	.st14{opacity:0.46;fill:#FF6658;}
	.st15{fill:#259BFC;}
	.st16{opacity:0.22;fill:#1E4D89;}
	.st17{fill:#0065CC;}
	.st18{opacity:0.48;fill:#FF6658;}
	.st19{opacity:0.48;fill:#259BFC;}
	.st20{clip-path:url(#SVGID_6_);}
	.st21{fill:#FFFFFF;}
	.st22{fill:#DDEEFF;}
	.st23{opacity:0.89;fill:#0069C6;}
	.st24{opacity:0.19;}
	.st25{clip-path:url(#SVGID_8_);}
	.st26{fill:none;stroke:#008AFF;stroke-width:0.2821;stroke-miterlimit:10;}
	.st27{fill:none;stroke:#008AFF;stroke-width:0.2404;stroke-miterlimit:10;}
	.st28{opacity:0.82;}
	.st29{opacity:0.22;clip-path:url(#SVGID_10_);fill:#FFFFFF;}
	.st30{opacity:0.22;fill:#0065CC;}
	.st31{fill:#FFCDB3;}
	.st32{opacity:0.48;fill:#FFB999;}
	.st33{fill:#4E2626;}
	.st34{fill:#4C2424;}
	.st35{fill:#0381D7;}
</style>
<g>
	<defs>
		<circle id="SVGID_1_" cx="99.2" cy="99.2" r="97.8"/>
	</defs>
	<clipPath id="SVGID_2_">
		<use xlink:href="#SVGID_1_"  style="overflow:visible;"/>
	</clipPath>
	<g class="st0">
		<g>
			<rect x="-15" y="-1.9" class="st1" width="228.4" height="202.1"/>
			<g class="st2">
				<rect x="165.4" y="73.9" class="st3" width="9.5" height="8.3"/>
				<rect x="4.5" y="123.8" class="st3" width="9.5" height="8.3"/>
				<rect x="203.9" y="107.1" class="st3" width="9.5" height="8.3"/>
				<rect x="127.6" y="24" class="st3" width="9.5" height="8.3"/>
				<rect x="118.2" y="173.7" class="st3" width="9.5" height="8.3"/>
				<rect x="99.2" y="132.1" class="st3" width="9.5" height="8.3"/>
			</g>
			<g>
				<g>
					<polyline class="st4" points="-14.4,-1.2 -14.4,7.2 -14.4,15.5 -14.4,23.8 -14.4,32.2 -14.4,40.5 -14.4,48.8 -14.4,57.1 
						-14.4,65.5 -14.4,73.8 -14.4,82.1 -14.4,90.5 -14.4,98.8 -14.4,107.1 -14.4,115.4 -14.4,123.8 -14.4,132.1 -14.4,140.4 
						-14.4,148.7 -14.4,157.1 -14.4,165.4 -14.4,173.7 -14.4,182.1 -14.4,190.4 -14.4,198.7 					"/>
					<polyline class="st4" points="-4.9,-1.2 -4.9,7.2 -4.9,15.5 -4.9,23.8 -4.9,32.2 -4.9,40.5 -4.9,48.8 -4.9,57.1 -4.9,65.5 
						-4.9,73.8 -4.9,82.1 -4.9,90.5 -4.9,98.8 -4.9,107.1 -4.9,115.4 -4.9,123.8 -4.9,132.1 -4.9,140.4 -4.9,148.7 -4.9,157.1 
						-4.9,165.4 -4.9,173.7 -4.9,182.1 -4.9,190.4 -4.9,198.7 					"/>
					<polyline class="st4" points="4.5,-1.2 4.5,7.2 4.5,15.5 4.5,23.8 4.5,32.2 4.5,40.5 4.5,48.8 4.5,57.1 4.5,65.5 4.5,73.8 
						4.5,82.1 4.5,90.5 4.5,98.8 4.5,107.1 4.5,115.4 4.5,123.8 4.5,132.1 4.5,140.4 4.5,148.7 4.5,157.1 4.5,165.4 4.5,173.7 
						4.5,182.1 4.5,190.4 4.5,198.7 					"/>
					<polyline class="st4" points="14,-1.2 14,7.2 14,15.5 14,23.8 14,32.2 14,40.5 14,48.8 14,57.1 14,65.5 14,73.8 14,82.1 
						14,90.5 14,98.8 14,107.1 14,115.4 14,123.8 14,132.1 14,140.4 14,148.7 14,157.1 14,165.4 14,173.7 14,182.1 14,190.4 
						14,198.7 					"/>
					<polyline class="st4" points="23.5,-1.2 23.5,7.2 23.5,15.5 23.5,23.8 23.5,32.2 23.5,40.5 23.5,48.8 23.5,57.1 23.5,65.5 
						23.5,73.8 23.5,82.1 23.5,90.5 23.5,98.8 23.5,107.1 23.5,115.4 23.5,123.8 23.5,132.1 23.5,140.4 23.5,148.7 23.5,157.1 
						23.5,165.4 23.5,173.7 23.5,182.1 23.5,190.4 23.5,198.7 					"/>
					<polyline class="st4" points="32.9,-1.2 32.9,7.2 32.9,15.5 32.9,23.8 32.9,32.2 32.9,40.5 32.9,48.8 32.9,57.1 32.9,65.5 
						32.9,73.8 32.9,82.1 32.9,90.5 32.9,98.8 32.9,107.1 32.9,115.4 32.9,123.8 32.9,132.1 32.9,140.4 32.9,148.7 32.9,157.1 
						32.9,165.4 32.9,173.7 32.9,182.1 32.9,190.4 32.9,198.7 					"/>
					<polyline class="st4" points="42.4,-1.2 42.4,7.2 42.4,15.5 42.4,23.8 42.4,32.2 42.4,40.5 42.4,48.8 42.4,57.1 42.4,65.5 
						42.4,73.8 42.4,82.1 42.4,90.5 42.4,98.8 42.4,107.1 42.4,115.4 42.4,123.8 42.4,132.1 42.4,140.4 42.4,148.7 42.4,157.1 
						42.4,165.4 42.4,173.7 42.4,182.1 42.4,190.4 42.4,198.7 					"/>
					<polyline class="st4" points="51.9,-1.2 51.9,7.2 51.9,15.5 51.9,23.8 51.9,32.2 51.9,40.5 51.9,48.8 51.9,57.1 51.9,65.5 
						51.9,73.8 51.9,82.1 51.9,90.5 51.9,98.8 51.9,107.1 51.9,115.4 51.9,123.8 51.9,132.1 51.9,140.4 51.9,148.7 51.9,157.1 
						51.9,165.4 51.9,173.7 51.9,182.1 51.9,190.4 51.9,198.7 					"/>
					<polyline class="st4" points="61.3,-1.2 61.3,7.2 61.3,15.5 61.3,23.8 61.3,32.2 61.3,40.5 61.3,48.8 61.3,57.1 61.3,65.5 
						61.3,73.8 61.3,82.1 61.3,90.5 61.3,98.8 61.3,107.1 61.3,115.4 61.3,123.8 61.3,132.1 61.3,140.4 61.3,148.7 61.3,157.1 
						61.3,165.4 61.3,173.7 61.3,182.1 61.3,190.4 61.3,198.7 					"/>
					<polyline class="st4" points="70.8,-1.2 70.8,7.2 70.8,15.5 70.8,23.8 70.8,32.2 70.8,40.5 70.8,48.8 70.8,57.1 70.8,65.5 
						70.8,73.8 70.8,82.1 70.8,90.5 70.8,98.8 70.8,107.1 70.8,115.4 70.8,123.8 70.8,132.1 70.8,140.4 70.8,148.7 70.8,157.1 
						70.8,165.4 70.8,173.7 70.8,182.1 70.8,190.4 70.8,198.7 					"/>
					<polyline class="st4" points="80.3,-1.2 80.3,7.2 80.3,15.5 80.3,23.8 80.3,32.2 80.3,40.5 80.3,48.8 80.3,57.1 80.3,65.5 
						80.3,73.8 80.3,82.1 80.3,90.5 80.3,98.8 80.3,107.1 80.3,115.4 80.3,123.8 80.3,132.1 80.3,140.4 80.3,148.7 80.3,157.1 
						80.3,165.4 80.3,173.7 80.3,182.1 80.3,190.4 80.3,198.7 					"/>
					<polyline class="st4" points="89.7,-1.2 89.7,7.2 89.7,15.5 89.7,23.8 89.7,32.2 89.7,40.5 89.7,48.8 89.7,57.1 89.7,65.5 
						89.7,73.8 89.7,82.1 89.7,90.5 89.7,98.8 89.7,107.1 89.7,115.4 89.7,123.8 89.7,132.1 89.7,140.4 89.7,148.7 89.7,157.1 
						89.7,165.4 89.7,173.7 89.7,182.1 89.7,190.4 89.7,198.7 					"/>
					<polyline class="st4" points="99.2,-1.2 99.2,7.2 99.2,15.5 99.2,23.8 99.2,32.2 99.2,40.5 99.2,48.8 99.2,57.1 99.2,65.5 
						99.2,73.8 99.2,82.1 99.2,90.5 99.2,98.8 99.2,107.1 99.2,115.4 99.2,123.8 99.2,132.1 99.2,140.4 99.2,148.7 99.2,157.1 
						99.2,165.4 99.2,173.7 99.2,182.1 99.2,190.4 99.2,198.7 					"/>
					<polyline class="st4" points="108.7,-1.2 108.7,7.2 108.7,15.5 108.7,23.8 108.7,32.2 108.7,40.5 108.7,48.8 108.7,57.1 
						108.7,65.5 108.7,73.8 108.7,82.1 108.7,90.5 108.7,98.8 108.7,107.1 108.7,115.4 108.7,123.8 108.7,132.1 108.7,140.4 
						108.7,148.7 108.7,157.1 108.7,165.4 108.7,173.7 108.7,182.1 108.7,190.4 108.7,198.7 					"/>
					<polyline class="st4" points="118.2,-1.2 118.2,7.2 118.2,15.5 118.2,23.8 118.2,32.2 118.2,40.5 118.2,48.8 118.2,57.1 
						118.2,65.5 118.2,73.8 118.2,82.1 118.2,90.5 118.2,98.8 118.2,107.1 118.2,115.4 118.2,123.8 118.2,132.1 118.2,140.4 
						118.2,148.7 118.2,157.1 118.2,165.4 118.2,173.7 118.2,182.1 118.2,190.4 118.2,198.7 					"/>
					<polyline class="st4" points="127.6,-1.2 127.6,7.2 127.6,15.5 127.6,23.8 127.6,32.2 127.6,40.5 127.6,48.8 127.6,57.1 
						127.6,65.5 127.6,73.8 127.6,82.1 127.6,90.5 127.6,98.8 127.6,107.1 127.6,115.4 127.6,123.8 127.6,132.1 127.6,140.4 
						127.6,148.7 127.6,157.1 127.6,165.4 127.6,173.7 127.6,182.1 127.6,190.4 127.6,198.7 					"/>
					<polyline class="st4" points="137.1,-1.2 137.1,7.2 137.1,15.5 137.1,23.8 137.1,32.2 137.1,40.5 137.1,48.8 137.1,57.1 
						137.1,65.5 137.1,73.8 137.1,82.1 137.1,90.5 137.1,98.8 137.1,107.1 137.1,115.4 137.1,123.8 137.1,132.1 137.1,140.4 
						137.1,148.7 137.1,157.1 137.1,165.4 137.1,173.7 137.1,182.1 137.1,190.4 137.1,198.7 					"/>
					<polyline class="st4" points="146.6,-1.2 146.6,7.2 146.6,15.5 146.6,23.8 146.6,32.2 146.6,40.5 146.6,48.8 146.6,57.1 
						146.6,65.5 146.6,73.8 146.6,82.1 146.6,90.5 146.6,98.8 146.6,107.1 146.6,115.4 146.6,123.8 146.6,132.1 146.6,140.4 
						146.6,148.7 146.6,157.1 146.6,165.4 146.6,173.7 146.6,182.1 146.6,190.4 146.6,198.7 					"/>
					<polyline class="st4" points="156,-1.2 156,7.2 156,15.5 156,23.8 156,32.2 156,40.5 156,48.8 156,57.1 156,65.5 156,73.8 
						156,82.1 156,90.5 156,98.8 156,107.1 156,115.4 156,123.8 156,132.1 156,140.4 156,148.7 156,157.1 156,165.4 156,173.7 
						156,182.1 156,190.4 156,198.7 					"/>
					<polyline class="st4" points="165.5,-1.2 165.5,7.2 165.5,15.5 165.5,23.8 165.5,32.2 165.5,40.5 165.5,48.8 165.5,57.1 
						165.5,65.5 165.5,73.8 165.5,82.1 165.5,90.5 165.5,98.8 165.5,107.1 165.5,115.4 165.5,123.8 165.5,132.1 165.5,140.4 
						165.5,148.7 165.5,157.1 165.5,165.4 165.5,173.7 165.5,182.1 165.5,190.4 165.5,198.7 					"/>
					<polyline class="st4" points="175,-1.2 175,7.2 175,15.5 175,23.8 175,32.2 175,40.5 175,48.8 175,57.1 175,65.5 175,73.8 
						175,82.1 175,90.5 175,98.8 175,107.1 175,115.4 175,123.8 175,132.1 175,140.4 175,148.7 175,157.1 175,165.4 175,173.7 
						175,182.1 175,190.4 175,198.7 					"/>
					<polyline class="st4" points="184.4,-1.2 184.4,7.2 184.4,15.5 184.4,23.8 184.4,32.2 184.4,40.5 184.4,48.8 184.4,57.1 
						184.4,65.5 184.4,73.8 184.4,82.1 184.4,90.5 184.4,98.8 184.4,107.1 184.4,115.4 184.4,123.8 184.4,132.1 184.4,140.4 
						184.4,148.7 184.4,157.1 184.4,165.4 184.4,173.7 184.4,182.1 184.4,190.4 184.4,198.7 					"/>
					<polyline class="st4" points="193.9,-1.2 193.9,7.2 193.9,15.5 193.9,23.8 193.9,32.2 193.9,40.5 193.9,48.8 193.9,57.1 
						193.9,65.5 193.9,73.8 193.9,82.1 193.9,90.5 193.9,98.8 193.9,107.1 193.9,115.4 193.9,123.8 193.9,132.1 193.9,140.4 
						193.9,148.7 193.9,157.1 193.9,165.4 193.9,173.7 193.9,182.1 193.9,190.4 193.9,198.7 					"/>
					<polyline class="st4" points="203.4,-1.2 203.4,7.2 203.4,15.5 203.4,23.8 203.4,32.2 203.4,40.5 203.4,48.8 203.4,57.1 
						203.4,65.5 203.4,73.8 203.4,82.1 203.4,90.5 203.4,98.8 203.4,107.1 203.4,115.4 203.4,123.8 203.4,132.1 203.4,140.4 
						203.4,148.7 203.4,157.1 203.4,165.4 203.4,173.7 203.4,182.1 203.4,190.4 203.4,198.7 					"/>
					<polyline class="st4" points="212.8,-1.2 212.8,7.2 212.8,15.5 212.8,23.8 212.8,32.2 212.8,40.5 212.8,48.8 212.8,57.1 
						212.8,65.5 212.8,73.8 212.8,82.1 212.8,90.5 212.8,98.8 212.8,107.1 212.8,115.4 212.8,123.8 212.8,132.1 212.8,140.4 
						212.8,148.7 212.8,157.1 212.8,165.4 212.8,173.7 212.8,182.1 212.8,190.4 212.8,198.7 					"/>
				</g>
				<g>
					<polyline class="st4" points="-14.4,198.7 -4.9,198.7 4.5,198.7 14,198.7 23.5,198.7 32.9,198.7 42.4,198.7 51.9,198.7 
						61.3,198.7 70.8,198.7 80.3,198.7 89.7,198.7 99.2,198.7 108.7,198.7 118.2,198.7 127.6,198.7 137.1,198.7 146.6,198.7 
						156,198.7 165.5,198.7 175,198.7 184.4,198.7 193.9,198.7 203.4,198.7 212.8,198.7 					"/>
					<polyline class="st4" points="-14.4,190.4 -4.9,190.4 4.5,190.4 14,190.4 23.5,190.4 32.9,190.4 42.4,190.4 51.9,190.4 
						61.3,190.4 70.8,190.4 80.3,190.4 89.7,190.4 99.2,190.4 108.7,190.4 118.2,190.4 127.6,190.4 137.1,190.4 146.6,190.4 
						156,190.4 165.5,190.4 175,190.4 184.4,190.4 193.9,190.4 203.4,190.4 212.8,190.4 					"/>
					<polyline class="st4" points="-14.4,182.1 -4.9,182.1 4.5,182.1 14,182.1 23.5,182.1 32.9,182.1 42.4,182.1 51.9,182.1 
						61.3,182.1 70.8,182.1 80.3,182.1 89.7,182.1 99.2,182.1 108.7,182.1 118.2,182.1 127.6,182.1 137.1,182.1 146.6,182.1 
						156,182.1 165.5,182.1 175,182.1 184.4,182.1 193.9,182.1 203.4,182.1 212.8,182.1 					"/>
					<polyline class="st4" points="-14.4,173.7 -4.9,173.7 4.5,173.7 14,173.7 23.5,173.7 32.9,173.7 42.4,173.7 51.9,173.7 
						61.3,173.7 70.8,173.7 80.3,173.7 89.7,173.7 99.2,173.7 108.7,173.7 118.2,173.7 127.6,173.7 137.1,173.7 146.6,173.7 
						156,173.7 165.5,173.7 175,173.7 184.4,173.7 193.9,173.7 203.4,173.7 212.8,173.7 					"/>
					<polyline class="st4" points="-14.4,165.4 -4.9,165.4 4.5,165.4 14,165.4 23.5,165.4 32.9,165.4 42.4,165.4 51.9,165.4 
						61.3,165.4 70.8,165.4 80.3,165.4 89.7,165.4 99.2,165.4 108.7,165.4 118.2,165.4 127.6,165.4 137.1,165.4 146.6,165.4 
						156,165.4 165.5,165.4 175,165.4 184.4,165.4 193.9,165.4 203.4,165.4 212.8,165.4 					"/>
					<polyline class="st4" points="-14.4,157.1 -4.9,157.1 4.5,157.1 14,157.1 23.5,157.1 32.9,157.1 42.4,157.1 51.9,157.1 
						61.3,157.1 70.8,157.1 80.3,157.1 89.7,157.1 99.2,157.1 108.7,157.1 118.2,157.1 127.6,157.1 137.1,157.1 146.6,157.1 
						156,157.1 165.5,157.1 175,157.1 184.4,157.1 193.9,157.1 203.4,157.1 212.8,157.1 					"/>
					<polyline class="st4" points="-14.4,148.7 -4.9,148.7 4.5,148.7 14,148.7 23.5,148.7 32.9,148.7 42.4,148.7 51.9,148.7 
						61.3,148.7 70.8,148.7 80.3,148.7 89.7,148.7 99.2,148.7 108.7,148.7 118.2,148.7 127.6,148.7 137.1,148.7 146.6,148.7 
						156,148.7 165.5,148.7 175,148.7 184.4,148.7 193.9,148.7 203.4,148.7 212.8,148.7 					"/>
					<polyline class="st4" points="-14.4,140.4 -4.9,140.4 4.5,140.4 14,140.4 23.5,140.4 32.9,140.4 42.4,140.4 51.9,140.4 
						61.3,140.4 70.8,140.4 80.3,140.4 89.7,140.4 99.2,140.4 108.7,140.4 118.2,140.4 127.6,140.4 137.1,140.4 146.6,140.4 
						156,140.4 165.5,140.4 175,140.4 184.4,140.4 193.9,140.4 203.4,140.4 212.8,140.4 					"/>
					<polyline class="st4" points="-14.4,132.1 -4.9,132.1 4.5,132.1 14,132.1 23.5,132.1 32.9,132.1 42.4,132.1 51.9,132.1 
						61.3,132.1 70.8,132.1 80.3,132.1 89.7,132.1 99.2,132.1 108.7,132.1 118.2,132.1 127.6,132.1 137.1,132.1 146.6,132.1 
						156,132.1 165.5,132.1 175,132.1 184.4,132.1 193.9,132.1 203.4,132.1 212.8,132.1 					"/>
					<polyline class="st4" points="-14.4,123.8 -4.9,123.8 4.5,123.8 14,123.8 23.5,123.8 32.9,123.8 42.4,123.8 51.9,123.8 
						61.3,123.8 70.8,123.8 80.3,123.8 89.7,123.8 99.2,123.8 108.7,123.8 118.2,123.8 127.6,123.8 137.1,123.8 146.6,123.8 
						156,123.8 165.5,123.8 175,123.8 184.4,123.8 193.9,123.8 203.4,123.8 212.8,123.8 					"/>
					<polyline class="st4" points="-14.4,115.4 -4.9,115.4 4.5,115.4 14,115.4 23.5,115.4 32.9,115.4 42.4,115.4 51.9,115.4 
						61.3,115.4 70.8,115.4 80.3,115.4 89.7,115.4 99.2,115.4 108.7,115.4 118.2,115.4 127.6,115.4 137.1,115.4 146.6,115.4 
						156,115.4 165.5,115.4 175,115.4 184.4,115.4 193.9,115.4 203.4,115.4 212.8,115.4 					"/>
					<polyline class="st4" points="-14.4,107.1 -4.9,107.1 4.5,107.1 14,107.1 23.5,107.1 32.9,107.1 42.4,107.1 51.9,107.1 
						61.3,107.1 70.8,107.1 80.3,107.1 89.7,107.1 99.2,107.1 108.7,107.1 118.2,107.1 127.6,107.1 137.1,107.1 146.6,107.1 
						156,107.1 165.5,107.1 175,107.1 184.4,107.1 193.9,107.1 203.4,107.1 212.8,107.1 					"/>
					<polyline class="st4" points="-14.4,98.8 -4.9,98.8 4.5,98.8 14,98.8 23.5,98.8 32.9,98.8 42.4,98.8 51.9,98.8 61.3,98.8 
						70.8,98.8 80.3,98.8 89.7,98.8 99.2,98.8 108.7,98.8 118.2,98.8 127.6,98.8 137.1,98.8 146.6,98.8 156,98.8 165.5,98.8 
						175,98.8 184.4,98.8 193.9,98.8 203.4,98.8 212.8,98.8 					"/>
					<polyline class="st4" points="-14.4,90.5 -4.9,90.5 4.5,90.5 14,90.5 23.5,90.5 32.9,90.5 42.4,90.5 51.9,90.5 61.3,90.5 
						70.8,90.5 80.3,90.5 89.7,90.5 99.2,90.5 108.7,90.5 118.2,90.5 127.6,90.5 137.1,90.5 146.6,90.5 156,90.5 165.5,90.5 
						175,90.5 184.4,90.5 193.9,90.5 203.4,90.5 212.8,90.5 					"/>
					<polyline class="st4" points="-14.4,82.1 -4.9,82.1 4.5,82.1 14,82.1 23.5,82.1 32.9,82.1 42.4,82.1 51.9,82.1 61.3,82.1 
						70.8,82.1 80.3,82.1 89.7,82.1 99.2,82.1 108.7,82.1 118.2,82.1 127.6,82.1 137.1,82.1 146.6,82.1 156,82.1 165.5,82.1 
						175,82.1 184.4,82.1 193.9,82.1 203.4,82.1 212.8,82.1 					"/>
					<polyline class="st4" points="-14.4,73.8 -4.9,73.8 4.5,73.8 14,73.8 23.5,73.8 32.9,73.8 42.4,73.8 51.9,73.8 61.3,73.8 
						70.8,73.8 80.3,73.8 89.7,73.8 99.2,73.8 108.7,73.8 118.2,73.8 127.6,73.8 137.1,73.8 146.6,73.8 156,73.8 165.5,73.8 
						175,73.8 184.4,73.8 193.9,73.8 203.4,73.8 212.8,73.8 					"/>
					<polyline class="st4" points="-14.4,65.5 -4.9,65.5 4.5,65.5 14,65.5 23.5,65.5 32.9,65.5 42.4,65.5 51.9,65.5 61.3,65.5 
						70.8,65.5 80.3,65.5 89.7,65.5 99.2,65.5 108.7,65.5 118.2,65.5 127.6,65.5 137.1,65.5 146.6,65.5 156,65.5 165.5,65.5 
						175,65.5 184.4,65.5 193.9,65.5 203.4,65.5 212.8,65.5 					"/>
					<polyline class="st4" points="-14.4,57.1 -4.9,57.1 4.5,57.1 14,57.1 23.5,57.1 32.9,57.1 42.4,57.1 51.9,57.1 61.3,57.1 
						70.8,57.1 80.3,57.1 89.7,57.1 99.2,57.1 108.7,57.1 118.2,57.1 127.6,57.1 137.1,57.1 146.6,57.1 156,57.1 165.5,57.1 
						175,57.1 184.4,57.1 193.9,57.1 203.4,57.1 212.8,57.1 					"/>
					<polyline class="st4" points="-14.4,48.8 -4.9,48.8 4.5,48.8 14,48.8 23.5,48.8 32.9,48.8 42.4,48.8 51.9,48.8 61.3,48.8 
						70.8,48.8 80.3,48.8 89.7,48.8 99.2,48.8 108.7,48.8 118.2,48.8 127.6,48.8 137.1,48.8 146.6,48.8 156,48.8 165.5,48.8 
						175,48.8 184.4,48.8 193.9,48.8 203.4,48.8 212.8,48.8 					"/>
					<polyline class="st4" points="-14.4,40.5 -4.9,40.5 4.5,40.5 14,40.5 23.5,40.5 32.9,40.5 42.4,40.5 51.9,40.5 61.3,40.5 
						70.8,40.5 80.3,40.5 89.7,40.5 99.2,40.5 108.7,40.5 118.2,40.5 127.6,40.5 137.1,40.5 146.6,40.5 156,40.5 165.5,40.5 
						175,40.5 184.4,40.5 193.9,40.5 203.4,40.5 212.8,40.5 					"/>
					<polyline class="st4" points="-14.4,32.2 -4.9,32.2 4.5,32.2 14,32.2 23.5,32.2 32.9,32.2 42.4,32.2 51.9,32.2 61.3,32.2 
						70.8,32.2 80.3,32.2 89.7,32.2 99.2,32.2 108.7,32.2 118.2,32.2 127.6,32.2 137.1,32.2 146.6,32.2 156,32.2 165.5,32.2 
						175,32.2 184.4,32.2 193.9,32.2 203.4,32.2 212.8,32.2 					"/>
					<polyline class="st4" points="-14.4,23.8 -4.9,23.8 4.5,23.8 14,23.8 23.5,23.8 32.9,23.8 42.4,23.8 51.9,23.8 61.3,23.8 
						70.8,23.8 80.3,23.8 89.7,23.8 99.2,23.8 108.7,23.8 118.2,23.8 127.6,23.8 137.1,23.8 146.6,23.8 156,23.8 165.5,23.8 
						175,23.8 184.4,23.8 193.9,23.8 203.4,23.8 212.8,23.8 					"/>
					<polyline class="st4" points="-14.4,15.5 -4.9,15.5 4.5,15.5 14,15.5 23.5,15.5 32.9,15.5 42.4,15.5 51.9,15.5 61.3,15.5 
						70.8,15.5 80.3,15.5 89.7,15.5 99.2,15.5 108.7,15.5 118.2,15.5 127.6,15.5 137.1,15.5 146.6,15.5 156,15.5 165.5,15.5 
						175,15.5 184.4,15.5 193.9,15.5 203.4,15.5 212.8,15.5 					"/>
					<polyline class="st4" points="-14.4,7.2 -4.9,7.2 4.5,7.2 14,7.2 23.5,7.2 32.9,7.2 42.4,7.2 51.9,7.2 61.3,7.2 70.8,7.2 
						80.3,7.2 89.7,7.2 99.2,7.2 108.7,7.2 118.2,7.2 127.6,7.2 137.1,7.2 146.6,7.2 156,7.2 165.5,7.2 175,7.2 184.4,7.2 
						193.9,7.2 203.4,7.2 212.8,7.2 					"/>
					<polyline class="st4" points="-14.4,-1.2 -4.9,-1.2 4.5,-1.2 14,-1.2 23.5,-1.2 32.9,-1.2 42.4,-1.2 51.9,-1.2 61.3,-1.2 
						70.8,-1.2 80.3,-1.2 89.7,-1.2 99.2,-1.2 108.7,-1.2 118.2,-1.2 127.6,-1.2 137.1,-1.2 146.6,-1.2 156,-1.2 165.5,-1.2 
						175,-1.2 184.4,-1.2 193.9,-1.2 203.4,-1.2 212.8,-1.2 					"/>
				</g>
			</g>
		</g>
		<circle class="st5" cx="99.2" cy="99.2" r="97.8"/>
		<g>
			<defs>
				<circle id="SVGID_3_" cx="99.2" cy="99.2" r="97.8"/>
			</defs>
			<clipPath id="SVGID_4_">
				<use xlink:href="#SVGID_3_"  style="overflow:visible;"/>
			</clipPath>
			<g class="st6">
				<g>
					<g>
						<g>
							<g>
								<path class="st7" d="M246.2,117.1c-0.3,0.5-0.8,1-1.3,1.4c-2.6,2.2-6.6,1.8-8.8-0.8c-7.4-9-19.4-14.7-33-15.7
									c-11.4-0.9-23.7,1.3-37.6,6.8c-0.1,0-0.1,0-0.2,0.1c-1.4,0.4-3.4-1.4-4.7-4.3c-0.1-0.1-0.1-0.3-0.2-0.5
									c-1.3-3.2-1.1-6.2,0.3-6.8c0,0,0.1,0,0.1,0c15.7-6.1,29.8-8.6,43.1-7.6c16.9,1.3,32.1,8.6,41.6,20.2
									C247.5,111.9,247.6,114.9,246.2,117.1z"/>
							</g>
						</g>
						<path class="st8" d="M160.6,104.1c-1.3-3.2-1.1-6.2,0.3-6.8c0,0,0,0,0,0c0,0,0,0,0.1,0c1.5-0.5,3.7,1.6,4.9,4.8
							c1.3,3.1,1.1,6.2-0.3,6.8c0,0,0,0-0.1,0c0,0-0.1,0-0.1,0C164,109.3,161.8,107.2,160.6,104.1z"/>
						<path class="st9" d="M161.6,103.6c-0.5-1.3-0.5-2.5,0-2.7c0,0,0,0,0,0c0,0,0,0,0,0c0.5-0.2,1.4,0.7,1.9,2
							c0.5,1.3,0.5,2.5,0,2.7c0,0,0,0,0,0c0,0,0,0,0,0C162.9,105.8,162.1,104.9,161.6,103.6z"/>
					</g>
					<path class="st10" d="M246.2,117.1c-0.3,0.5-0.8,1-1.3,1.4c-2.6,2.2-6.6,1.8-8.8-0.8c-7.4-9-19.4-14.7-33-15.7
						c-11.4-0.9-23.7,1.3-37.6,6.8c-0.1,0-0.1,0-0.2,0.1c-1.4,0.4-3.4-1.4-4.7-4.3c0.1-0.1,0.3-0.1,0.4-0.2
						c7.5-4.2,15.8-6.9,24.3-8.2c4.8-0.7,9.7-0.9,14.5-0.6c15.7,1,31,7.4,42.7,17.9C243.9,114.6,245.1,115.8,246.2,117.1z"/>
				</g>
				<g>
					<g>
						<g>
							<path class="st11" d="M-27.8,177.4c0-0.6,0.2-1.2,0.4-1.9c1.2-3.2,4.8-4.8,8.1-3.6c10.8,4.2,24.1,3.3,36.5-2.5
								c10.4-4.8,20-12.8,29.5-24.3c0,0,0.1-0.1,0.1-0.1c1-1.1,3.7-0.4,6.2,1.5c0.1,0.1,0.3,0.2,0.4,0.3c2.7,2.1,4,4.9,3.1,6.1
								c0,0,0,0.1-0.1,0.1c-10.7,13-21.8,22.1-33.9,27.8C7.1,188-9.8,189-23.8,183.6C-26.4,182.6-27.9,180.1-27.8,177.4z"/>
						</g>
						<path class="st12" d="M53.3,146.8c2.7,2.1,4,4.9,3.1,6.1c0,0,0,0,0,0c0,0,0,0,0,0c-1,1.2-4,0.4-6.6-1.7
							c-2.6-2.1-4-4.8-3.1-6.1c0,0,0,0,0-0.1c0,0,0,0,0.1-0.1C47.8,144,50.7,144.7,53.3,146.8z"/>
						<path class="st13" d="M52.6,147.7c1.1,0.9,1.7,1.9,1.4,2.4c0,0,0,0,0,0c0,0,0,0,0,0c-0.4,0.4-1.5,0.1-2.6-0.8
							c-1.1-0.9-1.7-1.9-1.4-2.4c0,0,0,0,0,0c0,0,0,0,0,0C50.4,146.5,51.6,146.9,52.6,147.7z"/>
					</g>
					<path class="st14" d="M-27.8,177.4c0-0.6,0.2-1.2,0.4-1.9c1.2-3.2,4.8-4.8,8.1-3.6c10.8,4.2,24.1,3.3,36.5-2.5
						c10.4-4.8,20-12.8,29.5-24.3c0,0,0.1-0.1,0.1-0.1c1-1.1,3.7-0.4,6.2,1.5c-0.1,0.1-0.2,0.3-0.2,0.4c-4.5,7.3-10.4,13.8-17.2,19
						c-3.8,3-8,5.5-12.4,7.6c-14.2,6.8-30.7,8.7-46.1,5.3C-24.5,178.5-26.2,178-27.8,177.4z"/>
				</g>
				<g>
					<g>
						<path class="st15" d="M28.3,70.3c0,0-0.1,0-0.1,0C11,66.8-2.7,61-13.8,52.5c-14-10.7-23.1-25.6-24.8-41.1
							c-0.4-3.5,2.2-6.8,5.7-7.2c0.6-0.1,1.2-0.1,1.7,0C-28.3,4.8-26,7-25.7,10c1.4,12,8.6,23.7,19.8,32.3
							c9.5,7.2,21.5,12.2,36.6,15.4c0.1,0,0.1,0,0.2,0c1.5,0.4,2.2,3.1,1.7,6.3c0,0.2-0.1,0.4-0.1,0.6C31.8,68,29.9,70.6,28.3,70.3z
							"/>
					</g>
					<path class="st16" d="M28.3,70.3c0,0-0.1,0-0.1,0C11,66.8-2.7,61-13.8,52.5c-14-10.7-23.1-25.6-24.8-41.1
						c-0.4-3.5,2.2-6.8,5.7-7.2c0.6-0.1,1.2-0.1,1.7,0c0,2.3,0.3,4.6,0.8,6.9c1.1,5.8,3.2,11.3,6.1,16.4c3.3,5.8,7.6,11.1,12.6,15.6
						C0.4,54.1,16,60.4,31.9,63.8c0.2,0,0.5,0.1,0.7,0.1c0,0.2-0.1,0.4-0.1,0.6C31.8,68,29.9,70.6,28.3,70.3z"/>
					<path class="st17" d="M32.5,64.5c-0.7,3.5-2.6,6-4.2,5.8c0,0,0,0,0,0c0,0,0,0-0.1,0c-1.6-0.4-2.3-3.5-1.6-6.9
						c0.7-3.4,2.5-6,4.1-5.8c0,0,0.1,0,0.1,0c0,0,0.1,0,0.1,0C32.5,58.1,33.2,61.1,32.5,64.5z"/>
					<path class="st16" d="M31.3,64.3c-0.3,1.4-1,2.5-1.6,2.4c0,0,0,0,0,0c0,0,0,0,0,0c-0.6-0.1-0.8-1.4-0.5-2.8
						c0.3-1.4,1-2.5,1.5-2.4c0,0,0,0,0,0c0,0,0,0,0,0C31.4,61.7,31.6,62.9,31.3,64.3z"/>
				</g>
			</g>
		</g>
		<g>
			<circle class="st3" cx="42.6" cy="115.4" r="3.3"/>
			<circle class="st3" cx="146.6" cy="98.8" r="3.4"/>
			<path class="st3" d="M74,23.8c-1.9,0.7-2.5,1.3-3.2,3.2c-0.7-1.9-1.3-2.5-3.2-3.2c1.9-0.7,2.5-1.3,3.2-3.2
				C71.5,22.5,72.1,23.1,74,23.8z"/>
		</g>
		<g>
			<g>
				<path class="st11" d="M31.7,104.7c0,2.9-2.4,5.3-5.3,5.3c-1.2,0-2.2-0.4-3.1-1c-1.3-1-2.2-2.5-2.2-4.3c0-2.9,2.4-5.3,5.3-5.3
					c0.2,0,0.4,0,0.6,0C29.6,99.7,31.7,101.9,31.7,104.7z"/>
				<path class="st14" d="M31.7,104.7c0,2.9-2.4,5.3-5.3,5.3c-1.2,0-2.2-0.4-3.1-1c1.5,0.1,3.1-0.4,4.3-1.4c1.7-1.5,2.3-4.1,1.4-6.1
					c-0.4-0.9-1.1-1.6-1.9-2.2C29.6,99.7,31.7,101.9,31.7,104.7z"/>
				<g>
					<path class="st18" d="M21.7,103.8c0.1-0.6,0.5-1.1,0.9-1.1s0.7,0.6,0.6,1.2c-0.1,0.6-0.5,1.1-0.9,1.1
						C21.9,104.9,21.6,104.4,21.7,103.8z"/>
					<path class="st18" d="M22.9,101.6c0.2-0.3,0.6-0.5,0.8-0.4c0.2,0.1,0.3,0.5,0.1,0.8c-0.2,0.3-0.6,0.5-0.8,0.4
						C22.7,102.3,22.7,101.9,22.9,101.6z"/>
				</g>
			</g>
			<g>
				<path class="st15" d="M153.6,123c-2.2,2-5.5,1.9-7.6-0.3c-0.8-0.8-1.2-1.9-1.4-3c-0.2-1.7,0.3-3.4,1.7-4.6
					c2.2-2,5.5-1.9,7.6,0.3c0.1,0.2,0.3,0.3,0.4,0.5C155.9,118.1,155.6,121.1,153.6,123z"/>
				<path class="st16" d="M153.6,123c-2.2,2-5.5,1.9-7.6-0.3c-0.8-0.8-1.2-1.9-1.4-3c1,1.2,2.4,2.1,3.9,2.2c2.2,0.2,4.5-1.1,5.4-3.1
					c0.4-0.9,0.5-1.9,0.3-2.9C155.9,118.1,155.6,121.1,153.6,123z"/>
				<g>
					<path class="st19" d="M147.5,115.1c0.5-0.4,1.2-0.4,1.4,0c0.3,0.3,0.1,0.9-0.4,1.3c-0.5,0.4-1.2,0.4-1.4,0
						C146.8,116,147,115.4,147.5,115.1z"/>
					<path class="st19" d="M149.9,114.5c0.4-0.1,0.8,0.1,0.9,0.3c0.1,0.3-0.2,0.5-0.6,0.6c-0.4,0.1-0.8-0.1-0.9-0.3
						C149.2,114.8,149.5,114.5,149.9,114.5z"/>
				</g>
			</g>
			<g>
				<path class="st7" d="M105.1,33c-2.2,2-5.5,1.9-7.5-0.3c-0.8-0.8-1.2-1.9-1.4-2.9c-0.2-1.6,0.3-3.4,1.7-4.6
					c2.2-2,5.5-1.9,7.5,0.3c0.1,0.2,0.3,0.3,0.4,0.5C107.3,28.2,107.1,31.2,105.1,33z"/>
				<path class="st10" d="M105.1,33c-2.2,2-5.5,1.9-7.5-0.3c-0.8-0.8-1.2-1.9-1.4-2.9c1,1.2,2.4,2,3.9,2.2c2.2,0.2,4.5-1.1,5.4-3.1
					c0.4-0.9,0.5-1.9,0.3-2.9C107.3,28.2,107.1,31.2,105.1,33z"/>
				<g>
					<path class="st18" d="M99,25.1c0.5-0.4,1.2-0.4,1.4,0c0.3,0.3,0.1,0.9-0.4,1.2c-0.5,0.4-1.2,0.4-1.4,0
						C98.3,26.1,98.5,25.5,99,25.1z"/>
					<path class="st18" d="M101.4,24.5c0.4-0.1,0.8,0.1,0.9,0.3c0.1,0.3-0.2,0.5-0.6,0.6c-0.4,0.1-0.8-0.1-0.9-0.3
						C100.7,24.9,101,24.6,101.4,24.5z"/>
				</g>
			</g>
		</g>
		<g>
			<defs>
				<circle id="SVGID_5_" cx="99.2" cy="99.2" r="97.8"/>
			</defs>
			<clipPath id="SVGID_6_">
				<use xlink:href="#SVGID_5_"  style="overflow:visible;"/>
			</clipPath>
			<g class="st20">
				<g>
					<g>
						<rect x="-0.5" y="138" class="st21" width="212" height="50.8"/>
						<g>
							<path class="st22" d="M209.6,147h-6.2c-0.5,0-0.9-0.4-0.9-0.9v-6c0-0.5,0.4-0.9,0.9-0.9h6.2c0.5,0,0.9,0.4,0.9,0.9v6
								C210.5,146.6,210.1,147,209.6,147z"/>
							<path class="st3" d="M200.4,147h-6.2c-0.5,0-0.9-0.4-0.9-0.9v-6c0-0.5,0.4-0.9,0.9-0.9h6.2c0.5,0,0.9,0.4,0.9,0.9v6
								C201.3,146.6,200.9,147,200.4,147z"/>
							<path class="st22" d="M191.2,147H185c-0.5,0-0.9-0.4-0.9-0.9v-6c0-0.5,0.4-0.9,0.9-0.9h6.2c0.5,0,0.9,0.4,0.9,0.9v6
								C192.1,146.6,191.7,147,191.2,147z"/>
							<path class="st22" d="M182,147h-6.2c-0.5,0-0.9-0.4-0.9-0.9v-6c0-0.5,0.4-0.9,0.9-0.9h6.2c0.5,0,0.9,0.4,0.9,0.9v6
								C182.9,146.6,182.5,147,182,147z"/>
							<path class="st3" d="M172.8,147h-6.2c-0.5,0-0.9-0.4-0.9-0.9v-6c0-0.5,0.4-0.9,0.9-0.9h6.2c0.5,0,0.9,0.4,0.9,0.9v6
								C173.7,146.6,173.3,147,172.8,147z"/>
							<path class="st22" d="M163.7,147h-6.2c-0.5,0-0.9-0.4-0.9-0.9v-6c0-0.5,0.4-0.9,0.9-0.9h6.2c0.5,0,0.9,0.4,0.9,0.9v6
								C164.6,146.6,164.2,147,163.7,147z"/>
							<path class="st22" d="M154.5,147h-6.2c-0.5,0-0.9-0.4-0.9-0.9v-6c0-0.5,0.4-0.9,0.9-0.9h6.2c0.5,0,0.9,0.4,0.9,0.9v6
								C155.4,146.6,155,147,154.5,147z"/>
							<path class="st22" d="M145.3,147h-6.2c-0.5,0-0.9-0.4-0.9-0.9v-6c0-0.5,0.4-0.9,0.9-0.9h6.2c0.5,0,0.9,0.4,0.9,0.9v6
								C146.2,146.6,145.8,147,145.3,147z"/>
							<path class="st22" d="M136.1,147H130c-0.5,0-0.9-0.4-0.9-0.9v-6c0-0.5,0.4-0.9,0.9-0.9h6.2c0.5,0,0.9,0.4,0.9,0.9v6
								C137,146.6,136.6,147,136.1,147z"/>
							<path class="st3" d="M126.9,147h-6.2c-0.5,0-0.9-0.4-0.9-0.9v-6c0-0.5,0.4-0.9,0.9-0.9h6.2c0.5,0,0.9,0.4,0.9,0.9v6
								C127.8,146.6,127.4,147,126.9,147z"/>
							<path class="st22" d="M117.8,147h-6.2c-0.5,0-0.9-0.4-0.9-0.9v-6c0-0.5,0.4-0.9,0.9-0.9h6.2c0.5,0,0.9,0.4,0.9,0.9v6
								C118.7,146.6,118.3,147,117.8,147z"/>
							<path class="st3" d="M108.6,147h-6.2c-0.5,0-0.9-0.4-0.9-0.9v-6c0-0.5,0.4-0.9,0.9-0.9h6.2c0.5,0,0.9,0.4,0.9,0.9v6
								C109.5,146.6,109.1,147,108.6,147z"/>
							<path class="st22" d="M99.4,147h-6.2c-0.5,0-0.9-0.4-0.9-0.9v-6c0-0.5,0.4-0.9,0.9-0.9h6.2c0.5,0,0.9,0.4,0.9,0.9v6
								C100.3,146.6,99.9,147,99.4,147z"/>
							<path class="st3" d="M90.2,147h-6.2c-0.5,0-0.9-0.4-0.9-0.9v-6c0-0.5,0.4-0.9,0.9-0.9h6.2c0.5,0,0.9,0.4,0.9,0.9v6
								C91.1,146.6,90.7,147,90.2,147z"/>
							<path class="st22" d="M81,147h-6.2c-0.5,0-0.9-0.4-0.9-0.9v-6c0-0.5,0.4-0.9,0.9-0.9H81c0.5,0,0.9,0.4,0.9,0.9v6
								C82,146.6,81.5,147,81,147z"/>
							<path class="st22" d="M71.9,147h-6.2c-0.5,0-0.9-0.4-0.9-0.9v-6c0-0.5,0.4-0.9,0.9-0.9h6.2c0.5,0,0.9,0.4,0.9,0.9v6
								C72.8,146.6,72.4,147,71.9,147z"/>
							<path class="st22" d="M62.7,147h-6.2c-0.5,0-0.9-0.4-0.9-0.9v-6c0-0.5,0.4-0.9,0.9-0.9h6.2c0.5,0,0.9,0.4,0.9,0.9v6
								C63.6,146.6,63.2,147,62.7,147z"/>
							<path class="st22" d="M53.5,147h-6.2c-0.5,0-0.9-0.4-0.9-0.9v-6c0-0.5,0.4-0.9,0.9-0.9h6.2c0.5,0,0.9,0.4,0.9,0.9v6
								C54.4,146.6,54,147,53.5,147z"/>
							<path class="st22" d="M44.3,147h-6.2c-0.5,0-0.9-0.4-0.9-0.9v-6c0-0.5,0.4-0.9,0.9-0.9h6.2c0.5,0,0.9,0.4,0.9,0.9v6
								C45.2,146.6,44.8,147,44.3,147z"/>
							<path class="st3" d="M35.2,147H29c-0.5,0-0.9-0.4-0.9-0.9v-6c0-0.5,0.4-0.9,0.9-0.9h6.2c0.5,0,0.9,0.4,0.9,0.9v6
								C36.1,146.6,35.7,147,35.2,147z"/>
							<path class="st22" d="M26,147h-6.2c-0.5,0-0.9-0.4-0.9-0.9v-6c0-0.5,0.4-0.9,0.9-0.9H26c0.5,0,0.9,0.4,0.9,0.9v6
								C26.9,146.6,26.5,147,26,147z"/>
							<path class="st22" d="M16.8,147h-6.2c-0.5,0-0.9-0.4-0.9-0.9v-6c0-0.5,0.4-0.9,0.9-0.9h6.2c0.5,0,0.9,0.4,0.9,0.9v6
								C17.7,146.6,17.3,147,16.8,147z"/>
							<path class="st3" d="M7.6,147H1.5c-0.5,0-0.9-0.4-0.9-0.9v-6c0-0.5,0.4-0.9,0.9-0.9h6.2c0.5,0,0.9,0.4,0.9,0.9v6
								C8.5,146.6,8.1,147,7.6,147z"/>
						</g>
					</g>
					<rect x="-0.5" y="148.3" class="st23" width="212" height="48.8"/>
					<g class="st24">
						<defs>
							<rect id="SVGID_7_" x="-0.5" y="148.3" class="st24" width="212" height="48.8"/>
						</defs>
						<clipPath id="SVGID_8_">
							<use xlink:href="#SVGID_7_"  style="overflow:visible;"/>
						</clipPath>
						<g class="st25">
							<g>
								<line class="st26" x1="-0.5" y1="151.8" x2="211.5" y2="151.8"/>
								<line class="st26" x1="-0.5" y1="158.2" x2="211.5" y2="158.2"/>
								<line class="st26" x1="-0.5" y1="164.5" x2="211.5" y2="164.5"/>
								<line class="st26" x1="-0.5" y1="170.9" x2="211.5" y2="170.9"/>
								<line class="st26" x1="-0.5" y1="177.3" x2="211.5" y2="177.3"/>
								<line class="st26" x1="-0.5" y1="183.7" x2="211.5" y2="183.7"/>
								<line class="st26" x1="-0.5" y1="190.1" x2="211.5" y2="190.1"/>
								<line class="st26" x1="-0.5" y1="196.5" x2="211.5" y2="196.5"/>
							</g>
							<g>
								<path class="st27" d="M3.6,196.7c-0.1-16.1-0.1-32.4,0-48.4"/>
								<path class="st27" d="M10,196.7c0-16.1,0-32.4,0-48.4"/>
								<path class="st27" d="M16.4,196.7c-0.1-16.1-0.1-32.4,0-48.4"/>
								<path class="st27" d="M22.8,196.7c0-16.1,0-32.4,0-48.4"/>
								<path class="st27" d="M29.2,196.7c0.1-16.1,0.1-32.4,0-48.4"/>
								<path class="st27" d="M35.5,196.7c0-16.1,0-32.4,0-48.4"/>
								<path class="st27" d="M41.9,196.7c0.1-16.1,0.1-32.4,0-48.4"/>
								<path class="st27" d="M48.3,196.7c0-16.1,0-32.4,0-48.4"/>
								<path class="st27" d="M54.7,196.7c0.1-16.1,0.1-32.4,0-48.4"/>
								<path class="st27" d="M61.1,196.7c0-16.1,0-32.4,0-48.4"/>
								<path class="st27" d="M67.5,196.7c0.1-16.1,0.1-32.4,0-48.4"/>
								<path class="st27" d="M73.9,196.7c-0.1-16.1-0.1-32.4,0-48.4"/>
								<path class="st27" d="M80.3,196.7c0-16.1,0-32.4,0-48.4"/>
								<path class="st27" d="M86.6,196.7c-0.1-16.1-0.1-32.4,0-48.4"/>
								<path class="st27" d="M93,196.7c0-16.1,0-32.4,0-48.4"/>
								<path class="st27" d="M99.4,196.7c-0.1-16.1-0.1-32.4,0-48.4"/>
								<path class="st27" d="M105.8,196.7c0-16.1,0-32.4,0-48.4"/>
								<path class="st27" d="M112.2,196.7c-0.1-16.1-0.1-32.4,0-48.4"/>
								<path class="st27" d="M118.6,196.7c0-16.1,0-32.4,0-48.4"/>
								<path class="st27" d="M125,196.7c0.1-16.1,0.1-32.4,0-48.4"/>
								<path class="st27" d="M131.4,196.7c0-16.1,0-32.4,0-48.4"/>
								<path class="st27" d="M137.7,196.7c0.1-16.1,0.1-32.4,0-48.4"/>
								<path class="st27" d="M144.1,196.7c0-16.1,0-32.4,0-48.4"/>
								<path class="st27" d="M150.5,196.7c0.1-16.1,0.1-32.4,0-48.4"/>
								<path class="st27" d="M156.3,196.7c0-16.1,0-32.4,0-48.4"/>
								<path class="st27" d="M162.7,196.7c0-16.1,0-32.4,0-48.4"/>
								<path class="st27" d="M169.1,196.7c-0.1-16.1-0.1-32.4,0-48.4"/>
								<path class="st27" d="M175.5,196.7c0-16.1,0-32.4,0-48.4"/>
								<path class="st27" d="M181.9,196.7c-0.1-16.1-0.1-32.4,0-48.4"/>
								<path class="st27" d="M188.2,196.7c0-16.1,0-32.4,0-48.4"/>
								<path class="st27" d="M194.6,196.7c-0.1-16.1-0.1-32.4,0-48.4"/>
								<path class="st27" d="M201,196.7c0-16.1,0-32.4,0-48.4"/>
								<path class="st27" d="M207.4,196.7c0.1-16.1,0.1-32.4,0-48.4"/>
							</g>
						</g>
					</g>
					<g class="st28">
						<defs>
							<rect id="SVGID_9_" x="-0.5" y="148.3" class="st28" width="212" height="48.8"/>
						</defs>
						<clipPath id="SVGID_10_">
							<use xlink:href="#SVGID_9_"  style="overflow:visible;"/>
						</clipPath>
						<path class="st29" d="M14.6,197.1c9.5,0.5,19.6,1.1,24.5,2.7c2.3,0.8,3.8,2.2,4,3.7h54.5c3.8-1,10.4-1.7,15.4-2.6
							c7.1-1.2,11.4-3,19-4c8.1-1.1,18.5-1.2,28.2-1.5c8.2-0.2,25.9-2.6,31.7-1.5c9.3,1.7-3.9,6.2-8.6,7.9c-1.6,0.6-3.2,1.2-4.9,1.7
							h21.8c-2.3-1.1-2.7-2.3-2.9-3.5c-0.1-0.7-0.2-1.4,1.9-2c3.7-1,11.7-0.8,18.1-0.5c2.1,0.1,4.3,0.2,6.4,0.3v-3.1
							c-2.2,0.1-4.5,0.2-7,0.2c-1.4,0-2.9,0-4-0.2c-1-0.1-1.7-0.3-2.3-0.4c-2.1-0.5-4-1-7.1-1.4c-1.7-0.2-3.7-0.4-5.5-0.5
							c-6.9-0.7-11.4-1.8-11.7-3c-0.2-0.8,1.5-1.5,4.5-2.2c1-0.6,2.8-1.1,6.5-1.3c2.9-0.2,6.3-0.2,9.5-0.1c5.7,0.1,11.5,0.2,17,0.4
							v-2.8c-11.9,0.4-32.6,0-41.1-1.2c-4.6-0.7-6.9-1.7-4.9-2.5c1.5-0.6,5.2-1.2,8.7-1.6c7.2-1,14.8-2,24.6-2.3
							c4.1-0.1,8.4-0.2,12.7-0.1v-1.4c-5.6,0-11.3,0.1-16.4,0.4c-3.1,0.2-5.9,0.4-9,0.6c-2.1-0.5-3.3-1.1-6.3-1.6
							c-3.1-0.5-6.8-1-7.8-1.7c-0.9-0.6,0.8-1.2,3.4-1.7c2.7-0.5,6.2-0.9,9.7-1.2c5.5-0.6,11-1.2,17.6-1.5c2.8-0.1,5.8-0.2,8.8-0.2
							v-1.7c-3.9,0.3-8.6,0.3-12.1,0.1c-6.4-0.4-7.7-1.5-11-2.2c-3.3-0.7-8.9-1.2-12-2c-2.8-0.7-3.1-1.5-3.2-2.2
							c-0.1-0.4,0-0.8,1.7-1.1c3.1-0.6,9.5-0.5,14.6-0.3c8,0.3,16.6,0.6,22.1,1.4v-11H-5.3v0.6c1.3-0.1,3.5-0.2,7.1-0.2
							c9.6-0.1,18.1,0.4,26.1,0.9c1,0.1,2,0.1,2.7,0.2c1.8,0.3,0.4,0.8-2.2,1.1c-2.6,0.3-6.1,0.4-9.3,0.5c-3.6,0.1-7.3,0.1-10.8,0.1
							c-2.4,0-4.8,0-6.7-0.2c-2.5-0.2-3.7-0.6-4.8-0.9c-0.7-0.2-1.4-0.4-2-0.6v2.2c7.4-0.3,16.5,0.1,23.1,0.2c2.3,0,4.7,0.1,6.6,0.2
							c2,0.1,3.6,0.4,3.7,0.7c0.1,0.5-3.9,1-7.7,1.4C15.1,155,4,155.8-5.3,156v1c4.7-0.2,9.6-0.3,14.3-0.4
							c6.2-0.1,21.1-1.5,24.6-0.8c5.5,1-7.6,3.4-12.3,4.3c-5.6,1.1-11.7,2.3-20.2,3c-2.1,0.2-4.2,0.3-6.3,0.4v0.6
							c8.1-0.4,16.6-0.4,24.5-0.3c4.5,0.1,9.2,0.1,12.8,0.5c3.6,0.3,6,1,4.6,1.7c-2,1-9.7,1.6-15.4,2.3c-6.3,0.8-10.7,1.9-17.6,2.7
							c-2.8,0.3-5.8,0.5-8.9,0.6v1.3c9.7-0.3,17.9,0,18.5,1.6c0.5,1.2-6.7,2.8-13.3,3.6c-1.6,0.2-3.4,0.3-5.3,0.4v3.4
							c2.4,0.9,4.2,1.6,0,2v9.8c1.5,0.5,1.3,1.2,0,1.9v2.4c0.4-0.1,0.9-0.2,1.4-0.3C1.1,196.6,8.7,196.8,14.6,197.1z M112.5,198.4
							c-3.2,0.7-7.2,1.3-11.3,1.8c-6.5,0.9-13.2,1.9-20.8,2.4c-7.7,0.5-16.6,0.4-21.3-0.7c-4.1-0.9-4.2-2.3-3.3-3.6
							c0.9-1.3,2.5-2.5,1.4-3.7c-1-1-4-2-1.4-3c0.6-0.2,1.7-0.4,2.9-0.5c1.1,0,1.9,0.1,2.6,0.2c8.8,1.4,22.7,1.7,34.8,0.8
							c3.1-0.2,6.1-0.5,9.2-0.7c1.6,0.7,2.3,1.5,5,2.1c2.8,0.7,6.2,1.4,6.8,2.3C117.8,196.7,115.7,197.6,112.5,198.4z M92.6,182.3
							c9.8-0.4,26.2,0,32.6,1.2c3.5,0.7,5.1,1.7,3.1,2.7c-1.5,0.7-4.9,1.3-8.1,1.8c-6.8,1.1-14.2,2.3-23.3,2.8
							c-4.1,0.2-8.3,0.2-12.4,0.2c-3,0-6.1-0.1-8.8-0.3c-5.7-0.5-8.2-1.7-7.5-2.8C69.3,185.7,80.6,182.8,92.6,182.3z M83.9,175.8
							c0.9-0.3,2.2-0.6,3.5-0.8c4.7-0.9,10.8-1.8,17.5-1.7c0.9,0,1.9,0,2.6,0.1c0.6,0.1,1,0.2,1.3,0.3c1.1,0.4,2.1,0.8,4,1.1
							c1.1,0.2,2.4,0.3,3.5,0.4c4.5,0.5,7.2,1.5,7,2.5c-0.2,0.7-1.7,1.4-4.2,1.9c-1,0.5-2.6,1-5.5,1.2c-2.3,0.2-4.8,0.2-7.3,0.1
							c-4.6-0.1-9.1-0.2-13.2-0.4c-4.1-0.3-7.7-0.8-9.3-1.4c-1.2-0.5-1.3-1-1.3-1.6C82.4,176.9,82.3,176.3,83.9,175.8z M171.8,191.7
							c-12,1.7-50,5-54.9,0.4c-1.6-1.5,4.9-3.4,11.3-4.4c9.1-1.3,25.2-0.3,35.9-0.1c3.2,0.1,6.4,0.1,9.3,0.4
							c2.9,0.2,5.5,0.7,6.2,1.2C180.7,190.2,176.1,191,171.8,191.7z M170.7,184.4c-12.9,0.1-25.2-0.8-36.5-1.6
							c-1.4-0.1-2.8-0.2-3.8-0.4c-2.7-0.5-1.6-1.4,1.4-1.9c3-0.5,7.2-0.7,11.2-0.8c4.5-0.1,9.1-0.2,13.6-0.2c3.1,0,6.2,0.1,8.9,0.3
							c3.6,0.3,5.9,0.9,8.1,1.5C180,183,188.2,184.3,170.7,184.4z M185.8,174.6c2.1,1.2-3.1,2.8-8.7,3.6c-8.2,1.2-23.6,0.3-33.6,0.1
							c-2.9-0.1-5.9-0.1-8.6-0.3c-2.6-0.2-4.9-0.6-5.3-1c-0.8-0.8,3.6-1.5,7.6-2C147.9,173.6,179.9,171.3,185.8,174.6z M191.3,164.4
							c4.1,0.3,7.4,1,6.9,1.7c-0.7,1-7.8,1.6-12.6,2.3c-5.3,0.8-8.3,2-14.3,2.7c-6.6,0.8-15.4,0.9-23.6,1.1
							c-7,0.2-22.8,1.9-27.4,1.1c-7.1-1.3,5.4-4.3,9.7-5.3c4.9-1.2,9.9-2.5,17.8-3.3c8.8-0.8,19.7-0.9,29.9-0.7
							C182.4,164,187.2,164.1,191.3,164.4z M128.6,163.9c-4.6-0.1-9.4-0.1-13.2-0.5c-3.8-0.3-6.6-1-5.6-1.7
							c1.3-0.9,8.3-1.4,13.1-2.1c5.2-0.7,8.4-1.6,14-2.2c6-0.6,13.8-0.7,21-0.9c6.1-0.1,19.4-1.5,23.7-0.9c6.8,1-3.2,3.4-6.8,4.4
							c-4.2,1.1-8.8,2.3-16.5,3C149.6,164,138.7,164,128.6,163.9z M181,151.5c0.8-0.3,2.2-0.6,5-0.8c2.2-0.1,4.7-0.1,7.2-0.1
							c4.6,0,9.2,0.1,13.5,0.3c4.3,0.2,8.4,0.5,10.6,0.9c1.7,0.3,2.3,0.7,2.9,1c0.6,0.4,1.3,0.8,0.2,1.1c-0.6,0.2-1.8,0.4-3,0.6
							c-4.3,0.6-10.1,1.3-17.6,1.3c-1,0-2.1,0-3-0.1c-0.7-0.1-1.2-0.1-1.6-0.2c-1.5-0.3-2.8-0.6-5.1-0.8c-1.2-0.1-2.7-0.2-4-0.3
							c-5.1-0.4-8.3-1-8.5-1.7C177.4,152.3,178.7,151.8,181,151.5z M166.7,154.6c-9,1-37.4,2.8-41.2,0.3c-1.3-0.8,3.6-2,8.3-2.5
							c6.9-0.8,19.1-0.2,27.2-0.1c2.4,0,4.8,0.1,7,0.2c2.2,0.1,4.1,0.4,4.6,0.7C173.4,153.7,170,154.2,166.7,154.6z M140.1,148.6
							c9.6-0.1,18.9,0.4,27.6,0.9c1.1,0.1,2.2,0.1,3,0.2c2.2,0.3,1.5,0.8-0.7,1.1c-2.3,0.3-5.6,0.4-8.8,0.5
							c-3.6,0.1-7.2,0.1-10.8,0.1c-2.4,0-4.9,0-7.1-0.2c-2.8-0.2-4.5-0.6-6.1-0.9C132.8,149.4,127,148.7,140.1,148.6z M88.4,152.4
							c0.7-1.2,9-2.9,18.1-3.2c7.4-0.3,20,0,24.9,0.7c2.7,0.4,3.9,1,2.4,1.5c-1.1,0.4-3.7,0.7-6.1,1.1c-5.1,0.7-10.6,1.3-17.4,1.6
							c-3.1,0.1-6.2,0.1-9.3,0.1c-2.3,0-4.6,0-6.6-0.2C90.1,153.8,88,153.1,88.4,152.4z M79.6,154.6c0.4-0.1,1.2-0.2,2.1-0.3
							c0.8,0,1.4,0.1,2,0.1c6.8,0.8,17.3,0.9,26.2,0.4c2.3-0.1,4.5-0.3,6.9-0.4c1.2,0.4,1.8,0.8,3.8,1.2c2.1,0.4,4.7,0.8,5.2,1.3
							c0.5,0.5-1.1,1-3.4,1.4c-2.3,0.4-5.3,0.7-8.3,1c-4.8,0.5-9.6,1-15.2,1.3c-5.6,0.3-12.2,0.2-15.8-0.4c-3.1-0.5-3.3-1.3-2.8-2
							c0.5-0.7,1.6-1.4,0.6-2.1C80.1,155.7,77.7,155.2,79.6,154.6z M81,163.2c3.8-0.7,12.6-1.2,17.6-0.8c5.4,0.4,5.7,1.4,8.2,2.2
							c2.5,0.8,7.5,1.3,9.9,2.1c2.3,0.7,2.1,1.6,1.8,2.5c-0.2,0.5-0.5,0.9-2.4,1.3c-3.5,0.7-10,0.6-15.1,0.3
							c-8.1-0.3-16.6-0.8-21-1.8C75.1,167.7,74,164.4,81,163.2z M33.5,152.7c0.5-0.4,2.1-0.9,4.4-1.2c1-0.3,2.5-0.6,4.9-0.8
							c1.8-0.1,3.8-0.1,5.7-0.1c3.5,0,7.1,0.1,10.2,0.3c3.2,0.2,5.9,0.5,7.1,0.9c0.9,0.3,0.9,0.7,0.9,1c0,0.4,0,0.8-1.3,1.1
							c-0.8,0.2-1.9,0.4-3.1,0.6c-4.2,0.6-9.6,1.3-15.4,1.3c-0.8,0-1.6,0-2.2-0.1c-0.5-0.1-0.7-0.1-1-0.2c-0.8-0.3-1.5-0.6-2.9-0.8
							c-0.8-0.1-1.9-0.2-2.8-0.3C34.5,154,32.8,153.4,33.5,152.7z M32.9,161.3c-1.7-0.7-0.9-1.5-0.1-2.2c0.4-0.4,1-0.8,2.9-1.1
							c3.5-0.5,9.2-0.5,13.7-0.3c7.2,0.3,14.8,0.6,18.6,1.5c4.5,1,5.5,4.1-1.6,5.4c-4,0.7-13.1,1.2-18.1,0.9
							c-5.3-0.4-5.1-1.5-7.2-2.2C39.2,162.5,34.7,162.1,32.9,161.3z M20.4,169.9c2.9-0.5,6.4-0.8,9.8-1.2c5.5-0.6,11-1.2,17-1.5
							c6-0.3,12.9-0.2,16.6,0.4c3.3,0.6,3.4,1.5,2.7,2.3c-0.7,0.9-2,1.7-0.9,2.6c0.9,0.7,3.6,1.5,1.4,2.3c-0.5,0.2-1.4,0.3-2.6,0.4
							c-1,0-1.7-0.1-2.4-0.2c-7.7-1.1-19.8-1.3-30.6-0.6c-2.8,0.2-5.6,0.4-8.5,0.6c-1.1-0.5-1.3-1.1-3.3-1.6c-2-0.5-4.5-1-4.5-1.7
							C15.2,171,17.4,170.4,20.4,169.9z M-1.4,179.4c2.1-0.6,5.6-1.1,9-1.6c7-1,14.4-2,22.6-2.3c3.7-0.2,7.5-0.2,11.1-0.1
							c2.7,0,5.5,0.1,7.8,0.2c5,0.4,7.3,1.4,6.6,2.4c-1.3,1.9-12.8,4.6-25.1,5.2c-10.1,0.5-26.2,0-31.5-1.2
							C-3.6,181.2-4.1,180.3-1.4,179.4z M-4.4,188.1c0.8-0.8,3.1-1.5,6.3-2.2c1.5-0.6,3.6-1.1,6.7-1.3c2.5-0.2,5.1-0.2,7.5-0.1
							c4.6,0.1,9.3,0.2,13.3,0.5c4.1,0.3,7.6,0.8,9.1,1.6c1.1,0.5,1,1.2,0.9,1.8c-0.1,0.7-0.3,1.4-2.2,2c-1.1,0.4-2.7,0.7-4.3,1
							c-5.8,1.1-13.3,2.3-21,2.2c-1.1,0-2.2,0-2.9-0.2c-0.6-0.1-0.9-0.3-1.2-0.4c-0.9-0.5-1.7-1-3.6-1.4c-1-0.2-2.4-0.4-3.5-0.5
							C-3.7,190.4-5.6,189.3-4.4,188.1z"/>
					</g>
				</g>
				<g>
					<rect x="-0.5" y="166.6" class="st21" width="212" height="4.4"/>
					<g>
						<polygon class="st11" points="205.4,166.6 203.5,171 199,171 200.9,166.6 						"/>
						<polygon class="st11" points="193.7,166.6 191.9,171 187.4,171 189.3,166.6 						"/>
						<polygon class="st11" points="182.1,166.6 180.2,171 175.8,171 177.6,166.6 						"/>
						<polygon class="st11" points="170.5,166.6 168.6,171 164.2,171 166,166.6 						"/>
						<polygon class="st11" points="158.8,166.6 157,171 152.5,171 154.4,166.6 						"/>
						<polygon class="st11" points="147.2,166.6 145.4,171 140.9,171 142.8,166.6 						"/>
						<polygon class="st11" points="135.6,166.6 133.7,171 129.3,171 131.1,166.6 						"/>
						<polygon class="st11" points="124,166.6 122.1,171 117.7,171 119.5,166.6 						"/>
						<polygon class="st11" points="112.3,166.6 110.5,171 106,171 107.9,166.6 						"/>
						<polygon class="st11" points="100.7,166.6 98.9,171 94.4,171 96.3,166.6 						"/>
						<polygon class="st11" points="89.1,166.6 87.2,171 82.8,171 84.6,166.6 						"/>
						<polygon class="st11" points="77.5,166.6 75.6,171 71.1,171 73,166.6 						"/>
						<polygon class="st11" points="65.8,166.6 64,171 59.5,171 61.4,166.6 						"/>
						<polygon class="st11" points="54.2,166.6 52.3,171 47.9,171 49.7,166.6 						"/>
						<polygon class="st11" points="42.6,166.6 40.7,171 36.3,171 38.1,166.6 						"/>
						<polygon class="st11" points="30.9,166.6 29.1,171 24.6,171 26.5,166.6 						"/>
						<polygon class="st11" points="19.3,166.6 17.5,171 13,171 14.9,166.6 						"/>
						<polygon class="st11" points="7.7,166.6 5.8,171 1.4,171 3.2,166.6 						"/>
					</g>
					<rect x="-0.5" y="168.8" class="st30" width="212" height="2.2"/>
				</g>
			</g>
			<g class="st20">
				<g>
					<path class="st31" d="M150.6,178.6L47,176.4c-0.1-0.7,1.7-18.6,1.7-19.3c0.4-7.8,7.5-15.8,13.7-17.4c6.7-1.8,20.6-2.5,24.7-7.9
						c3.3-4.4,2.3-9.4,1.8-11.1c-0.1-0.4-0.2-0.6-0.2-0.6l21.5-3.9c0,0-1.1,9,0,14.6c1.2,5.6,19.1,8.2,29.3,10.5
						c7.9,1.8,9.8,11.5,10.3,15.8C149.8,158.4,150.6,178.6,150.6,178.6z"/>
					<path class="st32" d="M142,159.2h-5.5c0-0.2-0.1-0.3-0.1-0.5c-0.5-2-1.6-3.6-2.4-5.4c1.8,1.1,3.2,3.1,5.1,4.3
						C140,158.2,141,158.8,142,159.2z"/>
					<path class="st32" d="M98.4,124.7c-2.1,0.9-4,2.2-5.6,3.8c-1.7,1.7-3,4-2.9,6.3c0.1,3.4,2.9,6,5.6,8.2
						c-8.1-3.1-17.8-1.7-24.6,3.7c-1.8,1.4-3.6,3.4-3.5,5.7c0.1,2.9,3,5,5.9,5.9c1.3,0.4,2.5,0.6,3.8,0.8l-31.2,30
						c-2.4-35.9,9.8-47.7,16.6-49.4c6.7-1.8,20.6-2.5,24.7-7.9c3.3-4.4,2.3-9.4,1.8-11.1c4.1-0.5,8.8-0.4,12.4,1.5
						C104.2,123.7,99.9,124.1,98.4,124.7z"/>
					<g>
						<path class="st32" d="M115.7,143.7c-1.2,0-2.5,0.1-3.7,0.3c-2,0.3-3.9,1-5.4,2.4c-2.7,2.3-3.5,6.3-2.7,9.7
							c0.3,1.1,0.7,2.1,1.2,3.1h-4.2c-0.4-1.4-0.7-2.8-0.7-4.2c-0.1-2.1,0.2-4.3,1.3-6.1c1.5-2.7,4.4-4.3,7.4-5
							c2.2-0.5,4.5-0.6,6.8-0.6C117,143.3,117.1,143.7,115.7,143.7z"/>
						<path class="st32" d="M113.3,138.8c-2.2-0.3-4.5-0.7-6.6-0.1c-2.1,0.6-4.2,2.3-4.3,4.5c2.7-1.5,5.9-1.7,9-2
							c2.6-0.2,5.9-0.4,8.1-2.1C117.6,138.7,115.2,139.1,113.3,138.8z"/>
					</g>
					<g>
						<g>
							<g>
								<g>
									<path class="st33" d="M111.9,134.5c0,0-0.2-0.2-0.4-0.6c-0.2-0.4-0.5-1-0.8-1.6c-0.5-1.3-0.9-2.8-1.1-3.6
										c-0.2-0.8-0.4-2.7-0.3-4.4c0-0.8,0.1-1.6,0.2-2.2c0.1-0.6,0.2-0.9,0.2-0.9c0,0,0,0.4-0.1,0.9c0,0.6-0.1,1.3-0.1,2.2
										c0,1.7,0.3,3.5,0.4,4.3c0.1,0.8,0.5,2.3,1,3.6C111.4,133.4,111.9,134.4,111.9,134.5z"/>
								</g>
							</g>
						</g>
					</g>
					<g>
						<g>
							<g>
								<g>
									<path class="st33" d="M84.9,133.8c0-0.1,0.9-0.6,1.8-1.5c0.9-0.9,1.6-2.2,1.9-2.9c0.3-0.7,0.8-2.4,0.8-4
										c0.1-1.6-0.2-3-0.1-3c0,0,0.1,0.3,0.2,0.9c0.1,0.5,0.2,1.3,0.2,2.1c0.1,1.6-0.4,3.4-0.7,4.1c-0.3,0.7-1.1,2.1-2.1,3
										c-0.5,0.4-1,0.8-1.4,1C85.1,133.7,84.9,133.8,84.9,133.8z"/>
								</g>
							</g>
						</g>
					</g>
					<g>
						<g>
							<g>
								<g>
									<g>
										<path class="st33" d="M95,143.5c0,0-0.3-0.3-0.7-0.7c-0.5-0.4-1.2-0.8-2.1-1c-1.8-0.5-3.9-0.3-5.1-0.4
											c-1.1-0.1-3.7-0.5-5.9-1.2c-1.1-0.3-2.1-0.7-2.9-0.9c-0.4-0.1-0.7-0.2-0.9-0.3c-0.2-0.1-0.3-0.1-0.3-0.1
											c0,0,0.1,0,0.3,0.1c0.2,0.1,0.5,0.1,0.9,0.2c0.8,0.2,1.8,0.5,2.9,0.8c2.2,0.6,4.7,1,5.9,1c1.1,0.1,3.3,0,5.1,0.5
											c0.9,0.3,1.7,0.7,2.2,1.1c0.2,0.2,0.4,0.4,0.5,0.6C94.9,143.4,95,143.5,95,143.5z"/>
									</g>
								</g>
							</g>
						</g>
						<g>
							<g>
								<g>
									<g>
										<path class="st33" d="M102.5,143.5c0,0,0-0.1,0.1-0.2c0.1-0.1,0.3-0.3,0.5-0.6c0.5-0.4,1.2-0.9,2.2-1.1
											c1.8-0.5,4-0.4,5.1-0.5c1.1-0.1,3.7-0.5,5.9-1c1.1-0.3,2.1-0.6,2.9-0.8c0.4-0.1,0.7-0.2,0.9-0.2c0.2-0.1,0.3-0.1,0.3-0.1
											c0,0-0.1,0.1-0.3,0.1c-0.2,0.1-0.5,0.2-0.9,0.3c-0.7,0.3-1.8,0.6-2.9,0.9c-2.2,0.7-4.8,1.1-5.9,1.2
											c-1.1,0.1-3.3,0-5.1,0.4c-0.9,0.2-1.7,0.6-2.1,1C102.8,143.2,102.5,143.5,102.5,143.5z"/>
									</g>
								</g>
							</g>
						</g>
					</g>
					<g>
						<g>
							<g>
								<g>
									<g>
										<path class="st33" d="M63.6,155c0.1,0-0.5,1.4-0.6,1.9c-0.2,0.5-0.8,2.3-0.9,2.3c-0.1,0,0.4-1.9,0.6-2.4
											C62.8,156.3,63.5,155,63.6,155z"/>
									</g>
								</g>
							</g>
						</g>
						<g>
							<g>
								<g>
									<g>
										<path class="st33" d="M134.9,155c0.1,0,0.8,1.3,1,1.8c0.2,0.5,0.7,2.4,0.6,2.4c-0.1,0-0.7-1.8-0.9-2.3
											C135.3,156.4,134.8,155.1,134.9,155z"/>
									</g>
								</g>
							</g>
						</g>
					</g>
				</g>
				<g>
					<path class="st31" d="M76.6,100.5c-0.1,0.2-2.6,2.1-3.9-2.9c-1.3-4.9-0.3-11.4,1-11.6C75,85.8,77.9,97.9,76.6,100.5z"/>
					<path class="st32" d="M76.6,100.5c-0.1,0.2-2.6,2.1-3.9-2.9c-1.3-4.9-0.3-11.4,1-11.6C75,85.8,77.9,97.9,76.6,100.5z"/>
					<path class="st31" d="M127.3,92.4c0,0-3.8,12.3-5.5,17.5c-0.3,0.8-0.5,1.6-0.9,2.3c-0.7,1.3-1.6,2.4-2.6,3.5
						c-1.2,1.3-2.5,2.4-3.9,3.4c-1.6,1.1-3.3,2.1-5.1,2.9c-1.1,0.5-2.2,0.9-3.3,1.3c-0.9,0.3-1.8,0.5-2.7,0.8
						c-0.6,0.1-1.3,0.3-1.9,0.4c-0.5,0.1-1,0.1-1.5,0.2c-1.3,0.1-2.5-0.1-3.8-0.4c-2.1-0.5-4.1-1.1-6.1-2c-1.8-0.8-3.5-1.8-5.1-3
						c-1.4-1-2.8-2.2-4-3.5c-1-1.1-2-2.3-2.8-3.6c-0.6-1-0.9-2.1-1.3-3.3c-1.6-5.3-4.7-17.7-4.7-17.7c2-15.9,8.9-22.8,15.4-25.8
						c4.2-1.9,8.2-2.1,10.6-2c1.3,0,2.2,0.2,2.3,0.2C101.1,63.5,124.7,60.5,127.3,92.4z"/>
					<path class="st31" d="M122.5,101.6c0.1,0.2,2.5,2.2,4-2.7c1.5-4.9,0.8-11.4-0.5-11.7C124.8,87,121.3,98.9,122.5,101.6z"/>
					<g>
						<g>
							<g>
								<g>
									<path class="st33" d="M124.2,102.4c-0.1-0.1,0.6-0.8,0.8-1c0.2-0.2,1-1.2,1-1.1c0.1,0.1-0.5,1.1-0.8,1.4
										C125,101.9,124.2,102.5,124.2,102.4z"/>
								</g>
							</g>
						</g>
					</g>
					<path class="st34" d="M124.1,87.3c0,0-1.7,13.8-0.1,12.3c1.6-1.5,3.4-8.5,3.4-8.5L124.1,87.3z"/>
					<path class="st34" d="M75.6,86.2c0,0,1,13.9-0.5,12.3c-1.5-1.6-3-8.6-3-8.6L75.6,86.2z"/>
					<g>
						<g>
							<g>
								<g>
									<g>
										<path class="st33" d="M110.6,121.4c0,0,0.1-0.1,0.3-0.2c0.2-0.1,0.5-0.3,0.9-0.6c0.8-0.5,1.9-1.2,3-2
											c2.3-1.6,4.4-3.9,5.2-5.4c0.4-0.7,1.1-1.9,1.7-3.4c0.6-1.5,1.2-3.2,1.6-4.8c0.5-1.6,0.9-3.2,1.2-4.3
											c0.1-0.6,0.3-1,0.4-1.4c0.1-0.3,0.1-0.5,0.2-0.5c0,0,0,0.2-0.1,0.5c-0.1,0.3-0.2,0.8-0.3,1.4c-0.3,1.1-0.6,2.7-1.1,4.3
											c-0.4,1.6-1,3.4-1.6,4.9c-0.6,1.5-1.3,2.7-1.7,3.4c-0.8,1.5-3,3.9-5.4,5.4c-1.1,0.8-2.2,1.5-3,1.9c-0.4,0.2-0.7,0.4-1,0.5
											C110.7,121.4,110.6,121.5,110.6,121.4z"/>
									</g>
								</g>
							</g>
						</g>
						<g>
							<g>
								<g>
									<g>
										<path class="st33" d="M87.5,120.9c0,0-0.1-0.1-0.4-0.2c-0.2-0.1-0.5-0.3-0.9-0.6c-0.8-0.5-1.8-1.2-3-2.1
											c-2.2-1.6-4.4-4.1-5.1-5.7c-0.4-0.7-1-2-1.5-3.5c-0.5-1.5-1-3.3-1.3-4.9c-0.4-1.7-0.7-3.2-0.9-4.4c-0.1-0.6-0.2-1-0.2-1.4
											c-0.1-0.3-0.1-0.5-0.1-0.5c0,0,0.1,0.2,0.1,0.5c0.1,0.3,0.2,0.8,0.3,1.4c0.2,1.1,0.6,2.7,1,4.4c0.4,1.7,0.9,3.4,1.4,4.9
											c0.5,1.5,1.1,2.7,1.5,3.4c0.7,1.5,2.8,4,5,5.6c1.1,0.9,2.1,1.6,2.9,2.1c0.4,0.3,0.7,0.5,0.9,0.6
											C87.4,120.8,87.5,120.9,87.5,120.9z"/>
									</g>
								</g>
							</g>
						</g>
						<g>
							<g>
								<g>
									<g>
										<path class="st33" d="M94.4,123.6c0,0,0.8,0.1,1.8,0.3c1,0.1,2.1,0.2,2.6,0.2c0.6,0,1.9,0,3.1-0.2
											c1.2-0.1,2.2-0.4,2.2-0.4c0,0-0.2,0.1-0.6,0.2c-0.4,0.1-0.9,0.3-1.5,0.4c-1.2,0.2-2.5,0.3-3.1,0.3c-0.6,0-1.7-0.1-2.7-0.3
											C95.2,123.9,94.4,123.6,94.4,123.6z"/>
									</g>
								</g>
							</g>
						</g>
					</g>
					<path class="st32" d="M101.4,124.4c-0.5,0.1-1,0.1-1.5,0.2c-1.3,0.1-2.5-0.1-3.8-0.4c-2.1-0.5-4.1-1.1-6.1-2
						c-1.8-0.8-3.5-1.8-5.1-3c-1.4-1-2.8-2.2-4-3.5c-1-1.1-2-2.3-2.8-3.6c-0.6-1-0.9-2.1-1.3-3.3c-1.6-5.3-4.7-17.7-4.7-17.7
						c2-15.9,8.9-22.8,15.4-25.8c1-0.2,1.9-0.3,2.9-0.5c1.5-0.2,3.1-0.3,4.5,0.2c1,0.4,2.9,2,2.3,3.3c-0.4,0.9-2.8,1.8-3.6,2.4
						C91,73,89,75.7,87.6,78.6c-1,2-1.8,4.3-1.3,6.5c0.5,2.2,2.6,4.2,4.9,3.8c-1.9,0.6-3.6,1.8-4.6,3.5c-1,1.7-1.2,3.9-0.2,5.7
						c1,1.7,3.1,1,5,0.5c-4.4,2.2-6.4,9.6-5.3,14.4c1.2,4.8,5.1,8.6,9.7,10.3C97.6,123.9,99.5,124.3,101.4,124.4z"/>
					<g>
						<g>
							<g>
								<g>
									<path class="st33" d="M74.8,101c0,0-0.3-0.1-0.7-0.3c-0.3-0.2-0.6-0.5-0.8-0.7c-0.1-0.2-0.4-0.7-0.5-1.1
										c-0.1-0.5-0.1-0.9-0.1-0.9c0.1,0,0.1,0.4,0.3,0.8c0.2,0.4,0.5,0.8,0.6,1c0.1,0.2,0.4,0.5,0.6,0.8
										C74.6,100.8,74.8,101,74.8,101z"/>
								</g>
							</g>
						</g>
					</g>
					<g>
						<path class="st32" d="M113.3,73.8c3.1,1.8,5.5,4.6,6.7,7.9c2,5.3,0.9,11.1,2.2,16.6c0.2,0.7,0.5,1.5,1.2,1.5
							c0.7,0,1.1-0.7,1.4-1.3c1.8-4.3,2.9-9.1,2.4-13.7c-0.5-4.7-2.7-9.2-6.4-12.3c-3.7-3-9.1-4.3-13.8-2.7
							c-0.9,0.3-2.7,0.9-3.1,1.8C107.3,71.8,110.3,72.1,113.3,73.8z"/>
						<g>
							<path class="st32" d="M83.3,77.9c6.2-3.9,13.9-5.2,21.3-4.4c3.4,0.4,6.7,1.3,9.6,3c3.3,2,5.8,5.2,7.5,8.6
								c1.7,3.4,2.7,7,3.8,10.6c1.2-6.5-0.1-13.3-3.6-19c-3.6-5.6-9.5-9.9-16.2-11.7c-6.7-1.7-14.2-0.7-20,2.7
								c-3.7,2.2-6.8,5.3-9,8.9c-3.2,5.1-4.9,11.4-4.3,17.4C73.2,87.6,77.5,81.6,83.3,77.9z"/>
							<path class="st17" d="M128.3,94c-1.3,5.8-2.4,6.4-2.4,6.4c0.5-1.3-0.5-6-2.1-10.8c-0.5-1.6-1.1-3.1-1.7-4.6
								c-1.2-2.9-2.5-5.4-3.7-6.7c-5.3-5.9-20.8-8.9-32.1-3.6C75,80.1,72.8,98,72.8,98c-2.2-4.9-3.1-10.1-2-21.5
								c0.7-7.2,7.5-18.3,16.9-21.5c0.2-0.1,0.5-0.2,0.7-0.2c3-0.9,6.1-1.6,9.3-1.9c7.5-0.7,15.5,0.9,22.6,6.7
								C130.7,67.9,129.6,88.2,128.3,94z"/>
							<g>
								<g>
									<g>
										<g>
											<path class="st35" d="M76.2,76.2c0.1,0.1-0.8,1.7-1.5,3.8c-0.7,2.1-1.3,4.6-1.5,5.9c-0.3,1.3-0.8,4.3-0.8,7
												c0,1.4,0.1,2.6,0.3,3.5c0.2,0.9,0.4,1.5,0.3,1.5c0,0-0.1-0.1-0.2-0.4c-0.1-0.3-0.3-0.6-0.4-1.1c-0.3-0.9-0.4-2.2-0.5-3.6
												c-0.1-2.8,0.4-5.9,0.6-7.2c0.3-1.3,0.9-3.9,1.8-5.9C75,77.7,76.1,76.1,76.2,76.2z"/>
										</g>
									</g>
								</g>
							</g>
							<g>
								<g>
									<g>
										<g>
											<path class="st35" d="M126.1,99.8c-0.1,0,0.5-2,0.7-4.5c0.2-2.4,0.1-5.2,0-6.7c-0.1-1.5-0.5-4.8-1.2-7.7
												c-0.3-1.5-0.7-2.8-1-3.8c-0.3-1-0.5-1.6-0.4-1.6c0,0,0.3,0.6,0.7,1.6c0.4,1,0.8,2.3,1.2,3.8c0.8,2.9,1.3,6.3,1.4,7.8
												c0.1,1.5,0.2,4.4-0.2,6.8c-0.2,1.2-0.4,2.3-0.7,3.1C126.4,99.3,126.2,99.8,126.1,99.8z"/>
										</g>
									</g>
								</g>
							</g>
							<g>
								<g>
									<g>
										<g>
											<path class="st35" d="M110.5,61c0,0.1-1.7-0.2-3.7-0.3c-2-0.1-4.3,0-5.5,0.1c-1.2,0.1-4,0.3-6.4,0.9
												c-2.4,0.5-4.5,1.3-4.5,1.2c0,0,0.5-0.3,1.3-0.6c0.8-0.3,1.9-0.7,3.1-1c2.4-0.7,5.2-1,6.5-1.1c1.2-0.1,3.6-0.1,5.6,0.1
												C108.8,60.4,110.5,60.9,110.5,61z"/>
										</g>
									</g>
								</g>
							</g>
						</g>
						<path class="st16" d="M124.2,86.2c0,1.2-0.2,2.3-0.5,3.5c-0.5-1.6-1.1-3.1-1.7-4.6c-1.2-2.9-2.5-5.4-3.7-6.7
							c-5.3-5.9-20.8-8.9-32.1-3.6C75,80.1,72.8,98,72.8,98c-2.2-4.9-3.1-10.1-2-21.5c0.7-7.2,7.5-18.3,16.9-21.5
							c0.2-0.1,0.5-0.2,0.7-0.2c-1.1,0.7-2.2,1.6-3.2,2.5c-1.5,1.4-2.9,3.7-1.8,5.4c0.7,1,2,1.5,3.3,1.5c1.3,0,2.5-0.4,3.6-0.8
							c6.1-1.8,12.5-2.5,18.9-2c-5.6,0.4-11.4,0.9-16.5,3.3c-0.7,0.3-1.5,0.8-1.7,1.5c-0.3,1,0.6,1.9,1.6,2.2c1,0.3,2,0.1,3.1-0.1
							c6.4-1.1,13.2-0.4,18.8,2.7C120.2,74.1,124.3,80,124.2,86.2z"/>
					</g>
					<g>
						<g>
							<path class="st11" d="M89.7,104.8c0,2.2-2.9,3.9-6.3,3.8c-3.4-0.1-6.2-1.9-6.1-4.1c0-2.2,2.9-3.9,6.3-3.8
								C87,100.8,89.7,102.7,89.7,104.8z"/>
							<path class="st11" d="M122.1,105.6c0,2.2-2.9,3.9-6.3,3.8c-3.4-0.1-6.2-1.9-6.1-4.1c0-2.2,2.9-3.9,6.3-3.8
								C119.4,101.6,122.2,103.4,122.1,105.6z"/>
						</g>
						<g>
							<g>
								<g>
									<g>
										<path class="st32" d="M106.1,94.4c0,3.5,1.9,6,5.5,6.1c3.6,0.1,7.2-2.2,7.2-5.8c0.1-3.5-0.6-7-6.7-6.8
											C111.4,88,106.1,86.6,106.1,94.4z"/>
										<path class="st34" d="M107.1,90.3L107.1,90.3c0,0,6.9-1.1,10.8-0.8c0,0,0.7-3.2-6.6-2.2C109.7,87.6,106.8,88.6,107.1,90.3
											z"/>
										<g>
											<g>
												<path class="st21" d="M117.6,97.7c0,0.1-0.1,0.2-0.1,0.3c-0.1,0.3-0.3,0.5-0.5,0.7c0,0-0.1,0.1-0.1,0.1
													c0,0-1.5,1.6-4.9,1.7c-0.3,0-0.6,0-0.9,0c-0.8-0.1-1.6-0.3-2.3-0.7c-1-0.5-1.7-1.4-2-2.4c0-0.1-0.1-0.3-0.1-0.4
													c-0.3-1.5,0-3.1,0.8-4.1c0.5-0.6,1.3-1,2.1-1.3c0.4-0.1,0.7-0.2,1.1-0.2c1.3-0.2,2.5,0,3.3,0.3c1.5,0.7,3.6,1.5,3.7,3.4
													C117.8,96.1,117.8,97,117.6,97.7z"/>
												<path class="st32" d="M117.7,97.6c-0.1,0.2-0.1,0.4-0.2,0.5c-0.1,0.2-0.3,0.5-0.5,0.7c-0.9,1-2.4,1.7-4,1.7
													c-0.3,0-0.7,0-1,0c-1.4-0.1-2.4-0.4-3.2-0.7c-1-0.5-1.7-1.4-2-2.4c0-0.1-0.1-0.3-0.1-0.4c-0.3-1.5,0-3.1,0.8-4.1
													c0.5-0.6,1.3-1,2.1-1.3c0.4-0.1,0.7-0.2,1.1-0.2c-0.6,0.2-1.1,0.5-1.6,0.8c-1.6,1.2-2,3.3-1.2,5
													c0.9,1.7,3.1,2.8,5.3,2.7c1.8-0.1,3.5-0.9,4.4-2.2C117.6,97.7,117.7,97.6,117.7,97.6z"/>
												<g>
													<path class="st34" d="M108.2,99.3c0,0,0.5,0.4,1.2,0.7c0.7,0.3,1.6,0.5,2,0.5c0.5,0.1,1.5,0,2.4-0.2
														c0.5-0.1,0.9-0.3,1.1-0.4c0.3-0.1,0.5-0.3,0.4-0.3c0,0-0.7,0.3-1.6,0.5c-0.9,0.2-1.9,0.2-2.4,0.1c-0.4,0-1.3-0.2-2-0.5
														C108.8,99.6,108.3,99.2,108.2,99.3z"/>
												</g>
												<path class="st34" d="M109.8,91.1c1.4-0.4,2.9-0.3,4.2,0.1c4.9,1.5,4.6,5.8,4.6,5.8l-1.4,1.6l-0.4,0.4
													c0,0,1-1.2,0.6-2.8c-0.3-1-0.8-2.1-1.6-2.9c-1.3-1.3-3-1.8-5.4-1.6c-2,0.2-3.7,1.7-3.9,3.3
													C106.7,94.9,106.4,92,109.8,91.1z"/>
											</g>
											<path class="st34" d="M107.8,95.8c-0.1,2.2,1.5,4.1,3.6,4.2c2.1,0.1,3.9-1.6,4-3.8c0-0.1,0-0.3,0-0.4
												c-0.1-2-1.6-3.7-3.6-3.8c-2-0.1-3.7,1.5-4,3.6C107.8,95.6,107.8,95.7,107.8,95.8z"/>
											<path class="st21" d="M116.2,94.7c0,0.5-0.6,0.9-1.2,0.9c-0.6,0-1.1-0.5-1.1-1c0-0.5,0.6-0.9,1.2-0.9
												C115.7,93.7,116.2,94.1,116.2,94.7z"/>
										</g>
									</g>
								</g>
								<g>
									<path class="st32" d="M93.1,94.1c-0.2,3.5-2.1,5.9-5.7,5.8c-3.6-0.1-7-2.6-7-6.1c0.1-3.5,1-7,7-6.5
										C88.1,87.5,93.5,86.3,93.1,94.1z"/>
									<path class="st34" d="M92.3,89.9L92.3,89.9c0,0-6.9-1.4-10.8-1.3c0,0-0.6-3.3,6.6-1.9C89.8,87.1,92.7,88.3,92.3,89.9z"/>
									<g>
										<g>
											<path class="st21" d="M92.5,96.7c0,0.1-0.1,0.3-0.1,0.4c-0.6,1.6-2.3,2.8-4.4,2.8c-4,0.1-5.7-1.9-5.7-1.9
												c-0.8-0.4-0.9-1.9-0.7-3.8c0.2-1.8,2.4-2.6,3.9-3.2c1-0.4,2.8-0.5,4.4,0.1c0.8,0.3,1.5,0.7,2,1.4
												C92.6,93.6,92.8,95.2,92.5,96.7z"/>
											<path class="st32" d="M92.3,97.1c-0.6,1.6-2.3,2.8-4.4,2.8c-4,0.1-5.7-1.9-5.7-1.9c-0.8-0.4-0.9-1.9-0.7-3.8
												c0.2-1.8,2.4-2.6,3.9-3.2c1-0.4,2.8-0.5,4.4,0.1c-0.4-0.1-1-0.3-1.2-0.3c-1.5-0.2-3.2,0.2-4.3,1.1
												c-1.5,1.2-1.9,3.2-1.1,4.8c0.8,1.6,2.9,2.7,4.9,2.6C89.9,99.3,91.5,98.4,92.3,97.1z"/>
											<g>
												<path class="st34" d="M90.8,98.9c0,0-0.5,0.4-1.2,0.7c-0.7,0.3-1.6,0.4-2,0.5c-0.5,0-1.5,0-2.4-0.3
													c-0.4-0.1-0.8-0.3-1.1-0.5c-0.3-0.2-0.4-0.3-0.4-0.3c0,0,0.7,0.4,1.6,0.6c0.9,0.3,1.9,0.3,2.3,0.3c0.4,0,1.3-0.1,2-0.4
													C90.2,99.2,90.8,98.8,90.8,98.9z"/>
											</g>
											<path class="st34" d="M89.6,90.6c-1.3-0.5-2.9-0.5-4.2-0.1c-5,1.3-4.9,5.6-4.9,5.6l1.4,1.8l0.3,0.3c0,0-1-1.2-0.6-2.8
												c0.3-1,0.9-2.1,1.7-2.8c1.4-1.2,3.1-1.7,5.5-1.4c2,0.2,3.6,1.9,3.7,3.5C92.5,94.6,92.9,91.7,89.6,90.6z"/>
										</g>
										<path class="st34" d="M91.5,95.4c0,2.2-1.7,4-3.8,4c-2.1,0-3.8-1.8-3.8-4c0-0.1,0-0.3,0-0.4c0.2-2,1.8-3.6,3.8-3.6
											c2,0,3.7,1.6,3.8,3.7C91.5,95.2,91.5,95.3,91.5,95.4z"/>
										<path class="st21" d="M92.2,94.1c0,0.5-0.6,0.9-1.2,0.9c-0.6,0-1.1-0.5-1.1-1c0-0.5,0.6-0.9,1.2-0.9
											C91.8,93.1,92.3,93.6,92.2,94.1z"/>
									</g>
								</g>
							</g>
							<g>
								<g>
									<g>
										<g>
											<g>
												<g>
													<path class="st33" d="M100.7,106.7c0,0-0.6-0.2-1.3-0.6c-0.7-0.4-1.3-1.2-1.4-1.8c-0.1-0.3-0.1-0.7,0.1-1.2
														c0.2-0.5,0.5-0.9,0.8-1.3c0.6-0.8,1.1-1.5,1.1-1.4c0,0-0.4,0.8-0.9,1.6c-0.3,0.4-0.5,0.8-0.6,1.2
														c-0.1,0.4-0.1,0.7-0.1,0.9c0.1,0.4,0.5,1.2,1.2,1.6C100.1,106.3,100.7,106.7,100.7,106.7z"/>
												</g>
											</g>
										</g>
									</g>
									<path class="st32" d="M98.1,103.9l4.9,0.3c0,0-1.1,3.5-3.2,2.1C98,104.7,98.1,103.9,98.1,103.9z"/>
								</g>
								<g>
									<path class="st21" d="M106.6,113.8c-0.2,0.1-0.4,0.3-0.6,0.4c0,0,0,0,0,0c-0.1,0-0.1,0.1-0.2,0.1c0,0,0,0,0,0
										c-0.4,0.2-0.9,0.5-1.5,0.7c-0.6,0.2-1.3,0.4-2.1,0.4c-4.9,0.6-7.2,0-8.5-1.1c0,0,0,0,0,0c-0.8-0.6-1.2-1.4-1.5-2.2
										c-0.4-0.9,0-2.1,0.9-2.5c0.1-0.1,0.3-0.1,0.5-0.1c0,0,0,0,0,0c0.6-0.1,1.3-0.1,2.2-0.2c0,0,0,0,0,0
										c3.5-0.2,8.6-0.4,10.9-0.7l0,0c0.2,0,0.4-0.1,0.5-0.1c0.2,0,0.3,0,0.5,0.1C108.4,109.3,108.8,111.9,106.6,113.8z"/>
									<path class="st32" d="M104.4,115c-0.6,0.2-1.3,0.4-2.1,0.4c-4.9,0.6-7.2,0-8.5-1.1c0,0,0,0,0,0c-0.8-0.6-1.2-1.4-1.5-2.2
										c-0.5-1.1,0.2-2.5,1.3-2.7c0,0,0,0,0,0c0.6-0.1,1.3-0.1,2.2-0.2c-0.2,0.1-0.3,0.2-0.4,0.3c-0.4,0.4-0.7,1.2-0.3,1.5
										c0.2,0.2,1,0.6,1.5,0.7c-0.4,0-1,0.1-1.4,0c-0.4,0-0.9,0-1.2,0.4c-0.2,0.3-0.2,0.8,0,1.2c0.5,1,1.7,1.4,2.7,1.7
										C99.2,115.6,101.8,115.5,104.4,115z"/>
									<path class="st34" d="M106.6,113.8c0.8-0.8,1.2-2.2,1.2-2.6c0.1-0.5-0.8-0.3-1.5-0.3l1.5-0.3c0.4-1.6-1.1-2-1.2-2
										c0.2,0,0.4-0.1,0.5-0.1C108.2,108.2,109.2,111.6,106.6,113.8z"/>
									<path class="st34" d="M92.6,112.3c0.1,0.3,0.5,1.3,1.1,2c-0.8-0.6-1.2-1.4-1.5-2.2c-0.5-1.1,0.2-2.5,1.3-2.7
										c-0.4,0.2-1.5,0.9-1,2.2l1.5,0.1C93.4,112,92.5,111.9,92.6,112.3z"/>
								</g>
							</g>
						</g>
					</g>
				</g>
			</g>
		</g>
	</g>
</g>
</svg>
