<?xml version="1.0" encoding="utf-8"?>
<!-- Generator: Adobe Illustrator 25.2.1, SVG Export Plug-In . SVG Version: 6.00 Build 0)  -->
<svg version="1.1" id="Layer_1" xmlns="http://www.w3.org/2000/svg" xmlns:xlink="http://www.w3.org/1999/xlink" x="0px" y="0px"
	 viewBox="0 0 198.4 198.4" style="enable-background:new 0 0 198.4 198.4;" xml:space="preserve">
<style type="text/css">
	.st0{clip-path:url(#SVGID_2_);}
	.st1{fill:#86C2EB;}
	.st2{opacity:0.65;}
	.st3{fill:#A1D6FF;}
	.st4{fill:none;stroke:#CBE6FF;stroke-width:0.3828;stroke-miterlimit:10;}
	.st5{fill:none;}
	.st6{clip-path:url(#SVGID_4_);}
	.st7{fill:#FD8E18;}
	.st8{fill:#F57B00;}
	.st9{opacity:0.46;fill:#D47828;}
	.st10{opacity:0.46;fill:#FFAA53;}
	.st11{fill:#FF6658;}
	.st12{fill:#D54A3D;}
	.st13{opacity:0.46;fill:#953228;}
	.st14{opacity:0.46;fill:#FF6658;}
	.st15{fill:#259BFC;}
	.st16{opacity:0.22;fill:#1E4D89;}
	.st17{fill:#0065CC;}
	.st18{opacity:0.48;fill:#FF6658;}
	.st19{opacity:0.48;fill:#259BFC;}
	.st20{clip-path:url(#SVGID_6_);}
	.st21{fill:#FFFFFF;}
	.st22{fill:#DDEEFF;}
	.st23{opacity:0.89;fill:#0069C6;}
	.st24{opacity:0.19;}
	.st25{clip-path:url(#SVGID_8_);}
	.st26{fill:none;stroke:#008AFF;stroke-width:0.2821;stroke-miterlimit:10;}
	.st27{fill:none;stroke:#008AFF;stroke-width:0.2404;stroke-miterlimit:10;}
	.st28{opacity:0.82;}
	.st29{opacity:0.22;clip-path:url(#SVGID_10_);fill:#FFFFFF;}
	.st30{fill:#FFCDB3;}
	.st31{opacity:0.48;fill:#FFB999;}
	.st32{fill:#4E2626;}
	.st33{fill:#0367CD;}
	.st34{fill:#4C2424;}
	.st35{opacity:0.22;fill:#0D294F;}
	.st36{fill:#0381D7;}
</style>
<g>
	<defs>
		<circle id="SVGID_1_" cx="99.2" cy="99.2" r="97.8"/>
	</defs>
	<clipPath id="SVGID_2_">
		<use xlink:href="#SVGID_1_"  style="overflow:visible;"/>
	</clipPath>
	<g class="st0">
		<g>
			<rect x="-15" y="-1.9" class="st1" width="228.4" height="202.1"/>
			<g class="st2">
				<rect x="165.6" y="107.1" class="st3" width="9.5" height="8.3"/>
				<rect x="4.5" y="123.8" class="st3" width="9.5" height="8.3"/>
				<rect x="203.9" y="107.1" class="st3" width="9.5" height="8.3"/>
				<rect x="127.6" y="24" class="st3" width="9.5" height="8.3"/>
				<rect x="118.2" y="173.7" class="st3" width="9.5" height="8.3"/>
				<rect x="99.2" y="132.1" class="st3" width="9.5" height="8.3"/>
			</g>
			<g>
				<g>
					<polyline class="st4" points="-14.4,-1.2 -14.4,7.2 -14.4,15.5 -14.4,23.8 -14.4,32.2 -14.4,40.5 -14.4,48.8 -14.4,57.1 
						-14.4,65.5 -14.4,73.8 -14.4,82.1 -14.4,90.5 -14.4,98.8 -14.4,107.1 -14.4,115.4 -14.4,123.8 -14.4,132.1 -14.4,140.4 
						-14.4,148.7 -14.4,157.1 -14.4,165.4 -14.4,173.7 -14.4,182.1 -14.4,190.4 -14.4,198.7 					"/>
					<polyline class="st4" points="-4.9,-1.2 -4.9,7.2 -4.9,15.5 -4.9,23.8 -4.9,32.2 -4.9,40.5 -4.9,48.8 -4.9,57.1 -4.9,65.5 
						-4.9,73.8 -4.9,82.1 -4.9,90.5 -4.9,98.8 -4.9,107.1 -4.9,115.4 -4.9,123.8 -4.9,132.1 -4.9,140.4 -4.9,148.7 -4.9,157.1 
						-4.9,165.4 -4.9,173.7 -4.9,182.1 -4.9,190.4 -4.9,198.7 					"/>
					<polyline class="st4" points="4.5,-1.2 4.5,7.2 4.5,15.5 4.5,23.8 4.5,32.2 4.5,40.5 4.5,48.8 4.5,57.1 4.5,65.5 4.5,73.8 
						4.5,82.1 4.5,90.5 4.5,98.8 4.5,107.1 4.5,115.4 4.5,123.8 4.5,132.1 4.5,140.4 4.5,148.7 4.5,157.1 4.5,165.4 4.5,173.7 
						4.5,182.1 4.5,190.4 4.5,198.7 					"/>
					<polyline class="st4" points="14,-1.2 14,7.2 14,15.5 14,23.8 14,32.2 14,40.5 14,48.8 14,57.1 14,65.5 14,73.8 14,82.1 
						14,90.5 14,98.8 14,107.1 14,115.4 14,123.8 14,132.1 14,140.4 14,148.7 14,157.1 14,165.4 14,173.7 14,182.1 14,190.4 
						14,198.7 					"/>
					<polyline class="st4" points="23.5,-1.2 23.5,7.2 23.5,15.5 23.5,23.8 23.5,32.2 23.5,40.5 23.5,48.8 23.5,57.1 23.5,65.5 
						23.5,73.8 23.5,82.1 23.5,90.5 23.5,98.8 23.5,107.1 23.5,115.4 23.5,123.8 23.5,132.1 23.5,140.4 23.5,148.7 23.5,157.1 
						23.5,165.4 23.5,173.7 23.5,182.1 23.5,190.4 23.5,198.7 					"/>
					<polyline class="st4" points="32.9,-1.2 32.9,7.2 32.9,15.5 32.9,23.8 32.9,32.2 32.9,40.5 32.9,48.8 32.9,57.1 32.9,65.5 
						32.9,73.8 32.9,82.1 32.9,90.5 32.9,98.8 32.9,107.1 32.9,115.4 32.9,123.8 32.9,132.1 32.9,140.4 32.9,148.7 32.9,157.1 
						32.9,165.4 32.9,173.7 32.9,182.1 32.9,190.4 32.9,198.7 					"/>
					<polyline class="st4" points="42.4,-1.2 42.4,7.2 42.4,15.5 42.4,23.8 42.4,32.2 42.4,40.5 42.4,48.8 42.4,57.1 42.4,65.5 
						42.4,73.8 42.4,82.1 42.4,90.5 42.4,98.8 42.4,107.1 42.4,115.4 42.4,123.8 42.4,132.1 42.4,140.4 42.4,148.7 42.4,157.1 
						42.4,165.4 42.4,173.7 42.4,182.1 42.4,190.4 42.4,198.7 					"/>
					<polyline class="st4" points="51.9,-1.2 51.9,7.2 51.9,15.5 51.9,23.8 51.9,32.2 51.9,40.5 51.9,48.8 51.9,57.1 51.9,65.5 
						51.9,73.8 51.9,82.1 51.9,90.5 51.9,98.8 51.9,107.1 51.9,115.4 51.9,123.8 51.9,132.1 51.9,140.4 51.9,148.7 51.9,157.1 
						51.9,165.4 51.9,173.7 51.9,182.1 51.9,190.4 51.9,198.7 					"/>
					<polyline class="st4" points="61.3,-1.2 61.3,7.2 61.3,15.5 61.3,23.8 61.3,32.2 61.3,40.5 61.3,48.8 61.3,57.1 61.3,65.5 
						61.3,73.8 61.3,82.1 61.3,90.5 61.3,98.8 61.3,107.1 61.3,115.4 61.3,123.8 61.3,132.1 61.3,140.4 61.3,148.7 61.3,157.1 
						61.3,165.4 61.3,173.7 61.3,182.1 61.3,190.4 61.3,198.7 					"/>
					<polyline class="st4" points="70.8,-1.2 70.8,7.2 70.8,15.5 70.8,23.8 70.8,32.2 70.8,40.5 70.8,48.8 70.8,57.1 70.8,65.5 
						70.8,73.8 70.8,82.1 70.8,90.5 70.8,98.8 70.8,107.1 70.8,115.4 70.8,123.8 70.8,132.1 70.8,140.4 70.8,148.7 70.8,157.1 
						70.8,165.4 70.8,173.7 70.8,182.1 70.8,190.4 70.8,198.7 					"/>
					<polyline class="st4" points="80.3,-1.2 80.3,7.2 80.3,15.5 80.3,23.8 80.3,32.2 80.3,40.5 80.3,48.8 80.3,57.1 80.3,65.5 
						80.3,73.8 80.3,82.1 80.3,90.5 80.3,98.8 80.3,107.1 80.3,115.4 80.3,123.8 80.3,132.1 80.3,140.4 80.3,148.7 80.3,157.1 
						80.3,165.4 80.3,173.7 80.3,182.1 80.3,190.4 80.3,198.7 					"/>
					<polyline class="st4" points="89.7,-1.2 89.7,7.2 89.7,15.5 89.7,23.8 89.7,32.2 89.7,40.5 89.7,48.8 89.7,57.1 89.7,65.5 
						89.7,73.8 89.7,82.1 89.7,90.5 89.7,98.8 89.7,107.1 89.7,115.4 89.7,123.8 89.7,132.1 89.7,140.4 89.7,148.7 89.7,157.1 
						89.7,165.4 89.7,173.7 89.7,182.1 89.7,190.4 89.7,198.7 					"/>
					<polyline class="st4" points="99.2,-1.2 99.2,7.2 99.2,15.5 99.2,23.8 99.2,32.2 99.2,40.5 99.2,48.8 99.2,57.1 99.2,65.5 
						99.2,73.8 99.2,82.1 99.2,90.5 99.2,98.8 99.2,107.1 99.2,115.4 99.2,123.8 99.2,132.1 99.2,140.4 99.2,148.7 99.2,157.1 
						99.2,165.4 99.2,173.7 99.2,182.1 99.2,190.4 99.2,198.7 					"/>
					<polyline class="st4" points="108.7,-1.2 108.7,7.2 108.7,15.5 108.7,23.8 108.7,32.2 108.7,40.5 108.7,48.8 108.7,57.1 
						108.7,65.5 108.7,73.8 108.7,82.1 108.7,90.5 108.7,98.8 108.7,107.1 108.7,115.4 108.7,123.8 108.7,132.1 108.7,140.4 
						108.7,148.7 108.7,157.1 108.7,165.4 108.7,173.7 108.7,182.1 108.7,190.4 108.7,198.7 					"/>
					<polyline class="st4" points="118.2,-1.2 118.2,7.2 118.2,15.5 118.2,23.8 118.2,32.2 118.2,40.5 118.2,48.8 118.2,57.1 
						118.2,65.5 118.2,73.8 118.2,82.1 118.2,90.5 118.2,98.8 118.2,107.1 118.2,115.4 118.2,123.8 118.2,132.1 118.2,140.4 
						118.2,148.7 118.2,157.1 118.2,165.4 118.2,173.7 118.2,182.1 118.2,190.4 118.2,198.7 					"/>
					<polyline class="st4" points="127.6,-1.2 127.6,7.2 127.6,15.5 127.6,23.8 127.6,32.2 127.6,40.5 127.6,48.8 127.6,57.1 
						127.6,65.5 127.6,73.8 127.6,82.1 127.6,90.5 127.6,98.8 127.6,107.1 127.6,115.4 127.6,123.8 127.6,132.1 127.6,140.4 
						127.6,148.7 127.6,157.1 127.6,165.4 127.6,173.7 127.6,182.1 127.6,190.4 127.6,198.7 					"/>
					<polyline class="st4" points="137.1,-1.2 137.1,7.2 137.1,15.5 137.1,23.8 137.1,32.2 137.1,40.5 137.1,48.8 137.1,57.1 
						137.1,65.5 137.1,73.8 137.1,82.1 137.1,90.5 137.1,98.8 137.1,107.1 137.1,115.4 137.1,123.8 137.1,132.1 137.1,140.4 
						137.1,148.7 137.1,157.1 137.1,165.4 137.1,173.7 137.1,182.1 137.1,190.4 137.1,198.7 					"/>
					<polyline class="st4" points="146.6,-1.2 146.6,7.2 146.6,15.5 146.6,23.8 146.6,32.2 146.6,40.5 146.6,48.8 146.6,57.1 
						146.6,65.5 146.6,73.8 146.6,82.1 146.6,90.5 146.6,98.8 146.6,107.1 146.6,115.4 146.6,123.8 146.6,132.1 146.6,140.4 
						146.6,148.7 146.6,157.1 146.6,165.4 146.6,173.7 146.6,182.1 146.6,190.4 146.6,198.7 					"/>
					<polyline class="st4" points="156,-1.2 156,7.2 156,15.5 156,23.8 156,32.2 156,40.5 156,48.8 156,57.1 156,65.5 156,73.8 
						156,82.1 156,90.5 156,98.8 156,107.1 156,115.4 156,123.8 156,132.1 156,140.4 156,148.7 156,157.1 156,165.4 156,173.7 
						156,182.1 156,190.4 156,198.7 					"/>
					<polyline class="st4" points="165.5,-1.2 165.5,7.2 165.5,15.5 165.5,23.8 165.5,32.2 165.5,40.5 165.5,48.8 165.5,57.1 
						165.5,65.5 165.5,73.8 165.5,82.1 165.5,90.5 165.5,98.8 165.5,107.1 165.5,115.4 165.5,123.8 165.5,132.1 165.5,140.4 
						165.5,148.7 165.5,157.1 165.5,165.4 165.5,173.7 165.5,182.1 165.5,190.4 165.5,198.7 					"/>
					<polyline class="st4" points="175,-1.2 175,7.2 175,15.5 175,23.8 175,32.2 175,40.5 175,48.8 175,57.1 175,65.5 175,73.8 
						175,82.1 175,90.5 175,98.8 175,107.1 175,115.4 175,123.8 175,132.1 175,140.4 175,148.7 175,157.1 175,165.4 175,173.7 
						175,182.1 175,190.4 175,198.7 					"/>
					<polyline class="st4" points="184.4,-1.2 184.4,7.2 184.4,15.5 184.4,23.8 184.4,32.2 184.4,40.5 184.4,48.8 184.4,57.1 
						184.4,65.5 184.4,73.8 184.4,82.1 184.4,90.5 184.4,98.8 184.4,107.1 184.4,115.4 184.4,123.8 184.4,132.1 184.4,140.4 
						184.4,148.7 184.4,157.1 184.4,165.4 184.4,173.7 184.4,182.1 184.4,190.4 184.4,198.7 					"/>
					<polyline class="st4" points="193.9,-1.2 193.9,7.2 193.9,15.5 193.9,23.8 193.9,32.2 193.9,40.5 193.9,48.8 193.9,57.1 
						193.9,65.5 193.9,73.8 193.9,82.1 193.9,90.5 193.9,98.8 193.9,107.1 193.9,115.4 193.9,123.8 193.9,132.1 193.9,140.4 
						193.9,148.7 193.9,157.1 193.9,165.4 193.9,173.7 193.9,182.1 193.9,190.4 193.9,198.7 					"/>
					<polyline class="st4" points="203.4,-1.2 203.4,7.2 203.4,15.5 203.4,23.8 203.4,32.2 203.4,40.5 203.4,48.8 203.4,57.1 
						203.4,65.5 203.4,73.8 203.4,82.1 203.4,90.5 203.4,98.8 203.4,107.1 203.4,115.4 203.4,123.8 203.4,132.1 203.4,140.4 
						203.4,148.7 203.4,157.1 203.4,165.4 203.4,173.7 203.4,182.1 203.4,190.4 203.4,198.7 					"/>
					<polyline class="st4" points="212.8,-1.2 212.8,7.2 212.8,15.5 212.8,23.8 212.8,32.2 212.8,40.5 212.8,48.8 212.8,57.1 
						212.8,65.5 212.8,73.8 212.8,82.1 212.8,90.5 212.8,98.8 212.8,107.1 212.8,115.4 212.8,123.8 212.8,132.1 212.8,140.4 
						212.8,148.7 212.8,157.1 212.8,165.4 212.8,173.7 212.8,182.1 212.8,190.4 212.8,198.7 					"/>
				</g>
				<g>
					<polyline class="st4" points="-14.4,198.7 -4.9,198.7 4.5,198.7 14,198.7 23.5,198.7 32.9,198.7 42.4,198.7 51.9,198.7 
						61.3,198.7 70.8,198.7 80.3,198.7 89.7,198.7 99.2,198.7 108.7,198.7 118.2,198.7 127.6,198.7 137.1,198.7 146.6,198.7 
						156,198.7 165.5,198.7 175,198.7 184.4,198.7 193.9,198.7 203.4,198.7 212.8,198.7 					"/>
					<polyline class="st4" points="-14.4,190.4 -4.9,190.4 4.5,190.4 14,190.4 23.5,190.4 32.9,190.4 42.4,190.4 51.9,190.4 
						61.3,190.4 70.8,190.4 80.3,190.4 89.7,190.4 99.2,190.4 108.7,190.4 118.2,190.4 127.6,190.4 137.1,190.4 146.6,190.4 
						156,190.4 165.5,190.4 175,190.4 184.4,190.4 193.9,190.4 203.4,190.4 212.8,190.4 					"/>
					<polyline class="st4" points="-14.4,182.1 -4.9,182.1 4.5,182.1 14,182.1 23.5,182.1 32.9,182.1 42.4,182.1 51.9,182.1 
						61.3,182.1 70.8,182.1 80.3,182.1 89.7,182.1 99.2,182.1 108.7,182.1 118.2,182.1 127.6,182.1 137.1,182.1 146.6,182.1 
						156,182.1 165.5,182.1 175,182.1 184.4,182.1 193.9,182.1 203.4,182.1 212.8,182.1 					"/>
					<polyline class="st4" points="-14.4,173.7 -4.9,173.7 4.5,173.7 14,173.7 23.5,173.7 32.9,173.7 42.4,173.7 51.9,173.7 
						61.3,173.7 70.8,173.7 80.3,173.7 89.7,173.7 99.2,173.7 108.7,173.7 118.2,173.7 127.6,173.7 137.1,173.7 146.6,173.7 
						156,173.7 165.5,173.7 175,173.7 184.4,173.7 193.9,173.7 203.4,173.7 212.8,173.7 					"/>
					<polyline class="st4" points="-14.4,165.4 -4.9,165.4 4.5,165.4 14,165.4 23.5,165.4 32.9,165.4 42.4,165.4 51.9,165.4 
						61.3,165.4 70.8,165.4 80.3,165.4 89.7,165.4 99.2,165.4 108.7,165.4 118.2,165.4 127.6,165.4 137.1,165.4 146.6,165.4 
						156,165.4 165.5,165.4 175,165.4 184.4,165.4 193.9,165.4 203.4,165.4 212.8,165.4 					"/>
					<polyline class="st4" points="-14.4,157.1 -4.9,157.1 4.5,157.1 14,157.1 23.5,157.1 32.9,157.1 42.4,157.1 51.9,157.1 
						61.3,157.1 70.8,157.1 80.3,157.1 89.7,157.1 99.2,157.1 108.7,157.1 118.2,157.1 127.6,157.1 137.1,157.1 146.6,157.1 
						156,157.1 165.5,157.1 175,157.1 184.4,157.1 193.9,157.1 203.4,157.1 212.8,157.1 					"/>
					<polyline class="st4" points="-14.4,148.7 -4.9,148.7 4.5,148.7 14,148.7 23.5,148.7 32.9,148.7 42.4,148.7 51.9,148.7 
						61.3,148.7 70.8,148.7 80.3,148.7 89.7,148.7 99.2,148.7 108.7,148.7 118.2,148.7 127.6,148.7 137.1,148.7 146.6,148.7 
						156,148.7 165.5,148.7 175,148.7 184.4,148.7 193.9,148.7 203.4,148.7 212.8,148.7 					"/>
					<polyline class="st4" points="-14.4,140.4 -4.9,140.4 4.5,140.4 14,140.4 23.5,140.4 32.9,140.4 42.4,140.4 51.9,140.4 
						61.3,140.4 70.8,140.4 80.3,140.4 89.7,140.4 99.2,140.4 108.7,140.4 118.2,140.4 127.6,140.4 137.1,140.4 146.6,140.4 
						156,140.4 165.5,140.4 175,140.4 184.4,140.4 193.9,140.4 203.4,140.4 212.8,140.4 					"/>
					<polyline class="st4" points="-14.4,132.1 -4.9,132.1 4.5,132.1 14,132.1 23.5,132.1 32.9,132.1 42.4,132.1 51.9,132.1 
						61.3,132.1 70.8,132.1 80.3,132.1 89.7,132.1 99.2,132.1 108.7,132.1 118.2,132.1 127.6,132.1 137.1,132.1 146.6,132.1 
						156,132.1 165.5,132.1 175,132.1 184.4,132.1 193.9,132.1 203.4,132.1 212.8,132.1 					"/>
					<polyline class="st4" points="-14.4,123.8 -4.9,123.8 4.5,123.8 14,123.8 23.5,123.8 32.9,123.8 42.4,123.8 51.9,123.8 
						61.3,123.8 70.8,123.8 80.3,123.8 89.7,123.8 99.2,123.8 108.7,123.8 118.2,123.8 127.6,123.8 137.1,123.8 146.6,123.8 
						156,123.8 165.5,123.8 175,123.8 184.4,123.8 193.9,123.8 203.4,123.8 212.8,123.8 					"/>
					<polyline class="st4" points="-14.4,115.4 -4.9,115.4 4.5,115.4 14,115.4 23.5,115.4 32.9,115.4 42.4,115.4 51.9,115.4 
						61.3,115.4 70.8,115.4 80.3,115.4 89.7,115.4 99.2,115.4 108.7,115.4 118.2,115.4 127.6,115.4 137.1,115.4 146.6,115.4 
						156,115.4 165.5,115.4 175,115.4 184.4,115.4 193.9,115.4 203.4,115.4 212.8,115.4 					"/>
					<polyline class="st4" points="-14.4,107.1 -4.9,107.1 4.5,107.1 14,107.1 23.5,107.1 32.9,107.1 42.4,107.1 51.9,107.1 
						61.3,107.1 70.8,107.1 80.3,107.1 89.7,107.1 99.2,107.1 108.7,107.1 118.2,107.1 127.6,107.1 137.1,107.1 146.6,107.1 
						156,107.1 165.5,107.1 175,107.1 184.4,107.1 193.9,107.1 203.4,107.1 212.8,107.1 					"/>
					<polyline class="st4" points="-14.4,98.8 -4.9,98.8 4.5,98.8 14,98.8 23.5,98.8 32.9,98.8 42.4,98.8 51.9,98.8 61.3,98.8 
						70.8,98.8 80.3,98.8 89.7,98.8 99.2,98.8 108.7,98.8 118.2,98.8 127.6,98.8 137.1,98.8 146.6,98.8 156,98.8 165.5,98.8 
						175,98.8 184.4,98.8 193.9,98.8 203.4,98.8 212.8,98.8 					"/>
					<polyline class="st4" points="-14.4,90.5 -4.9,90.5 4.5,90.5 14,90.5 23.5,90.5 32.9,90.5 42.4,90.5 51.9,90.5 61.3,90.5 
						70.8,90.5 80.3,90.5 89.7,90.5 99.2,90.5 108.7,90.5 118.2,90.5 127.6,90.5 137.1,90.5 146.6,90.5 156,90.5 165.5,90.5 
						175,90.5 184.4,90.5 193.9,90.5 203.4,90.5 212.8,90.5 					"/>
					<polyline class="st4" points="-14.4,82.1 -4.9,82.1 4.5,82.1 14,82.1 23.5,82.1 32.9,82.1 42.4,82.1 51.9,82.1 61.3,82.1 
						70.8,82.1 80.3,82.1 89.7,82.1 99.2,82.1 108.7,82.1 118.2,82.1 127.6,82.1 137.1,82.1 146.6,82.1 156,82.1 165.5,82.1 
						175,82.1 184.4,82.1 193.9,82.1 203.4,82.1 212.8,82.1 					"/>
					<polyline class="st4" points="-14.4,73.8 -4.9,73.8 4.5,73.8 14,73.8 23.5,73.8 32.9,73.8 42.4,73.8 51.9,73.8 61.3,73.8 
						70.8,73.8 80.3,73.8 89.7,73.8 99.2,73.8 108.7,73.8 118.2,73.8 127.6,73.8 137.1,73.8 146.6,73.8 156,73.8 165.5,73.8 
						175,73.8 184.4,73.8 193.9,73.8 203.4,73.8 212.8,73.8 					"/>
					<polyline class="st4" points="-14.4,65.5 -4.9,65.5 4.5,65.5 14,65.5 23.5,65.5 32.9,65.5 42.4,65.5 51.9,65.5 61.3,65.5 
						70.8,65.5 80.3,65.5 89.7,65.5 99.2,65.5 108.7,65.5 118.2,65.5 127.6,65.5 137.1,65.5 146.6,65.5 156,65.5 165.5,65.5 
						175,65.5 184.4,65.5 193.9,65.5 203.4,65.5 212.8,65.5 					"/>
					<polyline class="st4" points="-14.4,57.1 -4.9,57.1 4.5,57.1 14,57.1 23.5,57.1 32.9,57.1 42.4,57.1 51.9,57.1 61.3,57.1 
						70.8,57.1 80.3,57.1 89.7,57.1 99.2,57.1 108.7,57.1 118.2,57.1 127.6,57.1 137.1,57.1 146.6,57.1 156,57.1 165.5,57.1 
						175,57.1 184.4,57.1 193.9,57.1 203.4,57.1 212.8,57.1 					"/>
					<polyline class="st4" points="-14.4,48.8 -4.9,48.8 4.5,48.8 14,48.8 23.5,48.8 32.9,48.8 42.4,48.8 51.9,48.8 61.3,48.8 
						70.8,48.8 80.3,48.8 89.7,48.8 99.2,48.8 108.7,48.8 118.2,48.8 127.6,48.8 137.1,48.8 146.6,48.8 156,48.8 165.5,48.8 
						175,48.8 184.4,48.8 193.9,48.8 203.4,48.8 212.8,48.8 					"/>
					<polyline class="st4" points="-14.4,40.5 -4.9,40.5 4.5,40.5 14,40.5 23.5,40.5 32.9,40.5 42.4,40.5 51.9,40.5 61.3,40.5 
						70.8,40.5 80.3,40.5 89.7,40.5 99.2,40.5 108.7,40.5 118.2,40.5 127.6,40.5 137.1,40.5 146.6,40.5 156,40.5 165.5,40.5 
						175,40.5 184.4,40.5 193.9,40.5 203.4,40.5 212.8,40.5 					"/>
					<polyline class="st4" points="-14.4,32.2 -4.9,32.2 4.5,32.2 14,32.2 23.5,32.2 32.9,32.2 42.4,32.2 51.9,32.2 61.3,32.2 
						70.8,32.2 80.3,32.2 89.7,32.2 99.2,32.2 108.7,32.2 118.2,32.2 127.6,32.2 137.1,32.2 146.6,32.2 156,32.2 165.5,32.2 
						175,32.2 184.4,32.2 193.9,32.2 203.4,32.2 212.8,32.2 					"/>
					<polyline class="st4" points="-14.4,23.8 -4.9,23.8 4.5,23.8 14,23.8 23.5,23.8 32.9,23.8 42.4,23.8 51.9,23.8 61.3,23.8 
						70.8,23.8 80.3,23.8 89.7,23.8 99.2,23.8 108.7,23.8 118.2,23.8 127.6,23.8 137.1,23.8 146.6,23.8 156,23.8 165.5,23.8 
						175,23.8 184.4,23.8 193.9,23.8 203.4,23.8 212.8,23.8 					"/>
					<polyline class="st4" points="-14.4,15.5 -4.9,15.5 4.5,15.5 14,15.5 23.5,15.5 32.9,15.5 42.4,15.5 51.9,15.5 61.3,15.5 
						70.8,15.5 80.3,15.5 89.7,15.5 99.2,15.5 108.7,15.5 118.2,15.5 127.6,15.5 137.1,15.5 146.6,15.5 156,15.5 165.5,15.5 
						175,15.5 184.4,15.5 193.9,15.5 203.4,15.5 212.8,15.5 					"/>
					<polyline class="st4" points="-14.4,7.2 -4.9,7.2 4.5,7.2 14,7.2 23.5,7.2 32.9,7.2 42.4,7.2 51.9,7.2 61.3,7.2 70.8,7.2 
						80.3,7.2 89.7,7.2 99.2,7.2 108.7,7.2 118.2,7.2 127.6,7.2 137.1,7.2 146.6,7.2 156,7.2 165.5,7.2 175,7.2 184.4,7.2 
						193.9,7.2 203.4,7.2 212.8,7.2 					"/>
					<polyline class="st4" points="-14.4,-1.2 -4.9,-1.2 4.5,-1.2 14,-1.2 23.5,-1.2 32.9,-1.2 42.4,-1.2 51.9,-1.2 61.3,-1.2 
						70.8,-1.2 80.3,-1.2 89.7,-1.2 99.2,-1.2 108.7,-1.2 118.2,-1.2 127.6,-1.2 137.1,-1.2 146.6,-1.2 156,-1.2 165.5,-1.2 
						175,-1.2 184.4,-1.2 193.9,-1.2 203.4,-1.2 212.8,-1.2 					"/>
				</g>
			</g>
		</g>
		<circle class="st5" cx="99.2" cy="99.2" r="97.8"/>
		<g>
			<defs>
				<circle id="SVGID_3_" cx="99.2" cy="99.2" r="97.8"/>
			</defs>
			<clipPath id="SVGID_4_">
				<use xlink:href="#SVGID_3_"  style="overflow:visible;"/>
			</clipPath>
			<g class="st6">
				<g>
					<g>
						<g>
							<g>
								<path class="st7" d="M197.9,211.5c-0.6,0.3-1.2,0.4-1.8,0.5c-3.4,0.4-6.5-2-6.9-5.4c-1.4-11.5-8.4-22.8-19.3-31
									c-9.1-6.9-20.7-11.7-35.3-14.6c-0.1,0-0.1,0-0.2,0c-1.4-0.4-2.1-3-1.6-6.2c0-0.2,0.1-0.3,0.1-0.5c0.6-3.4,2.4-5.8,3.9-5.6
									c0,0,0.1,0,0.1,0c16.5,3.3,29.8,8.8,40.4,16.8c13.5,10.2,22.4,24.6,24.2,39.4C201.8,207.8,200.3,210.4,197.9,211.5z"/>
							</g>
						</g>
						<path class="st8" d="M132.8,154.3c0.6-3.3,2.4-5.8,3.9-5.6c0,0,0,0,0,0c0,0,0,0,0.1,0c1.5,0.4,2.2,3.3,1.6,6.7
							c-0.6,3.3-2.4,5.8-3.9,5.6c0,0-0.1,0-0.1,0c0,0-0.1,0-0.1,0C132.9,160.6,132.2,157.6,132.8,154.3z"/>
						<path class="st9" d="M133.9,154.5c0.3-1.4,0.9-2.4,1.5-2.3c0,0,0,0,0,0c0,0,0,0,0,0c0.5,0.1,0.8,1.3,0.5,2.7
							c-0.3,1.4-0.9,2.4-1.5,2.3c0,0,0,0,0,0c0,0,0,0,0,0C133.9,157.1,133.7,155.9,133.9,154.5z"/>
					</g>
					<path class="st10" d="M197.9,211.5c-0.6,0.3-1.2,0.4-1.8,0.5c-3.4,0.4-6.5-2-6.9-5.4c-1.4-11.5-8.4-22.8-19.3-31
						c-9.1-6.9-20.7-11.7-35.3-14.6c-0.1,0-0.1,0-0.2,0c-1.4-0.4-2.1-3-1.6-6.2c0.2,0,0.3,0,0.4,0c8.6,0.5,17,2.6,24.9,6.2
						c4.4,2,8.6,4.4,12.5,7.3c12.7,9.3,22.1,23,26.3,38.1C197.3,208.1,197.7,209.8,197.9,211.5z"/>
				</g>
				<g>
					<g>
						<g>
							<path class="st11" d="M-35.7,42.5c0.6-0.2,1.2-0.3,1.9-0.3c3.4-0.1,6.3,2.6,6.4,6C-27,59.8-21,71.7-11,80.8
								c8.5,7.7,19.6,13.5,33.9,17.7c0.1,0,0.1,0,0.2,0.1c1.4,0.5,1.8,3.2,1.1,6.3c0,0.2-0.1,0.3-0.1,0.5c-0.9,3.3-2.9,5.6-4.4,5.2
								c0,0-0.1,0-0.1,0C3.3,105.7-9.4,99-19.3,90.1c-12.6-11.4-20.1-26.5-20.5-41.5C-39.9,45.8-38.2,43.3-35.7,42.5z"/>
						</g>
						<path class="st12" d="M24,105.3c-0.9,3.3-2.9,5.6-4.4,5.2c0,0,0,0,0,0c0,0,0,0-0.1,0c-1.5-0.5-1.9-3.5-1-6.8
							c0.9-3.3,2.9-5.6,4.4-5.2c0,0,0.1,0,0.1,0c0,0,0.1,0,0.1,0C24.5,99.1,25,102.1,24,105.3z"/>
						<path class="st13" d="M22.9,105c-0.4,1.3-1.1,2.3-1.7,2.2c0,0,0,0,0,0c0,0,0,0,0,0c-0.5-0.2-0.6-1.4-0.3-2.7
							c0.4-1.3,1.1-2.3,1.7-2.2c0,0,0,0,0,0c0,0,0,0,0,0C23.2,102.5,23.3,103.7,22.9,105z"/>
					</g>
					<path class="st14" d="M-35.7,42.5c0.6-0.2,1.2-0.3,1.9-0.3c3.4-0.1,6.3,2.6,6.4,6C-27,59.8-21,71.7-11,80.8
						c8.5,7.7,19.6,13.5,33.9,17.7c0.1,0,0.1,0,0.2,0.1c1.4,0.5,1.8,3.2,1.1,6.3c-0.2,0-0.3-0.1-0.4-0.1c-8.5-1.3-16.7-4.2-24.2-8.4
						c-4.2-2.4-8.2-5.2-11.8-8.4c-11.8-10.4-20-24.9-22.8-40.4C-35.4,45.9-35.6,44.2-35.7,42.5z"/>
				</g>
				<g>
					<g>
						<path class="st15" d="M135.8,46.5C135.8,46.4,135.8,46.4,135.8,46.5c9.4-14.9,19.6-25.8,31.4-33.2
							c14.9-9.4,32.1-12.6,47.2-8.9c3.5,0.9,5.6,4.4,4.7,7.9c-0.1,0.6-0.4,1.1-0.6,1.6c-1.4,2.5-4.3,3.9-7.2,3.1
							c-11.7-2.9-25.2-0.3-37.2,7.3c-10.1,6.3-19,15.8-27.2,28.9c0,0-0.1,0.1-0.1,0.2c-0.9,1.2-3.7,0.9-6.5-0.7
							c-0.2-0.1-0.3-0.2-0.5-0.3C136.7,50.5,135,47.9,135.8,46.5z"/>
					</g>
					<path class="st16" d="M135.8,46.5C135.8,46.4,135.8,46.4,135.8,46.5c9.4-14.9,19.6-25.8,31.4-33.2c14.9-9.4,32.1-12.6,47.2-8.9
						c3.5,0.9,5.6,4.4,4.7,7.9c-0.1,0.6-0.4,1.1-0.6,1.6c-2.2-0.8-4.5-1.3-6.7-1.7c-5.8-1-11.7-0.9-17.5,0c-6.6,1.1-13.1,3.2-19,6.3
						c-14.4,7.5-25.8,19.9-34.5,33.6c-0.1,0.2-0.2,0.4-0.4,0.6c-0.2-0.1-0.3-0.2-0.5-0.3C136.7,50.5,135,47.9,135.8,46.5z"/>
					<path class="st17" d="M139.7,52.4c-3-1.9-4.8-4.5-4-5.9c0,0,0,0,0,0c0,0,0,0,0-0.1c0.9-1.3,4-0.9,7,0.9c3,1.9,4.7,4.5,4,5.9
						c0,0,0,0,0,0.1c0,0,0,0.1-0.1,0.1C145.8,54.6,142.7,54.2,139.7,52.4z"/>
					<path class="st16" d="M140.4,51.4c-1.2-0.8-2-1.8-1.7-2.3c0,0,0,0,0,0c0,0,0,0,0,0c0.3-0.5,1.6-0.3,2.8,0.5
						c1.2,0.8,2,1.8,1.7,2.3c0,0,0,0,0,0c0,0,0,0,0,0C142.8,52.4,141.6,52.1,140.4,51.4z"/>
				</g>
			</g>
		</g>
		<g>
			<path class="st3" d="M26.1,132.1c-1.6,0.6-2.1,1.1-2.7,2.7c-0.6-1.6-1.1-2.1-2.7-2.7c1.6-0.6,2.1-1.1,2.7-2.7
				C24.1,131,24.5,131.5,26.1,132.1z"/>
			<path class="st3" d="M140.5,123.4c-2.1,0.8-2.7,1.4-3.4,3.4c-0.8-2.1-1.4-2.7-3.4-3.4c2.1-0.8,2.7-1.4,3.4-3.4
				C137.8,122,138.4,122.6,140.5,123.4z"/>
			<path class="st3" d="M111.9,40.5c-1.9,0.7-2.5,1.3-3.2,3.2c-0.7-1.9-1.3-2.5-3.2-3.2c1.9-0.7,2.5-1.3,3.2-3.2
				C109.4,39.2,110,39.8,111.9,40.5z"/>
		</g>
		<g>
			<g>
				<path class="st11" d="M103.4,176.7c0,2.9-2.4,5.3-5.3,5.3c-1.2,0-2.2-0.4-3.1-1c-1.3-1-2.2-2.5-2.2-4.3c0-2.9,2.4-5.3,5.3-5.3
					c0.2,0,0.4,0,0.6,0C101.4,171.7,103.4,174,103.4,176.7z"/>
				<path class="st14" d="M103.4,176.7c0,2.9-2.4,5.3-5.3,5.3c-1.2,0-2.2-0.4-3.1-1c1.5,0.1,3.1-0.4,4.3-1.4
					c1.7-1.5,2.3-4.1,1.4-6.1c-0.4-0.9-1.1-1.6-1.9-2.2C101.4,171.7,103.4,174,103.4,176.7z"/>
				<g>
					<path class="st18" d="M93.5,175.8c0.1-0.6,0.5-1.1,0.9-1.1c0.4,0,0.7,0.6,0.6,1.2c-0.1,0.6-0.5,1.1-0.9,1.1
						C93.6,177,93.4,176.4,93.5,175.8z"/>
					<path class="st18" d="M94.7,173.7c0.2-0.3,0.6-0.5,0.8-0.4c0.2,0.1,0.3,0.5,0.1,0.8c-0.2,0.3-0.6,0.5-0.8,0.4
						C94.5,174.4,94.4,174,94.7,173.7z"/>
				</g>
			</g>
			<g>
				<path class="st15" d="M176.1,136.6c-2.2,2-5.5,1.9-7.6-0.3c-0.8-0.8-1.2-1.9-1.4-3c-0.2-1.7,0.3-3.4,1.7-4.6
					c2.2-2,5.5-1.9,7.6,0.3c0.1,0.2,0.3,0.3,0.4,0.5C178.3,131.7,178.1,134.8,176.1,136.6z"/>
				<path class="st16" d="M176.1,136.6c-2.2,2-5.5,1.9-7.6-0.3c-0.8-0.8-1.2-1.9-1.4-3c1,1.2,2.4,2.1,3.9,2.2
					c2.2,0.2,4.5-1.1,5.4-3.1c0.4-0.9,0.5-1.9,0.3-2.9C178.3,131.7,178.1,134.8,176.1,136.6z"/>
				<g>
					<path class="st19" d="M169.9,128.7c0.5-0.4,1.2-0.4,1.4,0c0.3,0.3,0.1,0.9-0.4,1.3c-0.5,0.4-1.2,0.4-1.4,0
						C169.2,129.6,169.4,129.1,169.9,128.7z"/>
					<path class="st19" d="M172.3,128.1c0.4-0.1,0.8,0.1,0.9,0.3c0.1,0.3-0.2,0.5-0.6,0.6c-0.4,0.1-0.8-0.1-0.9-0.3
						C171.7,128.4,171.9,128.2,172.3,128.1z"/>
				</g>
			</g>
			<g>
				<path class="st7" d="M94.2,29.6c-2.2,2-5.5,1.9-7.5-0.3c-0.8-0.8-1.2-1.9-1.4-2.9c-0.2-1.6,0.3-3.4,1.7-4.6
					c2.2-2,5.5-1.9,7.5,0.3c0.1,0.2,0.3,0.3,0.4,0.5C96.4,24.7,96.2,27.7,94.2,29.6z"/>
				<path class="st10" d="M94.2,29.6c-2.2,2-5.5,1.9-7.5-0.3c-0.8-0.8-1.2-1.9-1.4-2.9c1,1.2,2.4,2,3.9,2.2c2.2,0.2,4.5-1.1,5.4-3.1
					c0.4-0.9,0.5-1.9,0.3-2.9C96.4,24.7,96.2,27.7,94.2,29.6z"/>
				<g>
					<path class="st18" d="M88.1,21.6c0.5-0.4,1.2-0.4,1.4,0c0.3,0.3,0.1,0.9-0.4,1.2s-1.2,0.4-1.4,0C87.4,22.6,87.6,22,88.1,21.6z"
						/>
					<path class="st18" d="M90.5,21.1c0.4-0.1,0.8,0.1,0.9,0.3c0.1,0.3-0.2,0.5-0.6,0.6c-0.4,0.1-0.8-0.1-0.9-0.3
						C89.8,21.4,90.1,21.1,90.5,21.1z"/>
				</g>
			</g>
		</g>
		<g>
			<defs>
				<circle id="SVGID_5_" cx="99.2" cy="99.2" r="97.8"/>
			</defs>
			<clipPath id="SVGID_6_">
				<use xlink:href="#SVGID_5_"  style="overflow:visible;"/>
			</clipPath>
			<g class="st20">
				<g>
					<g>
						<rect x="-7.9" y="143.2" class="st21" width="212" height="50.8"/>
						<g>
							<path class="st22" d="M202.2,152.1H196c-0.5,0-0.9-0.4-0.9-0.9v-6c0-0.5,0.4-0.9,0.9-0.9h6.2c0.5,0,0.9,0.4,0.9,0.9v6
								C203.1,151.7,202.7,152.1,202.2,152.1z"/>
							<path class="st3" d="M193,152.1h-6.2c-0.5,0-0.9-0.4-0.9-0.9v-6c0-0.5,0.4-0.9,0.9-0.9h6.2c0.5,0,0.9,0.4,0.9,0.9v6
								C193.9,151.7,193.5,152.1,193,152.1z"/>
							<path class="st22" d="M183.8,152.1h-6.2c-0.5,0-0.9-0.4-0.9-0.9v-6c0-0.5,0.4-0.9,0.9-0.9h6.2c0.5,0,0.9,0.4,0.9,0.9v6
								C184.7,151.7,184.3,152.1,183.8,152.1z"/>
							<path class="st22" d="M174.6,152.1h-6.2c-0.5,0-0.9-0.4-0.9-0.9v-6c0-0.5,0.4-0.9,0.9-0.9h6.2c0.5,0,0.9,0.4,0.9,0.9v6
								C175.5,151.7,175.1,152.1,174.6,152.1z"/>
							<path class="st3" d="M165.4,152.1h-6.2c-0.5,0-0.9-0.4-0.9-0.9v-6c0-0.5,0.4-0.9,0.9-0.9h6.2c0.5,0,0.9,0.4,0.9,0.9v6
								C166.3,151.7,165.9,152.1,165.4,152.1z"/>
							<path class="st22" d="M156.3,152.1h-6.2c-0.5,0-0.9-0.4-0.9-0.9v-6c0-0.5,0.4-0.9,0.9-0.9h6.2c0.5,0,0.9,0.4,0.9,0.9v6
								C157.2,151.7,156.8,152.1,156.3,152.1z"/>
							<path class="st22" d="M147.1,152.1h-6.2c-0.5,0-0.9-0.4-0.9-0.9v-6c0-0.5,0.4-0.9,0.9-0.9h6.2c0.5,0,0.9,0.4,0.9,0.9v6
								C148,151.7,147.6,152.1,147.1,152.1z"/>
							<path class="st22" d="M137.9,152.1h-6.2c-0.5,0-0.9-0.4-0.9-0.9v-6c0-0.5,0.4-0.9,0.9-0.9h6.2c0.5,0,0.9,0.4,0.9,0.9v6
								C138.8,151.7,138.4,152.1,137.9,152.1z"/>
							<path class="st22" d="M128.7,152.1h-6.2c-0.5,0-0.9-0.4-0.9-0.9v-6c0-0.5,0.4-0.9,0.9-0.9h6.2c0.5,0,0.9,0.4,0.9,0.9v6
								C129.6,151.7,129.2,152.1,128.7,152.1z"/>
							<path class="st3" d="M119.5,152.1h-6.2c-0.5,0-0.9-0.4-0.9-0.9v-6c0-0.5,0.4-0.9,0.9-0.9h6.2c0.5,0,0.9,0.4,0.9,0.9v6
								C120.4,151.7,120,152.1,119.5,152.1z"/>
							<path class="st22" d="M110.4,152.1h-6.2c-0.5,0-0.9-0.4-0.9-0.9v-6c0-0.5,0.4-0.9,0.9-0.9h6.2c0.5,0,0.9,0.4,0.9,0.9v6
								C111.3,151.7,110.9,152.1,110.4,152.1z"/>
							<path class="st3" d="M101.2,152.1H95c-0.5,0-0.9-0.4-0.9-0.9v-6c0-0.5,0.4-0.9,0.9-0.9h6.2c0.5,0,0.9,0.4,0.9,0.9v6
								C102.1,151.7,101.7,152.1,101.2,152.1z"/>
							<path class="st22" d="M92,152.1h-6.2c-0.5,0-0.9-0.4-0.9-0.9v-6c0-0.5,0.4-0.9,0.9-0.9H92c0.5,0,0.9,0.4,0.9,0.9v6
								C92.9,151.7,92.5,152.1,92,152.1z"/>
							<path class="st3" d="M82.8,152.1h-6.2c-0.5,0-0.9-0.4-0.9-0.9v-6c0-0.5,0.4-0.9,0.9-0.9h6.2c0.5,0,0.9,0.4,0.9,0.9v6
								C83.7,151.7,83.3,152.1,82.8,152.1z"/>
							<path class="st22" d="M73.6,152.1h-6.2c-0.5,0-0.9-0.4-0.9-0.9v-6c0-0.5,0.4-0.9,0.9-0.9h6.2c0.5,0,0.9,0.4,0.9,0.9v6
								C74.6,151.7,74.1,152.1,73.6,152.1z"/>
							<path class="st22" d="M64.5,152.1h-6.2c-0.5,0-0.9-0.4-0.9-0.9v-6c0-0.5,0.4-0.9,0.9-0.9h6.2c0.5,0,0.9,0.4,0.9,0.9v6
								C65.4,151.7,65,152.1,64.5,152.1z"/>
							<path class="st22" d="M55.3,152.1h-6.2c-0.5,0-0.9-0.4-0.9-0.9v-6c0-0.5,0.4-0.9,0.9-0.9h6.2c0.5,0,0.9,0.4,0.9,0.9v6
								C56.2,151.7,55.8,152.1,55.3,152.1z"/>
							<path class="st22" d="M46.1,152.1h-6.2c-0.5,0-0.9-0.4-0.9-0.9v-6c0-0.5,0.4-0.9,0.9-0.9h6.2c0.5,0,0.9,0.4,0.9,0.9v6
								C47,151.7,46.6,152.1,46.1,152.1z"/>
							<path class="st22" d="M36.9,152.1h-6.2c-0.5,0-0.9-0.4-0.9-0.9v-6c0-0.5,0.4-0.9,0.9-0.9h6.2c0.5,0,0.9,0.4,0.9,0.9v6
								C37.8,151.7,37.4,152.1,36.9,152.1z"/>
							<path class="st3" d="M27.8,152.1h-6.2c-0.5,0-0.9-0.4-0.9-0.9v-6c0-0.5,0.4-0.9,0.9-0.9h6.2c0.5,0,0.9,0.4,0.9,0.9v6
								C28.7,151.7,28.3,152.1,27.8,152.1z"/>
							<path class="st22" d="M18.6,152.1h-6.2c-0.5,0-0.9-0.4-0.9-0.9v-6c0-0.5,0.4-0.9,0.9-0.9h6.2c0.5,0,0.9,0.4,0.9,0.9v6
								C19.5,151.7,19.1,152.1,18.6,152.1z"/>
							<path class="st22" d="M9.4,152.1H3.2c-0.5,0-0.9-0.4-0.9-0.9v-6c0-0.5,0.4-0.9,0.9-0.9h6.2c0.5,0,0.9,0.4,0.9,0.9v6
								C10.3,151.7,9.9,152.1,9.4,152.1z"/>
							<path class="st3" d="M0.2,152.1h-6.2c-0.5,0-0.9-0.4-0.9-0.9v-6c0-0.5,0.4-0.9,0.9-0.9h6.2c0.5,0,0.9,0.4,0.9,0.9v6
								C1.1,151.7,0.7,152.1,0.2,152.1z"/>
						</g>
					</g>
					<rect x="-7.9" y="153.4" class="st23" width="212" height="48.8"/>
					<g class="st24">
						<defs>
							<rect id="SVGID_7_" x="-7.9" y="153.4" class="st24" width="212" height="48.8"/>
						</defs>
						<clipPath id="SVGID_8_">
							<use xlink:href="#SVGID_7_"  style="overflow:visible;"/>
						</clipPath>
						<g class="st25">
							<g>
								<line class="st26" x1="-7.9" y1="156.9" x2="204.1" y2="156.9"/>
								<line class="st26" x1="-7.9" y1="163.3" x2="204.1" y2="163.3"/>
								<line class="st26" x1="-7.9" y1="169.7" x2="204.1" y2="169.7"/>
								<line class="st26" x1="-7.9" y1="176.1" x2="204.1" y2="176.1"/>
								<line class="st26" x1="-7.9" y1="182.5" x2="204.1" y2="182.5"/>
								<line class="st26" x1="-7.9" y1="188.8" x2="204.1" y2="188.8"/>
								<line class="st26" x1="-7.9" y1="195.2" x2="204.1" y2="195.2"/>
								<line class="st26" x1="-7.9" y1="201.6" x2="204.1" y2="201.6"/>
							</g>
							<g>
								<path class="st27" d="M-3.8,201.8c-0.1-16.1-0.1-32.4,0-48.4"/>
								<path class="st27" d="M2.6,201.8c0-16.1,0-32.4,0-48.4"/>
								<path class="st27" d="M9,201.8c-0.1-16.1-0.1-32.4,0-48.4"/>
								<path class="st27" d="M15.4,201.8c0-16.1,0-32.4,0-48.4"/>
								<path class="st27" d="M21.8,201.8c0.1-16.1,0.1-32.4,0-48.4"/>
								<path class="st27" d="M28.1,201.8c0-16.1,0-32.4,0-48.4"/>
								<path class="st27" d="M34.5,201.8c0.1-16.1,0.1-32.4,0-48.4"/>
								<path class="st27" d="M40.9,201.8c0-16.1,0-32.4,0-48.4"/>
								<path class="st27" d="M47.3,201.8c0.1-16.1,0.1-32.4,0-48.4"/>
								<path class="st27" d="M53.7,201.8c0-16.1,0-32.4,0-48.4"/>
								<path class="st27" d="M60.1,201.8c0.1-16.1,0.1-32.4,0-48.4"/>
								<path class="st27" d="M66.5,201.8c-0.1-16.1-0.1-32.4,0-48.4"/>
								<path class="st27" d="M72.9,201.8c0-16.1,0-32.4,0-48.4"/>
								<path class="st27" d="M79.2,201.8c-0.1-16.1-0.1-32.4,0-48.4"/>
								<path class="st27" d="M85.6,201.8c0-16.1,0-32.4,0-48.4"/>
								<path class="st27" d="M92,201.8c-0.1-16.1-0.1-32.4,0-48.4"/>
								<path class="st27" d="M98.4,201.8c0-16.1,0-32.4,0-48.4"/>
								<path class="st27" d="M104.8,201.8c-0.1-16.1-0.1-32.4,0-48.4"/>
								<path class="st27" d="M111.2,201.8c0-16.1,0-32.4,0-48.4"/>
								<path class="st27" d="M117.6,201.8c0.1-16.1,0.1-32.4,0-48.4"/>
								<path class="st27" d="M123.9,201.8c0-16.1,0-32.4,0-48.4"/>
								<path class="st27" d="M130.3,201.8c0.1-16.1,0.1-32.4,0-48.4"/>
								<path class="st27" d="M136.7,201.8c0-16.1,0-32.4,0-48.4"/>
								<path class="st27" d="M143.1,201.8c0.1-16.1,0.1-32.4,0-48.4"/>
								<path class="st27" d="M148.9,201.8c0-16.1,0-32.4,0-48.4"/>
								<path class="st27" d="M155.3,201.8c0-16.1,0-32.4,0-48.4"/>
								<path class="st27" d="M161.7,201.8c-0.1-16.1-0.1-32.4,0-48.4"/>
								<path class="st27" d="M168.1,201.8c0-16.1,0-32.4,0-48.4"/>
								<path class="st27" d="M174.4,201.8c-0.1-16.1-0.1-32.4,0-48.4"/>
								<path class="st27" d="M180.8,201.8c0-16.1,0-32.4,0-48.4"/>
								<path class="st27" d="M187.2,201.8c-0.1-16.1-0.1-32.4,0-48.4"/>
								<path class="st27" d="M193.6,201.8c0-16.1,0-32.4,0-48.4"/>
								<path class="st27" d="M200,201.8c0.1-16.1,0.1-32.4,0-48.4"/>
							</g>
						</g>
					</g>
					<g class="st28">
						<defs>
							<rect id="SVGID_9_" x="-7.9" y="153.4" class="st28" width="212" height="48.8"/>
						</defs>
						<clipPath id="SVGID_10_">
							<use xlink:href="#SVGID_9_"  style="overflow:visible;"/>
						</clipPath>
						<path class="st29" d="M7.2,202.2c9.5,0.5,19.6,1.1,24.5,2.7c2.3,0.8,3.8,2.2,4,3.7h54.5c3.8-1,10.4-1.7,15.4-2.6
							c7.1-1.2,11.4-3,19-4c8.1-1.1,18.5-1.2,28.2-1.5c8.2-0.2,25.9-2.6,31.7-1.5c9.3,1.7-3.9,6.2-8.6,7.9c-1.6,0.6-3.2,1.2-4.9,1.7
							h21.8c-2.3-1.1-2.7-2.3-2.9-3.5c-0.1-0.7-0.2-1.4,1.9-2c3.7-1,11.7-0.8,18.1-0.5c2.1,0.1,4.3,0.2,6.4,0.3v-3.1
							c-2.2,0.1-4.5,0.2-7,0.2c-1.4,0-2.9,0-4-0.2c-1-0.1-1.7-0.3-2.3-0.4c-2.1-0.5-4-1-7.1-1.4c-1.7-0.2-3.7-0.4-5.5-0.5
							c-6.9-0.7-11.4-1.8-11.7-3c-0.2-0.8,1.5-1.5,4.5-2.2c1-0.6,2.8-1.1,6.5-1.3c2.9-0.2,6.3-0.2,9.5-0.1c5.7,0.1,11.5,0.2,17,0.4
							v-2.8c-11.9,0.4-32.6,0-41.1-1.2c-4.6-0.7-6.9-1.7-4.9-2.5c1.5-0.6,5.2-1.2,8.7-1.6c7.2-1,14.8-2,24.6-2.3
							c4.1-0.1,8.4-0.2,12.7-0.1v-1.4c-5.6,0-11.3,0.1-16.4,0.4c-3.1,0.2-5.9,0.4-9,0.6c-2.1-0.5-3.3-1.1-6.3-1.6
							c-3.1-0.5-6.8-1-7.8-1.7c-0.9-0.6,0.8-1.2,3.4-1.7c2.7-0.5,6.2-0.9,9.7-1.2c5.5-0.6,11-1.2,17.6-1.5c2.8-0.1,5.8-0.2,8.8-0.2
							v-1.7c-3.9,0.3-8.6,0.3-12.1,0.1c-6.4-0.4-7.7-1.5-11-2.2c-3.3-0.7-8.9-1.2-12-2c-2.8-0.7-3.1-1.5-3.2-2.2
							c-0.1-0.4,0-0.8,1.7-1.1c3.1-0.6,9.5-0.5,14.6-0.3c8,0.3,16.6,0.6,22.1,1.4v-11H-12.7v0.6c1.3-0.1,3.5-0.2,7.1-0.2
							c9.6-0.1,18.1,0.4,26.1,0.9c1,0.1,2,0.1,2.7,0.2c1.8,0.3,0.4,0.8-2.2,1.1c-2.6,0.3-6.1,0.4-9.3,0.5c-3.6,0.1-7.3,0.1-10.8,0.1
							c-2.4,0-4.8,0-6.7-0.2c-2.5-0.2-3.7-0.6-4.8-0.9c-0.7-0.2-1.4-0.4-2-0.6v2.2c7.4-0.3,16.5,0.1,23.1,0.2c2.3,0,4.7,0.1,6.6,0.2
							c2,0.1,3.6,0.4,3.7,0.7c0.1,0.5-3.9,1-7.7,1.4c-5.4,0.5-16.5,1.3-25.7,1.5v1c4.7-0.2,9.6-0.3,14.3-0.4
							c6.2-0.1,21.1-1.5,24.6-0.8c5.5,1-7.6,3.4-12.3,4.3c-5.6,1.1-11.7,2.3-20.2,3c-2.1,0.2-4.2,0.3-6.3,0.4v0.6
							c8.1-0.4,16.6-0.4,24.5-0.3c4.5,0.1,9.2,0.1,12.8,0.5c3.6,0.3,6,1,4.6,1.7c-2,1-9.7,1.6-15.4,2.3c-6.3,0.8-10.7,1.9-17.6,2.7
							c-2.8,0.3-5.8,0.5-8.9,0.6v1.3c9.7-0.3,17.9,0,18.5,1.6c0.5,1.2-6.7,2.8-13.3,3.6c-1.6,0.2-3.4,0.3-5.3,0.4v3.4
							c2.4,0.9,4.2,1.6,0,2v9.8c1.5,0.5,1.3,1.2,0,1.9v2.4c0.4-0.1,0.9-0.2,1.4-0.3C-6.3,201.8,1.3,201.9,7.2,202.2z M105.1,203.5
							c-3.2,0.7-7.2,1.3-11.3,1.8c-6.5,0.9-13.2,1.9-20.8,2.4c-7.7,0.5-16.6,0.4-21.3-0.7c-4.1-0.9-4.2-2.3-3.3-3.6
							c0.9-1.3,2.5-2.5,1.4-3.7c-1-1-4-2-1.4-3c0.6-0.2,1.7-0.4,2.9-0.5c1.1,0,1.9,0.1,2.6,0.2c8.8,1.4,22.7,1.7,34.8,0.8
							c3.1-0.2,6.1-0.5,9.2-0.7c1.6,0.7,2.3,1.5,5,2.1c2.8,0.7,6.2,1.4,6.8,2.3C110.4,201.9,108.3,202.8,105.1,203.5z M85.2,187.4
							c9.8-0.4,26.2,0,32.6,1.2c3.5,0.7,5.1,1.7,3.1,2.7c-1.5,0.7-4.9,1.3-8.1,1.8c-6.8,1.1-14.2,2.3-23.3,2.8
							c-4.1,0.2-8.3,0.2-12.4,0.2c-3,0-6.1-0.1-8.8-0.3c-5.7-0.5-8.2-1.7-7.5-2.8C61.9,190.9,73.2,188,85.2,187.4z M76.5,180.9
							c0.9-0.3,2.2-0.6,3.5-0.8c4.7-0.9,10.8-1.8,17.5-1.7c0.9,0,1.9,0,2.6,0.1c0.6,0.1,1,0.2,1.3,0.3c1.1,0.4,2.1,0.8,4,1.1
							c1.1,0.2,2.4,0.3,3.5,0.4c4.5,0.5,7.2,1.5,7,2.5c-0.2,0.7-1.7,1.4-4.2,1.9c-1,0.5-2.6,1-5.5,1.2c-2.3,0.2-4.8,0.2-7.3,0.1
							c-4.6-0.1-9.1-0.2-13.2-0.4c-4.1-0.3-7.7-0.8-9.3-1.4c-1.2-0.5-1.3-1-1.3-1.6C75,182,74.9,181.4,76.5,180.9z M164.4,196.8
							c-12,1.7-50,5-54.9,0.4c-1.6-1.5,4.9-3.4,11.3-4.4c9.1-1.3,25.2-0.3,35.9-0.1c3.2,0.1,6.4,0.1,9.3,0.4
							c2.9,0.2,5.5,0.7,6.2,1.2C173.3,195.3,168.7,196.2,164.4,196.8z M163.3,189.6c-12.9,0.1-25.2-0.8-36.5-1.6
							c-1.4-0.1-2.8-0.2-3.8-0.4c-2.7-0.5-1.6-1.4,1.4-1.9c3-0.5,7.2-0.7,11.2-0.8c4.5-0.1,9.1-0.2,13.6-0.2c3.1,0,6.2,0.1,8.9,0.3
							c3.6,0.3,5.9,0.9,8.1,1.5C172.6,188.2,180.8,189.4,163.3,189.6z M178.4,179.8c2.1,1.2-3.1,2.8-8.7,3.6
							c-8.2,1.2-23.6,0.3-33.6,0.1c-2.9-0.1-5.9-0.1-8.6-0.3c-2.6-0.2-4.9-0.6-5.3-1c-0.8-0.8,3.6-1.5,7.6-2
							C140.5,178.8,172.5,176.4,178.4,179.8z M183.9,169.5c4.1,0.3,7.4,1,6.9,1.7c-0.7,1-7.8,1.6-12.6,2.3c-5.3,0.8-8.3,2-14.3,2.7
							c-6.6,0.8-15.4,0.9-23.6,1.1c-7,0.2-22.8,1.9-27.4,1.1c-7.1-1.3,5.4-4.3,9.7-5.3c4.9-1.2,9.9-2.5,17.8-3.3
							c8.8-0.8,19.7-0.9,29.9-0.7C175,169.1,179.8,169.2,183.9,169.5z M121.2,169.1c-4.6-0.1-9.4-0.1-13.2-0.5
							c-3.8-0.3-6.6-1-5.6-1.7c1.3-0.9,8.3-1.4,13.1-2.1c5.2-0.7,8.4-1.6,14-2.2c6-0.6,13.8-0.7,21-0.9c6.1-0.1,19.4-1.5,23.7-0.9
							c6.8,1-3.2,3.4-6.8,4.4c-4.2,1.1-8.8,2.3-16.5,3C142.2,169.2,131.3,169.2,121.2,169.1z M173.6,156.6c0.8-0.3,2.2-0.6,5-0.8
							c2.2-0.1,4.7-0.1,7.2-0.1c4.6,0,9.2,0.1,13.5,0.3c4.3,0.2,8.4,0.5,10.6,0.9c1.7,0.3,2.3,0.7,2.9,1c0.6,0.4,1.3,0.8,0.2,1.1
							c-0.6,0.2-1.8,0.4-3,0.6c-4.3,0.6-10.1,1.3-17.6,1.3c-1,0-2.1,0-3-0.1c-0.7-0.1-1.2-0.1-1.6-0.2c-1.5-0.3-2.8-0.6-5.1-0.8
							c-1.2-0.1-2.7-0.2-4-0.3c-5.1-0.4-8.3-1-8.5-1.7C170,157.4,171.3,157,173.6,156.6z M159.3,159.7c-9,1-37.4,2.8-41.2,0.3
							c-1.3-0.8,3.6-2,8.3-2.5c6.9-0.8,19.1-0.2,27.2-0.1c2.4,0,4.8,0.1,7,0.2c2.2,0.1,4.1,0.4,4.6,0.7
							C166,158.8,162.6,159.3,159.3,159.7z M132.7,153.8c9.6-0.1,18.9,0.4,27.6,0.9c1.1,0.1,2.2,0.1,3,0.2c2.2,0.3,1.5,0.8-0.7,1.1
							c-2.3,0.3-5.6,0.4-8.8,0.5c-3.6,0.1-7.2,0.1-10.8,0.1c-2.4,0-4.9,0-7.1-0.2c-2.8-0.2-4.5-0.6-6.1-0.9
							C125.4,154.5,119.6,153.8,132.7,153.8z M81,157.6c0.7-1.2,9-2.9,18.1-3.2c7.4-0.3,20,0,24.9,0.7c2.7,0.4,3.9,1,2.4,1.5
							c-1.1,0.4-3.7,0.7-6.1,1.1c-5.1,0.7-10.6,1.3-17.4,1.6c-3.1,0.1-6.2,0.1-9.3,0.1c-2.3,0-4.6,0-6.6-0.2
							C82.7,158.9,80.6,158.2,81,157.6z M72.2,159.8c0.4-0.1,1.2-0.2,2.1-0.3c0.8,0,1.4,0.1,2,0.1c6.8,0.8,17.3,0.9,26.2,0.4
							c2.3-0.1,4.5-0.3,6.9-0.4c1.2,0.4,1.8,0.8,3.8,1.2c2.1,0.4,4.7,0.8,5.2,1.3c0.5,0.5-1.1,1-3.4,1.4c-2.3,0.4-5.3,0.7-8.3,1
							c-4.8,0.5-9.6,1-15.2,1.3c-5.6,0.3-12.2,0.2-15.8-0.4c-3.1-0.5-3.3-1.3-2.8-2c0.5-0.7,1.6-1.4,0.6-2.1
							C72.7,160.9,70.3,160.3,72.2,159.8z M73.6,168.3c3.8-0.7,12.6-1.2,17.6-0.8c5.4,0.4,5.7,1.4,8.2,2.2c2.5,0.8,7.5,1.3,9.9,2.1
							c2.3,0.7,2.1,1.6,1.8,2.5c-0.2,0.5-0.5,0.9-2.4,1.3c-3.5,0.7-10,0.6-15.1,0.3c-8.1-0.3-16.6-0.8-21-1.8
							C67.7,172.9,66.6,169.5,73.6,168.3z M26.1,157.8c0.5-0.4,2.1-0.9,4.4-1.2c1-0.3,2.5-0.6,4.9-0.8c1.8-0.1,3.8-0.1,5.7-0.1
							c3.5,0,7.1,0.1,10.2,0.3c3.2,0.2,5.9,0.5,7.1,0.9c0.9,0.3,0.9,0.7,0.9,1c0,0.4,0,0.8-1.3,1.1c-0.8,0.2-1.9,0.4-3.1,0.6
							c-4.2,0.6-9.6,1.3-15.4,1.3c-0.8,0-1.6,0-2.2-0.1c-0.5-0.1-0.7-0.1-1-0.2c-0.8-0.3-1.5-0.6-2.9-0.8c-0.8-0.1-1.9-0.2-2.8-0.3
							C27.1,159.1,25.4,158.5,26.1,157.8z M25.5,166.5c-1.7-0.7-0.9-1.5-0.1-2.2c0.4-0.4,1-0.8,2.9-1.1c3.5-0.5,9.2-0.5,13.7-0.3
							c7.2,0.3,14.8,0.6,18.6,1.5c4.5,1,5.5,4.1-1.6,5.4c-4,0.7-13.1,1.2-18.1,0.9c-5.3-0.4-5.1-1.5-7.2-2.2
							C31.8,167.7,27.3,167.2,25.5,166.5z M13,175.1c2.9-0.5,6.4-0.8,9.8-1.2c5.5-0.6,11-1.2,17-1.5c6-0.3,12.9-0.2,16.6,0.4
							c3.3,0.6,3.4,1.5,2.7,2.3c-0.7,0.9-2,1.7-0.9,2.6c0.9,0.7,3.6,1.5,1.4,2.3c-0.5,0.2-1.4,0.3-2.6,0.4c-1,0-1.7-0.1-2.4-0.2
							c-7.7-1.1-19.8-1.3-30.6-0.6c-2.8,0.2-5.6,0.4-8.5,0.6c-1.1-0.5-1.3-1.1-3.3-1.6c-2-0.5-4.5-1-4.5-1.7
							C7.8,176.2,10,175.6,13,175.1z M-8.8,184.5c2.1-0.6,5.6-1.1,9-1.6c7-1,14.4-2,22.6-2.3c3.7-0.2,7.5-0.2,11.1-0.1
							c2.7,0,5.5,0.1,7.8,0.2c5,0.4,7.3,1.4,6.6,2.4c-1.3,1.9-12.8,4.6-25.1,5.2c-10.1,0.5-26.2,0-31.5-1.2
							C-11,186.4-11.5,185.4-8.8,184.5z M-11.8,193.3c0.8-0.8,3.1-1.5,6.3-2.2c1.5-0.6,3.6-1.1,6.7-1.3c2.5-0.2,5.1-0.2,7.5-0.1
							c4.6,0.1,9.3,0.2,13.3,0.5c4.1,0.3,7.6,0.8,9.1,1.6c1.1,0.5,1,1.2,0.9,1.8c-0.1,0.7-0.3,1.4-2.2,2c-1.1,0.4-2.7,0.7-4.3,1
							c-5.8,1.1-13.3,2.3-21,2.2c-1.1,0-2.2,0-2.9-0.2c-0.6-0.1-0.9-0.3-1.2-0.4c-0.9-0.5-1.7-1-3.6-1.4c-1-0.2-2.4-0.4-3.5-0.5
							C-11.1,195.5-13,194.4-11.8,193.3z"/>
					</g>
				</g>
			</g>
			<g class="st20">
				<g>
					<path class="st30" d="M74.2,117.7L56,111.9l1.5-10L59.3,90c0,0,5.5,0.3,10.2,2.3c3.1,1.4,5.9,3.5,6.4,6.9
						C77.3,107.8,74.2,117.7,74.2,117.7z"/>
					<path class="st31" d="M74.2,117.7L56,111.9l1.5-10L59.3,90c0,0,5.5,0.3,10.2,2.3c3.1,1.4,5.9,3.5,6.4,6.9
						C77.3,107.8,74.2,117.7,74.2,117.7z"/>
				</g>
				<g>
					<g>
						<path class="st30" d="M88.4,214.9H62.7l-2.4-19.1l-0.6-5.1c0,0,0.3-4,1-9.5c0.6-4.4,1.4-9.8,2.5-14.8
							c2.8-12.4,7.6-22.9,15.2-12.2c0.7,1,1.4,2.1,2,3.1c2.7,4.6,4.6,9.7,5.9,15C91.4,192.6,88.4,214.9,88.4,214.9z"/>
						<g>
							<path class="st31" d="M86.6,182.2c0.3,2.3-0.1,4.3-0.9,4.4c-0.9,0.1-1.8-1.6-2.2-4c-0.3-2.3,0.1-4.3,0.9-4.4
								S86.2,179.9,86.6,182.2z"/>
							<path class="st31" d="M87.3,190.8c0.1,1.5-0.2,2.7-0.7,2.8c-0.5,0.1-1.1-1.1-1.3-2.6c-0.1-1.5,0.2-2.7,0.7-2.8
								C86.6,188.2,87.1,189.3,87.3,190.8z"/>
						</g>
						<path class="st31" d="M80.1,160.1c0.3,4.5-0.2,8.9-2,13c-0.5,1.1-1,2.1-1.5,3.1c-0.9,1.6-1.9,3.2-2.8,4.8
							c-0.5,0.9-1.1,1.9-1.5,2.8c-3.8,7.7-4.3,17-1.5,25.1c0.7,2.1,1.7,4.1,3.1,5.9H62.7l-2.4-19.1l-0.6-5.1c0,0,0.3-4,1-9.5
							c0.6-4.4,1.4-9.8,2.5-14.8c2.8-12.4,7.6-22.9,15.2-12.2c0.7,1,1.4,2.1,2,3.1C80.2,158.3,80.1,159.2,80.1,160.1z"/>
						<g>
							<g>
								<g>
									<g>
										<path class="st32" d="M77.3,175.7c0,0-0.1,0.2-0.3,0.6c-0.2,0.3-0.4,0.8-0.7,1.3c-0.6,1-1.4,2.1-1.8,2.6
											c-0.4,0.6-1.4,1.8-2.4,2.8c-0.5,0.5-0.9,1-1.3,1.3c-0.4,0.3-0.6,0.5-0.6,0.5c0,0,0.2-0.2,0.5-0.6c0.3-0.4,0.8-0.9,1.2-1.4
											c0.9-1.1,1.9-2.3,2.3-2.9c0.4-0.6,1.2-1.6,1.8-2.6c0.3-0.5,0.6-0.9,0.8-1.2C77.2,175.9,77.3,175.7,77.3,175.7z"/>
									</g>
								</g>
							</g>
						</g>
					</g>
					<g>
						<path class="st30" d="M63.7,180.4c-0.1,3.6-0.5,7-1.3,9.5c-0.6,1.8-1.3,3.8-2.1,5.9c-3.3,8.8-7.8,19.1-7.8,19.1H27.7
							c-1.4-41.9,11.1-58.3,11.1-58.3c1-0.9,2.3-1.4,3.7-1.7c1.5-0.3,3.1-0.2,4.8,0c7.1,1,15.1,5.6,15.1,5.6s0.4,2.4,0.7,6
							C63.5,170.3,63.8,175.6,63.7,180.4z"/>
						<g>
							<g>
								<g>
									<g>
										<path class="st32" d="M54.9,209.9c0,0,0-0.1,0.1-0.3c0.1-0.2,0.2-0.5,0.3-0.8c0.3-0.7,0.6-1.6,1-2.6
											c0.7-2,1.6-4.3,2.1-5.5c0.4-1.2,1.5-3.9,2.3-6.4c0.4-1.2,0.8-2.4,1.1-3.2c0.1-0.4,0.3-0.8,0.4-1c0.1-0.2,0.1-0.4,0.1-0.4
											c0,0,0,0.1-0.1,0.4c-0.1,0.2-0.2,0.6-0.3,1c-0.3,0.9-0.7,2-1.1,3.3c-0.8,2.5-1.8,5.2-2.3,6.4c-0.4,1.2-1.3,3.5-2.1,5.4
											c-0.4,1-0.8,1.9-1.1,2.5c-0.1,0.3-0.3,0.6-0.3,0.8C54.9,209.8,54.9,209.9,54.9,209.9z"/>
									</g>
								</g>
							</g>
						</g>
						<path class="st31" d="M57.4,195c-0.4,1.7-1.3,3-2,2.8c-0.7-0.2-0.8-1.7-0.4-3.4c0.4-1.7,1.3-3,2-2.8
							C57.7,191.8,57.9,193.3,57.4,195z"/>
						<path class="st31" d="M55.4,167.4c-2-0.9-3.7-2.2-6.1-1.7c-2.9,0.6-5.1,3-6.2,5.8c-1.1,2.7-1.4,5.7-1.6,8.6
							c-0.7,9-1.4,17.9-2.2,26.9c-0.2,2.6-0.5,5.4-1.1,7.9H27.7c-1.4-41.9,11.1-58.3,11.1-58.3c2.1-1.9,5.2-2.2,8.5-1.7
							C51,158.2,53.9,162.8,55.4,167.4z"/>
						<g>
							<g>
								<g>
									<g>
										<path class="st32" d="M61.3,186.9c0,0-0.2-0.3-0.4-0.8c-0.2-0.5-0.5-1.1-0.8-1.9c-0.6-1.4-1.4-3-1.9-3.9
											c-0.4-0.8-1.4-2.8-2.4-4.4c-0.5-0.8-1-1.6-1.3-2.2c-0.2-0.3-0.3-0.5-0.4-0.7C54,173.1,54,173,54,173s0.1,0.1,0.2,0.2
											c0.1,0.2,0.3,0.4,0.5,0.6c0.4,0.5,0.9,1.3,1.4,2.1c1,1.6,2.1,3.5,2.5,4.4c0.4,0.8,1.2,2.5,1.8,3.9
											c0.3,0.7,0.6,1.4,0.7,1.9C61.3,186.6,61.4,186.9,61.3,186.9z"/>
									</g>
								</g>
							</g>
						</g>
					</g>
					<g>
						<path class="st17" d="M83.5,113.4c-0.2,2-0.7,3.9-1.5,5.7c-1.8,4-4.6,7.5-6.3,10.5c-0.9,1.6-1.5,3-1.5,4.4
							c-0.1,5.4,5.8,21.8,5.7,23.2c-0.1,0.7-0.8,8.4-3.4,16.1c-2.5,7.6-6.9,15.2-14.1,16.5c0,0-0.4-1.1-1-2.8
							c-0.7-1.9-1.8-4.7-3.2-7.8c-3.5-8.1-8.9-18.4-14.4-21.8c-1.7-1-3.3-1.4-4.9-1l0.2-0.5c0.2-0.6,0.4-1.1,0.7-1.6
							c2.1-3.6,11.1-19.1,9.6-22.4c-0.9-1.8-3.8-6.2-6.5-10.1c0.6-4.7,3.2-4.3,4.9-6.4c4.4-5.2,3.4-14-2-18.2
							c-1.2-0.9-2.6-1.6-3.7-2.8c0,0-0.1-0.1-0.1-0.1l-1.3-2.4c0.1-0.6,0.5-1,1-1.3c0.2-0.1,2.3-0.3,2.6-0.3l16.3-0.8
							C60.5,89.8,84.3,104.1,83.5,113.4z"/>
						<g>
							<g>
								<g>
									<g>
										<g>
											<g>
												<path class="st33" d="M78.2,120.8c0,0.1-1.5,0.4-3.3,0.7c-1.8,0.4-3.9,0.8-4.9,1.1c-1.1,0.2-3.5,0.8-5.7,1.4
													c-1.1,0.3-2.1,0.6-2.9,0.8c-0.7,0.2-1.2,0.3-1.2,0.3c0,0,0.4-0.2,1.2-0.5c0.7-0.3,1.7-0.6,2.8-0.9
													c2.2-0.7,4.6-1.3,5.7-1.5c1.1-0.2,3.2-0.7,5-0.9C76.6,120.9,78.2,120.8,78.2,120.8z"/>
											</g>
										</g>
									</g>
								</g>
								<g>
									<g>
										<g>
											<g>
												<path class="st33" d="M73.1,123.2c0,0.1-3.2,1.5-4.3,2c-0.6,0.2-1.9,0.8-3.1,1.3c-1.2,0.5-2.2,1-2.2,0.9
													c-0.1-0.2,3.9-2.2,5.1-2.7C69.7,124.2,73,123.1,73.1,123.2z"/>
											</g>
										</g>
									</g>
								</g>
							</g>
						</g>
						<path class="st16" d="M76.5,173.4c-2.5,7.6-6.9,15.2-14.1,16.5c0,0-0.4-1.1-1-2.8c-0.7-1.9-1.8-4.7-3.2-7.8
							c0.1-0.3,0.3-0.5,0.5-0.6c0.9-0.5,2.1,1.3,2.7,1.7c1.2,0.8,2.8,1.2,4.3,1.2c2.7-0.1,5.2-1.5,7.1-3.4
							C74.2,176.7,75.4,175.1,76.5,173.4z"/>
						<path class="st11" d="M54.6,134.7c-0.9,7.7-7,17.3-10.8,22.8c-1.7-1-3.3-1.4-4.9-1l0.2-0.5c0.2-0.6,0.4-1.1,0.7-1.6
							c2.1-3.6,11.1-19.1,9.6-22.4c-1.1-2.3-5.3-8.4-8.3-12.7C45.3,121,55.7,125.6,54.6,134.7z"/>
						<g>
							<path class="st16" d="M82,119.2c-1.8,4-4.6,7.5-6.3,10.5c-2.4,1.4-5.2,2.5-7.8,3.4c-5.4,1.9-11.3,4.1-14.1,9.1
								c-2.4,4.3-1.8,9.6-0.1,14.2c1.7,4.6,4.3,8.8,6,13.4c2,5.5,2.6,11.5,1.6,17.3c-2.6-7-10-24.9-17.6-29.6c-1.7-1-3.3-1.4-4.9-1
								l0.2-0.5c0.2-0.6,0.4-1.1,0.7-1.6c2.1-3.6,11.1-19.1,9.6-22.4c-0.9-1.8-3.8-6.2-6.5-10.1c1-5.3,3.2-4.3,4.9-6.4
								c4.4-5.2,3.4-14-2-18.2c-1.2-0.9-2.6-1.6-3.7-2.8c0,0-0.1-0.1-0.1-0.1c-2.2-2.3-1.3-4.2,1.5-3.8c0.1,0,0.2,0,0.4,0.1
								c2.5,0.5,5,1.8,7,3.4c4.1,3.2,6.9,8.2,6.9,13.5c0,3.3-0.8,7,1.1,9.8c1.8,2.6,5.5,3.1,8.6,2.5c3.1-0.6,5.9-2.1,9-2.7
								c1.7-0.4,3.7-0.4,5,0.9C81.7,118.4,81.9,118.8,82,119.2z"/>
							<path class="st31" d="M86.3,172.4c-2.6,1.4-5.5,2.4-8.3,3.3c-0.3,0.1-0.5,0.2-0.8,0.2c-0.2,0.1-0.4,0.1-0.6,0.2
								c-3.7,1.2-7.4,2.4-11.2,3.7c-0.6,0.2-1.2,0.4-1.7,0.6c-1,0.3-2.1,0.6-3.1,0.9c-1.9,0.5-3.9,0.8-5.9,0.8
								c-3.7-0.1-7.6-1.7-9.4-4.9c-1.4-2.4-1.5-5.4-1.5-8.2c0-4.7,0-9.6-1.3-14.1c1.5-0.3,3.1-0.2,4.8,0c7.1,1,15.1,5.6,15.1,5.6
								s0.4,2.4,0.7,6c2.8-12.4,7.6-22.9,15.2-12.2c0.7,1,1.4,2.1,2,3.1C83,162,84.9,167.1,86.3,172.4z"/>
						</g>
						<g>
							<path class="st30" d="M109.4,132.4c0,0,6.7-7.5,6.9-7.3c0.4,0.4,1.6,4.6-4.5,9.3L109.4,132.4z"/>
							<g>
								<g>
									<path class="st3" d="M104.8,162.7c1.9-1,3.6-2,4.9-3.1c0.1,0,0.1-0.1,0.2-0.2c2.1-1.8,3.5-3.7,4.4-5.8
										c0.3-0.6,0.5-1.1,0.7-1.7c0.4-1.4,0.6-2.8,0.7-4.2c0,0,0,0,0-0.1c0.1-1.6-0.1-3.4-0.4-5.1c-0.4-2.1-1-4.4-1.8-6.6
										c-0.3-0.8-0.6-1.6-0.9-2.4c-0.3-0.8-0.6-1.6-1-2.3c-1-2.2-2.1-4.2-3.3-6.1c-1-1.5-2.2-2.9-3.4-4.2
										c-3.3-3.2-7.4-5.3-12.7-5.6c-3.5-0.2-7.5,0.3-12.1,1.8l-41.8,13.7c-0.3,0.1-0.7,0.3-1,0.4c-0.5,0.2-0.9,0.5-1.2,0.8
										c-0.6,0.5-1.1,1.1-1.5,1.8c-0.6,1-0.8,2.2-0.8,3.4c0,1.1,0.2,2.1,0.7,3.2c0.2,0.4,0.4,0.7,0.6,1l1.2,1.8l2.9,4.4l2.9,4.4
										c0.3,0.5,0.6,1,0.9,1.5c0.8,1.5,1.4,3.1,1.8,4.7c0.1,0.3,0.1,0.6,0.2,0.9l1,5.9l0.8,5l0.4,2.2c0.8,4.7,5.6,7.8,9.9,6.3
										L99,165C101.2,164.3,103.1,163.5,104.8,162.7z M93.6,133.3l-1.8-2.8l-2.8-4.4l-0.5-0.8c-0.8-1.2-0.3-2.8,1-3.5
										c0.1-0.1,0.3-0.1,0.5-0.2c1.2-0.4,2.6,0.1,3.3,1.2l1.1,1.7l2.8,4.4l1.2,2c0.8,1.2,0.3,2.8-1,3.5c-0.1,0.1-0.3,0.1-0.5,0.2
										C95.7,134.8,94.3,134.4,93.6,133.3z M103,156c-1.5,0.2-2.9-0.7-3.2-2.2l-0.2-1l-0.1-0.8l-0.8-4.2l-0.6-3.2
										c-0.2-1.2,0.5-2.4,1.8-2.8c0.2-0.1,0.3-0.1,0.5-0.1c1.5-0.2,2.9,0.7,3.2,2.2l0.4,2.2l0.2,1.1l0.7,3.9l0.3,1.9
										c0.2,1.2-0.5,2.4-1.8,2.8C103.3,156,103.1,156,103,156z"/>
									<path class="st16" d="M104.8,162.7c1.9-1,3.6-2,4.9-3.1c0.1,0,0.1-0.1,0.2-0.2c2.1-1.8,3.5-3.7,4.4-5.8
										c0.3-0.6,0.5-1.1,0.7-1.7c0.4-1.4,0.6-2.8,0.7-4.2c0,0,0,0,0-0.1c0.1-1.6-0.1-3.4-0.4-5.1c-0.4-2.1-1-4.4-1.8-6.6
										c-0.3-0.8-0.6-1.6-0.9-2.4c-0.3-0.8-0.6-1.6-1-2.3c-1-2.2-2.1-4.2-3.3-6.1c-1-1.5-2.2-2.9-3.4-4.2
										c-3.3-3.2-7.4-5.3-12.7-5.6c-3.5-0.2-7.5,0.3-12.1,1.8l-41.8,13.7c-0.3,0.1-0.7,0.3-1,0.4c-0.5,0.2-0.9,0.5-1.2,0.8
										c-0.6,0.5-1.1,1.1-1.5,1.8c-0.6,1-0.8,2.2-0.8,3.4c0,1.1,0.2,2.1,0.7,3.2c0.2,0.4,0.4,0.7,0.6,1l1.2,1.8l2.9,4.4l2.9,4.4
										c0.3,0.5,0.6,1,0.9,1.5c0.8,1.5,1.4,3.1,1.8,4.7c0.1,0.3,0.1,0.6,0.2,0.9l1,5.9l0.8,5l0.4,2.2c0.8,4.7,5.6,7.8,9.9,6.3
										L99,165C101.2,164.3,103.1,163.5,104.8,162.7z M93.6,133.3l-1.8-2.8l-2.8-4.4l-0.5-0.8c-0.8-1.2-0.3-2.8,1-3.5
										c0.1-0.1,0.3-0.1,0.5-0.2c1.2-0.4,2.6,0.1,3.3,1.2l1.1,1.7l2.8,4.4l1.2,2c0.8,1.2,0.3,2.8-1,3.5c-0.1,0.1-0.3,0.1-0.5,0.2
										C95.7,134.8,94.3,134.4,93.6,133.3z M103,156c-1.5,0.2-2.9-0.7-3.2-2.2l-0.2-1l-0.1-0.8l-0.8-4.2l-0.6-3.2
										c-0.2-1.2,0.5-2.4,1.8-2.8c0.2-0.1,0.3-0.1,0.5-0.1c1.5-0.2,2.9,0.7,3.2,2.2l0.4,2.2l0.2,1.1l0.7,3.9l0.3,1.9
										c0.2,1.2-0.5,2.4-1.8,2.8C103.3,156,103.1,156,103,156z"/>
									<path class="st21" d="M106.2,162.2c2-1,3.7-2,5.1-3.2c0.1,0,0.1-0.1,0.2-0.2c2.1-1.8,3.6-3.7,4.6-5.8
										c0.3-0.6,0.5-1.1,0.7-1.7c0.4-1.4,0.7-2.8,0.8-4.2c0,0,0,0,0-0.1c0.1-1.7,0-3.4-0.3-5.1c-0.4-2.1-1-4.4-1.7-6.6
										c-0.3-0.8-0.6-1.6-0.9-2.4c-0.3-0.8-0.6-1.6-1-2.3c-1-2.2-2.1-4.2-3.3-6.1c-1-1.5-2.2-2.9-3.5-4.2
										c-3.3-3.2-7.5-5.2-12.9-5.5c-3.6-0.2-7.7,0.4-12.4,1.9l-42.9,14c-0.4,0.1-0.7,0.3-1,0.4c-0.5,0.2-0.9,0.5-1.3,0.8
										c-0.6,0.5-1.1,1.2-1.5,1.8c-0.6,1-0.9,2.2-0.9,3.4c0,1.1,0.2,2.1,0.7,3.2c0.2,0.4,0.4,0.7,0.6,1l1.2,1.8l2.9,4.3l3,4.4
										c0.3,0.5,0.6,1,0.9,1.5c0.8,1.5,1.4,3.1,1.8,4.7c0.1,0.3,0.1,0.6,0.2,0.9l1,5.9l0.8,5l0.4,2.2c0.8,4.7,5.7,7.7,10.1,6.3
										l42.9-14C102.5,163.9,104.4,163.1,106.2,162.2z M95,132.8l-1.8-2.8l-2.8-4.4l-0.5-0.8c-0.8-1.2-0.3-2.8,1-3.5
										c0.2-0.1,0.3-0.1,0.5-0.2c1.3-0.4,2.7,0,3.4,1.1l1.1,1.7l2.8,4.4l1.3,2c0.8,1.2,0.3,2.8-1,3.5c-0.2,0.1-0.3,0.1-0.5,0.2
										C97.2,134.4,95.7,133.9,95,132.8z M104.4,155.6c-1.5,0.2-3-0.7-3.2-2.1l-0.2-1l-0.1-0.8l-0.7-4.2l-0.6-3.2
										c-0.2-1.2,0.6-2.4,1.8-2.8c0.2-0.1,0.3-0.1,0.5-0.1c1.5-0.2,3,0.7,3.2,2.1l0.4,2.2l0.2,1.1l0.7,3.9l0.3,1.9
										c0.2,1.2-0.6,2.4-1.8,2.8C104.7,155.5,104.6,155.5,104.4,155.6z"/>
									<g>
										<path class="st7" d="M110.2,124.5l-11.6,3.8l-2.8-4.4l10.9-3.6C108,121.6,109.2,123,110.2,124.5z"/>
										<polygon class="st7" points="90.5,125.7 93.3,130 39.3,147.7 36.4,143.3 										"/>
										<path class="st11" d="M115.4,135.3l-70.5,23c-0.4-1.6-0.9-3.2-1.8-4.7l70.5-23c0.3,0.8,0.7,1.5,1,2.3
											C114.9,133.7,115.2,134.5,115.4,135.3z"/>
										<path class="st17" d="M117.5,147.1l-11.1,3.6l-0.7-3.9l-0.2-1.1l11.6-3.8C117.5,143.6,117.6,145.4,117.5,147.1
											C117.5,147,117.5,147.1,117.5,147.1z"/>
										<polygon class="st17" points="100.8,151.7 101,152.5 46.8,170.2 46,165.1 100.1,147.5 										"/>
									</g>
									<g>
										<g>
											<g>
												<g>
													<path class="st32" d="M51.3,132.7c0-0.1,10.9-3.7,14.8-5c3.9-1.3,17.8-5.7,17.8-5.7c0,0.1-13.8,4.7-17.7,5.9
														C62.3,129.2,51.3,132.7,51.3,132.7z"/>
												</g>
											</g>
										</g>
									</g>
									<g>
										<g>
											<g>
												<g>
													<path class="st32" d="M47.2,172.3c-0.2,0-1.2-8.4-1.9-11.3c-0.3-1.5-1.1-4.9-2.4-7.6c-0.3-0.7-0.7-1.3-1-1.9
														c-0.4-0.6-0.7-1.1-1-1.5c-0.3-0.4-0.6-0.8-0.8-1c-0.2-0.2-0.3-0.4-0.3-0.4s0.1,0.1,0.3,0.3c0.2,0.2,0.5,0.6,0.8,1
														c0.3,0.4,0.7,0.9,1,1.5c0.3,0.6,0.7,1.2,1,1.9c1.4,2.8,2.2,6.2,2.5,7.7c0.3,1.5,0.8,4.3,1.1,6.8
														c0.2,1.2,0.3,2.4,0.4,3.2c0.1,0.4,0.1,0.8,0.2,1C47.2,172.2,47.2,172.3,47.2,172.3z"/>
												</g>
											</g>
										</g>
									</g>
									<g>
										<g>
											<g>
												<g>
													<path class="st32" d="M114.2,156.1c0,0-0.8,1.2-2.5,2.8c-1.7,1.6-4.4,3.3-7.6,4.5c-6.4,2.3-13.8,4.7-17.7,6
														c-3.9,1.3-12.8,4.2-20.7,6.9c-4,1.3-7.7,2.7-10.6,2.8c-1.4,0.1-2.6-0.2-3.4-0.5c-0.4-0.1-0.7-0.3-0.9-0.4
														c-0.2-0.1-0.3-0.2-0.3-0.2c0,0,0.4,0.2,1.2,0.5c0.8,0.3,1.9,0.5,3.4,0.4c2.9-0.1,6.6-1.6,10.5-2.9
														c7.9-2.7,16.8-5.6,20.7-6.9c3.9-1.3,11.3-3.7,17.7-5.9c3.2-1.2,5.9-2.9,7.6-4.4c0.9-0.8,1.5-1.4,1.9-1.9
														c0.2-0.2,0.4-0.4,0.5-0.6C114.1,156.1,114.2,156.1,114.2,156.1z"/>
												</g>
											</g>
										</g>
									</g>
									<g>
										<g>
											<g>
												<g>
													<path class="st32" d="M85.5,163.7c0,0.1-8.8,3-12,4.1c-3.2,1-14.5,4.7-14.5,4.6s11.2-3.8,14.4-4.8
														C76.6,166.5,85.5,163.6,85.5,163.7z"/>
												</g>
											</g>
										</g>
									</g>
									<g>
										<g>
											<g>
												<g>
													<path class="st32" d="M51.4,167.9c0,0,0-0.2,0-0.4c0-0.3,0-0.7,0-1.2c0-1-0.1-2.3-0.2-3.8c-0.3-2.9-1.2-6.1-1.9-7.8
														c-0.6-1.7-2.2-5.4-4.2-8.3c-1-1.5-2.1-2.8-2.9-3.7c-0.4-0.5-0.8-0.8-1-1.1c-0.2-0.3-0.4-0.4-0.4-0.4s0.1,0.1,0.4,0.4
														c0.2,0.2,0.6,0.6,1,1.1c0.8,0.9,1.9,2.2,2.9,3.7c2.1,2.9,3.8,6.6,4.3,8.3c0.6,1.7,1.5,4.9,1.8,7.9
														c0.1,1.5,0.2,2.8,0.2,3.8c0,0.5,0,0.9-0.1,1.2C51.5,167.8,51.5,167.9,51.4,167.9z"/>
												</g>
											</g>
										</g>
									</g>
								</g>
								<path class="st16" d="M100.2,164.6l-42.9,14c-4.4,1.4-9.3-1.6-10.1-6.3l-0.4-2.2l-0.8-5l-1-5.9c0-0.3-0.1-0.6-0.2-0.9
									c-0.4-1.6-0.9-3.2-1.8-4.7c-0.3-0.5-0.7-1.1-1-1.6l-2.8-4.4l-2.9-4.3l-1.2-1.8c-0.2-0.3-0.4-0.7-0.6-1
									c-0.5-1-0.7-2.1-0.7-3.2c0-1.2,0.3-2.4,0.9-3.4c0.4-0.7,0.9-1.3,1.5-1.8c0.4-0.3,0.8-0.6,1.3-0.8c-1.1,2.8,0.6,6.2,3,8.4
									c0.7,0.6,1.4,1.2,2.1,1.8c1.6,1.2,3.3,2.4,4.7,3.8c0.5,0.5,1.1,1.1,1.5,1.7c1,1.3,1.7,2.8,2.3,4.3c0.6,1.6,1.1,3.2,1.7,4.7
									c0,0.1,0,0.1,0.1,0.2c0.8,2.1,1.9,4.2,3.5,5.8c0.8,0.8,1.8,1.4,2.9,1.9c1.8,0.7,3.7,0.8,5.7,0.6c1.5-0.2,3-0.5,4.4-0.8
									c6.7-1.6,13.3-3.6,19.7-5.9c3.2-1.2,6.4-2.5,9.3-4.2c0.9-0.5,1.7-1.1,2.6-1.7l0.1,0.8l0.2,1c0.2,1.4,1.7,2.4,3.2,2.1
									c0.2,0,0.3-0.1,0.5-0.1c1.3-0.4,2.1-1.6,1.8-2.8l-0.3-1.9l-0.7-3.9c0.3-0.5,0.6-0.9,0.9-1.4c1.3-2.4,2.1-5.2,2.2-7.9
									c0.1-1.7,0-3.5-0.4-5.2c-0.3-1.8-0.9-3.5-1.7-5.1c-0.2-0.4-0.4-0.8-0.7-1.3c-0.9-1.5-1.9-2.9-3.1-4.3
									c-1.3-1.4-2.7-2.7-4.3-3.9c-1.5-1.1-3.1-2.1-4.7-2.9c5.4,0.3,9.6,2.3,12.9,5.5c1.3,1.2,2.4,2.6,3.5,4.2
									c1.3,1.9,2.4,3.9,3.3,6.1c0.3,0.8,0.7,1.5,1,2.3c0.3,0.8,0.6,1.6,0.9,2.4c0.8,2.3,1.4,4.5,1.7,6.6c0.3,1.8,0.4,3.5,0.3,5.1
									c0,0,0,0,0,0.1c-0.1,1.5-0.3,2.9-0.8,4.2c-0.2,0.6-0.4,1.2-0.7,1.7c-1,2.1-2.5,4-4.6,5.8c-0.1,0.1-0.1,0.1-0.2,0.2
									c-1.4,1.1-3.1,2.2-5.1,3.2C104.4,163.1,102.5,163.9,100.2,164.6z"/>
								<g>
									<g>
										<g>
											<g>
												<g>
													<path class="st32" d="M89.5,123.7c0,0-0.1-0.9,0.6-1.7c0.3-0.4,0.7-0.7,1.2-0.9c0.5-0.2,0.9-0.2,1.2-0.1
														c0.3,0,0.8,0.2,1.3,0.4c0.5,0.3,1,0.7,1.4,1.2c0.4,0.5,0.6,1,0.8,1.3c0.2,0.4,0.3,0.6,0.3,0.6c0,0-0.5-0.9-1.3-1.8
														c-0.4-0.4-0.8-0.8-1.3-1.1c-0.5-0.3-0.9-0.4-1.2-0.4c-0.3,0-0.7-0.1-1.1,0.1c-0.4,0.1-0.8,0.4-1.1,0.8
														C89.6,122.9,89.6,123.7,89.5,123.7z"/>
												</g>
											</g>
										</g>
									</g>
									<g>
										<g>
											<g>
												<g>
													<path class="st32" d="M101.8,154.6c0,0,0.6,0.6,1.5,0.8c0.4,0.1,0.9,0.1,1.4,0c0.4-0.1,0.8-0.3,1-0.5
														c0.2-0.2,0.5-0.5,0.7-1c0.2-0.5,0.3-1.1,0.3-1.7c-0.1-1.1-0.4-2.1-0.3-2.1c0,0,0.1,0.2,0.2,0.6
														c0.1,0.4,0.2,0.9,0.3,1.5c0,0.6,0,1.2-0.2,1.8c-0.2,0.5-0.5,0.9-0.8,1.1c-0.2,0.2-0.6,0.5-1.1,0.6
														c-0.5,0.1-1,0.1-1.5,0C102.3,155.3,101.7,154.7,101.8,154.6z"/>
												</g>
											</g>
										</g>
									</g>
								</g>
							</g>
							<g>
								<g>
									<g>
										<path class="st30" d="M116.2,140.4c0,0-9.3,3.7-7.9,5.4c0.8,0.9,9.7-1.8,10.5-4c0.8-2.1-2.3-5.3-2.3-5.3L116.2,140.4z"/>
										<path class="st30" d="M117,143c0,0-8.1,2.7-7.7,4c0.3,1,5.7,0.1,7.4-1c2.7-1.8,0.9-3.8,0.9-3.8L117,143z"/>
									</g>
									<g>
										<g>
											<g>
												<g>
													<g>
														<path class="st32" d="M110,145.9c0-0.1,2.7-1.1,3.6-1.4c1-0.3,4.4-1.5,4.4-1.5c0,0.1-3.4,1.4-4.4,1.7
															C112.7,145,110,145.9,110,145.9z"/>
													</g>
												</g>
											</g>
										</g>
										<g>
											<g>
												<g>
													<g>
														<path class="st32" d="M111,145.5c0,0-0.8,0.4-1.5,1c-0.1,0.2-0.2,0.4-0.1,0.6c0.1,0.2,0.3,0.3,0.5,0.3
															c0.4,0,0.9,0,1.2,0c0.6,0,1.9-0.2,3.1-0.5c0.6-0.1,1.1-0.3,1.5-0.4c0.4-0.1,0.7-0.2,0.7-0.2c0,0-0.2,0.1-0.6,0.3
															c-0.4,0.2-0.9,0.3-1.5,0.5c-1.2,0.4-2.5,0.6-3.1,0.6c-0.3,0-0.7,0.1-1.2,0c-0.2,0-0.6-0.2-0.7-0.5
															c-0.1-0.3,0-0.6,0.2-0.8c0.4-0.4,0.8-0.6,1.1-0.7C110.8,145.5,111,145.5,111,145.5z"/>
													</g>
												</g>
											</g>
										</g>
									</g>
								</g>
								<g>
									<g>
										<path class="st30" d="M114.4,134.6c0,0-8.2,5.8-6.3,7.1c1,0.7,9-4.1,9.3-6.4c0.3-2.3-3.1-4.5-3.1-4.5L114.4,134.6z"/>
										<path class="st30" d="M115.6,137c0,0-8.6,5.5-7.9,6.9c0.6,1.1,6.7-1.7,8.3-3.4c2.6-2.8,0.1-4.5,0.1-4.5L115.6,137z"/>
									</g>
									<g>
										<g>
											<g>
												<g>
													<g>
														<path class="st32" d="M109,141.6c0-0.1,2.5-1.8,3.5-2.4c0.9-0.6,4.3-2.7,4.3-2.6c0,0.1-3.2,2.3-4.2,2.9
															C111.6,140,109,141.7,109,141.6z"/>
													</g>
												</g>
											</g>
										</g>
										<g>
											<g>
												<g>
													<g>
														<path class="st32" d="M115.2,133.7c0,0-0.1,0.2-0.4,0.4c-0.2,0.3-0.6,0.6-1,0.9c-0.8,0.7-1.7,1.4-2.2,1.7
															c-0.5,0.4-1.6,1.2-2.4,2.2c-0.4,0.5-0.8,0.9-1,1.3c-0.2,0.4-0.4,0.6-0.4,0.6c0,0,0.1-0.3,0.3-0.6
															c0.2-0.4,0.6-0.9,1-1.3c0.8-1,1.9-1.9,2.4-2.2c0.5-0.4,1.4-1.1,2.3-1.7c0.4-0.3,0.8-0.6,1-0.8
															C115,133.8,115.1,133.7,115.2,133.7z"/>
													</g>
												</g>
											</g>
										</g>
										<g>
											<g>
												<g>
													<g>
														<path class="st32" d="M108.8,142.1c0,0-0.2,0.2-0.4,0.5c-0.1,0.1-0.3,0.3-0.4,0.6c-0.1,0.2-0.2,0.5-0.1,0.7
															c0.1,0.2,0.4,0.3,0.7,0.2c0.3,0,0.6-0.2,0.8-0.3c0.5-0.2,1-0.4,1.3-0.6c0.7-0.3,2.1-1,3.4-1.7
															c0.6-0.3,1.2-0.7,1.7-0.9c0.4-0.2,0.7-0.4,0.7-0.4c0,0-0.3,0.2-0.7,0.4c-0.4,0.3-1,0.6-1.6,1
															c-1.3,0.7-2.7,1.5-3.4,1.8c-0.3,0.2-0.8,0.4-1.3,0.6c-0.3,0.1-0.5,0.2-0.9,0.3c-0.3,0-0.7,0-0.9-0.3
															c-0.1-0.3,0-0.6,0.1-0.9c0.1-0.2,0.3-0.4,0.4-0.6C108.6,142.2,108.8,142.1,108.8,142.1z"/>
													</g>
												</g>
											</g>
										</g>
									</g>
								</g>
							</g>
							<path class="st16" d="M71,150.3c3.3,0,6.8,0,9.8-1.5c4.3-2.1,6.7-6.6,8.8-10.9c0.4-0.8,0.8-1.6,0.8-2.5
								c0-0.9-0.4-1.9-1.2-2.2c-1-0.4-2.1,0.2-2.9,0.9c-2.8,2.3-5,5.2-8.1,7.2c-4.6,3-10.5,3.3-16,2.8c-5.5-0.5-11-1.7-16.5-1.4
								c-2.1,0.1-5.4,0.3-7,1.7c-1.4,1.2,1.1,4,2.2,5.4c0.8,1,2.2,0.4,3.6,0.4c1.8,0,3.6,0,5.3,0C56.9,150.3,63.9,150.3,71,150.3z"
								/>
						</g>
					</g>
				</g>
				<g>
					<path class="st30" d="M69.5,105.2c-1.2,0.2-2.2,0.3-3.2,0.3c-0.9,0-1.8-0.1-2.6-0.2c-3.9-0.7-6.7-3.1-10.2-7.9
						c-4.9-6.9-10-6.7-10-6.7s1.9-0.8,1.5-4c-0.4-3.2-1.5-11.1-1.5-11.1l9.9,5l7,3.5v5.6c0,0,1.8,1.7,3.9,3.4
						c0.8,0.6,2.4,2.3,3.9,4.2C70.9,100.7,73.2,104.7,69.5,105.2z"/>
					<path class="st31" d="M63.8,105.3c-3.9-0.7-6.7-3.1-10.2-7.9c-4.9-6.9-10-6.7-10-6.7s1.9-0.8,1.5-4c-0.3-2.3-1-7.2-1.3-9.7
						c2.8,2.5,6.2,4.9,9.3,6.4c-0.3,0.6-0.6,1.2-0.7,1.9c-0.2,1.3-0.1,2.7,0.3,4c0.7,2.4,2.3,4.5,3.8,6.5c2.1,2.8,4.2,5.6,6.3,8.4
						C63.1,104.6,63.4,105,63.8,105.3z"/>
					<path class="st31" d="M69.5,105.2c-1.2,0.2-2.2,0.3-3.2,0.3c0.4-0.5,0.5-1.2,0.4-1.8c-0.2-0.8-0.7-1.4-1.2-2
						c0.9,0.2,1.4,1,2.1,1.7c0.6,0.7,1.6,1.2,2.4,0.8c0.5-0.3,0.7-0.9,0.7-1.5c0-0.6-0.3-1.1-0.6-1.6c-0.6-1.2-1.2-2.5-1.8-3.7
						C70.9,100.7,73.2,104.7,69.5,105.2z"/>
					<g>
						<g>
							<g>
								<g>
									<path class="st32" d="M61.1,95.7c0,0-0.1-0.2-0.2-0.6c-0.1-0.4-0.2-0.8-0.3-1.4c-0.2-1.1-0.3-2.3-0.3-3
										c0-0.7-0.1-2.1,0-3.5c0-0.7,0.1-1.3,0.1-1.7c0-0.5,0.1-0.7,0.1-0.7c0,0,0,0.3,0,0.7c0,0.5,0,1.1,0,1.7
										c0,1.3,0.1,2.8,0.1,3.5c0,0.7,0.1,1.9,0.3,3c0.1,0.5,0.1,1,0.2,1.4C61.1,95.5,61.1,95.7,61.1,95.7z"/>
								</g>
							</g>
						</g>
					</g>
					<g>
						<g>
							<g>
								<g>
									<path class="st32" d="M68.5,105.4c-0.1,0-0.8-0.9-1.1-1.3c-0.3-0.4-1.2-1.7-1.1-1.7c0.1,0,1,1.2,1.3,1.6
										S68.5,105.3,68.5,105.4z"/>
								</g>
							</g>
						</g>
					</g>
					<path class="st31" d="M61,95.9c-1.3-2.6-2.3-5.4-2.8-8.3c-0.1-0.6-0.3-1.8-0.1-2.6c0.2,0,0.5,0,0.7,0c0.6,0,1.1-0.1,1.6-0.2
						c0.2,0.6,0.1,1.3,0,1.7C59.8,89.6,60.4,92.8,61,95.9z"/>
					<g>
						<g>
							<g>
								<g>
									<path class="st32" d="M57.5,95.3c0,0-0.6-0.5-1.3-1c-0.7-0.5-1.6-1-2.1-1.1c-0.2-0.1-0.6-0.2-1.1-0.3
										c-0.5-0.1-1.1-0.1-1.6-0.2c-0.5-0.1-1-0.3-1.3-0.5c-0.3-0.2-0.5-0.3-0.5-0.3c0-0.1,0.8,0.5,1.9,0.7c0.5,0.1,1.1,0,1.6,0.1
										c0.5,0.1,0.9,0.2,1.2,0.3c0.5,0.2,1.4,0.7,2.1,1.2c0.3,0.3,0.6,0.6,0.8,0.8C57.4,95.1,57.5,95.3,57.5,95.3z"/>
								</g>
							</g>
						</g>
					</g>
				</g>
				<g>
					<path class="st30" d="M78.3,147.4c-0.2,0.1-0.4,0.1-0.6,0.2c-1.9,0.5-5.4,0.7-9.8,0.8c-12.6,0.3-31.8-0.7-36.7-0.9
						c-0.7,0-1.1-0.1-1.1-0.1c-0.1-0.1-0.2-0.3-0.3-0.4c-0.4-0.8-0.6-2-0.8-3.5c0-0.4-0.1-0.8-0.1-1.2c-0.4-6.1,0.4-15.9,1.1-22.3
						c0.9-8.9,0.4-14.3,2.4-21.7c1.3-5.1,5.7-6.3,8.3-6.5c1.6-0.1,3.1,0.4,4.3,1.5c0.1,0.1,0.1,0.1,0.2,0.2c0.1,0.1,0.3,0.3,0.4,0.4
						c0.4,0.5,0.8,1.1,1,1.7c0.5,1.1,0.7,2.4,0.8,3.6c0.1,1.1,0.1,2.2,0,3.2c-0.3,3.2-1.2,5.8-1.2,5.8l-2.2,10.3l-3.6,17.3
						c2.5,0.5,9.9,1.3,16.1,1.9c6,0.6,19.4,2.1,19.4,2.1l0,0l0.8,2.2l0.9,3.2L78.3,147.4z"/>
					<g>
						<g>
							<g>
								<g>
									<path class="st32" d="M70.7,139.2c0,0-0.1,0-0.3,0c-0.2,0-0.5,0-0.9-0.1c-0.7-0.1-1.7-0.1-2.8-0.2
										c-2.2-0.2-4.6-0.4-5.9-0.5c-1.3-0.1-4.3-0.4-6.9-0.7c-1.3-0.2-2.6-0.3-3.5-0.5c-0.4-0.1-0.8-0.1-1.1-0.2
										c-0.3,0-0.4-0.1-0.4-0.1c0,0,0.1,0,0.4,0c0.3,0,0.6,0.1,1.1,0.1c0.9,0.1,2.1,0.2,3.5,0.4c2.6,0.3,5.6,0.5,6.9,0.7
										c1.3,0.1,3.8,0.4,5.9,0.6c1.1,0.1,2.1,0.2,2.8,0.3c0.4,0,0.7,0.1,0.9,0.1C70.6,139.2,70.7,139.2,70.7,139.2z"/>
								</g>
							</g>
						</g>
					</g>
					<g>
						<path class="st31" d="M47.5,137.3c2.1,0.1,3.7,0.8,3.6,1.6c0,0.8-1.8,1.3-3.8,1.1c-2.1-0.1-3.7-0.8-3.6-1.6
							C43.7,137.6,45.4,137.1,47.5,137.3z"/>
						<path class="st31" d="M55,138.2c1.3,0.1,2.3,0.7,2.3,1.1c-0.1,0.5-1.2,0.7-2.5,0.6c-1.3-0.1-2.3-0.7-2.3-1.1
							C52.6,138.3,53.7,138.1,55,138.2z"/>
					</g>
					<path class="st30" d="M53.6,107.2c0,1.2-0.2,2.3-0.4,3.3c-1.7,8.3-9,8.4-9,8.4l-0.1-0.4l0,0l-0.8-4.1l-1.5-8l-1.4-7.7l-0.1-0.8
						l-0.4-2.4l2.2-3.7c0,0,1.3,0.4,3,1.4c0.2,0.1,0.5,0.3,0.7,0.4c0.8,0.5,1.6,1.1,2.4,1.8c0,0,0,0,0,0c0.7,0.6,1.4,1.3,2.1,2.2
						c0.5,0.6,0.9,1.2,1.3,1.8C52.8,101.5,53.7,104.1,53.6,107.2z"/>
					<path class="st31" d="M53.2,110.5c-1.7,8.3-9,8.4-9,8.4l-0.1-0.4l0,0c0.8-3,2-7,2.5-8.4c0.9-0.5,1.6-1.4,2.7-1.7
						c1-0.3,2.2-0.1,3,0.7C52.8,109.4,53,109.9,53.2,110.5z"/>
					<path class="st31" d="M46.6,103.9c-0.7,1.7-2.3,2.6-3.5,2.1s-1.8-2.3-1.1-4c0.7-1.7,2.3-2.6,3.5-2.1
						C46.8,100.5,47.2,102.3,46.6,103.9z"/>
					<g>
						<g>
							<path class="st30" d="M87.4,129.2c0.1,0,13.2-0.8,13.2-0.8s0.6,0.5-1.2,1.7c-1.8,1.2-7.1,1.9-7.1,1.9L87.4,129.2z"/>
							<g>
								<g>
									<g>
										<g>
											<path class="st32" d="M98.2,130.6c0,0,0.3-0.1,0.7-0.3c0.4-0.2,0.9-0.6,1.3-1.1c0.1-0.1,0.2-0.3,0.3-0.4
												c0.1-0.1,0-0.2-0.1-0.2c-0.3,0-0.7,0-1,0.1c-0.6,0-1.2,0.1-1.6,0.1c-0.8,0-2.6,0.1-4.3,0.2c-0.8,0-1.6,0.1-2.1,0.1
												c-0.3,0-0.5,0-0.7,0c-0.2,0-0.2,0-0.3,0s0.1,0,0.2,0c0.2,0,0.4,0,0.7-0.1c0.6,0,1.3-0.1,2.1-0.2c1.6-0.1,3.5-0.2,4.3-0.3
												c0.4,0,1,0,1.6-0.1c0.3,0,0.7,0,1,0c0.3,0,0.4,0.4,0.2,0.6c-0.1,0.2-0.2,0.3-0.3,0.4c-0.4,0.5-1,0.9-1.4,1.1
												c-0.2,0.1-0.4,0.1-0.5,0.2C98.3,130.6,98.2,130.6,98.2,130.6z"/>
										</g>
									</g>
								</g>
							</g>
							<path class="st30" d="M92.3,130.2c0,0.1,4.9,12,4.9,12s-0.4,1-2.8-0.8c-1.9-1.5-4.1-6.6-4.1-6.6L92.3,130.2z"/>
							<path class="st31" d="M92.3,130.2c0,0.1,4.9,12,4.9,12s-0.4,1-2.8-0.8c-1.9-1.5-4.1-6.6-4.1-6.6L92.3,130.2z"/>
							<path class="st30" d="M100.2,138.7c0,0-1.1,0.7-4-1.9c-2.9-2.6-4.1-4.1-4.1-4.1s-1.1,1.7-2.2,3.6c-0.3,0.5-0.5,0.9-0.8,1.4
								c-1.9,3.4-4.7,7.7-6.7,8.5c-2.5,1.1-4,1.3-4.6,1.3h0c0,0-0.1,0-0.1,0c-0.1,0-0.2,0-0.2,0v0l-0.4-1.9l0-0.2l-1.2-5.5
								c0,0,6.6-11,8.8-11.2c2.2-0.2,11.3,2.3,11.3,2.3L100.2,138.7z"/>
							<path class="st30" d="M77.8,136.9l3.1-7c0.1-0.3,0.3-0.6,0.6-0.8l3.5-4.2c0,0,1.4,1.3-1.3,4.8c-2.8,3.5-3.1,6.4-3.1,6.4
								L77.8,136.9z"/>
							<g>
								<g>
									<g>
										<g>
											<path class="st32" d="M84.2,128.9c0,0-0.1,0.2-0.4,0.5c-0.3,0.3-0.6,0.7-1,1.1c-0.7,0.8-1.6,1.8-2,2.3
												c-0.4,0.5-1.4,1.7-2.1,2.8c-0.4,0.6-0.7,1.1-1,1.5c-0.2,0.4-0.4,0.6-0.4,0.6c0,0,0.1-0.3,0.3-0.7c0.2-0.4,0.5-1,0.9-1.5
												c0.7-1.2,1.7-2.4,2.1-2.9c0.4-0.5,1.3-1.5,2.1-2.3c0.4-0.4,0.8-0.8,1-1C84,129,84.1,128.9,84.2,128.9z"/>
										</g>
									</g>
								</g>
							</g>
							<g>
								<g>
									<g>
										<g>
											<path class="st32" d="M91.4,134.4c0,0-0.1,0.1-0.2,0.3c-0.1,0.2-0.3,0.4-0.5,0.7c-0.4,0.6-1,1.4-1.5,2.3
												c-1.1,1.8-2.2,3.9-3,4.9c-0.4,0.5-1,1.4-1.8,2.2c-0.8,0.9-2,1.7-3.2,2.1c-1.2,0.5-2.4,0.6-3.3,0.7c-0.4,0-0.8,0-1.1,0
												c-0.3,0-0.4,0-0.4,0c0,0,0.1,0,0.4,0c0.3,0,0.6,0,1-0.1c0.9-0.1,2.1-0.2,3.3-0.7c1.2-0.5,2.3-1.3,3.1-2.1
												c0.8-0.9,1.4-1.7,1.8-2.2c0.7-1,1.9-3.1,3-4.9c0.6-0.9,1.1-1.7,1.6-2.2c0.2-0.3,0.4-0.5,0.5-0.6
												C91.4,134.5,91.4,134.4,91.4,134.4z"/>
										</g>
									</g>
								</g>
							</g>
							<g>
								<g>
									<g>
										<g>
											<path class="st32" d="M95.2,130.7c0,0-0.2,0-0.5,0c-0.3,0-0.8-0.1-1.2-0.2c-1-0.2-2.1-0.4-2.6-0.5
												c-0.6-0.1-1.9-0.4-3-0.7c-0.6-0.1-1.1-0.2-1.5-0.3c-0.4-0.1-0.7-0.2-0.7-0.2c0,0,0.3,0,0.7,0.1c0.4,0.1,1,0.2,1.5,0.3
												c1.2,0.2,2.5,0.5,3.1,0.6c0.6,0.1,1.7,0.4,2.6,0.6C94.4,130.4,95.2,130.6,95.2,130.7z"/>
										</g>
									</g>
								</g>
							</g>
							<g>
								<g>
									<g>
										<g>
											<path class="st32" d="M100.1,138.7c-0.1,0-1.5-2.5-2-3.4c-0.5-0.9-2.2-4.1-2.1-4.2s1.9,3.1,2.3,4
												C98.8,136.1,100.2,138.6,100.1,138.7z"/>
										</g>
									</g>
								</g>
							</g>
							<g>
								<g>
									<g>
										<g>
											<path class="st32" d="M93,139.3c-0.1,0.1-1.1-1.1-1.4-1.6c-0.1-0.2-0.5-0.8-0.7-1.3c-0.2-0.5-0.3-1-0.3-1
												c0,0,0.2,0.4,0.5,0.9c0.2,0.5,0.6,1,0.7,1.2C92.1,138.1,93,139.3,93,139.3z"/>
										</g>
									</g>
								</g>
							</g>
							<g>
								<g>
									<g>
										<g>
											<path class="st32" d="M98.6,138.7c0,0-0.5-0.2-1.1-0.6c-0.6-0.4-1.2-0.9-1.5-1.2c-0.3-0.3-1-1-1.5-1.6
												c-0.5-0.7-0.9-1.3-0.9-1.3c0,0,0.5,0.6,1,1.2c0.5,0.6,1.2,1.3,1.5,1.6c0.3,0.3,0.9,0.8,1.4,1.2
												C98.1,138.3,98.6,138.6,98.6,138.7z"/>
										</g>
									</g>
								</g>
							</g>
						</g>
					</g>
					<g>
						<g>
							<g>
								<g>
									<path class="st32" d="M40.3,136.4c0,0,0-0.1,0.1-0.4c0-0.3,0.1-0.6,0.2-1.1c0.2-0.9,0.4-2.1,0.7-3.4
										c0.5-2.7,1.1-5.7,1.5-7.3c0.3-1.6,1.2-5.2,2.1-8.4c0.5-1.6,0.9-3.1,1.3-4.2c0.2-0.5,0.4-1,0.5-1.3c0.1-0.3,0.2-0.5,0.2-0.5
										s0,0.2-0.1,0.5c-0.1,0.3-0.3,0.8-0.4,1.3c-0.4,1.1-0.8,2.6-1.2,4.2c-0.9,3.2-1.7,6.8-2,8.4c-0.3,1.6-1,4.6-1.5,7.3
										c-0.3,1.3-0.5,2.5-0.7,3.4c-0.1,0.4-0.2,0.8-0.2,1.1C40.4,136.3,40.3,136.4,40.3,136.4z"/>
								</g>
							</g>
						</g>
					</g>
					<g>
						<g>
							<g>
								<g>
									<path class="st32" d="M49.4,112.5c0,0.1-1.4,0.5-1.8,0.7c-0.2,0.1-0.8,0.3-1.3,0.5c-0.5,0.2-0.9,0.4-0.9,0.4
										c-0.1-0.1,1.6-1,2.1-1.1C48,112.7,49.4,112.4,49.4,112.5z"/>
								</g>
							</g>
						</g>
					</g>
					<path class="st31" d="M48.2,95.4c-0.5,0.1-1,0.1-1.5,0.2c-1.2,0.1-2.4,0.1-2.9,0.3c-1.2,0.4-2.4,1.1-3.4,2
						c-0.6,0.5-1.2,1.2-1.7,1.8c-2.5,3.6-2.5,8.8,0,12.3c1,1.4,2.3,2.6,2.9,4.1c1,2.8-0.5,5.8-2.1,8.2c-2.8,4.3-6.1,8.3-8.3,12.9
						c-0.9,1.9-1.6,4-2,6.1c0-0.4-0.1-0.8-0.1-1.2c-0.4-6.1,0.4-15.9,1.1-22.3c0.9-8.9,0.4-14.3,2.4-21.7c1.3-5.1,5.7-6.3,8.3-6.5
						c1.6-0.1,3.1,0.4,4.3,1.5c0.2,0.1,0.5,0.3,0.7,0.4C46.6,94.1,47.4,94.7,48.2,95.4z"/>
					<path class="st31" d="M89.9,136.4c-0.3,0.5-0.5,0.9-0.8,1.4c-1.9,3.4-4.7,7.7-6.7,8.5c-2.5,1.1-4,1.3-4.6,1.3h0c0,0,0,0,0,0v0
						c0,0,0,0,0,0c-1.9,0.5-5.4,0.7-9.7,0.8c-12.6,0.3-31.8-0.7-36.7-0.9c-0.7,0-1.1-0.1-1.1-0.1c-0.1-0.1-0.2-0.3-0.3-0.4
						c2.6-0.4,5.1-1.2,7.6-1.8c7.9-2,16.2-2.3,24.2-0.8c4.6,0.8,9.2,2.2,13.7,1.5c0.5-0.1,1.1-0.2,1.6-0.3c0.1,0,0.2,0,0.2-0.1
						c0.2,0,0.3-0.1,0.5-0.1c2.3-0.7,4.5-2,6.4-3.5C86.4,140.1,87.8,137.9,89.9,136.4z"/>
				</g>
				<path class="st30" d="M76,64.7c-0.2,0.7-0.3,1.4-0.4,2.1c0,0.2-0.1,0.4-0.1,0.6c-0.3,2.4,0,4.1-0.2,5.9c0,0.2,0,0.3-0.1,0.5
					c-0.1,0.6-0.2,1.3-0.5,2c-0.8,2.1-4.4,4.9-8.5,7c-3,1.6-5.6,2.4-8.1,2.4c-5.2,0-17.3-9.3-20-14.4c-2.7-5-1-18.3,3-22
					c3.4-3.1,7.9-6.1,14.1-7.2c1.2-0.2,2.4-0.3,3.6-0.4c8.2-0.3,15.7,0.9,16.7,3.2c1,2.3,1.6,7.7,1.6,7.7S77.3,59.5,76,64.7z"/>
				<path class="st31" d="M70.4,78.9c-1,1-2.2,1.4-2.5,1.1c-0.3-0.4,0.2-1.4,1.3-2.4c1-1,2.2-1.4,2.5-1.1
					C72,76.8,71.4,77.9,70.4,78.9z"/>
				<g>
					<path class="st30" d="M36,65.9c-0.1,0.8,0,1.7,0.5,2.4c0.5,0.7,1.3,1.1,2.1,1.1c0.8,0,1.6-0.6,1.9-1.3c0.3-0.8,0-1.7-0.7-2.2
						C39.8,65.9,37.2,61.5,36,65.9"/>
				</g>
				<g>
					<path class="st34" d="M34.6,55.8c-1.3,2.4,0.6,5.3,3,7.1c0.9,0.7,2.3,0,2.1-1.2c-0.4-3.2-0.3-6.4,0.3-9.6
						C40,52.1,35.5,54,34.6,55.8z"/>
				</g>
				<path class="st31" d="M73.6,66.6C73,67,72.1,67.3,71,67.2c-1.6-0.1-2.8-1.7-3.1-3.7c-0.2-1.6-0.1-3.4,0.5-4.6
					c0.6-1.2,1.7-1.8,2.6-1.9c-0.2,0.3-0.5,0.6-0.7,0.9c-0.7,1.2-1,2.5-1.1,3.8c0,0.7,0,1.5,0.2,2.2c0.2,1,0.8,2.1,1.7,2.6
					C71.9,66.9,72.8,66.9,73.6,66.6z"/>
				<g>
					<path class="st31" d="M67.9,68.4l-2.4,0.5c0,0,1.3,1.8,1.8,1.1C67.8,69.2,68,68.7,67.9,68.4z"/>
					<g>
						<g>
							<g>
								<g>
									<path class="st32" d="M67,70.2c0,0,0.2-0.3,0.4-0.6c0.2-0.3,0.3-0.7,0.3-0.9c0.1-0.4-0.7-2-0.6-2c0,0,0.2,0.3,0.5,0.8
										c0.3,0.4,0.4,1,0.4,1.2c0,0.3-0.1,0.8-0.4,1C67.3,70,67.1,70.2,67,70.2z"/>
								</g>
							</g>
						</g>
					</g>
				</g>
				<g>
					<path class="st11" d="M51.2,70.6c0,1.8-2,3.3-4.4,3.3s-4.4-1.5-4.4-3.3c0-1.8,2-3.3,4.4-3.3S51.2,68.8,51.2,70.6z"/>
					<path class="st11" d="M75.3,73.2c0,0.2,0,0.3-0.1,0.5c-2-0.3-3.5-1.6-3.5-3.2c0-1.6,1.6-3,3.7-3.2
						C75.2,69.7,75.5,71.4,75.3,73.2z"/>
				</g>
				<path class="st31" d="M52.8,79.9c-5-3.9-6.6-10.8-5.9-17.1c0.6-5.7,2.6-11.3,5.6-16.2c0.9-1.4,3.1-3.5,2.8-5.2
					c-6.2,1.1-10.7,4.1-14.1,7.2c-2.8,2.6-4.5,9.9-4.3,15.8c-0.3,0.3-0.5,0.8-0.8,1.5c-0.1,0.8,0,1.7,0.5,2.4
					c0.2,0.3,0.5,0.6,0.9,0.8c0.2,0.6,0.4,1.1,0.6,1.6c2.7,5.1,15,14.9,20.7,14.4c2.5-0.2,4.4-0.8,7.4-2.3
					C61.4,83.4,56.6,82.8,52.8,79.9z"/>
				<g>
					<g>
						<g>
							<g>
								<g>
									<g>
										<path class="st32" d="M75.9,64.9c0,0,0.2-0.8,0.3-1.8c0.2-0.9,0.3-2.1,0.4-2.6c0.1-0.6,0.2-1.9,0.3-3.1
											c0-0.6,0.1-1.2,0.1-1.6c0-0.4,0-0.7,0-0.7c0,0,0,0.3,0.1,0.7c0,0.4,0,1,0,1.6c0,1.2-0.2,2.5-0.2,3.1
											c-0.1,0.6-0.3,1.7-0.5,2.6c-0.1,0.5-0.2,0.9-0.3,1.2C76,64.7,76,64.9,75.9,64.9z"/>
									</g>
								</g>
							</g>
						</g>
						<g>
							<g>
								<g>
									<g>
										<path class="st32" d="M72.3,78.6c0,0-0.2,0.2-0.5,0.5c-0.3,0.3-0.8,0.7-1.4,1.1c-1.1,0.8-2.5,1.6-3.2,2
											c-0.7,0.4-2.4,1.2-4,1.8c-0.8,0.3-1.6,0.5-2.1,0.7c-0.3,0.1-0.5,0.1-0.7,0.1c-0.2,0-0.3,0-0.3,0c0,0,0.4-0.1,0.9-0.2
											c0.6-0.1,1.3-0.4,2.1-0.7c1.6-0.6,3.2-1.5,4-1.9c0.7-0.4,2.1-1.2,3.2-2c0.6-0.4,1.1-0.8,1.4-1.1
											C72.1,78.8,72.3,78.6,72.3,78.6z"/>
									</g>
								</g>
							</g>
						</g>
						<g>
							<g>
								<g>
									<g>
										<path class="st32" d="M56,84.6c0,0-0.1,0-0.4-0.1c-0.2-0.1-0.5-0.2-0.9-0.3c-0.8-0.3-1.8-0.7-2.9-1.3
											c-2.2-1.1-4.5-2.8-5.7-3.7c-1.2-0.9-3.8-3.1-5.7-5.4c-1-1.1-1.8-2.3-2.3-3.2c-0.3-0.5-0.4-0.8-0.5-1.1
											c-0.1-0.3-0.1-0.4-0.1-0.4c0,0,0.2,0.6,0.8,1.5c0.5,0.9,1.4,2,2.4,3.1c2,2.3,4.6,4.5,5.7,5.4c1.1,0.9,3.4,2.6,5.6,3.8
											c1.1,0.6,2.1,1,2.9,1.4c0.4,0.1,0.7,0.3,0.9,0.3C55.9,84.6,56,84.6,56,84.6z"/>
									</g>
								</g>
							</g>
						</g>
					</g>
					<g>
						<g>
							<g>
								<g>
									<path class="st32" d="M36,65.9c0,0-0.1,0.6,0.1,1.3c0.2,0.7,0.7,1.3,1.1,1.6c0.2,0.1,0.5,0.3,0.9,0.4
										c0.4,0.1,0.9,0.1,1.3-0.1c0.4-0.2,0.7-0.4,0.9-0.7c0.2-0.2,0.3-0.4,0.3-0.4c0.1,0-0.2,0.9-1.1,1.2c-0.4,0.2-1,0.2-1.4,0.1
										c-0.4-0.1-0.8-0.3-1-0.4c-0.4-0.2-1-1-1.1-1.7C35.8,66.5,35.9,65.9,36,65.9z"/>
								</g>
							</g>
						</g>
					</g>
				</g>
				<path class="st31" d="M41.3,54.2c3-4,7.3-6.6,12.2-7.7c7.7-1.8,18.5-1,22.3,2.6c-0.5-1.4-0.8-4.4-2-5.2c-1.3-0.8-2.6-1.3-4-1.7
					c-4.4-1.5-8.9-3-13.5-3c-6.6,0-13.1,3.4-16.9,8.7c-2.5,3.4-3.8,7.6-4,11.8c0,1.1,0,2.2,0.1,3.2c0.1,0.7,0.1,2.5,0.6,3.1
					c0.8,0.9,0.8-1.1,0.9-1.7c0.3-1.1,0.6-2.2,0.9-3.3C38.7,58.6,39.8,56.3,41.3,54.2z"/>
				<g>
					<path class="st17" d="M77.2,56c0.2-2.6-0.8-6.8-2.8-9.5c-0.1-0.1-0.2-0.2-0.3-0.3c-2.2-2.7-20.6-4-28.8,1.2
						c-8.2,5.2-8.4,21.4-8.4,21.4c-5.1,0-8.3-12.8-5.5-23.8c2-7.7,8.3-13,14.3-15.7c2.6-1.2,5.1-1.9,7.2-2.2
						C59.8,26.2,74,28.7,77.2,41C80.3,53.2,77.2,56,77.2,56z"/>
					<path class="st16" d="M74.3,46.5c-0.1-0.1-0.2-0.2-0.3-0.3c-2.2-2.7-20.6-4-28.8,1.2c-8.2,5.2-8.4,21.4-8.4,21.4
						c-4.8,0.2-8.3-12.8-5.5-23.8c2-7.7,8.3-13,14.3-15.7c-0.1,0-0.1,0.1-0.2,0.1c-1.5,1-2.6,2.2-3.8,3.4c-0.9,1-1.7,2.2-1.6,3.6
						c0.1,2.1,2.3,3.6,4.5,3.8c2.1,0.1,4.2-0.7,6.2-1.4c5.1-1.6,10.5-2,15.8-1.2c-5.4-0.5-11,1-15.5,4.2c5.6-1.6,11.6-1.6,17.2,0
						c1.5,0.4,3.1,1,4.3,2C73.4,44.5,74,45.5,74.3,46.5z"/>
					<path class="st35" d="M71.5,41.5c-2.5-0.7-5.4-0.9-7.2-2.8c-0.9-1-1.6-2.4-3-2.5c-1.4,0-2.1,1.6-3,2.6
						c-1.2,1.5-3.2,2.3-5.1,2.6c-1.9,0.4-3.9,0.4-5.8,0.8c-2.8,0.6-5.4,2-8,3.4c-1.4,0.8-2.9,1.6-3.7,2.9c-0.7,1.1-0.9,2.5-1.7,3.6
						s-2.3,1.9-3.3,1c2.9-7.1,8.5-13.1,15.4-16.5c6.9-3.3,15.1-4,22.5-1.7c2.2,0.7,4.4,1.6,6.2,3.1c0.9,0.8,4,3.8,2.7,5.1
						c-0.8,0.7-1.8-0.1-2.5-0.4C73.8,42.2,72.6,41.8,71.5,41.5z"/>
					<g>
						<g>
							<g>
								<g>
									<g>
										<path class="st36" d="M48.3,41c0,0.1-1.4,0.6-2.9,1.6c-1.5,1-3,2.4-3.7,3.2c-0.7,0.8-2.3,2.7-3.2,4.7
											c-1,2-1.4,3.9-1.4,3.9c0,0,0-0.5,0.2-1.2c0.2-0.7,0.5-1.8,0.9-2.8c0.9-2.1,2.4-4.1,3.2-4.9c0.7-0.8,2.3-2.2,3.9-3.1
											c0.8-0.5,1.6-0.8,2.1-1C47.9,41,48.2,40.9,48.3,41z"/>
									</g>
								</g>
							</g>
						</g>
						<g>
							<g>
								<g>
									<g>
										<path class="st36" d="M76.8,46.2c-0.1,0-0.4-0.5-0.9-1c-0.5-0.6-1-1.2-1.3-1.5c-0.3-0.3-0.9-1.1-1.6-1.7
											c-0.6-0.6-1.2-1.2-1.2-1.2c0-0.1,0.7,0.4,1.4,1c0.7,0.6,1.4,1.3,1.7,1.7c0.3,0.3,0.8,1,1.2,1.7
											C76.6,45.6,76.8,46.1,76.8,46.2z"/>
									</g>
								</g>
							</g>
						</g>
						<g>
							<g>
								<g>
									<g>
										<path class="st36" d="M34.8,51.1c0.1,0.1-0.1,0.9-0.2,1.2c0,0.1-0.1,0.5-0.2,0.8c-0.1,0.3-0.1,0.6-0.2,0.6
											c-0.1,0-0.2-0.3-0.2-0.6c0-0.3,0-0.7,0.1-0.9C34.1,51.8,34.6,51,34.8,51.1z"/>
									</g>
								</g>
							</g>
						</g>
					</g>
				</g>
				<g>
					<g>
						<path class="st11" d="M64.4,35.7c0,0-3.1-0.8-7.5,0.5l0.1-1l0.1-1.1c0,0,3.6-1.2,6.9-0.4l0.1,0.9L64.4,35.7z"/>
						<path class="st14" d="M64.4,35.7c0,0-3.1-0.8-7.5,0.5l0.1-1c0,0,0,0,0,0c1-1,3.5-0.9,4.8-0.9c0.8,0,1.6,0.1,2.4,0.3L64.4,35.7
							z"/>
						<g>
							<g>
								<path class="st11" d="M37.1,45.3c-1.6,2.5-6.8,9.9-7,8.2c0-0.3-0.1-0.7,0-1c0.6-3,5.6-8.6,5.6-8.6s0.6-0.2,1.1-0.3
									C37.5,43.7,37.9,43.9,37.1,45.3z"/>
								<path class="st21" d="M40.2,43.2c-0.9,1.7-2.1,2.5-3.1,2.2c-0.4-0.1-0.8-0.4-1.2-0.9c0,0,0,0,0,0c-0.1-0.1-0.2-0.3-0.2-0.4
									c-0.3-1.3,1.9-3,2.8-3.3c0.2-0.1,0.4-0.1,0.4-0.1s0.5-0.1,1,0.2C40.4,41.2,40.8,41.9,40.2,43.2z"/>
							</g>
							<g>
								<path class="st11" d="M58.8,34.5c0,2.4-1.8,4.1-4,4.9c-1.2,0.4-2.4,0.7-3.7,0.9c-1.9,0.4-3.7,0.8-5.5,1.2
									c-0.7,0.2-1.4,0.4-2.1,0.7c-0.7,0.4-1.3,0.9-2,1.1c-0.7,0.1-1.4-0.1-2-0.5c-0.5-0.3-0.9-0.7-1.1-1.1
									c-0.3-0.7-0.1-1.5,0.2-2.2c0.2-0.5,0.4-1,0.7-1.5c0.5-1,1.3-1.8,2.1-2.6c1.5-1.4,3.4-2.4,5.3-3.1c2.2-0.9,4.6-1.3,7-1.2
									c0.6,0,1.3,0.1,2,0.2c0.9,0.2,1.7,0.5,2.4,1.1C58.5,33,58.8,33.8,58.8,34.5z"/>
							</g>
							<path class="st22" d="M56,33.4c-0.4,1.3-2.8,2.8-6.1,3.7c-2.9,0.8-5.6,0.7-6.8,0.1c-0.4-0.2-0.6-0.5-0.7-0.8
								c-0.4-1.4,2.3-3.3,6.1-4.3c3.8-1,7.1-0.7,7.5,0.7C56.1,33,56.1,33.2,56,33.4z"/>
							<path class="st16" d="M56,33.4c-0.4,1.3-2.8,2.8-6.1,3.7c-2.9,0.8-5.6,0.7-6.8,0.1c0.4-1.3,2.8-2.8,6.1-3.7
								C52.1,32.7,54.8,32.7,56,33.4z"/>
							<g>
								<g>
									<g>
										<g>
											<g>
												<path class="st32" d="M51.9,38.6c0,0,0.6-0.2,1.2-0.4c0.7-0.3,1.4-0.7,1.7-0.9c0.4-0.2,1.1-0.8,1.7-1.5
													c0.6-0.6,0.9-1.3,1-1.3c0,0-0.1,0.2-0.2,0.5c-0.1,0.3-0.4,0.6-0.6,1c-0.5,0.7-1.3,1.3-1.7,1.6c-0.4,0.3-1.1,0.7-1.8,0.9
													C52.5,38.5,51.9,38.6,51.9,38.6z"/>
											</g>
										</g>
									</g>
								</g>
								<g>
									<g>
										<g>
											<g>
												<path class="st32" d="M39.8,42.3c0,0.1-0.7-0.3-0.8-0.6c-0.1-0.1-0.2-0.4-0.3-0.7c-0.1-0.3-0.1-0.5,0-0.5
													c0,0,0.1,0.2,0.2,0.4c0.1,0.2,0.3,0.5,0.3,0.6C39.3,41.8,39.8,42.3,39.8,42.3z"/>
											</g>
										</g>
									</g>
								</g>
								<g>
									<g>
										<g>
											<g>
												<path class="st32" d="M36.6,44.9c0,0.1-0.5,0-0.7-0.2c-0.1-0.1-0.2-0.2-0.3-0.4c-0.1-0.2-0.1-0.3,0-0.3
													c0,0,0.4,0.5,0.5,0.5C36.2,44.6,36.6,44.8,36.6,44.9z"/>
											</g>
										</g>
									</g>
								</g>
							</g>
						</g>
						<g>
							<path class="st21" d="M77.9,43.9C77.5,44.1,77,43,76.7,42c-0.1-0.2-0.1-0.4-0.1-0.6c-0.5-2.4,1-2.1,1-2.1s0.1,0.3,0.3,0.7
								c0,0,0,0.1,0,0.1c0,0,0,0,0,0.1C78.4,41.3,79,43.4,77.9,43.9z"/>
							<g>
								<g>
									<g>
										<g>
											<path class="st32" d="M78,40.1c0,0,0.3,0.2,0.4,0.6c0.2,0.4,0.3,0.8,0.3,1.1c0,0.2,0.1,0.8-0.1,1.3
												c-0.1,0.5-0.5,0.8-0.5,0.8c0,0,0.3-0.3,0.3-0.8c0.1-0.5,0.1-1,0-1.2c0-0.2-0.1-0.7-0.2-1C78.1,40.4,78,40.1,78,40.1z"/>
										</g>
									</g>
								</g>
							</g>
							<g>
								<path class="st11" d="M77.9,40.1c0,0.4-0.2,0.8-0.4,1.1c-0.2,0.3-0.5,0.6-0.8,0.8c-0.2,0.1-0.5,0.2-0.8,0.2
									c-0.5-0.1-1-0.6-1.5-0.9c-0.5-0.3-1-0.4-1.5-0.5c-1.3-0.3-2.6-0.6-3.9-0.8c-0.9-0.2-1.7-0.3-2.6-0.6
									c-1.6-0.6-2.9-2.1-3.1-4.3c-0.1-0.7,0-1.5,0.4-2c0.2-0.4,0.5-0.7,0.9-0.9c0.6-0.4,1.3-0.5,2-0.6c1.6-0.2,3.3,0.1,4.8,0.7
									c1.9,0.8,3.8,2.2,5.1,4.2c0.6,1,1.1,2.2,1.3,3.5C77.9,40,77.9,40,77.9,40.1l0-0.1C77.9,40,77.9,40.1,77.9,40.1z"/>
							</g>
							<g>
								<g>
									<g>
										<g>
											<g>
												<path class="st32" d="M68.2,38c0,0-0.5-0.1-1-0.3c-0.5-0.2-1.1-0.5-1.3-0.7c-0.3-0.2-0.9-0.7-1.3-1.2
													c-0.4-0.5-0.7-1.1-0.7-1.1c0,0,0.3,0.5,0.8,1c0.4,0.5,1,1,1.3,1.1c0.3,0.2,0.8,0.5,1.3,0.8C67.8,37.8,68.2,38,68.2,38z"
													/>
											</g>
										</g>
									</g>
								</g>
								<g>
									<g>
										<g>
											<g>
												<path class="st32" d="M76.5,41.8c0-0.1,0.5-0.4,0.6-0.6c0.1-0.1,0.3-0.3,0.4-0.5c0.1-0.2,0.2-0.4,0.3-0.4
													c0,0,0,0.2-0.1,0.5c-0.1,0.2-0.3,0.5-0.4,0.6C77.1,41.6,76.5,41.9,76.5,41.8z"/>
											</g>
										</g>
									</g>
								</g>
							</g>
							<path class="st22" d="M65.2,33.8c0.4,1.2,2.2,2.5,4.4,3c2,0.5,3.8,0.4,4.6-0.3c0.2-0.2,0.4-0.5,0.4-0.8
								c0.2-1.3-1.9-2.9-4.5-3.6c-2.6-0.7-4.9-0.2-5.1,1.1C65.1,33.4,65.1,33.6,65.2,33.8z"/>
							<path class="st16" d="M65.2,33.8c0.4,1.2,2.2,2.5,4.4,3c2,0.5,3.8,0.4,4.6-0.3c-0.3-1.2-2.2-2.5-4.4-3.1
								C67.8,32.9,66,33.1,65.2,33.8z"/>
						</g>
					</g>
					<path class="st14" d="M58.8,34.5c0,2.4-1.8,4.1-4,4.9c-1.2,0.4-2.4,0.7-3.7,0.9c-1.9,0.4-3.7,0.8-5.5,1.2
						c-0.7,0.2-1.4,0.4-2.1,0.7c-0.7,0.4-1.3,0.9-2,1.1c-0.4,0.1-0.9,0-1.3-0.2c-0.9,1.7-2.1,2.5-3.1,2.2c-1.6,2.5-6.8,9.9-7,8.2
						c0-0.3-0.1-0.6,0-0.9c1-1.3,2.5-2.4,3.3-3.8c0.8-1.4,1.2-3,2.3-4.2c0.1-0.1,0.1-0.1,0.2-0.2c0.3-0.3,0.6-0.5,0.9-0.7
						c0.7-0.5,1.4-0.9,2-1.4c0.1-0.1,0.2-0.2,0.2-0.2c0.3-0.4,0.6-0.8,0.8-1.2c0.4-0.6,0.8-1.3,1.4-1.7c1.1-0.7,2.6-0.4,4-0.2
						c2.7,0.4,5.5,0.1,8-0.9c1-0.4,2.1-0.9,2.9-1.7c0.8-0.8,1.3-1.9,1.2-3c-0.1-0.6-0.4-1.2-0.9-1.6c-0.2-0.2-0.6-0.3-0.8-0.5
						c0.9,0.2,1.7,0.5,2.4,1.1C58.5,33,58.8,33.8,58.8,34.5z"/>
					<path class="st14" d="M78.1,43.8c0,0-0.1,0.1-0.1,0.1C77.5,44.1,77,43,76.7,42c-0.2,0.1-0.5,0.2-0.8,0.2
						c-0.5-0.1-1-0.6-1.5-0.9c-0.5-0.3-1-0.4-1.5-0.5c-1.3-0.3-2.6-0.6-3.9-0.8c-0.9-0.2-1.7-0.3-2.6-0.6c-1.6-0.6-2.9-2.1-3.1-4.3
						c-0.1-0.7,0-1.5,0.4-2c0.2-0.4,0.5-0.7,0.9-0.9c-0.5,0.6-0.7,1.3-0.7,2c0.1,1,0.8,2,1.7,2.6c0.9,0.6,1.9,0.9,2.9,1.2
						c1.6,0.4,3.3,0.5,4.9,0.4c0.8,0,1.7-0.2,2.2-0.8c0.3-0.3,0.4-0.8,0.8-1c0,0,0,0,0,0c0.6,1,1.1,2.2,1.3,3.5c0,0,0,0.1,0,0.1
						l0-0.1c0,0,0,0.1,0,0.1c0,0.1,0,0.1,0.1,0.2C77.8,41.1,77.6,43.1,78.1,43.8z"/>
				</g>
				<g>
					<path class="st34" d="M65.6,74.5c-0.4,0.5-0.8,1-1.3,1.3c-0.8,0.6-1.7,0.9-2.7,1.1c-2.7,0.3-5.2-0.8-6.3-2.6
						c-0.2-0.3-0.3-0.6-0.5-0.9c-0.3-1,0.1-1.4,1-1.6c0,0,0,0,0,0c1.6-0.2,4.6,0.4,7.9,0.3c0.7,0,1.3,0.1,1.6,0.2
						C66.5,72.7,66.2,73.6,65.6,74.5z"/>
					<path class="st11" d="M64.2,75.8c-0.8,0.6-1.7,0.9-2.7,1.1c-2.7,0.3-5.2-0.8-6.3-2.6C57,73.9,60.9,73.6,64.2,75.8z"/>
					<path class="st21" d="M65.3,72.3c-4,1.5-7.8,0.3-9.5-0.5c1.6-0.2,4.6,0.4,7.9,0.3C64.3,72.1,64.9,72.2,65.3,72.3z"/>
				</g>
				<g>
					<path class="st31" d="M58.2,60.3c-0.1,4.2-2,7.1-5.7,7.1c-3.6,0-7.2-2.9-7.2-7.1c0-4.2,0.8-8.3,6.9-7.9
						C53.1,52.4,58.4,50.9,58.2,60.3z"/>
					<path class="st34" d="M57.3,54.1L57.3,54.1c0,0-5.9-1.7-9.8-1.5c0,0,0.3-2,7.3-1.8C56.5,50.9,57.7,52.4,57.3,54.1z"/>
					<g>
						<g>
							<path class="st21" d="M57.6,63.3c0,0.2-0.1,0.3-0.1,0.5c-0.5,2-2.3,3.4-4.4,3.5c-4.1,0.3-5.8-2.1-5.8-2.1
								c-0.8-0.5-1-2.3-0.8-4.5c0.2-2.2,2.4-3.2,3.8-3.9c1-0.5,2.8-0.7,4.4,0c0.8,0.3,1.5,0.8,2.1,1.6
								C57.7,59.6,57.9,61.6,57.6,63.3z"/>
							<path class="st31" d="M57.5,63.8c-0.5,2-2.3,3.4-4.4,3.5c-4.1,0.3-5.8-2.1-5.8-2.1c-0.8-0.5-1-2.3-0.8-4.5
								c0.2-2.2,2.4-3.2,3.8-3.9c1-0.5,2.8-0.7,4.4,0c-0.5-0.1-1.1-0.3-1.2-0.3c-1.6-0.2-3.2,0.4-4.3,1.5c-1.4,1.5-1.9,3.9-1,5.7
								c0.9,1.9,3,3.1,5,3C55.1,66.5,56.7,65.4,57.5,63.8z"/>
							<g>
								<path class="st34" d="M56,66.2c0,0-0.5,0.4-1.2,0.7c-0.7,0.3-1.6,0.5-2,0.5c-0.5,0-1.5,0-2.4-0.3c-0.5-0.1-0.9-0.3-1.1-0.5
									c-0.3-0.2-0.5-0.3-0.4-0.3c0,0,0.7,0.3,1.6,0.6c0.9,0.2,1.9,0.2,2.4,0.2c0.4,0,1.3-0.1,2-0.4C55.4,66.5,56,66.2,56,66.2z"/>
							</g>
							<path class="st34" d="M54.7,56.1c-1.4-0.5-2.9-0.5-4.3,0c-5,1.7-4.8,6.8-4.8,6.8l-1.5,0l3.3,2.4c0,0-1-1.4-0.6-3.3
								c0.3-1.2,0.8-2.5,1.6-3.4c1.3-1.5,3-2.1,5.5-1.8c2,0.2,3.7,2.1,3.8,4.1C57.7,60.8,58,57.4,54.7,56.1z"/>
							<g>
								<g>
									<g>
										<g>
											<path class="st32" d="M46.1,58.4c0,0,0.4-0.7,1.2-1.3c0.7-0.6,1.7-1,2.3-1.2c0.5-0.2,1.8-0.5,3-0.4
												c1.2,0.1,2.1,0.5,2.1,0.5c0,0.1-1-0.2-2.1-0.1c-1.1,0-2.3,0.3-2.8,0.5c-0.5,0.2-1.5,0.5-2.2,1
												C46.8,57.9,46.2,58.4,46.1,58.4z"/>
										</g>
									</g>
								</g>
							</g>
						</g>
						<path class="st34" d="M56.7,61.8c0.1,2.4-1.6,4.4-3.7,4.5c-2.1,0.1-3.9-1.9-3.9-4.3c0-0.1,0-0.3,0-0.4c0.1-2.2,1.7-4,3.7-4
							c2-0.1,3.7,1.7,3.9,4C56.7,61.7,56.7,61.8,56.7,61.8z"/>
						<path class="st21" d="M57.4,60.5c0,0.4-0.5,0.7-1.2,0.6c-0.6,0-1.1-0.4-1.1-0.7s0.5-0.7,1.2-0.6
							C56.9,59.8,57.4,60.1,57.4,60.5z"/>
					</g>
				</g>
				<g>
					<path class="st31" d="M76.4,60.3c-0.1,4.2-2.2,6.9-4.7,6.9c-2.6,0-4.3-2.7-4.3-6.9c0-4.2,0.6-8.3,4.8-7.9
						C72.8,52.4,76.5,50.9,76.4,60.3z"/>
					<g>
						<path class="st21" d="M74.9,65.2c0,0-0.4,0.8-1.3,1.3C73,67,72.1,67.3,71,67.2c-1.6-0.1-2.8-1.7-3.1-3.7
							c-0.2-1.6-0.1-3.4,0.5-4.6c0.6-1.2,1.7-1.8,2.6-1.9c0.7-0.1,1.4,0.1,1.8,0.4c1,0.7,2.5,1.6,2.6,3.7
							C75.6,63.1,75.5,64.8,74.9,65.2z"/>
						<g>
							<path class="st34" d="M74.1,66.2c0,0-0.3,0.4-0.8,0.7c-0.5,0.3-1,0.5-1.4,0.5c-0.3,0-1,0-1.6-0.3c-0.3-0.1-0.6-0.3-0.8-0.5
								c-0.2-0.2-0.3-0.3-0.3-0.3c0,0,0.5,0.3,1.1,0.6c0.6,0.2,1.3,0.2,1.6,0.2c0.3,0,0.9-0.1,1.3-0.4
								C73.7,66.5,74.1,66.2,74.1,66.2z"/>
						</g>
						<path class="st34" d="M74.5,62.2c0,2.2-1.4,4-3.2,4s-3.2-1.8-3.2-4c0-2.2,1.4-4,3.2-4S74.5,60,74.5,62.2z"/>
						<path class="st34" d="M69.9,56.7c0.9-0.5,2-0.5,2.9,0c3.4,1.6,3.3,6.4,3.3,6.4l1,0l-2.2,2.2c0,0,0.7-1.3,0.4-3.1
							c-0.2-1.1-0.6-2.3-1.1-3.2c-0.9-1.4-2.1-1.9-3.7-1.7c-1.4,0.2-2.5,2-2.6,3.8C67.9,61.1,67.7,57.9,69.9,56.7z"/>
						<g>
							<g>
								<g>
									<g>
										<path class="st32" d="M75.7,59c-0.1,0-0.4-0.4-0.9-0.9c-0.5-0.5-1.1-0.9-1.4-1.1c-0.3-0.2-1.2-0.6-2-0.6
											c-0.8,0-1.5,0.3-1.5,0.2c0,0,0.6-0.4,1.5-0.5c0.9-0.1,1.8,0.3,2.2,0.5c0.4,0.2,1,0.7,1.5,1.2C75.5,58.5,75.8,59,75.7,59z"
											/>
									</g>
								</g>
							</g>
						</g>
						<path class="st34" d="M68.4,54.3L68.4,54.3c0,0.1,3.7-1.7,6.3-1.8c0,0-0.3-1.4-4.4-1C69,51.7,68.1,53,68.4,54.3z"/>
						<path class="st21" d="M74.9,60.7c0,0.4-0.4,0.7-0.9,0.6c-0.5,0-0.8-0.3-0.8-0.7c0-0.4,0.4-0.7,0.9-0.6
							C74.5,60,74.9,60.3,74.9,60.7z"/>
					</g>
				</g>
			</g>
		</g>
	</g>
</g>
</svg>
