<svg width="60" height="60" viewBox="0 0 60 60" fill="none" xmlns="http://www.w3.org/2000/svg">
<path d="M20.769 27.6924H12.692C11.7304 27.6924 10.9129 27.3559 10.2398 26.6828C9.56702 26.0096 9.2302 25.1924 9.2302 24.2305V23.0772C9.2302 20.5289 10.1318 18.3536 11.9349 16.5505C13.7379 14.7481 15.9135 13.8465 18.4615 13.8465H20.769C21.3939 13.8465 21.9346 13.618 22.3915 13.1614C22.8482 12.7046 23.0766 12.164 23.0766 11.5389V6.92314C23.0766 6.29823 22.8481 5.75706 22.3915 5.30025C21.9347 4.84408 21.3941 4.61523 20.769 4.61523H18.4615C15.9613 4.61523 13.576 5.10248 11.3041 6.07558C9.03242 7.0493 7.06754 8.36554 5.40867 10.0244C3.74992 11.6825 2.43406 13.6475 1.46046 15.9195C0.486863 18.1911 0 20.5771 0 23.0771V48.4611C0 50.3852 0.672768 52.0189 2.01894 53.3656C3.36523 54.7115 5.00023 55.3844 6.92318 55.3844H20.7699C22.6928 55.3844 24.3273 54.7115 25.6737 53.3656C27.0196 52.0189 27.6927 50.3852 27.6927 48.4611V34.6155C27.6927 32.6918 27.0196 31.0581 25.6728 29.7113C24.327 28.3655 22.6919 27.6924 20.769 27.6924Z" fill="white" fill-opacity="0.1"/>
<path d="M57.9819 29.7113C56.6362 28.3655 55.0015 27.6924 53.0782 27.6924H45.0013C44.0402 27.6924 43.222 27.3559 42.55 26.6828C41.8766 26.0096 41.5404 25.1924 41.5404 24.2305V23.0772C41.5404 20.5289 42.442 18.3536 44.2442 16.5505C46.0465 14.7481 48.2221 13.8465 50.7713 13.8465H53.0783C53.7034 13.8465 54.2444 13.618 54.701 13.1614C55.1573 12.7046 55.3865 12.164 55.3865 11.5389V6.92314C55.3865 6.29823 55.1574 5.75706 54.701 5.30025C54.2445 4.84408 53.7035 4.61523 53.0783 4.61523H50.7713C48.2697 4.61523 45.8849 5.10248 43.6123 6.07558C41.3411 7.0493 39.3768 8.36554 37.718 10.0244C36.0591 11.6825 34.7426 13.6475 33.7694 15.9195C32.796 18.1911 32.3085 20.5771 32.3085 23.0771V48.4611C32.3085 50.3852 32.9819 52.0189 34.3277 53.3656C35.6736 54.7115 37.3083 55.3844 39.2315 55.3844H53.0774C55.0008 55.3844 56.6353 54.7115 57.9811 53.3656C59.3279 52.0189 59.9999 50.3852 59.9999 48.4611V34.6155C60 32.6917 59.3279 31.0581 57.9819 29.7113Z" fill="white" fill-opacity="0.1"/>
</svg>
