<svg width="164" height="40" viewBox="0 0 164 40" fill="none" xmlns="http://www.w3.org/2000/svg">
<g clip-path="url(#clip0_444_4555)">
<path d="M47.7571 28.0911H59.4944V24.5789H51.9288V11.3496H47.7571V28.0911Z" fill="#080517"/>
<path d="M66.4483 25.75C64.775 25.75 63.9029 24.2983 63.9029 22.1208C63.9029 19.9432 64.775 18.4681 66.4483 18.4681C68.1217 18.4681 69.0173 19.9432 69.0173 22.1208C69.0173 24.2983 68.1217 25.75 66.4483 25.75ZM66.4719 28.4661C70.3608 28.4661 72.9062 25.7266 72.9062 22.1208C72.9062 18.5149 70.3608 15.7754 66.4719 15.7754C62.6066 15.7754 60.014 18.5149 60.014 22.1208C60.014 25.7266 62.6066 28.4661 66.4719 28.4661Z" fill="#080517"/>
<path d="M79.6376 32.2359C81.4288 32.2359 83.0079 31.8378 84.0685 30.9012C85.0348 30.0349 85.6712 28.7237 85.6712 26.9207V16.1032H81.9944V17.391H81.9473C81.2402 16.3841 80.1561 15.752 78.5534 15.752C75.5601 15.752 73.4861 18.2339 73.4861 21.7461C73.4861 25.4222 76.008 27.4359 78.7184 27.4359C80.1796 27.4359 81.0988 26.8505 81.8059 26.0544H81.9002V27.2485C81.9002 28.7002 81.2167 29.5432 79.5904 29.5432C78.3177 29.5432 77.6813 29.0046 77.4692 28.3724H73.7453C74.1224 30.8778 76.3143 32.2359 79.6376 32.2359ZM79.614 24.6027C78.1763 24.6027 77.2335 23.432 77.2335 21.629C77.2335 19.8027 78.1763 18.632 79.614 18.632C81.2167 18.632 82.0651 19.99 82.0651 21.6056C82.0651 23.2915 81.2874 24.6027 79.614 24.6027Z" fill="#080517"/>
<path d="M93.2313 25.75C91.5579 25.75 90.6859 24.2983 90.6859 22.1208C90.6859 19.9432 91.5579 18.4681 93.2313 18.4681C94.9047 18.4681 95.8003 19.9432 95.8003 22.1208C95.8003 24.2983 94.9047 25.75 93.2313 25.75ZM93.2549 28.4661C97.1437 28.4661 99.6895 25.7266 99.6895 22.1208C99.6895 18.5149 97.1437 15.7754 93.2549 15.7754C89.3896 15.7754 86.797 18.5149 86.797 22.1208C86.797 25.7266 89.3896 28.4661 93.2549 28.4661Z" fill="#080517"/>
<path d="M100.811 28.0911H104.653V16.1028H100.811V28.0911ZM100.811 14.4403H104.653V11.3496H100.811V14.4403Z" fill="#080517"/>
<path d="M106.319 32.0485H110.161V26.8505H110.208C110.962 27.8573 112.07 28.4661 113.625 28.4661C116.784 28.4661 118.881 25.9841 118.881 22.0973C118.881 18.4915 116.925 15.752 113.72 15.752C112.07 15.752 110.891 16.4778 110.067 17.5549H109.996V16.1032H106.319V32.0485ZM112.636 25.5159C110.986 25.5159 110.043 24.1812 110.043 22.2378C110.043 20.2944 110.891 18.8193 112.565 18.8193C114.215 18.8193 114.992 20.1773 114.992 22.2378C114.992 24.2749 114.097 25.5159 112.636 25.5159Z" fill="#080517"/>
<path d="M125.137 28.4661C128.295 28.4661 130.629 27.1081 130.629 24.4856C130.629 21.4183 128.13 20.8798 126.009 20.5285C124.477 20.2476 123.11 20.1305 123.11 19.2876C123.11 18.5383 123.841 18.1871 124.783 18.1871C125.844 18.1871 126.575 18.5149 126.716 19.592H130.251C130.063 17.2271 128.224 15.752 124.807 15.752C121.955 15.752 119.598 17.0632 119.598 19.592C119.598 22.4017 121.837 22.9637 123.935 23.3149C125.538 23.5959 126.999 23.7129 126.999 24.79C126.999 25.5627 126.268 25.9841 125.113 25.9841C123.841 25.9841 123.039 25.3988 122.898 24.2046H119.268C119.386 26.8505 121.602 28.4661 125.137 28.4661Z" fill="#080517"/>
<path d="M135.846 28.4411C137.519 28.4411 138.58 27.7855 139.452 26.6147H139.523V28.0899H143.2V16.1016H139.358V22.7981C139.358 24.2264 138.556 25.2099 137.237 25.2099C136.011 25.2099 135.422 24.484 135.422 23.1728V16.1016H131.604V23.9689C131.604 26.6381 133.065 28.4411 135.846 28.4411Z" fill="#080517"/>
<path d="M144.871 28.0915H148.713V21.3715C148.713 19.9432 149.42 18.9363 150.622 18.9363C151.777 18.9363 152.319 19.6856 152.319 20.9734V28.0915H156.16V21.3715C156.16 19.9432 156.844 18.9363 158.07 18.9363C159.224 18.9363 159.766 19.6856 159.766 20.9734V28.0915H163.608V20.2944C163.608 17.6017 162.241 15.752 159.507 15.752C157.952 15.752 156.655 16.4076 155.713 17.8593H155.666C155.053 16.5715 153.851 15.752 152.272 15.752C150.528 15.752 149.373 16.5715 148.618 17.8124H148.548V16.1032H144.871V28.0915Z" fill="#080517"/>
<path fill-rule="evenodd" clip-rule="evenodd" d="M8.4987 3.79527C7.09374 4.77123 5.82328 5.92513 4.7204 7.22408C9.22726 6.8084 14.9531 7.48715 21.6007 10.7892C28.6994 14.3153 34.4156 14.4345 38.3939 13.6722C38.0329 12.5864 37.5784 11.5429 37.0401 10.5509C32.4861 11.0281 26.6479 10.3964 19.844 7.01684C15.5234 4.87069 11.7149 3.98662 8.4987 3.79527ZM34.3799 6.7892C30.7836 2.79735 25.5573 0.285156 19.7403 0.285156C18.032 0.285156 16.3746 0.501846 14.7945 0.909039C16.9345 1.48914 19.2079 2.33782 21.6007 3.52639C26.5821 6.00079 30.8829 6.7975 34.3799 6.7892ZM39.2444 17.4833C34.4383 18.4261 27.8016 18.2324 19.844 14.2797C12.4045 10.5843 6.48327 10.6308 2.48979 11.5125C2.28366 11.5579 2.08238 11.6057 1.88596 11.6555C1.36312 12.7851 0.945765 13.973 0.646311 15.2066C0.966144 15.1217 1.29664 15.041 1.63763 14.9657C6.48242 13.8962 13.3277 13.9426 21.6007 18.0521C29.0403 21.7475 34.9614 21.7009 38.955 20.8193C39.0918 20.7891 39.2266 20.7579 39.3592 20.7257C39.3737 20.4181 39.381 20.1085 39.381 19.7973C39.381 19.0144 39.3347 18.2422 39.2444 17.4833ZM38.7179 24.8435C33.9585 25.6701 27.5151 25.3528 19.844 21.5425C12.4045 17.8471 6.48327 17.8936 2.48979 18.7753C1.60335 18.9709 0.805928 19.2092 0.102487 19.4608C0.100569 19.5727 0.0996094 19.6849 0.0996094 19.7973C0.0996094 30.5736 8.89304 39.3095 19.7403 39.3095C28.8311 39.3095 36.4794 33.1738 38.7179 24.8435Z" fill="#080517"/>
</g>
<defs>
<clipPath id="clip0_444_4555">
<rect width="164" height="40" fill="white"/>
</clipPath>
</defs>
</svg>
