<svg width="166" height="40" viewBox="0 0 166 40" fill="none" xmlns="http://www.w3.org/2000/svg">
<g clip-path="url(#clip0_427_4635)">
<path d="M50.0713 28.6077H61.7421V25.0955H54.2193V11.8662H50.0713V28.6077Z" fill="white"/>
<path d="M68.6562 26.2666C66.9923 26.2666 66.1252 24.8149 66.1252 22.6374C66.1252 20.4598 66.9923 18.9847 68.6562 18.9847C70.3201 18.9847 71.2107 20.4598 71.2107 22.6374C71.2107 24.8149 70.3201 26.2666 68.6562 26.2666ZM68.6797 28.9827C72.5465 28.9827 75.0775 26.2432 75.0775 22.6374C75.0775 19.0315 72.5465 16.292 68.6797 16.292C64.8363 16.292 62.2584 19.0315 62.2584 22.6374C62.2584 26.2432 64.8363 28.9827 68.6797 28.9827Z" fill="white"/>
<path d="M81.7706 32.7525C83.5517 32.7525 85.1219 32.3544 86.1765 31.4178C87.1373 30.5515 87.7701 29.2403 87.7701 27.4373V16.6198H84.1142V17.9076H84.0673C83.3642 16.9008 82.2862 16.2686 80.6926 16.2686C77.7163 16.2686 75.654 18.7505 75.654 22.2627C75.654 25.9388 78.1616 27.9525 80.8566 27.9525C82.3096 27.9525 83.2236 27.3671 83.9267 26.571H84.0204V27.7651C84.0204 29.2168 83.3408 30.0598 81.7238 30.0598C80.4582 30.0598 79.8255 29.5212 79.6146 28.889H75.9118C76.2868 31.3944 78.4662 32.7525 81.7706 32.7525ZM81.7472 25.1193C80.3176 25.1193 79.3802 23.9486 79.3802 22.1456C79.3802 20.3193 80.3176 19.1486 81.7472 19.1486C83.3408 19.1486 84.1845 20.5066 84.1845 22.1222C84.1845 23.8081 83.4111 25.1193 81.7472 25.1193Z" fill="white"/>
<path d="M95.2873 26.2666C93.6234 26.2666 92.7563 24.8149 92.7563 22.6374C92.7563 20.4598 93.6234 18.9847 95.2873 18.9847C96.9512 18.9847 97.8414 20.4598 97.8414 22.6374C97.8414 24.8149 96.9512 26.2666 95.2873 26.2666ZM95.3108 28.9827C99.1772 28.9827 101.708 26.2432 101.708 22.6374C101.708 19.0315 99.1772 16.292 95.3108 16.292C91.4674 16.292 88.8895 19.0315 88.8895 22.6374C88.8895 26.2432 91.4674 28.9827 95.3108 28.9827Z" fill="white"/>
<path d="M102.824 28.6077H106.644V16.6194H102.824V28.6077ZM102.824 14.9569H106.644V11.8662H102.824V14.9569Z" fill="white"/>
<path d="M108.301 32.5651H112.121V27.3671H112.168C112.918 28.3739 114.02 28.9827 115.566 28.9827C118.707 28.9827 120.792 26.5007 120.792 22.6139C120.792 19.0081 118.847 16.2686 115.66 16.2686C114.02 16.2686 112.848 16.9944 112.028 18.0715H111.957V16.6198H108.301V32.5651ZM114.582 26.0325C112.942 26.0325 112.004 24.6978 112.004 22.7544C112.004 20.811 112.848 19.3359 114.512 19.3359C116.152 19.3359 116.926 20.6939 116.926 22.7544C116.926 24.7915 116.035 26.0325 114.582 26.0325Z" fill="white"/>
<path d="M127.011 28.9827C130.152 28.9827 132.472 27.6247 132.472 25.0022C132.472 21.9349 129.988 21.3964 127.879 21.0451C126.355 20.7642 124.996 20.6471 124.996 19.8042C124.996 19.0549 125.723 18.7037 126.66 18.7037C127.715 18.7037 128.441 19.0315 128.582 20.1086H132.097C131.909 17.7437 130.082 16.2686 126.683 16.2686C123.848 16.2686 121.504 17.5798 121.504 20.1086C121.504 22.9183 123.731 23.4803 125.816 23.8315C127.41 24.1125 128.863 24.2295 128.863 25.3066C128.863 26.0793 128.136 26.5008 126.988 26.5008C125.723 26.5008 124.926 25.9154 124.785 24.7212H121.176C121.293 27.3671 123.496 28.9827 127.011 28.9827Z" fill="white"/>
<path d="M137.661 28.9596C139.325 28.9596 140.379 28.304 141.246 27.1333H141.317V28.6084H144.973V16.6201H141.153V23.3167C141.153 24.745 140.356 25.7284 139.043 25.7284C137.825 25.7284 137.239 25.0026 137.239 23.6913V16.6201H133.442V24.4874C133.442 27.1567 134.895 28.9596 137.661 28.9596Z" fill="white"/>
<path d="M146.635 28.6081H150.455V21.8881C150.455 20.4598 151.158 19.4529 152.353 19.4529C153.501 19.4529 154.04 20.2022 154.04 21.49V28.6081H157.86V21.8881C157.86 20.4598 158.54 19.4529 159.758 19.4529C160.907 19.4529 161.446 20.2022 161.446 21.49V28.6081H165.266V20.811C165.266 18.1183 163.906 16.2686 161.188 16.2686C159.641 16.2686 158.352 16.9242 157.415 18.3759H157.368C156.759 17.0881 155.563 16.2686 153.993 16.2686C152.259 16.2686 151.111 17.0881 150.361 18.329H150.291V16.6198H146.635V28.6081Z" fill="white"/>
<path fill-rule="evenodd" clip-rule="evenodd" d="M19.6284 39.3398C30.4143 39.3398 39.1578 30.6039 39.1578 19.8276C39.1578 9.05133 30.4143 0.31543 19.6284 0.31543C8.84266 0.31543 0.0990601 9.05133 0.0990601 19.8276C0.0990601 30.6039 8.84266 39.3398 19.6284 39.3398ZM22.6428 15.3911C24.3075 13.7278 24.3075 11.0311 22.6428 9.36778C20.978 7.70448 18.2789 7.70448 16.6142 9.36778C14.9495 11.0311 14.9495 13.7278 16.6142 15.3911L19.6284 18.4027L22.6428 15.3911ZM24.0689 22.8393C25.7337 24.5026 28.4328 24.5026 30.0976 22.8393C31.7622 21.176 31.7622 18.4793 30.0976 16.816C28.4328 15.1528 25.7337 15.1528 24.0689 16.816L21.0547 19.8277L24.0689 22.8393ZM22.6428 30.2875C24.3075 28.6242 24.3075 25.9275 22.6428 24.2642L19.6284 21.2526L16.6142 24.2642C14.9495 25.9275 14.9495 28.6242 16.6142 30.2875C18.2789 31.9508 20.978 31.9508 22.6428 30.2875ZM9.15937 22.8393C7.49464 21.176 7.49464 18.4793 9.15937 16.816C10.8242 15.1528 13.5232 15.1528 15.188 16.816L18.2023 19.8277L15.188 22.8393C13.5232 24.5026 10.8242 24.5026 9.15937 22.8393Z" fill="#D5EB45"/>
</g>
<defs>
<clipPath id="clip0_427_4635">
<rect width="166" height="40" fill="white"/>
</clipPath>
</defs>
</svg>
