<svg width="140" height="140" viewBox="0 0 140 140" fill="none" xmlns="http://www.w3.org/2000/svg">
<circle cx="70" cy="70" r="70" fill="#D5EB45"/>
<circle cx="69.9995" cy="69.9987" r="32.3073" fill="#080517"/>
<path d="M63.9813 56.7156C63.7953 56.8225 63.5986 56.9127 63.3912 56.9861C63.5475 57.4917 63.6852 58.0026 63.8043 58.5188C64.1218 58.4511 64.4366 58.3709 64.7484 58.2784C64.6953 57.7617 64.5773 57.2608 64.3943 56.7758C64.262 56.7172 64.1243 56.6971 63.9813 56.7156Z" fill="#D5EB45"/>
<path d="M85.5188 58.3996C85.8397 58.6135 86.1741 58.8139 86.5219 59.0007C86.6431 63.0945 86.3284 67.1517 85.5778 71.1723C85.5974 71.2023 85.6171 71.2324 85.6368 71.2624C86.4846 70.7295 87.3402 70.2086 88.2036 69.6996C88.6426 66.9135 88.8885 64.1085 88.9411 61.2847C89.0098 60.0728 89.0195 58.8507 88.9706 57.6182C84.813 55.0354 80.358 53.1721 75.6057 52.0283C75.5272 52.4069 75.4879 52.8076 75.4877 53.2305C75.4887 53.6558 75.5084 54.0766 75.5467 54.4927C79.0369 55.3572 82.3609 56.6595 85.5188 58.3996Z" fill="#D5EB45"/>
<path d="M76.3728 57.1071C76.3531 57.057 76.3334 57.0069 76.3138 56.9568C76.0223 56.8445 75.7273 56.7443 75.4287 56.6562C75.2541 57.1836 75.1164 57.7246 75.0156 58.2791C75.3445 58.3841 75.6789 58.4643 76.0187 58.5195C76.1319 58.0484 76.2499 57.5776 76.3728 57.1071Z" fill="#D5EB45"/>
<path d="M77.9957 59.3616C78.3166 58.7279 78.6215 58.0867 78.9103 57.4382C78.7466 57.2747 78.55 57.1745 78.3202 57.1377C77.9979 57.9021 77.7226 58.6835 77.4941 59.4818C77.7027 59.5992 77.8699 59.5592 77.9957 59.3616Z" fill="#D5EB45"/>
<path d="M50.9404 64.3502C51.0119 65.5362 51.1103 66.7183 51.2355 67.8964C51.2225 68.1729 51.2618 68.4334 51.3535 68.6778C51.3332 68.9556 51.3725 69.2161 51.4715 69.4592C51.456 69.548 51.4757 69.6282 51.5305 69.6996C52.4009 70.2281 53.2762 70.749 54.1563 71.2624C53.449 67.2101 53.1441 63.1229 53.2417 59.0007C55.5636 57.5977 58.0025 56.4556 60.5585 55.5746C61.7525 55.1292 62.9719 54.7685 64.2169 54.4927C64.2748 53.676 64.2945 52.8545 64.2759 52.0283C64.2169 52.0283 64.1579 52.0283 64.0989 52.0283C60.976 52.8074 57.9667 53.9093 55.0709 55.3342C53.6355 55.9952 52.239 56.7365 50.8814 57.5581C50.8224 59.2406 50.8028 60.9236 50.8224 62.6071C50.8821 63.1776 50.9214 63.7586 50.9404 64.3502Z" fill="#D5EB45"/>
<path d="M60.9713 57.318C60.9056 57.3915 60.8957 57.4717 60.9418 57.5584C61.2709 58.2491 61.6151 58.9303 61.9744 59.6021C62.0731 59.5067 62.1911 59.4666 62.3285 59.4818C62.0763 58.6913 61.801 57.9099 61.5024 57.1377C61.4434 57.1377 61.3844 57.1377 61.3254 57.1377C61.2135 57.1967 61.0955 57.2568 60.9713 57.318Z" fill="#D5EB45"/>
<path d="M80.4444 58.0391C80.0475 58.7069 79.664 59.3881 79.2938 60.0827C79.3524 60.4927 79.5097 60.5328 79.7659 60.2029C80.1923 59.588 80.5955 58.9569 80.9755 58.3096C80.8136 58.187 80.6366 58.0969 80.4444 58.0391Z" fill="#D5EB45"/>
<path d="M60.5289 60.263C60.5683 60.2029 60.5683 60.1428 60.5289 60.0827C60.16 59.4714 59.806 58.8503 59.4668 58.2194C59.422 58.1254 59.3531 58.0653 59.2603 58.0391C59.1665 58.1476 59.0485 58.2277 58.9062 58.2795C58.8423 58.3315 58.8325 58.3916 58.8767 58.4598C59.3294 59.1307 59.7916 59.7919 60.2634 60.4433C60.3468 60.3758 60.4353 60.3156 60.5289 60.263Z" fill="#D5EB45"/>
<path d="M81.2116 61.4352C81.7744 60.8421 82.3152 60.231 82.8343 59.6019C82.8439 59.4885 82.7947 59.3984 82.6868 59.3315C82.5743 59.2461 82.4563 59.1759 82.3327 59.1211C81.9095 59.8216 81.4276 60.4827 80.8871 61.1046C80.8477 61.1647 80.8477 61.2248 80.8871 61.2849C80.988 61.3718 81.0962 61.4218 81.2116 61.4352Z" fill="#D5EB45"/>
<path d="M58.6704 61.4356C58.758 61.341 58.8564 61.2609 58.9655 61.1952C58.4851 60.5355 57.9933 59.8844 57.4903 59.2418C57.4416 59.1885 57.3826 59.1685 57.3133 59.1816C57.1866 59.3001 57.049 59.4102 56.9003 59.5122C57.4412 60.1434 57.982 60.7745 58.5229 61.4056C58.5653 61.4627 58.6145 61.4727 58.6704 61.4356Z" fill="#D5EB45"/>
<path d="M82.4508 63.0584C83.2667 62.4726 84.0928 61.9016 84.9291 61.3454C84.7462 61.009 84.5102 60.7285 84.221 60.5039C83.5148 61.2132 82.7969 61.9144 82.0673 62.6076C82.074 62.7785 82.1429 62.9288 82.2738 63.0584C82.3328 63.0985 82.3918 63.0985 82.4508 63.0584Z" fill="#D5EB45"/>
<path d="M57.4904 63.0584C57.6131 62.9169 57.7016 62.7667 57.7559 62.6076C57.097 61.9765 56.4381 61.3454 55.7792 60.7143C55.6668 60.6289 55.5488 60.5587 55.4252 60.5039C55.2755 60.7874 55.0886 61.0479 54.8646 61.2853C54.8252 61.3254 54.8252 61.3654 54.8646 61.4055C55.6859 61.949 56.5021 62.5 57.3134 63.0584C57.3724 63.0985 57.4314 63.0985 57.4904 63.0584Z" fill="#D5EB45"/>
<path d="M54.8936 63.3879C54.745 63.5476 54.686 63.728 54.7166 63.9289C55.2748 64.2274 55.8255 64.538 56.3687 64.8605C56.4445 64.9017 56.5134 64.8916 56.5753 64.8305C56.6127 64.7424 56.6619 64.6622 56.7228 64.5901C56.1846 64.1853 55.6338 63.7946 55.0706 63.418C55.0147 63.389 54.9556 63.379 54.8936 63.3879Z" fill="#D5EB45"/>
<path d="M85.106 63.8682C85.0371 63.728 84.9683 63.5877 84.8995 63.4475C84.8398 63.3972 84.771 63.3771 84.693 63.3874C84.1365 63.7628 83.5858 64.1535 83.0408 64.5594C83.0985 64.6879 83.1772 64.7981 83.2768 64.89C83.8966 64.5644 84.5063 64.2238 85.106 63.8682Z" fill="#D5EB45"/>
<path d="M85.7541 76.2506C85.5542 75.9562 85.3181 75.6858 85.046 75.4391C84.1577 75.5219 83.2726 75.6221 82.3907 75.7397C83.0338 75.4664 83.7025 75.2961 84.3969 75.2288C84.3423 74.6914 84.1752 74.1905 83.8954 73.7261C83.5651 73.2393 83.2012 72.7784 82.8037 72.3437C83.2007 70.6015 82.7975 69.0788 81.5941 67.7756C81.7108 67.0609 81.7501 66.3396 81.7121 65.6117C81.5125 64.2732 80.9322 63.1412 79.9714 62.2157C78.8205 61.3511 77.5224 60.9303 76.077 60.9535C75.2019 60.2052 74.2184 59.6543 73.1267 59.3005C72.6596 57.9733 72.6006 56.631 72.9497 55.2734C73.2036 55.3157 73.4101 55.2355 73.5693 55.033C73.837 54.5428 73.9747 54.0218 73.9823 53.4702C73.9029 53.1788 73.7161 53.0385 73.4217 53.0495C73.573 52.439 73.6713 51.8179 73.7168 51.1862C73.7266 50.825 73.7167 50.4644 73.6873 50.1043C73.5868 49.6482 73.3606 49.2775 73.0087 48.9923C72.8388 48.0777 72.3373 47.4266 71.504 47.0388C71.6081 47.2419 71.6671 47.4623 71.6811 47.7C71.4675 47.4827 71.2216 47.3124 70.9435 47.1891C70.4143 47.0361 69.8833 46.8858 69.3503 46.7383C69.2864 46.7903 69.2766 46.8504 69.3208 46.9186C69.4236 47.028 69.5122 47.1483 69.5863 47.2792C68.9417 47.3943 68.2926 47.4243 67.6391 47.3694C67.3877 47.3208 67.1517 47.2306 66.931 47.0989C66.9114 47.1189 66.8917 47.139 66.872 47.159C66.976 47.5017 67.1727 47.7722 67.4621 47.9705C66.3712 48.1606 65.4959 47.81 64.8363 46.9186C64.5383 48.4429 64.9809 49.6851 66.164 50.6452C66.0659 51.4539 66.1052 52.2554 66.282 53.0495C66.0881 53.0356 65.9406 53.1158 65.8394 53.2899C65.7286 53.9473 65.8663 54.5483 66.2525 55.0931C66.3945 55.2806 66.5814 55.3607 66.813 55.3335C67.0561 56.1984 67.1151 57.08 66.99 57.9782C66.9045 58.437 66.7865 58.8878 66.636 59.3306C65.5394 59.6385 64.5755 60.1794 63.7447 60.9535C62.2113 60.9074 60.8541 61.3683 59.6732 62.3359C58.2422 63.8701 57.7407 65.6834 58.1686 67.7756C57.2947 68.7051 56.8521 69.8171 56.8409 71.1115C56.8543 71.5859 56.8838 72.0567 56.9294 72.524C56.1149 73.2229 55.6133 74.1044 55.4248 75.1687C55.4321 75.2052 55.4517 75.2252 55.4838 75.2288C56.1336 75.305 56.763 75.4654 57.372 75.7096C57.4023 75.7656 57.363 75.7857 57.254 75.7697C56.8146 75.6709 56.3623 75.6107 55.8968 75.5894C55.6422 75.5238 55.3865 75.4637 55.1297 75.4091C55.0242 75.392 54.9259 75.412 54.8347 75.4692C54.5775 75.6912 54.3414 75.9317 54.1266 76.1905C54.1852 76.4484 54.2246 76.7088 54.2447 76.9719C54.0283 76.9719 53.812 76.9719 53.5956 76.9719C53.4382 76.9719 53.2809 76.9719 53.1235 76.9719C53.1235 77.593 53.1235 78.2141 53.1235 78.8352C53.5476 78.8156 53.9607 78.8357 54.3627 78.8953C54.4133 79.2269 54.4624 79.5674 54.5102 79.9171C54.5852 80.2335 54.7525 80.484 55.0117 80.6684C55.3884 80.6745 55.7622 80.6845 56.1329 80.6985C56.222 80.8192 56.3203 80.9294 56.4279 81.0291C56.7981 81.0922 57.1521 81.0422 57.49 80.8788C57.6143 80.9347 57.7323 81.0048 57.8441 81.0892C58.8802 81.1658 59.4309 80.6749 59.4962 79.6166C60.0117 79.7481 60.5231 79.8984 61.0304 80.0674C61.7682 80.4185 62.5156 80.7591 63.2727 81.0892C63.9806 81.2895 64.6886 81.2895 65.3969 81.0892C66.2916 80.712 67.1963 80.3714 68.1112 80.0674C69.0868 79.8406 70.0703 79.8005 71.0615 79.9471C72.1748 80.2454 73.2567 80.626 74.3069 81.0892C75.1188 81.3008 75.9252 81.2808 76.7261 81.0291C77.447 80.6919 78.1747 80.3714 78.9094 80.0673C79.4057 79.8608 79.917 79.7105 80.4435 79.6165C80.4631 79.9568 80.5516 80.2774 80.7091 80.5783C81.2135 81.1788 81.8036 81.279 82.4792 80.8788C82.7845 81.0474 83.109 81.0975 83.4528 81.0291C83.6457 80.9728 83.7833 80.8526 83.8659 80.6684C84.081 80.6616 84.2973 80.6716 84.515 80.6985C84.8508 80.7348 85.1164 80.6146 85.3116 80.3378C85.5206 79.8817 85.6091 79.4009 85.5771 78.8953C85.9901 78.8953 86.4032 78.8953 86.8162 78.8953C86.8162 78.2541 86.8162 77.613 86.8162 76.9718C86.4228 76.9718 86.0295 76.9718 85.6361 76.9718C85.6676 76.7308 85.707 76.4904 85.7541 76.2506ZM67.6391 75.0485C67.4818 75.0224 67.3245 74.9924 67.167 74.9583C66.842 74.8574 66.6256 74.6471 66.518 74.3272C66.4824 73.4616 66.8955 73.0208 67.7571 73.0048C68.0179 72.9164 68.2932 72.8763 68.5832 72.8846C68.9663 72.7345 69.2711 72.8347 69.4978 73.1852C69.6701 74.6225 69.0505 75.2436 67.6391 75.0485ZM67.6391 59.7213C67.6293 59.3801 67.6392 59.0395 67.6686 58.6995C67.6823 58.7738 67.7118 58.8339 67.7571 58.8798C67.9801 59.8516 68.3144 60.7833 68.7602 61.6748C67.9708 61.2954 67.5971 60.6442 67.6391 59.7213ZM72.0941 58.5192C72.1234 58.6782 72.1333 58.8385 72.1236 59C72.1372 59.5634 72.1077 60.1245 72.0351 60.683C71.8273 61.1723 71.4831 61.5028 71.0025 61.6747C71.203 61.3633 71.3701 61.0328 71.504 60.683C71.6898 60.0462 71.857 59.4051 72.0056 58.7596C71.9945 58.6632 72.024 58.583 72.0941 58.5192ZM75.841 67.7155C75.8214 67.7155 75.8016 67.7155 75.782 67.7155C75.5991 67.8393 75.4025 67.9094 75.1919 67.9258C76.4974 67.1801 77.235 66.0482 77.4047 64.5298C77.5423 65.9325 77.0211 66.9944 75.841 67.7155ZM69.2323 69.9995C69.3559 70.1157 69.4445 70.256 69.4978 70.4202C69.6412 71.4618 69.2183 72.113 68.2292 72.3737C67.6223 72.4541 67.0126 72.4842 66.4 72.4639C65.9894 72.4058 65.8812 72.1853 66.0754 71.8027C66.8953 70.7888 67.9476 70.1878 69.2323 69.9995ZM70.2649 73.1852C70.3274 73.0554 70.4159 72.9552 70.5304 72.8846C71.3176 72.8513 72.0846 72.9615 72.8317 73.2152C73.3223 73.5957 73.4305 74.0665 73.1562 74.6277C72.9264 74.8264 72.6608 74.9566 72.3596 75.0184C70.8335 75.3664 70.1352 74.7553 70.2649 73.1852ZM71.2975 72.3136C70.4572 71.9131 70.1327 71.2418 70.3239 70.3C70.3933 70.1981 70.4621 70.098 70.5304 69.9995C71.7372 70.1984 72.7698 70.7393 73.6282 71.6224C73.788 71.8243 73.8371 72.0447 73.7758 72.2835C73.707 72.3487 73.6284 72.3988 73.5397 72.4338C72.7856 72.4995 72.0383 72.4594 71.2975 72.3136ZM73.0677 61.8551C74.2062 61.6882 75.347 61.6681 76.4901 61.795C77.8055 61.9336 78.8971 62.5046 79.7649 63.508C80.1816 64.08 80.3979 64.7211 80.414 65.4314C79.9155 64.4628 79.1976 63.7115 78.2603 63.1774C77.2664 62.6238 76.2043 62.3333 75.0739 62.3059C74.9037 62.2875 74.7463 62.3075 74.6018 62.366C76.4489 62.8234 77.0291 63.9454 76.3425 65.7319C75.8782 66.4348 75.2586 66.9457 74.4838 67.2647C73.3719 67.7277 72.2311 67.8279 71.0615 67.5652C70.5053 67.3252 70.2004 66.8945 70.1469 66.2729C70.0547 65.5345 70.0351 64.7932 70.0878 64.049C70.1542 63.4223 70.4395 62.9315 70.9434 62.5763C71.6063 62.1988 72.3144 61.9583 73.0677 61.8551ZM60.0568 63.4479C60.8994 62.4927 61.9517 61.9417 63.2136 61.795C64.5772 61.7192 65.9344 61.7793 67.2851 61.9753C68.1155 62.1227 68.8137 62.5134 69.3798 63.1474C69.8444 64.354 69.8837 65.5761 69.4978 66.8139C69.4045 67.0985 69.2373 67.3189 68.9962 67.475C67.4827 67.9293 66.0468 67.749 64.6888 66.9341C64.1816 66.6078 63.7587 66.1871 63.4201 65.6718C62.8042 63.9235 63.3844 62.8215 65.1608 62.366C65.2349 62.3683 65.2939 62.3383 65.3378 62.2758C65.0124 62.2267 64.6976 62.2367 64.3937 62.3059C63.8556 62.3734 63.3245 62.4836 62.8006 62.6365C61.2811 63.1037 60.1305 64.0354 59.3487 65.4314C59.3678 64.691 59.6038 64.0298 60.0568 63.4479ZM62.358 64.4096C62.4839 65.8293 63.1232 66.9312 64.2757 67.7155C64.4096 67.8042 64.5473 67.8943 64.6888 67.9859C64.1609 67.827 63.6889 67.5566 63.2726 67.1745C62.5002 66.4193 62.1954 65.4976 62.358 64.4096ZM59.4962 67.8056C59.8359 67.5243 59.8753 67.5744 59.6142 67.9559C59.5493 68.0223 59.51 68.1024 59.4962 68.1963C59.2776 68.5321 59.0907 68.8927 58.9357 69.2782C58.6102 70.1065 58.4627 70.968 58.4931 71.8628C58.5138 72.6315 58.5826 73.3929 58.6996 74.1469C58.5275 73.8965 58.3701 73.636 58.2276 73.3655C57.391 71.2143 57.8139 69.3611 59.4962 67.8056ZM57.0179 76.8517C57.3217 76.7881 57.5577 76.8782 57.726 77.1221C57.6589 77.2506 57.5704 77.3608 57.4605 77.4527C57.4005 78.061 57.3021 78.6621 57.1655 79.2559C57.005 79.3127 56.8378 79.3327 56.6639 79.316C56.7033 78.5544 56.7524 77.793 56.8114 77.032C56.879 76.9637 56.9479 76.9036 57.0179 76.8517ZM54.8937 77.0921C54.9331 77.012 54.9724 76.9318 55.0117 76.8517C55.2838 76.8307 55.5592 76.8207 55.8378 76.8216C55.9288 76.7392 56.0075 76.649 56.0738 76.5511C56.3532 76.5836 56.5695 76.7238 56.7229 76.9719C56.3391 77.1118 56.1621 77.3922 56.1919 77.8134C56.0958 78.1441 56.0073 78.4846 55.9263 78.8352C55.8261 78.8896 55.7178 78.9096 55.6018 78.8953C55.6463 78.3523 55.7053 77.8113 55.7788 77.2724C55.4783 77.2401 55.1833 77.18 54.8937 77.0921ZM58.4046 79.1958C58.3825 79.2509 58.353 79.301 58.3161 79.3461C58.16 79.3759 58.0026 79.386 57.844 79.3761C57.8095 79.2714 57.7898 79.1612 57.785 79.0455C57.8442 78.4317 57.913 77.8207 57.9915 77.2123C58.1938 77.0607 58.4003 77.0607 58.6111 77.2123C58.6347 77.8775 58.5658 78.5387 58.4046 79.1958ZM76.6671 79.1056C75.9987 79.3862 75.3103 79.4463 74.6019 79.286C73.7192 78.8861 72.8144 78.5454 71.8876 78.2641C71.2083 78.1 70.5199 78.0098 69.8223 77.9937C68.766 78.038 67.7432 78.2483 66.754 78.6248C66.1773 78.9472 65.5676 79.1876 64.9248 79.3461C64.5708 79.3862 64.2167 79.3862 63.8627 79.3461C62.9972 78.9654 62.1319 78.5847 61.2664 78.204C60.7482 78.0721 60.2367 77.9218 59.7322 77.7532C59.8681 77.5048 60.0156 77.2644 60.1748 77.032C60.6116 76.16 60.7787 75.2383 60.6763 74.2671C60.9348 74.0236 61.1905 73.7832 61.4434 73.5458C61.5986 73.4179 61.7461 73.2776 61.886 73.125C62.1203 72.7561 62.3662 72.3955 62.6235 72.0431C63.0723 72.737 63.4756 73.4583 63.8332 74.207C63.9442 74.4358 64.013 74.6762 64.0397 74.9282C64.0344 75.0876 64.0737 75.2279 64.1577 75.349C64.2051 76.1849 64.1264 77.0064 63.9217 77.8134C64.0861 77.8721 64.2631 77.8921 64.4527 77.8735C64.613 77.8628 64.7704 77.8327 64.9248 77.7833C65.6884 77.4743 66.4555 77.1838 67.226 76.9117C66.9601 76.3945 66.8224 75.8536 66.813 75.2889C67.0208 75.453 67.2568 75.5331 67.5211 75.5293C68.0946 75.5594 68.665 75.6095 69.2322 75.6796C69.4978 75.9284 69.6158 76.2389 69.5863 76.6112C69.8027 76.6112 70.019 76.6112 70.2354 76.6112C70.1566 76.1811 70.2944 75.8505 70.6484 75.6195C71.4501 75.6395 72.2369 75.5493 73.0086 75.349C72.976 75.8971 72.8383 76.418 72.5956 76.9117C73.1913 77.145 73.7814 77.3954 74.3658 77.6631C74.6327 77.7711 74.9081 77.8412 75.1919 77.8735C75.4398 77.8925 75.6759 77.8724 75.9 77.8134C75.806 77.3954 75.7175 76.9746 75.6344 76.5511C75.5887 76.0674 75.6084 75.5865 75.6934 75.1086C76.0127 73.9974 76.5044 72.9756 77.1686 72.0431C77.6921 72.887 78.3314 73.6283 79.0863 74.2671C78.954 75.5856 79.3081 76.7477 80.1484 77.7532C78.9394 78.0671 77.779 78.5179 76.6671 79.1056ZM79.9124 67.5952C79.9359 67.5336 79.9752 67.5236 80.0305 67.5652C81.9393 69.1419 82.4409 71.0954 81.5351 73.4256C81.3581 73.686 81.1811 73.9465 81.0041 74.207C81.6779 71.8196 81.3141 69.6157 79.9124 67.5952ZM82.1547 79.316C81.9862 79.3943 81.8092 79.3943 81.6236 79.316C81.4132 78.6312 81.305 77.93 81.2991 77.2123C81.5155 77.052 81.7318 77.052 81.9482 77.2123C82.0361 77.6276 82.0853 78.0483 82.0957 78.4745C82.1489 78.6839 82.1882 78.9043 82.2137 79.1357C82.2125 79.2094 82.1929 79.2695 82.1547 79.316ZM83.2758 79.2559C83.1233 79.3096 82.966 79.3296 82.8037 79.316C82.6703 78.7009 82.5621 78.0798 82.4792 77.4527C82.3881 77.3404 82.2996 77.2301 82.2137 77.1221C82.2618 77.0234 82.3208 76.9332 82.3907 76.8516C82.6539 76.8147 82.8899 76.8748 83.0988 77.032C83.192 77.6806 83.2707 78.3318 83.3348 78.9854C83.3152 79.0756 83.2954 79.1657 83.2758 79.2559ZM84.2789 77.2423C84.2126 77.2928 84.1732 77.3629 84.1609 77.4527C84.2397 77.9345 84.3184 78.4154 84.3969 78.8953C84.2789 78.8953 84.1609 78.8953 84.0429 78.8953C83.9357 78.3083 83.7784 77.7373 83.5708 77.1822C83.4601 77.0996 83.3421 77.0294 83.2168 76.9719C83.308 76.8059 83.426 76.6657 83.5708 76.5511C83.8056 76.519 83.9826 76.6092 84.1019 76.8216C84.3783 76.8493 84.6537 76.8393 84.928 76.7915C84.9217 76.936 84.9807 77.0461 85.105 77.1221C84.8283 77.1524 84.5529 77.1925 84.2789 77.2423Z" fill="#D5EB45"/>
<path d="M48.6393 72.3131C48.1283 72.283 47.6169 72.2731 47.1051 72.283C46.9011 72.3196 46.7536 72.4398 46.6626 72.6437C46.6232 76.1098 46.6232 79.5759 46.6626 83.0421C46.7147 83.1985 46.8032 83.3288 46.9281 83.4328C47.4985 83.4729 48.0689 83.4729 48.6393 83.4328C48.8458 83.3827 48.9737 83.2525 49.0228 83.0421C49.0622 79.5759 49.0622 76.1098 49.0228 72.6437C48.949 72.4705 48.8212 72.3603 48.6393 72.3131Z" fill="#D5EB45"/>
<path d="M52.1794 71.8328C51.4572 71.4066 50.7294 70.9958 49.9962 70.6006C49.9176 75.3949 49.9176 80.2235 49.9962 85.0863C50.821 84.6609 51.6175 84.18 52.3859 83.6437C52.4253 79.7969 52.4253 75.9501 52.3859 72.1032C52.3396 71.9959 52.2708 71.9057 52.1794 71.8328Z" fill="#D5EB45"/>
<path d="M92.9539 72.3131C92.4232 72.283 91.8921 72.2731 91.3607 72.283C91.2115 72.3436 91.0837 72.4438 90.9772 72.5836C90.9378 76.0697 90.9378 79.5559 90.9772 83.0421C91.0293 83.1985 91.1178 83.3288 91.2427 83.4328C91.8131 83.4729 92.3835 83.4729 92.9539 83.4328C93.1588 83.3843 93.2867 83.2541 93.3374 83.0421C93.3768 79.5759 93.3768 76.1098 93.3374 72.6437C93.2636 72.4705 93.1358 72.3603 92.9539 72.3131Z" fill="#D5EB45"/>
<path d="M87.6136 71.983C87.5743 75.89 87.5743 79.7969 87.6136 83.7038C88.3363 84.1972 89.0739 84.668 89.8264 85.1163C89.9241 85.1599 89.9831 85.1298 90.0034 85.0262C90.0426 80.1972 90.0032 75.3887 89.8854 70.6006C89.0956 71.0077 88.3383 71.4686 87.6136 71.983Z" fill="#D5EB45"/>
<path d="M95.8155 76.3106C95.7674 76.2311 95.6985 76.1911 95.609 76.1904C95.0386 76.1904 94.4682 76.1904 93.8978 76.1904C93.8978 77.2924 93.8978 78.3944 93.8978 79.4963C94.4882 79.5063 95.0783 79.4963 95.668 79.4662C95.7157 79.4477 95.7551 79.4177 95.786 79.3761C95.854 78.3569 95.8639 77.3351 95.8155 76.3106Z" fill="#D5EB45"/>
<path d="M44.1548 77.7833C44.1465 78.34 44.176 78.891 44.2433 79.4362C44.8581 79.4955 45.4776 79.5155 46.102 79.4963C46.102 78.3944 46.102 77.2924 46.102 76.1904C45.4923 76.1904 44.8825 76.1904 44.2728 76.1904C44.1958 76.7075 44.1565 77.2384 44.1548 77.7833Z" fill="#D5EB45"/>
<path d="M83.2173 82.5614C82.4017 82.5905 81.5953 82.5404 80.7981 82.4111C77.8091 86.027 74.19 88.7818 69.9409 90.6758C65.6836 88.768 62.0449 86.0131 59.0247 82.4111C58.6925 82.4424 58.3582 82.4825 58.0216 82.5314C57.4061 82.5549 56.7964 82.565 56.1924 82.5614C56.4663 82.9507 56.7515 83.3313 57.048 83.7034C60.6084 87.9014 64.8963 91.0871 69.9114 93.2604C75.4076 90.9494 79.9609 87.4032 83.5714 82.6215C83.6034 82.6179 83.623 82.5979 83.6304 82.5614C83.4844 82.4834 83.3467 82.4834 83.2173 82.5614Z" fill="#D5EB45"/>
<path d="M70.059 88.7821C72.7926 87.4513 75.2315 85.7083 77.3758 83.5528C77.0711 83.1924 76.7563 82.8417 76.4317 82.501C75.8338 82.6744 75.2241 82.7245 74.6025 82.6512C73.6517 82.4487 72.7469 82.1281 71.8882 81.6895C71.1219 81.4335 70.3352 81.3032 69.5279 81.2988C69.1813 81.3634 68.8273 81.4335 68.4658 81.5092C67.6738 81.7981 66.8871 82.0987 66.1055 82.4108C65.7515 82.4909 65.3975 82.5711 65.0434 82.6512C64.4892 82.7257 63.9483 82.6757 63.4207 82.5009C63.2664 82.5978 63.1287 82.7181 63.0077 82.8616C62.8096 83.0934 62.6228 83.3338 62.4471 83.5829C64.613 85.6963 67.0519 87.4294 69.7639 88.7821C69.8623 88.8222 69.9606 88.8222 70.059 88.7821Z" fill="#D5EB45"/>
<path d="M75.1337 22.1675C71.9875 21.7874 70.3666 19.4337 70.7623 16.1655C71.1579 12.8972 73.2937 10.9975 76.44 11.3776C79.5392 11.7521 81.0172 13.5808 80.7029 16.1766L80.6859 16.3173L78.1814 16.0147L78.1909 15.9365C78.3727 14.4353 77.809 13.8436 76.1498 13.6432C74.381 13.4295 73.5677 13.9817 73.2667 16.4681C72.9657 18.9545 73.6238 19.6845 75.3926 19.8982C77.0518 20.0987 77.7403 19.6583 77.9221 18.1571L77.9316 18.0789L80.436 18.3815L80.419 18.5222C80.1047 21.1181 78.233 22.542 75.1337 22.1675Z" fill="#080517"/>
<path d="M85.5607 24.5939C83.1546 23.7375 82.2685 21.7165 83.1098 19.3573C83.9565 16.9832 85.9221 15.9772 88.3281 16.8336C90.7194 17.6847 91.5758 19.6951 90.7291 22.0692C89.8878 24.4284 87.9519 25.445 85.5607 24.5939ZM86.2592 22.6353C87.4622 23.0635 88.0474 22.7367 88.5607 21.2974C89.0793 19.8432 88.8327 19.2204 87.6297 18.7922C86.4118 18.3587 85.8266 18.6855 85.308 20.1397C84.7947 21.5789 85.0413 22.2018 86.2592 22.6353Z" fill="#080517"/>
<path d="M93.3283 27.9018L91.3222 26.6805L95.4492 19.9148L97.3207 21.0541L96.5987 22.2378L96.6794 22.287C97.5106 21.7416 98.5741 21.6328 99.7589 22.3541C101.523 23.4279 101.563 25.0571 100.685 26.4963L98.0676 30.7871L96.048 29.5576L98.4192 25.6703C98.9935 24.7288 98.889 24.204 97.8657 23.581C96.8963 22.9909 96.2902 23.0461 95.6667 24.0684L93.3283 27.9018Z" fill="#080517"/>
<path d="M102.559 34.6588C101.012 33.2906 100.771 32.0667 102.015 30.6635L104.252 28.1401L103.308 27.3046L104.604 25.8425L105.595 26.7198L107.149 25.6326L108.542 26.865L107.319 28.2446L108.995 29.7276L107.698 31.1897L106.022 29.7067L103.963 32.0296C103.503 32.5484 103.628 32.764 104.395 33.4429L105.127 34.0904L103.82 35.5643C103.484 35.3726 102.972 35.0243 102.559 34.6588Z" fill="#080517"/>
<path d="M106.568 38.9658C105.689 37.873 105.585 36.5621 106.703 35.6642C107.662 34.8945 108.805 35.1084 110.029 36.2275L112.047 38.0827L112.244 37.9248C112.969 37.3427 112.788 36.8412 112.205 36.1168C111.603 35.3679 111.157 35.241 110.53 35.7442L110.395 35.8527L108.982 34.097L109.118 33.9884C110.592 32.8044 112.482 33.1667 113.884 34.9102C115.346 36.7273 115.121 38.4842 113.474 39.8064L109.812 42.7469L108.439 41.0403L109.275 40.3693L109.215 40.2956C108.494 40.3292 107.486 40.1076 106.568 38.9658ZM108.263 37.3015C107.931 37.5679 108.028 37.9145 108.463 38.4548C109.065 39.2037 109.884 39.8194 110.843 39.0497L109.15 37.4988C108.782 37.1675 108.521 37.0943 108.263 37.3015Z" fill="#080517"/>
<path d="M112.693 48.0071C111.474 45.6931 112.23 43.7117 114.448 42.5454C116.695 41.3644 118.816 41.9405 120.049 44.2823C121.033 46.1501 120.608 48.1177 118.878 49.0272L118.711 49.1153L117.609 47.0244L117.721 46.9657C118.516 46.5476 118.547 45.9621 118.091 45.0979C117.563 44.0943 116.861 43.9116 115.549 44.6011C114.251 45.2832 114.005 45.9648 114.533 46.9684C114.988 47.8326 115.489 48.1393 116.284 47.7212L116.396 47.6625L117.497 49.7534L117.329 49.8415C115.599 50.751 113.714 49.9446 112.693 48.0071Z" fill="#080517"/>
<path d="M116.386 56.6411C115.751 54.6776 116.166 53.5009 117.951 52.9247L121.162 51.8885L120.774 50.6894L122.635 50.089L123.042 51.348L124.933 51.2012L125.505 52.9699L123.75 53.5364L124.438 55.6648L122.577 56.2652L121.889 54.1368L118.933 55.0907C118.273 55.3037 118.271 55.5528 118.586 56.5271L118.887 57.4564L117.011 58.0616C116.82 57.7261 116.556 57.1657 116.386 56.6411Z" fill="#080517"/>
<path d="M118.245 67.6957C118.057 64.6299 119.597 62.9729 122.225 62.8114L128.662 62.416L128.806 64.7586L122.401 65.1521C120.89 65.2449 120.42 65.8103 120.527 67.5555C120.634 69.2849 121.17 69.7885 122.681 69.6957L129.086 69.3022L129.231 71.6605L122.795 72.0559C120.166 72.2173 118.434 70.7614 118.245 67.6957Z" fill="#080517"/>
<path d="M117.824 78.0641C118.185 75.6016 119.281 74.536 121.184 74.8141L121.231 74.8209L120.905 77.0497L120.577 77.0018C120 76.9175 119.825 77.2421 119.658 78.3799C119.519 79.3306 119.637 79.507 120.027 79.564C120.448 79.6255 120.574 79.421 120.914 78.4041L121.306 77.2515C121.812 75.7496 122.591 75.0037 124.042 75.2157C125.493 75.4277 126.349 76.7626 126.022 78.9914C125.742 80.9084 124.622 82.2413 122.86 81.9837L122.641 81.9518L122.967 79.723L123.186 79.7549C123.701 79.8302 124.013 79.653 124.16 78.6555C124.296 77.7204 124.126 77.4725 123.751 77.4178C123.377 77.3631 123.247 77.4874 122.923 78.3952L122.417 79.7858C121.863 81.3923 121.013 81.9686 119.734 81.7817C118.268 81.5674 117.507 80.2305 117.824 78.0641Z" fill="#080517"/>
<path d="M121.405 91.055L120.465 89.7603L121.898 88.8593L122.657 90.2678L122.806 90.2768L123.749 88.9917L125.046 90.0737L123.896 91.2414L123.957 91.3848L125.476 91.8763L124.846 93.4399L123.41 92.7438L123.267 92.805L123.278 94.4225L121.598 94.2904L121.823 92.7173L121.709 92.6205L120.186 93.1118L119.762 91.4642L121.346 91.2012L121.405 91.055Z" fill="#080517"/>
<path d="M108.392 100.504C110.31 97.9833 113.162 97.7746 115.785 99.7665C118.409 101.758 118.971 104.56 117.054 107.08C115.165 109.563 112.838 109.914 110.754 108.332L110.641 108.246L112.168 106.24L112.231 106.287C113.436 107.202 114.232 107.015 115.243 105.686C116.321 104.269 116.255 103.288 114.259 101.773C112.263 100.258 111.3 100.456 110.222 101.873C109.21 103.203 109.243 104.019 110.448 104.934L110.511 104.982L108.984 106.988L108.872 106.902C106.788 105.32 106.503 102.987 108.392 100.504Z" fill="#080517"/>
<path d="M101.03 108.282C102.982 106.635 105.176 106.887 106.793 108.801C108.421 110.727 108.302 112.93 106.35 114.576C104.411 116.212 102.241 115.94 100.613 114.014C98.9961 112.101 99.0909 109.918 101.03 108.282ZM102.373 109.87C101.397 110.694 101.386 111.363 102.372 112.531C103.369 113.71 104.032 113.811 105.008 112.987C105.996 112.154 106.007 111.484 105.01 110.305C104.024 109.138 103.361 109.037 102.373 109.87Z" fill="#080517"/>
<path d="M94.2655 113.327L96.33 112.207L100.114 119.17L98.1883 120.215L97.5263 118.997L97.4431 119.042C97.4979 120.034 97.0581 121.007 95.8387 121.669C94.0236 122.653 92.5931 121.87 91.7881 120.389L89.3881 115.973L91.4665 114.845L93.6408 118.846C94.1675 119.815 94.6742 119.988 95.7273 119.417C96.7249 118.876 96.9814 118.324 96.4097 117.272L94.2655 113.327Z" fill="#080517"/>
<path d="M83.781 117.903C85.7427 117.257 86.923 117.665 87.5103 119.445L88.5665 122.647L89.7644 122.252L90.3764 124.107L89.1186 124.521L89.2767 126.41L87.5097 126.991L86.9323 125.241L84.8059 125.941L84.1939 124.086L86.3203 123.386L85.348 120.439C85.1308 119.781 84.8815 119.78 83.9082 120.1L82.9798 120.406L82.3629 118.536C82.6976 118.343 83.2569 118.076 83.781 117.903Z" fill="#080517"/>
<path d="M78.0325 119.189C79.4205 118.984 80.6055 119.556 80.8162 120.974C80.9968 122.189 80.2346 123.067 78.6497 123.557L76.0274 124.36L76.0645 124.609C76.2011 125.528 76.7256 125.626 77.6458 125.489C78.5971 125.348 78.9321 125.028 78.814 124.233L78.7885 124.062L81.0187 123.731L81.0442 123.902C81.3221 125.772 80.0546 127.218 77.84 127.546C75.5318 127.889 74.1277 126.807 73.8174 124.719L73.1273 120.076L75.2952 119.755L75.4526 120.814L75.5462 120.8C75.8816 120.161 76.5821 119.405 78.0325 119.189ZM78.6138 121.492C78.5513 121.071 78.2029 120.98 77.5167 121.081C76.5653 121.222 75.6198 121.618 75.8005 122.833L77.9953 122.157C78.4672 122.007 78.6624 121.819 78.6138 121.492Z" fill="#080517"/>
<path d="M67.0499 119.904C69.6646 120.022 70.9947 121.674 70.8818 124.176C70.7675 126.709 69.1987 128.247 66.5526 128.128C64.442 128.033 62.9566 126.673 63.0446 124.722L63.0531 124.533L65.4158 124.639L65.4101 124.765C65.3696 125.662 65.8602 125.984 66.8367 126.028C67.9708 126.079 68.4832 125.566 68.5499 124.087C68.616 122.623 68.1518 122.066 67.0178 122.015C66.0412 121.971 65.5237 122.248 65.4832 123.145L65.4775 123.27L63.1149 123.164L63.1234 122.975C63.2115 121.024 64.8605 119.805 67.0499 119.904Z" fill="#080517"/>
<path d="M57.7412 118.74C59.7589 119.181 60.5674 120.132 60.1662 121.963L59.4447 125.256L60.6769 125.525L60.2588 127.433L58.9651 127.15L58.1393 128.856L56.3219 128.459L56.7163 126.658L54.5292 126.18L54.9473 124.272L57.1344 124.75L57.7986 121.719C57.9469 121.042 57.7328 120.915 56.7316 120.696L55.7767 120.487L56.1981 118.563C56.5846 118.567 57.2022 118.622 57.7412 118.74Z" fill="#080517"/>
<path d="M47.2272 114.762C49.9713 116.147 50.6248 118.313 49.4372 120.66L46.5286 126.41L44.4318 125.352L47.3262 119.63C48.0089 118.28 47.758 117.589 46.1961 116.8C44.6481 116.019 43.9421 116.227 43.2594 117.577L40.365 123.298L38.2542 122.233L41.1628 116.483C42.3505 114.135 44.4832 113.376 47.2272 114.762Z" fill="#080517"/>
<path d="M38.5542 109.203C40.4994 110.758 40.8663 112.241 39.6645 113.742L39.635 113.779L37.8745 112.371L38.0813 112.113C38.4458 111.658 38.2537 111.343 37.355 110.625C36.604 110.025 36.3922 110.037 36.146 110.344C35.88 110.676 35.9933 110.888 36.6999 111.695L37.4977 112.615C38.5392 113.811 38.7903 114.859 37.8743 116.002C36.9582 117.146 35.3724 117.21 33.6119 115.803C32.0976 114.593 31.5117 112.954 32.6247 111.564L32.7626 111.392L34.5232 112.799L34.3852 112.972C34.0602 113.377 34.0553 113.737 34.8432 114.366C35.5819 114.957 35.8823 114.935 36.1187 114.639C36.3551 114.344 36.3132 114.17 35.6927 113.432L34.7473 112.293C33.6393 111.004 33.5704 109.98 34.3781 108.972C35.304 107.815 36.843 107.835 38.5542 109.203Z" fill="#080517"/>
<path d="M25.517 105.742L27.11 105.581L27.1684 107.272L25.5684 107.218L25.4855 107.343L26.1232 108.803L24.5344 109.379L24.1027 107.799L23.9478 107.78L22.7587 108.844L21.7228 107.513L23.0474 106.623L23.0667 106.469L21.6616 105.665L22.6211 104.28L23.8686 105.267L24.0096 105.217L24.351 103.654L25.9897 104.117L25.4202 105.617L25.517 105.742Z" fill="#080517"/>
<path d="M23.8806 89.7509C25.0967 92.6745 23.8427 95.2421 20.7997 96.5054C17.7567 97.7687 15.0505 96.8454 13.8344 93.9217C12.6364 91.0417 13.5031 88.8567 15.9201 87.8532L16.0511 87.7988L17.0192 90.1261L16.9464 90.1564C15.5487 90.7366 15.3102 91.5179 15.9516 93.0598C16.6353 94.7034 17.5166 95.1392 19.8316 94.1781C22.1466 93.217 22.4592 92.2855 21.7755 90.6419C21.1341 89.1001 20.4116 88.7177 19.0139 89.298L18.9411 89.3282L17.973 87.0009L18.104 86.9465C20.5209 85.9431 22.6826 86.8708 23.8806 89.7509Z" fill="#080517"/>
<path d="M20.8694 79.4836C21.3056 81.9979 19.9795 83.7622 17.5093 84.1898C15.0237 84.6202 13.1806 83.4046 12.7445 80.8903C12.311 78.3916 13.6425 76.6583 16.1282 76.228C18.5983 75.8003 20.436 76.9848 20.8694 79.4836ZM18.8188 79.8386C18.6007 78.5815 18.0282 78.233 16.5213 78.4939C14.9988 78.7575 14.577 79.2781 14.7951 80.5353C15.0159 81.8079 15.5884 82.1564 17.1109 81.8928C18.6178 81.6319 19.0396 81.1113 18.8188 79.8386Z" fill="#080517"/>
<path d="M19.9291 71.0442L19.8538 73.39L11.9271 73.1359L11.9974 70.9476L13.3842 70.992L13.3872 70.8976C12.5026 70.4437 11.8838 69.5728 11.9283 68.1874C11.9945 66.125 13.3939 65.2873 15.0801 65.3414L20.1071 65.5025L20.0313 67.8641L15.477 67.7181C14.3739 67.6827 13.9683 68.0322 13.9298 69.2287C13.8934 70.3622 14.2402 70.8619 15.4379 70.9003L19.9291 71.0442Z" fill="#080517"/>
<path d="M21.2606 59.7029C20.831 61.7212 19.8842 62.5346 18.0489 62.1448L14.7486 61.4437L14.4863 62.6763L12.5739 62.27L12.8494 60.9758L11.1368 60.1611L11.5238 58.3431L13.3282 58.7264L13.7938 56.5386L15.7062 56.9448L15.2405 59.1326L18.2786 59.778C18.9572 59.9222 19.0835 59.7074 19.2967 58.706L19.5 57.7507L21.4278 58.1602C21.4262 58.5464 21.3754 59.1636 21.2606 59.7029Z" fill="#080517"/>
<path d="M23.0481 54.0802C22.5263 55.3815 21.4338 56.1152 20.1019 55.5822C18.9603 55.1253 18.586 54.0253 18.9616 52.4109L19.5895 49.7436L19.3553 49.6499C18.4917 49.3043 18.1431 49.7078 17.7972 50.5705C17.4396 51.4625 17.5477 51.913 18.2942 52.2117L18.4552 52.2761L17.6168 54.3671L17.4558 54.3026C15.6994 53.5998 15.0884 51.7772 15.9209 49.7009C16.7886 47.5368 18.4315 46.8707 20.3927 47.6556L24.7544 49.401L23.9394 51.4335L22.9441 51.0352L22.909 51.1229C23.2922 51.7344 23.5933 52.7203 23.0481 54.0802ZM20.7647 53.4209C21.1598 53.5791 21.4147 53.3247 21.6727 52.6813C22.0303 51.7894 22.1655 50.7745 21.0238 50.3176L20.5016 52.5521C20.393 53.0346 20.4573 53.2979 20.7647 53.4209Z" fill="#080517"/>
<path d="M27.9387 44.309C26.5164 46.504 24.417 46.8163 22.3125 45.4553C20.1816 44.0772 19.6455 41.9479 21.0849 39.7265C22.233 37.9546 24.158 37.3607 25.7993 38.4221L25.9581 38.5248L24.6729 40.5082L24.567 40.4398C23.8126 39.9519 23.2869 40.2124 22.7557 41.0322C22.1388 41.9842 22.3232 42.6851 23.5674 43.4898C24.7983 44.2858 25.5139 44.1669 26.1308 43.2149C26.662 42.3951 26.6847 41.8093 25.9303 41.3214L25.8244 41.2529L27.1096 39.2695L27.2684 39.3722C28.9097 40.4336 29.1296 42.471 27.9387 44.309Z" fill="#080517"/>
<path d="M33.6617 36.854C32.2615 38.3709 31.0317 38.5878 29.6524 37.3171L27.172 35.0319L26.3169 35.9583L24.8797 34.6341L25.7775 33.6615L24.7207 32.0879L25.982 30.7215L27.3381 31.9709L28.8559 30.3266L30.2932 31.6507L28.7753 33.295L31.0587 35.3986C31.5687 35.8685 31.787 35.7482 32.4818 34.9955L33.1445 34.2776L34.5933 35.6124C34.3947 35.9437 34.0358 36.4487 33.6617 36.854Z" fill="#080517"/>
<path d="M42.3792 29.7928C39.8017 31.4673 37.5992 30.944 36.1638 28.7388L32.6483 23.3379L34.6178 22.0584L38.1161 27.4329C38.9412 28.7006 39.6657 28.8312 41.1329 27.8781C42.5869 26.9335 42.7613 26.219 41.9361 24.9513L38.4378 19.5768L40.4205 18.2888L43.936 23.6897C45.3714 25.8949 44.9567 28.1184 42.3792 29.7928Z" fill="#080517"/>
<path d="M51.5488 25.0946C49.2252 25.9919 47.7574 25.5624 47.0638 23.77L47.0468 23.7259L49.1498 22.9137L49.2692 23.2223C49.4795 23.7659 49.8485 23.7585 50.9221 23.3439C51.8192 22.9974 51.9151 22.8084 51.7729 22.4411C51.6194 22.0444 51.3794 22.0358 50.3259 22.24L49.1286 22.4659C47.5704 22.7637 46.5375 22.4534 46.0088 21.087C45.4801 19.7206 46.2225 18.3193 48.3255 17.5072C50.1344 16.8086 51.8466 17.1269 52.489 18.7871L52.5685 18.9928L50.4655 19.8049L50.3859 19.5992C50.1983 19.1144 49.8901 18.9295 48.9489 19.2929C48.0665 19.6337 47.9346 19.9042 48.071 20.2568C48.2074 20.6094 48.3796 20.6612 49.3302 20.4967L50.7912 20.2534C52.4637 19.9452 53.3837 20.4005 53.8499 21.6052C54.3843 22.9863 53.593 24.3051 51.5488 25.0946Z" fill="#080517"/>
<path d="M61.1106 15.5933L60.4446 17.0479L58.9543 16.2441L59.8088 14.8917L59.7433 14.7573L58.1598 14.5696L58.4644 12.9086L60.0478 13.3347L60.1427 13.2109L59.8242 11.6483L61.4966 11.427L61.5963 13.0186L61.7202 13.1134L63.1244 12.308L63.8357 13.8345L62.3536 14.412L62.3253 14.5587L63.5028 15.6423L62.2754 16.8216L61.2669 15.5727L61.1106 15.5933Z" fill="#080517"/>
</svg>
