<svg width="20" height="20" viewBox="0 0 20 20" fill="none" xmlns="http://www.w3.org/2000/svg">
<g clip-path="url(#clip0_613_406)">
<path d="M0.85 19.6666C1.93042 19.6681 2.99026 19.3712 3.91267 18.8086C5.15535 19.5383 6.55989 19.9477 8 20C10.3527 20 11.7667 19.325 12.561 18.7146C14.8487 19.2736 17.9027 18.6266 18.586 17.6966C18.9807 17.1566 19.094 16.3536 18.923 15.3086C19.6407 14.1077 20.0133 12.7322 20 11.3333C20 9.59796 19.374 7.69462 18.7687 5.85429C18.3282 4.63078 17.9808 3.37577 17.7293 2.09995C17.6949 1.88754 17.5913 1.69245 17.4346 1.545C17.2778 1.39756 17.0768 1.30602 16.8627 1.28462C14.9405 1.0552 13.0436 0.649033 11.196 0.0712874L11.096 0.0402874C10.9137 -0.0139649 10.7194 -0.0127258 10.5378 0.0438468C10.3562 0.100419 10.1956 0.209765 10.0763 0.357954L9.20967 1.44195C9.10173 1.57755 9.03238 1.73975 9.00891 1.91146C8.98545 2.08318 9.00874 2.25804 9.07633 2.41762L9.77167 4.04162C9.66179 4.17829 9.58341 4.33751 9.5421 4.50794C9.50079 4.67837 9.49757 4.85581 9.53267 5.02762C9.5864 5.30197 9.73395 5.54907 9.94999 5.72649C10.166 5.90391 10.4371 6.0006 10.7167 5.99995H13.6667V7.15662C13.6715 7.76803 13.4857 8.36576 13.135 8.86662C12.8438 9.27107 12.5973 9.70595 12.4 10.1636C11.0014 8.93802 9.19231 8.28449 7.33333 8.33329C6.16824 8.30332 5.01846 8.60379 4.017 9.19996C3.11352 8.63159 2.06739 8.33108 1 8.33329H0.85C0.624674 8.33364 0.408678 8.42331 0.249349 8.58264C0.0900192 8.74197 0.000352623 8.95796 0 9.18329L0 18.8166C0.000264654 19.042 0.089903 19.258 0.249252 19.4174C0.4086 19.5767 0.624647 19.6664 0.85 19.6666ZM0.666667 9.18329C0.666444 9.15915 0.671034 9.13521 0.680169 9.11287C0.689303 9.09052 0.702799 9.07022 0.719868 9.05316C0.736936 9.03609 0.757236 9.02259 0.779579 9.01346C0.801923 9.00432 0.825862 8.99973 0.85 8.99996H1C1.85 8.99952 2.68596 9.21663 3.42833 9.63062C2.80119 10.1435 2.3155 10.808 2.01733 11.5613C1.98952 11.6449 1.99597 11.7362 2.03526 11.8151C2.07455 11.894 2.14349 11.9541 2.227 11.9823C2.31064 12.0105 2.40203 12.0043 2.48113 11.9652C2.56024 11.9261 2.62061 11.8572 2.649 11.7736C2.96958 11.0018 3.51058 10.3416 4.20433 9.87562C5.1336 9.2714 6.22543 8.96584 7.33333 8.99996C8.22101 8.97213 9.1053 9.12195 9.93427 9.44061C10.7632 9.75928 11.5202 10.2404 12.1607 10.8556C12.0568 11.2283 12.0027 11.6131 12 12C12 14.1 12.709 14.5606 12.851 14.6333C12.8991 14.6571 12.952 14.6694 13.0057 14.6693C13.0675 14.67 13.1283 14.6534 13.1813 14.6215C13.2343 14.5896 13.2773 14.5436 13.3057 14.4886C13.326 14.4505 13.3384 14.4086 13.3424 14.3656C13.3463 14.3225 13.3416 14.2791 13.3285 14.2379C13.3154 14.1967 13.2943 14.1586 13.2663 14.1257C13.2382 14.0928 13.2039 14.0658 13.1653 14.0463C13.161 14.0413 12.6667 13.6933 12.6667 12C12.669 11.6132 12.7311 11.2291 12.8507 10.8613C13.0436 10.2863 13.3227 9.74391 13.6783 9.25262C14.1092 8.63903 14.3382 7.90639 14.3333 7.15662V5.96195C14.6348 5.90357 14.9169 5.77057 15.1538 5.5751C15.3907 5.37962 15.5748 5.12791 15.6893 4.84295L15.9763 4.12295C16.0083 4.04099 16.0065 3.94973 15.9714 3.86906C15.9363 3.7884 15.8708 3.72487 15.7891 3.69232C15.7073 3.65978 15.6161 3.66085 15.5351 3.69531C15.4542 3.72977 15.3902 3.79482 15.357 3.87629L15.0707 4.59529C14.9842 4.81076 14.8358 4.99581 14.6444 5.12714C14.4529 5.25847 14.2268 5.3302 13.9947 5.33329H10.7167C10.5925 5.33372 10.472 5.29121 10.3757 5.21295C10.2782 5.13294 10.2116 5.02162 10.187 4.89795C10.1671 4.80246 10.174 4.70331 10.207 4.61152C10.24 4.51972 10.2978 4.43887 10.374 4.37795L10.3777 4.37362L10.382 4.37129C10.465 4.3025 10.5672 4.26085 10.6747 4.25195L13.0503 4.05195C13.1769 4.04153 13.2995 4.00254 13.4089 3.93791C13.5183 3.87328 13.6116 3.7847 13.6818 3.67882C13.752 3.57295 13.7972 3.45253 13.8142 3.32663C13.8312 3.20074 13.8193 3.07263 13.7797 2.95195L13.6497 2.56195C13.6358 2.52037 13.6139 2.48192 13.5853 2.44879C13.5566 2.41566 13.5216 2.38851 13.4824 2.36889C13.4432 2.34926 13.4006 2.33755 13.3569 2.33442C13.3132 2.33128 13.2693 2.33679 13.2277 2.35062C13.1861 2.36445 13.1476 2.38634 13.1145 2.41504C13.0814 2.44373 13.0542 2.47867 13.0346 2.51785C13.015 2.55704 13.0033 2.59971 13.0001 2.64342C12.997 2.68713 13.0025 2.73104 13.0163 2.77262L13.1463 3.16262C13.1546 3.18722 13.1572 3.2134 13.1537 3.23913C13.1502 3.26486 13.1409 3.28944 13.1263 3.31095C13.1119 3.33313 13.0925 3.35168 13.0698 3.36515C13.047 3.37862 13.0214 3.38665 12.995 3.38862L12.423 3.43662L11.9667 2.51795C11.9272 2.43883 11.8578 2.37865 11.7739 2.35064C11.69 2.32264 11.5985 2.3291 11.5193 2.36862C11.4402 2.40814 11.38 2.47747 11.352 2.56136C11.324 2.64525 11.3305 2.73683 11.37 2.81595L11.71 3.49562L10.618 3.58762C10.5204 3.59735 10.4244 3.61884 10.332 3.65162L9.692 2.15695C9.67102 2.10798 9.66366 2.05426 9.6707 2.00145C9.67775 1.94864 9.69892 1.89872 9.732 1.85695L10.5967 0.775954C10.6326 0.730778 10.6812 0.697332 10.7362 0.679878C10.7913 0.662424 10.8503 0.661755 10.9057 0.677954L11.0057 0.708621C12.891 1.29848 14.8268 1.71313 16.7883 1.94729C16.8574 1.95336 16.9226 1.98207 16.9737 2.02896C17.0248 2.07586 17.059 2.1383 17.071 2.20662C17.329 3.51669 17.6847 4.80563 18.135 6.06262C18.7243 7.85329 19.3333 9.70462 19.3333 11.3333C19.348 12.6499 18.9867 13.9433 18.2917 15.0616C18.2898 15.0652 18.2881 15.0689 18.2867 15.0726C18.1352 15.3194 17.9603 15.551 17.7643 15.7643C17.7325 15.795 17.7071 15.8318 17.6896 15.8725C17.6722 15.9132 17.663 15.9569 17.6626 16.0012C17.6622 16.0454 17.6706 16.0893 17.6874 16.1303C17.7042 16.1712 17.7289 16.2085 17.7602 16.2398C17.7915 16.2711 17.8287 16.2958 17.8697 16.3126C17.9106 16.3293 17.9545 16.3378 17.9988 16.3374C18.0431 16.337 18.0868 16.3278 18.1275 16.3103C18.1681 16.2929 18.2049 16.2675 18.2357 16.2356C18.2397 16.2316 18.2753 16.1953 18.3303 16.1326C18.3626 16.5426 18.2639 16.9523 18.0483 17.3026C17.5987 17.9143 14.7817 18.636 12.573 18.029C12.08 17.9002 11.6134 17.6859 11.1947 17.3956C11.1228 17.3441 11.0335 17.3232 10.9462 17.3375C10.859 17.3519 10.781 17.4003 10.7295 17.4721C10.678 17.544 10.6571 17.6333 10.6714 17.7206C10.6858 17.8078 10.7342 17.8857 10.806 17.9373C11.1035 18.1457 11.4245 18.3183 11.7623 18.4516C11.0067 18.9093 9.818 19.3333 8 19.3333C6.46667 19.3333 5.017 18.6796 4.07033 18.1333C3.53437 17.829 3.02668 17.4774 2.55333 17.0826C2.48644 17.0287 2.40134 17.0028 2.31576 17.0101C2.23018 17.0174 2.15074 17.0575 2.094 17.122C2.03726 17.1865 2.0076 17.2704 2.0112 17.3562C2.0148 17.442 2.05139 17.5231 2.11333 17.5826C2.47322 17.8847 2.85345 18.1617 3.25133 18.4116C2.50983 18.7979 1.6861 18.9998 0.85 19C0.82585 19.0002 0.80189 18.9957 0.779526 18.9865C0.757162 18.9774 0.736845 18.9639 0.719767 18.9469C0.702689 18.9298 0.689195 18.9095 0.680076 18.8871C0.670958 18.8647 0.666399 18.8408 0.666667 18.8166V9.18329Z" fill="#080517"/>
<path d="M5.45409 14.3635C6.08192 14.5345 6.72972 14.6211 7.38042 14.6212C8.70302 14.6115 10.002 14.2697 11.1581 13.6272C11.1967 13.6064 11.2308 13.5783 11.2584 13.5444C11.2861 13.5104 11.3069 13.4714 11.3195 13.4294C11.3321 13.3875 11.3363 13.3435 11.3319 13.2999C11.3275 13.2564 11.3145 13.2141 11.2938 13.1755C11.273 13.1369 11.2449 13.1028 11.2109 13.0752C11.177 13.0475 11.138 13.0267 11.096 13.0141C11.0113 12.9887 10.92 12.9979 10.8421 13.0398C6.76442 15.2348 3.67075 12.8425 3.54209 12.7398C3.473 12.6847 3.38482 12.6592 3.29696 12.6691C3.2091 12.6789 3.12875 12.7233 3.07359 12.7923C3.01842 12.8614 2.99296 12.9496 3.00281 13.0375C3.01265 13.1253 3.057 13.2057 3.12609 13.2608C3.82603 13.7712 4.61578 14.1453 5.45409 14.3635Z" fill="#080517"/>
</g>
<defs>
<clipPath id="clip0_613_406">
<rect width="20" height="20" fill="white"/>
</clipPath>
</defs>
</svg>
