<svg width="20" height="20" viewBox="0 0 20 20" fill="none" xmlns="http://www.w3.org/2000/svg">
<path d="M18.854 11.5316C18.9515 11.3146 18.9957 11.0742 18.9818 10.8363L18.9565 10.4074C18.9325 10 18.7156 9.62172 18.3761 9.39547C18.0455 9.17508 17.6326 9.09586 17.2435 9.17875C17.2103 9.18578 17.1734 9.19391 17.1331 9.20305C15.744 9.51734 14.415 10.0603 13.1833 10.8167L12.7212 11.1005L12.6111 8.85469C12.5879 8.44836 12.4637 8.04969 12.252 7.70187L11.653 6.71781C11.5344 6.52312 11.4475 6.3118 11.3947 6.08992C11.1938 5.24602 10.5556 4.55797 9.72919 4.29422L8.19325 3.80406C7.94661 3.72539 7.682 3.69977 7.42294 3.72828C6.62333 2.95203 5.72473 2.10617 5.56239 1.98437C5.54012 1.96766 3.30723 0.3125 2.89051 0.3125H2.18294C1.90708 0.3125 1.66044 0.497344 1.58301 0.762109C1.42942 1.2875 1.17176 2.26281 1.17176 2.89062C1.17176 3.67086 1.10614 5.44609 1.09528 5.73523L0.827858 6.18094C0.691999 6.40742 0.642389 6.67539 0.688327 6.93547L0.804889 7.59578C0.847624 7.83789 0.972389 8.06117 1.15614 8.22461L1.29614 8.34906C1.40145 8.44266 1.53395 8.49289 1.67333 8.49289C1.68778 8.49289 1.70239 8.49234 1.71692 8.49125C1.74419 8.48922 1.77067 8.48469 1.79684 8.47898V17.063C1.79684 17.5774 1.91848 18.0926 2.14848 18.5527C2.35387 18.9635 2.76684 19.2187 3.22606 19.2187H3.31278C3.67153 19.2187 4.02591 19.1612 4.37325 19.0451C4.50137 18.9954 7.51755 17.8238 8.1777 17.4195L11.005 15.6885L12.8089 15.0472C13.736 14.7175 14.5706 14.1538 15.2226 13.4168L15.5963 12.9944C15.1923 14.3952 14.9704 16.5463 14.9419 16.8334L14.0858 18.6883C14.0279 18.8138 14.0054 18.9529 14.0206 19.0903C14.0633 19.4753 14.3877 19.7656 14.775 19.7656H18.5377C18.7501 19.7656 18.923 19.5928 18.923 19.3803C18.923 19.2197 18.8221 19.0745 18.6718 19.0191C17.6125 18.6282 16.408 17.9611 16.4993 17.3674C16.6026 16.696 17.7834 13.9126 18.854 11.5316ZM9.40927 10.5472C9.40497 10.5039 9.39966 10.4607 9.39216 10.4175L9.34419 10.1419C9.32302 10.0201 9.29567 9.90023 9.26372 9.78211C9.62927 9.68523 10.5293 9.44563 10.8068 9.36195C11.0843 9.27813 11.9037 8.85586 12.2756 8.66086C12.2865 8.73063 12.295 8.80078 12.299 8.87125L12.3738 10.3961L11.8505 10.2296C11.205 10.0245 10.5096 10.0644 9.89505 10.3409L9.40927 10.5472ZM2.11169 8.28797C2.21473 8.16437 2.26075 8.00219 2.23794 7.84297L2.18216 7.45227L2.1988 7.47133C2.27426 7.55758 2.38708 7.60047 2.50075 7.58586C2.51481 7.58406 2.52864 7.58141 2.54216 7.57797L2.67426 8.08445C2.77473 8.46953 2.95012 8.82344 3.19567 9.13648L3.6277 9.68727C3.63059 9.69094 3.63364 9.69453 3.63684 9.69797C3.75341 9.82172 3.75051 10.0128 3.63028 10.133L3.22606 10.5373C3.15661 10.6067 3.12364 10.7062 3.13895 10.81L3.8052 14.3081C3.8102 14.3428 3.81442 14.3777 3.81786 14.4125C3.82739 14.5105 3.82786 14.6199 3.8195 14.7566L3.75317 15.8339L2.10926 16.5803V8.29063C2.11005 8.28969 2.11091 8.28891 2.11169 8.28797ZM4.12895 14.3823C4.12512 14.3425 4.12028 14.3028 4.11341 14.2564L3.44708 10.7582L3.8513 10.354C4.08997 10.1153 4.09747 9.73695 3.86966 9.48922L3.44161 8.94367C3.22262 8.66461 3.06622 8.34898 2.97661 8.00563L2.79387 7.305C2.80255 7.25609 2.80184 7.20578 2.78887 7.15703L2.7595 7.0468C2.95934 7.20266 3.17551 7.32422 3.39739 7.405C3.29044 7.96469 3.57544 8.53164 4.09317 8.74102C4.23778 8.79945 4.38919 8.82867 4.54059 8.82867C4.69848 8.82867 4.85637 8.79688 5.00622 8.73328C5.29958 8.60883 5.52692 8.37766 5.6463 8.08227C5.79708 7.70953 5.78387 7.31531 5.61895 7.01414C5.76309 6.90781 5.89091 6.78695 5.99528 6.65367C5.99739 6.65102 5.99934 6.64828 6.00145 6.64563C6.14723 6.89617 6.35044 7.11445 6.60169 7.27594L7.68708 7.97367C7.80848 8.05172 7.92177 8.14305 8.02387 8.24516C8.55708 8.77828 8.90716 9.45273 9.0363 10.1956L9.08427 10.4712C9.11934 10.6732 9.11192 10.8765 9.06223 11.0754C9.03606 11.1799 8.99755 11.2798 8.94966 11.3751C8.66747 11.5091 8.24997 11.7634 7.78005 12.2334C7.46739 12.5461 7.23645 12.9609 7.09395 13.4662C6.93036 14.0462 6.56536 14.547 6.0663 14.8763L4.04301 16.2117L4.13145 14.776C4.14083 14.6223 4.14005 14.4972 4.12895 14.3823ZM5.77528 5.34953L5.7595 5.47547C5.75856 5.48289 5.75841 5.49031 5.75755 5.49773C4.16184 5.40492 2.87989 4.50789 2.51669 4.22812C2.82161 3.78336 3.21145 3.27469 3.21591 3.26891C3.22176 3.26133 3.22684 3.2532 3.23122 3.24469L3.39036 2.93227L5.82372 5.10969C5.80286 5.1893 5.78536 5.26937 5.77528 5.34953ZM2.95919 3.09016C2.9195 3.14203 2.75997 3.35148 2.57497 3.60547C2.61817 3.44133 2.66583 3.29883 2.71778 3.19492C2.82387 2.98258 2.94333 2.79039 3.05317 2.6307L3.14942 2.7168L2.95919 3.09016ZM2.39591 4.53047C2.86091 4.87984 4.13817 5.72086 5.74966 5.81016C5.75989 5.98656 5.79505 6.15937 5.85317 6.32406C5.81825 6.37125 5.78341 6.41727 5.74934 6.46078C5.29434 7.04187 4.27911 7.35781 3.57645 7.13742C3.2238 7.02672 2.88106 6.78977 2.60567 6.46953L2.49473 6.05344C2.492 6.0432 2.48825 6.03328 2.48348 6.02383L2.26887 5.59469C2.2813 5.45734 2.32411 5.01273 2.39591 4.53047ZM5.35661 7.96492C5.26848 8.18297 5.10067 8.35367 4.88419 8.44539C4.6677 8.53734 4.42841 8.5393 4.21036 8.45102C3.8388 8.30078 3.63247 7.89469 3.69989 7.48703C3.81973 7.50852 3.94356 7.52023 4.07012 7.52023C4.50512 7.52023 4.96528 7.39711 5.35364 7.18258C5.46497 7.39992 5.46903 7.68703 5.35661 7.96492ZM8.09817 4.10164L9.63419 4.5918C10.3568 4.82242 10.915 5.42414 11.0907 6.16219C11.1511 6.41602 11.2505 6.65758 11.3861 6.88023L11.985 7.8643C12.0771 8.01547 12.15 8.17766 12.2029 8.34594C11.7897 8.56367 10.9629 8.9882 10.7165 9.06266C10.4439 9.14492 9.52434 9.38969 9.17012 9.48352C8.97473 8.93727 8.66169 8.4407 8.24489 8.02398C8.12708 7.90617 7.9963 7.8007 7.85614 7.71055L6.77075 7.01281C6.27114 6.6918 5.99598 6.10344 6.06966 5.51414L6.08544 5.3882C6.08645 5.38039 6.08841 5.3725 6.0895 5.36469L6.96403 6.2907C7.21434 6.5557 7.5902 6.6693 7.94536 6.58742L8.03473 6.56672C8.35794 6.49211 8.627 6.26484 8.7545 5.95875C8.91067 5.58391 8.83177 5.15094 8.55356 4.8557C8.37356 4.66461 8.07559 4.36641 7.73544 4.03289C7.85887 4.04148 7.98098 4.06422 8.09817 4.10164ZM1.69348 8.17961C1.62333 8.18492 1.55606 8.16203 1.50364 8.11547L1.36364 7.99102C1.23223 7.87422 1.14309 7.71461 1.11255 7.54148L0.995983 6.88117C0.963171 6.69523 0.998561 6.50367 1.09567 6.3418L1.3838 5.86164C1.39731 5.83906 1.40497 5.81352 1.40598 5.78727C1.40676 5.76688 1.48426 3.74312 1.48426 2.89062C1.48426 2.30172 1.73403 1.35914 1.88294 0.849844C1.92169 0.7175 2.04497 0.625 2.18294 0.625L2.8877 0.624922C3.14301 0.650156 4.76716 1.77859 5.37489 2.23438C5.59364 2.39852 7.6727 4.37648 8.32614 5.07C8.51989 5.2757 8.57489 5.57742 8.46606 5.83859C8.37716 6.05188 8.18966 6.21039 7.96442 6.26234L7.87512 6.28297C7.62794 6.34016 7.36567 6.26094 7.1913 6.07625L6.20723 5.0343C6.20419 5.03109 6.20106 5.02805 6.19778 5.02516L3.23872 2.37734C3.34614 2.23938 3.4202 2.15891 3.42192 2.15703L3.19278 1.94453C3.17512 1.96352 2.75708 2.4175 2.43825 3.05516C2.11598 3.69969 1.96005 5.53422 1.95356 5.61211C1.95122 5.64062 1.95669 5.6693 1.9695 5.695L2.19676 6.14945L2.48692 7.2375C2.48887 7.24477 2.48809 7.2525 2.48466 7.25922C2.47864 7.27133 2.46848 7.275 2.46114 7.27594C2.45348 7.27719 2.44301 7.27594 2.43403 7.26562L2.07059 6.85031C2.02505 6.79828 1.95059 6.78234 1.88786 6.81125C1.82497 6.84008 1.78856 6.90688 1.79833 6.97539L1.92856 7.88734C1.93887 7.95914 1.91809 8.03227 1.87161 8.08805C1.82669 8.14188 1.76348 8.17445 1.69348 8.17961ZM14.9886 13.2098C14.3715 13.9073 13.5816 14.4409 12.7043 14.7528L10.885 15.3996C10.8748 15.4033 10.865 15.4079 10.8557 15.4136L8.0145 17.1531C7.37809 17.5428 4.2913 18.7418 4.26731 18.7513C3.95903 18.8541 3.63786 18.9062 3.31278 18.9062H3.22606C2.88591 18.9062 2.58005 18.7173 2.42801 18.413C2.2195 17.996 2.10926 17.5292 2.10926 17.063V16.9236L3.73137 16.187L3.71661 16.427L3.11692 16.8227L3.28903 17.0835L6.23833 15.137C6.79997 14.7663 7.21067 14.203 7.39466 13.5509C7.52255 13.0977 7.72653 12.7287 8.00098 12.4542C8.19216 12.263 8.37278 12.1111 8.53739 11.9897L8.34942 12.2559C8.32903 12.2848 8.30809 12.3184 8.28708 12.3556C8.04247 12.7914 8.00114 13.322 8.17387 13.8114L8.21192 13.9191L8.50653 13.8151L8.46848 13.7073C8.32575 13.3029 8.35895 12.8659 8.5595 12.5087C8.5752 12.4807 8.59044 12.4563 8.60466 12.4361L9.09387 11.7431C9.22067 11.5634 9.312 11.3642 9.36536 11.1509C9.38731 11.0632 9.40223 10.9748 9.41059 10.886L10.0201 10.627C10.5673 10.3806 11.1836 10.3452 11.7556 10.5273L12.39 10.7291L12.4173 11.287L11.168 12.0543L11.3316 12.3205L13.3468 11.0828C14.5492 10.3444 15.8462 9.81437 17.2017 9.50766C17.2404 9.49898 17.2761 9.49109 17.3082 9.48422C17.6157 9.41906 17.9415 9.48125 18.2026 9.65531C18.4611 9.82758 18.6262 10.1155 18.6444 10.4255L18.6697 10.8545C18.6807 11.0423 18.6458 11.232 18.5689 11.4032C18.5025 11.5509 18.4168 11.7423 18.3175 11.9653L16.1375 12.403C16.1915 12.2911 16.2472 12.1995 16.3047 12.1356C16.9947 11.3688 17.2342 11.1282 17.2365 11.1259L17.0155 10.905C17.0058 10.9147 16.7702 11.1512 16.0723 11.9266C16.0156 11.9895 15.9611 12.0718 15.9085 12.1695L14.9886 13.2098ZM18.5636 19.3123C18.5916 19.3227 18.6105 19.3499 18.6105 19.3803C18.6105 19.4205 18.5779 19.4531 18.5377 19.4531H14.775C14.5472 19.4531 14.3564 19.2823 14.3311 19.0559C14.3222 18.975 14.3354 18.8932 14.3695 18.8193L15.2367 16.9405C15.244 16.9245 15.2486 16.9074 15.2504 16.89C15.3364 15.9952 15.6098 13.8712 15.9976 12.7501L18.1625 12.3154C17.4519 13.9238 16.3006 16.6031 16.1904 17.32C16.0438 18.2736 17.8011 19.031 18.5636 19.3123Z" fill="#080517"/>
</svg>
