<svg width="20" height="20" viewBox="0 0 20 20" fill="none" xmlns="http://www.w3.org/2000/svg">
<path d="M1.84964 18.6786H18.1503C18.5336 18.673 18.8993 18.5168 19.1684 18.2437C19.4374 17.9707 19.5883 17.6027 19.5883 17.2194C19.5883 16.836 19.4374 16.4681 19.1684 16.195C18.8993 15.922 18.5336 15.7658 18.1503 15.7601H17.5843V7.43765C17.5843 7.39445 17.5724 7.3521 17.5498 7.31526C17.5273 7.27842 17.495 7.24854 17.4565 7.2289L16.3081 6.64265L17.1378 5.04733C17.1664 4.99218 17.172 4.92789 17.1533 4.86861C17.1346 4.80933 17.0931 4.75992 17.0379 4.73124C16.9828 4.70256 16.9185 4.69697 16.8592 4.7157C16.7999 4.73442 16.7505 4.77593 16.7218 4.83108L14.8437 8.43983C14.8295 8.46714 14.8208 8.49699 14.8181 8.52766C14.8154 8.55834 14.8188 8.58924 14.828 8.6186C14.8467 8.67791 14.8882 8.72737 14.9434 8.75608C14.9985 8.7848 15.0629 8.79043 15.1222 8.77174C15.1815 8.75304 15.2309 8.71155 15.2596 8.6564L16.0912 7.05796L17.115 7.58046V15.7601H4.30964C4.3137 15.7542 4.31902 15.7492 4.32308 15.743L6.16245 12.8367C6.22861 12.7323 6.2753 12.6168 6.30027 12.4958L6.56652 11.2145L7.8437 11.6876L6.77808 13.4136C6.63537 13.6469 6.59118 13.9273 6.65523 14.1932C6.71929 14.4591 6.88634 14.6887 7.11964 14.8314C7.28058 14.9309 7.46605 14.9836 7.65527 14.9836C7.83237 14.9837 8.00653 14.9383 8.16113 14.852C8.31574 14.7656 8.44562 14.641 8.53839 14.4901L10.26 11.6911C10.3396 11.561 10.3893 11.4148 10.4055 11.2632C10.4217 11.1115 10.404 10.9582 10.3537 10.8142C10.3038 10.6701 10.2224 10.5388 10.1155 10.43C10.0086 10.3212 9.87882 10.2376 9.73558 10.1851L8.16964 9.60858L9.42589 7.64515L10.0059 8.24452C10.0898 8.33089 10.1901 8.39953 10.301 8.44634C10.4119 8.49315 10.5311 8.51719 10.6515 8.51702C10.8171 8.51768 10.9796 8.47165 11.1203 8.38421L13.7628 6.76546C13.8671 6.70579 13.9584 6.62577 14.0313 6.53017C14.1041 6.43456 14.157 6.3253 14.1869 6.20886C14.2167 6.09242 14.2229 5.97118 14.2051 5.85231C14.1872 5.73345 14.1456 5.61938 14.0829 5.51686C14.0201 5.41435 13.9374 5.32547 13.8397 5.25551C13.7419 5.18554 13.6311 5.13591 13.5138 5.10955C13.3966 5.0832 13.2752 5.08065 13.1569 5.10206C13.0386 5.12347 12.9259 5.16841 12.8253 5.23421L10.7965 6.47515L9.85214 5.50015C9.82363 5.46893 9.79224 5.44047 9.75839 5.41515C9.63918 5.23025 9.48181 5.07298 9.29683 4.9539C9.2912 4.95015 9.28245 4.94546 9.27402 4.94108C8.64589 4.50827 6.13433 4.55546 5.6537 4.57015C5.47994 4.55973 5.30694 4.60059 5.1562 4.68765L3.22495 5.79296C3.01836 5.91157 2.86722 6.10725 2.80466 6.33711C2.7421 6.56697 2.77322 6.81226 2.8912 7.01921C3.0097 7.2261 3.20549 7.37747 3.43555 7.44005C3.66561 7.50263 3.91111 7.47131 4.11808 7.35296L5.82058 6.37858L6.50277 6.41327L5.07745 8.64108C4.93035 8.87198 4.84671 9.13757 4.83495 9.41108L4.31808 11.8939L2.57902 14.6401C2.47378 14.8086 2.41921 15.0037 2.42182 15.2023C2.42442 15.4009 2.48409 15.5945 2.5937 15.7601H1.84964C1.46633 15.7658 1.10062 15.922 0.831539 16.195C0.56246 16.4681 0.411621 16.836 0.411621 17.2194C0.411621 17.6027 0.56246 17.9707 0.831539 18.2437C1.10062 18.5168 1.46633 18.673 1.84964 18.6786ZM10.8809 6.97296L13.0684 5.63327C13.1168 5.60366 13.1705 5.58387 13.2266 5.57505C13.2826 5.56623 13.3399 5.56855 13.395 5.58188C13.4502 5.5952 13.5021 5.61926 13.548 5.65269C13.5938 5.68613 13.6326 5.72827 13.6621 5.77671C13.6915 5.82476 13.711 5.87813 13.7197 5.93375C13.7284 5.98938 13.726 6.04616 13.7126 6.10086C13.6993 6.15555 13.6753 6.20708 13.642 6.25248C13.6088 6.29789 13.5668 6.33628 13.5187 6.36546L10.875 7.98546C10.7914 8.03461 10.6939 8.05461 10.5977 8.04234C10.5016 8.03007 10.4122 7.98621 10.3437 7.91765L9.68745 7.23921L9.76964 7.11046C9.91701 6.87697 9.99923 6.60831 10.0078 6.33233L10.5903 6.93765C10.6275 6.97565 10.6766 6.99984 10.7294 7.00626C10.7822 7.01268 10.8356 7.00093 10.8809 6.97296ZM7.11652 6.32452C7.1386 6.28992 7.15122 6.25014 7.15312 6.20914C7.15502 6.16814 7.14613 6.12735 7.12735 6.09086C7.10857 6.05436 7.08054 6.02343 7.04607 6.00116C7.01159 5.97888 6.97188 5.96603 6.93089 5.9639L5.77683 5.9064H5.76495C5.72414 5.90649 5.68406 5.91726 5.6487 5.93765L3.88558 6.94671C3.78661 7.00297 3.66938 7.01772 3.55956 6.98773C3.44974 6.95774 3.35628 6.88546 3.29964 6.78671C3.2431 6.68766 3.22813 6.57025 3.258 6.46018C3.28788 6.35012 3.36016 6.25639 3.45902 6.19952L5.39058 5.0939C5.46772 5.05044 5.55607 5.03096 5.64433 5.03796C6.8362 5.00515 8.66777 5.07296 9.00995 5.3289C9.01433 5.33233 9.03652 5.34452 9.0412 5.34765C9.28573 5.50367 9.45827 5.75045 9.52086 6.03368C9.58345 6.31692 9.53097 6.61342 9.37495 6.85796L7.61995 9.6014C7.60112 9.63092 7.58913 9.66429 7.58487 9.69906C7.58061 9.73382 7.58419 9.7691 7.59533 9.8023C7.60648 9.83551 7.62492 9.86579 7.64929 9.89094C7.67367 9.91609 7.70337 9.93547 7.7362 9.94765L9.57433 10.6251C9.65235 10.6538 9.72303 10.6995 9.7813 10.7588C9.83957 10.8181 9.88398 10.8895 9.91132 10.968C9.93866 11.0465 9.94827 11.1301 9.93944 11.2128C9.93061 11.2954 9.90357 11.3751 9.86027 11.4461L8.1387 14.2451C8.06096 14.3726 7.93578 14.4639 7.79071 14.499C7.64563 14.5342 7.49254 14.5102 7.36511 14.4325C7.23768 14.3547 7.14636 14.2296 7.11122 14.0845C7.07609 13.9394 7.10002 13.7863 7.17777 13.6589L8.39245 11.6901C8.41089 11.6606 8.42251 11.6273 8.42646 11.5927C8.4304 11.5581 8.42657 11.5231 8.41526 11.4901C8.40394 11.4572 8.38541 11.4272 8.36103 11.4023C8.33665 11.3775 8.30703 11.3584 8.27433 11.3464L5.95527 10.4923C5.87294 10.46 5.7984 10.4105 5.73652 10.3473C5.60142 10.2456 5.49184 10.1139 5.41645 9.96248C5.34106 9.8111 5.30192 9.64426 5.30214 9.47515C5.30214 9.47327 5.30214 9.47171 5.30214 9.46983C5.30388 9.26509 5.3637 9.06505 5.47464 8.89296L7.11652 6.32452ZM2.97558 14.8901L4.73808 12.1073C4.753 12.0834 4.76358 12.0571 4.76933 12.0295L5.11527 10.367C5.20181 10.4935 5.3072 10.6061 5.42777 10.7008C5.53122 10.8025 5.6551 10.8811 5.7912 10.9314L6.11995 11.0526L5.8387 12.4036C5.82527 12.4687 5.80007 12.5309 5.76433 12.587L3.92464 15.4933C3.84474 15.6194 3.71801 15.7087 3.57232 15.7414C3.42663 15.7741 3.27391 15.7475 3.14777 15.6676C3.02162 15.5878 2.93238 15.461 2.89968 15.3153C2.86698 15.1696 2.89349 15.0169 2.97339 14.8908L2.97558 14.8901ZM1.85058 16.2289H18.1503C18.4099 16.2335 18.6574 16.3399 18.8393 16.5251C19.0213 16.7104 19.1233 16.9597 19.1233 17.2194C19.1233 17.479 19.0213 17.7283 18.8393 17.9136C18.6574 18.0988 18.4099 18.2052 18.1503 18.2098H1.84964C1.59 18.2052 1.34255 18.0988 1.16056 17.9136C0.978579 17.7283 0.87661 17.479 0.87661 17.2194C0.87661 16.9597 0.978579 16.7104 1.16056 16.5251C1.34255 16.3399 1.59 16.2335 1.84964 16.2289H1.85058Z" fill="#080517"/>
<path d="M8.2915 2.97053C8.2915 3.29661 8.38819 3.61536 8.56935 3.88649C8.7505 4.15762 9.00798 4.36894 9.30923 4.49374C9.61048 4.61854 9.94198 4.65121 10.2618 4.58762C10.5816 4.52403 10.8754 4.36703 11.106 4.13648C11.3366 3.90593 11.4936 3.61218 11.5573 3.29237C11.6209 2.97257 11.5883 2.64107 11.4636 2.33979C11.3388 2.03852 11.1276 1.781 10.8565 1.59979C10.5854 1.41859 10.2666 1.32184 9.94057 1.32178C9.50339 1.32219 9.08423 1.49602 8.77507 1.80512C8.46591 2.11422 8.292 2.53335 8.2915 2.97053ZM11.1203 2.97053C11.1203 3.20392 11.051 3.43208 10.9214 3.62613C10.7917 3.82019 10.6074 3.97143 10.3917 4.06074C10.1761 4.15004 9.93884 4.17339 9.70993 4.12783C9.48103 4.08228 9.27077 3.96986 9.10576 3.8048C8.94074 3.63975 8.82838 3.42946 8.78289 3.20054C8.73739 2.97162 8.76081 2.73436 8.85017 2.51874C8.93952 2.30313 9.09082 2.11886 9.28491 1.98924C9.479 1.85962 9.70717 1.79047 9.94057 1.79053C10.2534 1.79094 10.5532 1.9154 10.7744 2.13662C10.9955 2.35783 11.1199 2.65773 11.1203 2.97053Z" fill="#080517"/>
</svg>
