<svg width="20" height="20" viewBox="0 0 20 20" fill="none" xmlns="http://www.w3.org/2000/svg">
<path fill-rule="evenodd" clip-rule="evenodd" d="M16.732 4.33418L17.3106 4.48946L16.5072 7.4947L15.9265 7.33922L16.732 4.33418ZM17.0359 7.63618L17.6145 7.79166L18.4199 4.78642L17.8393 4.63094L17.0359 7.63618ZM14.5507 6.45922C14.5383 6.48898 14.5299 6.52126 14.5299 6.5539L14.4425 8.41234C14.3988 8.95326 14.2698 9.1685 14.1678 9.25422C14.1262 9.28918 14.0533 9.33438 13.9077 9.32102C12.8503 9.22946 12.2593 8.8417 12.1011 8.13634C12.0698 7.99626 11.9345 7.90426 11.793 7.9257C11.6515 7.94734 11.5495 8.07494 11.562 8.21834C11.5891 8.56446 11.4995 8.6775 11.3497 8.86542C11.1728 9.0869 10.9584 9.35746 10.9334 9.9731C10.3236 10.2339 9.65134 10.2445 9.04774 10.0037C9.02486 9.36514 8.80214 9.08894 8.62106 8.86398C8.4691 8.67646 8.37754 8.56302 8.40458 8.21834C8.41498 8.07494 8.3151 7.94734 8.17354 7.9257C8.02994 7.90466 7.8967 7.99626 7.8655 8.13634C7.70526 8.8417 7.11414 9.22946 6.05682 9.32146C5.91114 9.33438 5.84038 9.28918 5.79874 9.25422C5.69674 9.16846 5.56562 8.95326 5.52402 8.41234L5.43662 6.5539C5.43454 6.52122 5.4283 6.48898 5.41582 6.45922C5.2181 5.99926 5.16606 5.64978 5.26806 5.44958C5.32426 5.33718 5.43662 5.25914 5.61354 5.21146C5.8425 5.2223 6.03814 5.3861 6.0881 5.61046C6.14014 5.84126 6.12974 6.14326 5.93198 6.23342C5.78974 6.29794 5.72926 6.46774 5.80294 6.60826C6.1651 7.30802 6.0839 7.74094 5.99026 8.00566C5.94238 8.14242 6.00898 8.2931 6.14218 8.3493C6.27538 8.4051 6.42938 8.34722 6.49394 8.21694C6.87482 7.43458 7.25154 7.01686 7.5575 7.03954C7.68862 7.04934 7.80934 6.96398 7.84266 6.83682C7.91134 6.57418 8.28598 6.3479 8.8521 6.2199C9.45982 6.8647 10.4821 6.87042 11.0999 6.2353C11.6723 6.3687 12.0594 6.5941 12.1239 6.83678C12.1573 6.96394 12.2759 7.0493 12.4091 7.0395C12.7129 7.01722 13.0917 7.43454 13.4726 8.2169C13.5351 8.34718 13.6891 8.40506 13.8244 8.34926C13.9576 8.29306 14.0242 8.14238 13.9763 8.00562C13.8306 7.59582 13.8972 7.13398 14.1782 6.59406C14.2489 6.45566 14.1886 6.28354 14.0471 6.21902C13.8431 6.12578 13.8285 5.83294 13.8785 5.61042C13.9284 5.38606 14.1241 5.22226 14.3509 5.21142C14.5278 5.2591 14.6423 5.33714 14.6985 5.44954C14.7984 5.64978 14.7485 5.99922 14.5507 6.45922ZM12.7608 13.9857C12.5714 13.9915 12.382 13.9836 12.1926 13.9628C12.5089 13.3241 12.5152 13.1519 12.4902 12.8135C12.4777 12.6647 12.4631 12.4811 12.4923 12.1491C12.69 11.5726 12.9565 11.1645 13.2791 10.9349C13.6087 10.7014 13.7737 10.6701 13.8035 10.6872C13.816 10.6978 13.8951 10.7807 13.9263 11.1786C13.9971 12.084 13.6037 13.0279 12.7608 13.9857ZM14.0263 15.4699C14.0554 15.5327 14.0679 15.6372 14.0637 15.7971L11.9012 15.2628C11.8131 15.2405 11.762 15.1536 11.7888 15.0613L11.9678 14.4854C12.2363 14.5252 12.509 14.5412 12.7816 14.5329L12.9669 14.7027C13.2157 14.92 13.3763 15.0263 13.6495 15.1955C13.7941 15.2852 13.9793 15.3714 14.0263 15.4699ZM10.1009 12.1606C10.7232 12.4572 11.3309 12.4253 11.9512 12.0623C11.9533 12.0428 11.9574 12.0238 11.9637 12.0051C12.1884 11.3357 12.5048 10.8423 12.9003 10.5359C12.4257 10.4805 11.8742 10.4447 11.2519 10.4297C10.8356 10.6264 10.3923 10.7245 9.94894 10.7245C9.52642 10.7245 9.10602 10.6356 8.71262 10.4568C8.70638 10.4568 8.70014 10.4568 8.6939 10.4568C8.0903 10.4568 7.5471 10.4839 7.06838 10.5373C7.46382 10.8437 7.7781 11.337 8.0029 12.0051C8.00914 12.0238 8.0133 12.0428 8.01538 12.0623C8.63562 12.4253 9.24334 12.4572 9.86566 12.1606C9.94062 12.1248 10.0259 12.1248 10.1009 12.1606ZM8.16314 15.1864C8.14026 15.2285 8.1111 15.2509 8.06322 15.2628L5.90278 15.7971C5.89306 15.4244 5.94058 15.4106 6.28158 15.217C6.57078 15.0527 6.86206 14.8309 7.10578 14.6057C7.13282 14.582 7.15782 14.5581 7.18486 14.5329C7.45542 14.5412 7.7281 14.5251 7.99866 14.4854L8.17766 15.0613C8.1923 15.1073 8.18814 15.1446 8.16314 15.1864ZM6.04022 11.1786C6.07142 10.7807 6.15054 10.6979 6.16302 10.6872C6.2009 10.6677 6.37234 10.7135 6.68542 10.9353C7.0101 11.1645 7.27442 11.5726 7.47422 12.1491C7.5013 12.4811 7.4867 12.6647 7.4763 12.8135C7.44926 13.1519 7.45758 13.3241 7.77394 13.9628C7.58454 13.9839 7.39514 13.9915 7.20574 13.9857C6.3607 13.0279 5.96946 12.084 6.04022 11.1786ZM8.53778 5.73554C8.4533 5.53066 8.4233 5.3563 8.4233 5.12674C7.81762 5.1719 7.20778 5.24706 6.5813 5.35362C6.59794 5.39818 6.61254 5.44418 6.62294 5.49142C6.72078 5.93622 6.63126 6.33126 6.38982 6.57038C6.46474 6.73958 6.52094 6.90442 6.55842 7.06574C6.8269 6.73462 7.10166 6.54814 7.38886 6.50234C7.5679 6.16074 7.96334 5.89662 8.53778 5.73554ZM9.98222 4.13314C9.42442 4.13314 8.96862 4.5881 8.96862 5.14694C8.96862 5.70558 9.42442 6.16034 9.98222 6.16034C10.5421 6.16034 10.9958 5.70558 10.9958 5.14694C10.9958 4.5881 10.5421 4.13314 9.98222 4.13314ZM13.5871 6.5585C13.3415 6.31934 13.2458 5.9289 13.3436 5.49138C13.3498 5.45914 13.3602 5.42686 13.3707 5.39542C12.7359 5.28678 12.1323 5.20726 11.5433 5.15398C11.5433 5.3667 11.4995 5.56922 11.4205 5.75342C11.997 5.91826 12.3966 6.17574 12.5735 6.50186C12.8628 6.54742 13.1417 6.73602 13.4123 7.0715C13.4518 6.90522 13.5101 6.73414 13.5871 6.5585ZM3.49474 7.49466L2.68926 4.48942L3.26786 4.33414L4.07334 7.33914L3.49474 7.49466ZM2.16062 4.63098L1.58202 4.78646L2.3875 7.7917L2.9661 7.63622L2.16062 4.63098ZM18.8258 4.32878L16.6092 3.73498C16.4655 3.6959 16.3137 3.7805 16.2741 3.92814L15.887 5.37154C15.6476 5.31202 15.4145 5.25666 15.1877 5.20442V5.20422C15.0524 4.93594 14.8026 4.75694 14.4467 4.67118L14.3759 4.6639C14.1283 4.6639 13.8951 4.75174 13.712 4.90054C12.9169 4.75694 12.1718 4.65702 11.4433 4.59686C11.2206 4.00702 10.6503 3.58594 9.98226 3.58594C9.32458 3.58594 8.76262 3.9945 8.53158 4.57082C7.76982 4.62202 7.0039 4.71818 6.20674 4.86406C6.02338 4.73334 5.81438 4.66382 5.58026 4.66382C5.55946 4.66382 5.53862 4.6663 5.51782 4.6711C5.18066 4.75246 4.93922 4.91814 4.79978 5.16354C4.5729 5.2185 4.33982 5.27762 4.10462 5.34106L3.72582 3.92806C3.68674 3.78226 3.5375 3.69558 3.39074 3.7349L1.14914 4.33702L1.10334 4.3595C1.10334 4.35994 1.10126 4.36034 1.10126 4.36074C1.09502 4.3651 1.08878 4.3699 1.08046 4.3749V4.3755C1.07422 4.3807 1.06798 4.3859 1.06174 4.3909C1.06174 4.39174 1.05966 4.39234 1.05966 4.39318C1.02374 4.4219 0.976421 4.50602 0.976421 4.55658C0.965821 4.5661 0.977781 4.64406 0.982661 4.66334L1.92966 8.19742C1.97258 8.34654 2.11854 8.42866 2.26474 8.39078L4.47926 7.79698C4.62666 7.7577 4.71206 7.60854 4.67282 7.4621L4.24614 5.86966C4.38974 5.83094 4.53126 5.79454 4.67074 5.75874C4.68322 6.00974 4.75606 6.29782 4.89134 6.6279L4.9767 8.45094C5.02458 9.04766 5.17858 9.44706 5.44498 9.6729C5.62606 9.82486 5.85082 9.88998 6.10474 9.86626C7.01426 9.78698 7.66366 9.50098 8.0487 9.01334C8.23758 9.30518 8.44886 9.4027 8.4941 9.91082C7.5367 9.92018 6.72706 9.99886 6.07978 10.145C5.62394 10.2321 5.52822 10.7064 5.49494 11.1359C5.41378 12.1578 5.81962 13.2004 6.69794 14.2371C6.50294 14.4324 6.18918 14.6319 5.95074 14.7767C5.45538 15.0675 5.28886 15.2509 5.38046 16.1675C5.39758 16.3347 5.5589 16.4465 5.71762 16.4062L8.19442 15.7937C8.59158 15.6957 8.81966 15.287 8.70018 14.8993L8.4317 14.0473C8.42962 14.0466 8.42962 14.0462 8.42962 14.0456C7.99462 13.2145 8.00086 13.1311 8.0217 12.8553C8.02586 12.8057 8.03002 12.7504 8.0321 12.6865C8.6773 12.9758 9.33086 12.9833 9.9823 12.7073C10.6339 12.9824 11.2879 12.9765 11.9325 12.6865C11.9367 12.7503 11.9408 12.8057 11.945 12.8553C11.9658 13.131 11.972 13.2145 11.5371 14.0451C11.4983 14.1263 11.3097 14.7605 11.2665 14.8989C11.1451 15.2842 11.3712 15.6952 11.7701 15.7937L14.2469 16.4062C14.4095 16.4455 14.5692 16.3344 14.5861 16.1675C14.7289 14.758 14.1963 15.0776 13.2874 14.2555C13.2811 14.2497 13.2749 14.2433 13.2666 14.237C14.147 13.2003 14.5507 12.1578 14.4717 11.1359C14.4409 10.749 14.3583 10.3032 13.9763 10.1674L13.8847 10.1445C13.2749 10.0069 12.4673 9.92122 11.4849 9.88918C11.5294 9.41166 11.7282 9.30726 11.9199 9.01522C12.3029 9.50226 12.9523 9.78698 13.8597 9.86586C14.1157 9.89022 14.3385 9.82486 14.5195 9.6729C14.788 9.4471 14.9421 9.04766 14.9878 8.45094C14.9899 8.44802 14.9899 8.4451 14.9899 8.44222L15.0731 6.62794C15.2043 6.31138 15.2771 6.0337 15.2917 5.79042C15.4415 5.82558 15.5914 5.86202 15.7454 5.8999L15.3271 7.46214C15.2875 7.60806 15.375 7.7579 15.5207 7.79702L17.7373 8.39082C17.884 8.43114 18.0057 8.3259 18.0057 8.31422C18.0339 8.28954 18.062 8.23354 18.0723 8.19746L19.0193 4.66338C19.0547 4.52106 18.9766 4.36898 18.8258 4.32878Z" fill="#080517"/>
</svg>
