<svg width="24" height="24" viewBox="0 0 24 24" fill="none" xmlns="http://www.w3.org/2000/svg">
<g clip-path="url(#clip0_430_6790)">
<path d="M21.4286 0.856934H2.57146C1.62469 0.856934 0.857178 1.62445 0.857178 2.57122V21.4284C0.857178 22.3751 1.62469 23.1426 2.57146 23.1426H21.4286C22.3754 23.1426 23.1429 22.3751 23.1429 21.4284V2.57122C23.1429 1.62445 22.3754 0.856934 21.4286 0.856934Z" stroke="#080517" stroke-width="1.5" stroke-linecap="round" stroke-linejoin="round"/>
<path d="M12 19.7139C15.3137 19.7139 18 17.0276 18 13.7139C18 10.4002 15.3137 7.71387 12 7.71387C8.68629 7.71387 6 10.4002 6 13.7139C6 17.0276 8.68629 19.7139 12 19.7139Z" stroke="#080517" stroke-width="1.5" stroke-linecap="round" stroke-linejoin="round"/>
<path d="M0.857178 6H6.00003" stroke="#080517" stroke-width="1.5" stroke-linecap="round" stroke-linejoin="round"/>
<path d="M18 6H23.1429" stroke="#080517" stroke-width="1.5" stroke-linecap="round" stroke-linejoin="round"/>
<path d="M12 13.6626V19.6626" stroke="#080517" stroke-width="1.5" stroke-linecap="round" stroke-linejoin="round"/>
<path d="M6.85718 10.6284L12 13.6627" stroke="#080517" stroke-width="1.5" stroke-linecap="round" stroke-linejoin="round"/>
<path d="M17.1429 10.6284L12 13.6627" stroke="#080517" stroke-width="1.5" stroke-linecap="round" stroke-linejoin="round"/>
</g>
<defs>
<clipPath id="clip0_430_6790">
<rect width="24" height="24" fill="white"/>
</clipPath>
</defs>
</svg>
