<svg width="24" height="24" viewBox="0 0 24 24" fill="none" xmlns="http://www.w3.org/2000/svg">
<g clip-path="url(#clip0_430_7178)">
<path d="M18 18.8572H21.4286C21.8833 18.8572 22.3193 18.6766 22.6408 18.3551C22.9623 18.0336 23.1429 17.5976 23.1429 17.1429V9.42864C23.1429 8.97398 22.9623 8.53795 22.6408 8.21646C22.3193 7.89497 21.8833 7.71436 21.4286 7.71436H2.57146C2.11681 7.71436 1.68077 7.89497 1.35928 8.21646C1.03779 8.53795 0.857178 8.97398 0.857178 9.42864V17.1429C0.857178 17.5976 1.03779 18.0336 1.35928 18.3551C1.68077 18.6766 2.11681 18.8572 2.57146 18.8572H6.00003" stroke="#080517" stroke-width="1.5" stroke-linecap="round" stroke-linejoin="round"/>
<path d="M6 16.2856V22.2856C6 22.513 6.09031 22.731 6.25105 22.8917C6.4118 23.0525 6.62981 23.1428 6.85714 23.1428H17.1429C17.3702 23.1428 17.5882 23.0525 17.7489 22.8917C17.9097 22.731 18 22.513 18 22.2856V16.2856H6Z" stroke="#080517" stroke-width="1.5" stroke-linecap="round" stroke-linejoin="round"/>
<path d="M18 7.71432V1.71432C18 1.48699 17.9097 1.26897 17.7489 1.10823C17.5882 0.947484 17.3702 0.857178 17.1429 0.857178H6.85714C6.62981 0.857178 6.4118 0.947484 6.25105 1.10823C6.09031 1.26897 6 1.48699 6 1.71432V7.71432" stroke="#080517" stroke-width="1.5" stroke-linecap="round" stroke-linejoin="round"/>
<path d="M18.8571 12H17.1428" stroke="#080517" stroke-width="1.5" stroke-linecap="round" stroke-linejoin="round"/>
</g>
<defs>
<clipPath id="clip0_430_7178">
<rect width="24" height="24" fill="white"/>
</clipPath>
</defs>
</svg>
