<svg width="24" height="24" viewBox="0 0 24 24" fill="none" xmlns="http://www.w3.org/2000/svg">
<path d="M19.7142 8.57171C19.7142 12.8403 11.9999 23.1431 11.9999 23.1431C11.9999 23.1431 4.28564 12.8403 4.28564 8.57171C4.28564 6.52575 5.0984 4.56359 6.54511 3.11688C7.99182 1.67017 9.95397 0.857422 11.9999 0.857422C14.0459 0.857422 16.008 1.67017 17.4548 3.11688C18.9015 4.56359 19.7142 6.52575 19.7142 8.57171V8.57171Z" stroke="white" stroke-linecap="round" stroke-linejoin="round"/>
<path d="M11.9999 11.1429C13.4201 11.1429 14.5713 9.99159 14.5713 8.57143C14.5713 7.15127 13.4201 6 11.9999 6C10.5797 6 9.42847 7.15127 9.42847 8.57143C9.42847 9.99159 10.5797 11.1429 11.9999 11.1429Z" stroke="white" stroke-linecap="round" stroke-linejoin="round"/>
</svg>
