<svg width="24" height="24" viewBox="0 0 24 24" fill="none" xmlns="http://www.w3.org/2000/svg">
<g clip-path="url(#clip0_443_270)">
<path d="M10.9344 1.35123L6.49783 5.78782C5.82836 6.45729 5.82836 7.54271 6.49783 8.21218L15.7831 17.4975C16.4526 18.167 17.538 18.167 18.2075 17.4975L22.6441 13.0609C23.3136 12.3914 23.3136 11.306 22.6441 10.6365L13.3588 1.35123C12.6893 0.681757 11.6039 0.681757 10.9344 1.35123Z" stroke="#080517" stroke-width="1.5" stroke-linecap="round" stroke-linejoin="round"/>
<path d="M1.56018 19.0092C1.10552 19.4639 0.850098 20.0805 0.850098 20.7235C0.850098 21.3665 1.10552 21.9831 1.56018 22.4378C2.01483 22.8924 2.63148 23.1478 3.27446 23.1478C3.91745 23.1478 4.53409 22.8924 4.98875 22.4378L12.8573 14.5692L9.42875 11.1406L1.56018 19.0092Z" stroke="#080517" stroke-width="1.5" stroke-linecap="round" stroke-linejoin="round"/>
</g>
<defs>
<clipPath id="clip0_443_270">
<rect width="24" height="24" fill="white"/>
</clipPath>
</defs>
</svg>
