<svg width="24" height="24" viewBox="0 0 24 24" fill="none" xmlns="http://www.w3.org/2000/svg">
<g clip-path="url(#clip0_443_209)">
<path d="M15.1027 20.6937C14.3283 21.4681 13.4089 22.0824 12.3971 22.5015C11.3852 22.9206 10.3007 23.1363 9.20554 23.1363C6.99368 23.1363 4.87242 22.2577 3.3084 20.6937C1.74438 19.1296 0.865723 17.0084 0.865723 14.7965C0.865723 12.5847 1.74438 10.4634 3.3084 8.89938L11.3484 0.859375L15.1027 4.61366L7.73126 12.0022C7.25742 12.5848 7.01645 13.3224 7.05495 14.0724C7.09345 14.8223 7.40868 15.5314 7.93968 16.0624C8.47068 16.5934 9.17973 16.9086 9.92969 16.9471C10.6796 16.9856 11.4172 16.7446 11.9998 16.2708L19.3713 8.89938L23.1427 12.6537L15.1027 20.6937Z" stroke="#080517" stroke-width="1.5" stroke-linecap="round" stroke-linejoin="round"/>
<path d="M15.7539 12.5312L19.5082 16.2855" stroke="#080517" stroke-width="1.5" stroke-linecap="round" stroke-linejoin="round"/>
<path d="M7.71436 4.49219L11.4686 8.24647" stroke="#080517" stroke-width="1.5" stroke-linecap="round" stroke-linejoin="round"/>
</g>
<defs>
<clipPath id="clip0_443_209">
<rect width="24" height="24" fill="white"/>
</clipPath>
</defs>
</svg>
