<svg width="24" height="24" viewBox="0 0 24 24" fill="none" xmlns="http://www.w3.org/2000/svg">
<g clip-path="url(#clip0_443_435)">
<path d="M12.0003 23.1451C18.1543 23.1451 23.1431 18.1563 23.1431 12.0022C23.1431 5.8482 18.1543 0.859375 12.0003 0.859375C5.84625 0.859375 0.857422 5.8482 0.857422 12.0022C0.857422 18.1563 5.84625 23.1451 12.0003 23.1451Z" stroke="#080517" stroke-width="1.5" stroke-linecap="round" stroke-linejoin="round"/>
<path d="M12.0002 0.859375V23.1451" stroke="#080517" stroke-width="1.5" stroke-linecap="round" stroke-linejoin="round"/>
<path d="M3.60022 19.3197C4.85634 18.555 5.89459 17.48 6.61513 16.198C7.33567 14.916 7.71426 13.4703 7.71451 11.9997C7.71426 10.5291 7.33567 9.08333 6.61513 7.80137C5.89459 6.51941 4.85634 5.44439 3.60022 4.67969" stroke="#080517" stroke-width="1.5" stroke-linecap="round" stroke-linejoin="round"/>
<path d="M20.4 4.67969C19.1443 5.44467 18.1066 6.51982 17.3864 7.80176C16.6663 9.0837 16.2881 10.5293 16.2881 11.9997C16.2881 13.47 16.6663 14.9157 17.3864 16.1976C18.1066 17.4796 19.1443 18.5547 20.4 19.3197" stroke="#080517" stroke-width="1.5" stroke-linecap="round" stroke-linejoin="round"/>
</g>
<defs>
<clipPath id="clip0_443_435">
<rect width="24" height="24" fill="white"/>
</clipPath>
</defs>
</svg>
