<svg width="24" height="24" viewBox="0 0 24 24" fill="none" xmlns="http://www.w3.org/2000/svg">
<path d="M21.4289 5.14282H2.57171C1.62493 5.14282 0.857422 5.91033 0.857422 6.85711V13.7143C0.857422 14.661 1.62493 15.4285 2.57171 15.4285H21.4289C22.3756 15.4285 23.1431 14.661 23.1431 13.7143V6.85711C23.1431 5.91033 22.3756 5.14282 21.4289 5.14282Z" stroke="#080517" stroke-width="1.5" stroke-linecap="round" stroke-linejoin="round"/>
<path d="M6.0007 11.1428C6.47408 11.1428 6.85784 10.759 6.85784 10.2856C6.85784 9.81222 6.47408 9.42847 6.0007 9.42847C5.52731 9.42847 5.14355 9.81222 5.14355 10.2856C5.14355 10.759 5.52731 11.1428 6.0007 11.1428Z" stroke="#080517" stroke-width="1.5" stroke-linecap="round" stroke-linejoin="round"/>
<path d="M11.1436 10.2856H14.5721" stroke="#080517" stroke-width="1.5" stroke-linecap="round" stroke-linejoin="round"/>
<path d="M12 15.4285V23.1428" stroke="#080517" stroke-width="1.5" stroke-linecap="round" stroke-linejoin="round"/>
<path d="M3.42871 23.1428H20.5716" stroke="#080517" stroke-width="1.5" stroke-linecap="round" stroke-linejoin="round"/>
</svg>
