<svg width="24" height="24" viewBox="0 0 24 24" fill="none" xmlns="http://www.w3.org/2000/svg">
<path d="M6.00028 6.85547H2.57171C1.62493 6.85547 0.857422 7.62298 0.857422 8.56975V15.4269C0.857422 16.3737 1.62493 17.1412 2.57171 17.1412H6.00028C6.94705 17.1412 7.71456 16.3737 7.71456 15.4269V8.56975C7.71456 7.62298 6.94705 6.85547 6.00028 6.85547Z" stroke="#080517" stroke-width="1.5" stroke-linecap="round" stroke-linejoin="round"/>
<path d="M21.4289 6.85547H18.0003C17.0535 6.85547 16.286 7.62298 16.286 8.56975V15.4269C16.286 16.3737 17.0535 17.1412 18.0003 17.1412H21.4289C22.3756 17.1412 23.1432 16.3737 23.1432 15.4269V8.56975C23.1432 7.62298 22.3756 6.85547 21.4289 6.85547Z" stroke="#080517" stroke-width="1.5" stroke-linecap="round" stroke-linejoin="round"/>
<path d="M7.71484 12H16.2863" stroke="#080517" stroke-width="1.5" stroke-linecap="round" stroke-linejoin="round"/>
</svg>
