<svg width="34" height="34" viewBox="0 0 34 34" fill="none" xmlns="http://www.w3.org/2000/svg">
<g clip-path="url(#clip0_430_14087)">
<path d="M11.7691 15.6925H7.19216C6.64725 15.6925 6.184 15.5019 5.80255 15.1204C5.42131 14.739 5.23044 14.2758 5.23044 13.7308V13.0772C5.23044 11.6332 5.74136 10.4006 6.76311 9.37882C7.7848 8.35742 9.01768 7.84651 10.4615 7.84651H11.7691C12.1232 7.84651 12.4296 7.71704 12.6885 7.45833C12.9473 7.19947 13.0767 6.89309 13.0767 6.53891V3.92329C13.0767 3.56918 12.9473 3.26251 12.6885 3.00366C12.4297 2.74516 12.1233 2.61548 11.7691 2.61548H10.4615C9.04473 2.61548 7.69305 2.89158 6.40564 3.443C5.11837 3.99478 4.00494 4.74065 3.06491 5.68068C2.12496 6.62028 1.3793 7.73379 0.827596 9.0212C0.275889 10.3085 0 11.6605 0 13.0772V27.4614C0 28.5518 0.381235 29.4776 1.14406 30.2407C1.90696 31.0034 2.83346 31.3847 3.92314 31.3847H11.7696C12.8592 31.3847 13.7854 31.0034 14.5484 30.2407C15.3111 29.4776 15.6925 28.5518 15.6925 27.4614V19.6157C15.6925 18.5256 15.3111 17.5998 14.5479 16.8366C13.7853 16.074 12.8587 15.6925 11.7691 15.6925Z" fill="#D5EB45"/>
<path d="M32.8569 16.8366C32.0942 16.074 31.168 15.6925 30.0781 15.6925H25.5012C24.9566 15.6925 24.4929 15.5019 24.1121 15.1204C23.7305 14.739 23.54 14.2758 23.54 13.7308V13.0772C23.54 11.6332 24.0509 10.4006 25.0721 9.37882C26.0935 8.35742 27.3263 7.84651 28.7708 7.84651H30.0781C30.4323 7.84651 30.7389 7.71704 30.9976 7.45833C31.2562 7.19947 31.3861 6.89309 31.3861 6.53891V3.92329C31.3861 3.56918 31.2563 3.26251 30.9976 3.00366C30.739 2.74516 30.4324 2.61548 30.0781 2.61548H28.7708C27.3532 2.61548 26.0019 2.89158 24.7141 3.443C23.427 3.99478 22.314 4.74065 21.3739 5.68068C20.4339 6.62028 19.6879 7.73379 19.1364 9.0212C18.5848 10.3085 18.3086 11.6605 18.3086 13.0772V27.4614C18.3086 28.5518 18.6902 29.4776 19.4528 30.2407C20.2155 31.0034 21.1418 31.3847 22.2316 31.3847H30.0776C31.1675 31.3847 32.0937 31.0034 32.8564 30.2407C33.6195 29.4776 34.0004 28.5518 34.0004 27.4614V19.6157C34.0004 18.5255 33.6195 17.5998 32.8569 16.8366Z" fill="#D5EB45"/>
</g>
<defs>
<clipPath id="clip0_430_14087">
<rect width="34" height="34" fill="white"/>
</clipPath>
</defs>
</svg>
