<svg width="24" height="24" viewBox="0 0 24 24" fill="none" xmlns="http://www.w3.org/2000/svg">
<g clip-path="url(#clip0_430_618)">
<path d="M21.4286 0.856934H2.57143C1.62466 0.856934 0.857147 1.62445 0.857147 2.57122V7.71408C0.857147 8.66085 1.62466 9.42836 2.57143 9.42836H21.4286C22.3753 9.42836 23.1429 8.66085 23.1429 7.71408V2.57122C23.1429 1.62445 22.3753 0.856934 21.4286 0.856934Z" stroke="#080517" stroke-width="1.5" stroke-linecap="round" stroke-linejoin="round"/>
<path d="M10.2857 5.14258H13.7143" stroke="#080517" stroke-width="1.5" stroke-linecap="round" stroke-linejoin="round"/>
<path d="M2.57143 9.42822C2.11678 9.42822 1.68074 9.60883 1.35925 9.93033C1.03776 10.2518 0.857147 10.6879 0.857147 11.1425V16.2854C0.857147 16.74 1.03776 17.1761 1.35925 17.4975C1.68074 17.819 2.11678 17.9997 2.57143 17.9997H21.4286C21.8832 17.9997 22.3193 17.819 22.6408 17.4975C22.9622 17.1761 23.1429 16.74 23.1429 16.2854V11.1425C23.1429 10.6879 22.9622 10.2518 22.6408 9.93033C22.3193 9.60883 21.8832 9.42822 21.4286 9.42822" stroke="#080517" stroke-width="1.5" stroke-linecap="round" stroke-linejoin="round"/>
<path d="M5.57142 5.57101C5.33473 5.57101 5.14285 5.37913 5.14285 5.14244C5.14285 4.90575 5.33473 4.71387 5.57142 4.71387" stroke="#080517" stroke-width="1.5" stroke-linecap="round" stroke-linejoin="round"/>
<path d="M5.57144 5.57101C5.80814 5.57101 6.00001 5.37913 6.00001 5.14244C6.00001 4.90575 5.80814 4.71387 5.57144 4.71387" stroke="#080517" stroke-width="1.5" stroke-linecap="round" stroke-linejoin="round"/>
<path d="M5.57142 14.1428C5.33473 14.1428 5.14285 13.9509 5.14285 13.7142C5.14285 13.4775 5.33473 13.2856 5.57142 13.2856" stroke="#080517" stroke-width="1.5" stroke-linecap="round" stroke-linejoin="round"/>
<path d="M5.57144 14.1428C5.80814 14.1428 6.00001 13.9509 6.00001 13.7142C6.00001 13.4775 5.80814 13.2856 5.57144 13.2856" stroke="#080517" stroke-width="1.5" stroke-linecap="round" stroke-linejoin="round"/>
<path d="M10.2857 13.7139H13.7143" stroke="#080517" stroke-width="1.5" stroke-linecap="round" stroke-linejoin="round"/>
<path d="M12 18V23.1429" stroke="#080517" stroke-width="1.5" stroke-linecap="round" stroke-linejoin="round"/>
<path d="M3.42859 23.1426H20.5714" stroke="#080517" stroke-width="1.5" stroke-linecap="round" stroke-linejoin="round"/>
</g>
<defs>
<clipPath id="clip0_430_618">
<rect width="24" height="24" fill="white"/>
</clipPath>
</defs>
</svg>
