<svg width="24" height="24" viewBox="0 0 24 24" fill="none" xmlns="http://www.w3.org/2000/svg">
<g clip-path="url(#clip0_430_404)">
<path d="M21.4286 0.857178H2.57143C1.62466 0.857178 0.857147 1.62469 0.857147 2.57146V21.4286C0.857147 22.3754 1.62466 23.1429 2.57143 23.1429H21.4286C22.3753 23.1429 23.1429 22.3754 23.1429 21.4286V2.57146C23.1429 1.62469 22.3753 0.857178 21.4286 0.857178Z" stroke="#080517" stroke-width="1.5" stroke-linecap="round" stroke-linejoin="round"/>
<path d="M12 19.7144C15.3137 19.7144 18 17.0281 18 13.7144C18 10.4006 15.3137 7.71436 12 7.71436C8.68629 7.71436 6 10.4006 6 13.7144C6 17.0281 8.68629 19.7144 12 19.7144Z" stroke="#080517" stroke-width="1.5" stroke-linecap="round" stroke-linejoin="round"/>
<path d="M0.857147 6H6" stroke="#080517" stroke-width="1.5" stroke-linecap="round" stroke-linejoin="round"/>
<path d="M18 6H23.1429" stroke="#080517" stroke-width="1.5" stroke-linecap="round" stroke-linejoin="round"/>
<path d="M12 13.6628V19.6628" stroke="#080517" stroke-width="1.5" stroke-linecap="round" stroke-linejoin="round"/>
<path d="M6.85715 10.6287L12 13.6629" stroke="#080517" stroke-width="1.5" stroke-linecap="round" stroke-linejoin="round"/>
<path d="M17.1429 10.6287L12 13.6629" stroke="#080517" stroke-width="1.5" stroke-linecap="round" stroke-linejoin="round"/>
</g>
<defs>
<clipPath id="clip0_430_404">
<rect width="24" height="24" fill="white"/>
</clipPath>
</defs>
</svg>
