<svg width="24" height="24" viewBox="0 0 24 24" fill="none" xmlns="http://www.w3.org/2000/svg">
<g clip-path="url(#clip0_430_432)">
<path d="M21.4286 0.857178H2.57146C1.62469 0.857178 0.857178 1.62469 0.857178 2.57146V21.4286C0.857178 22.3754 1.62469 23.1429 2.57146 23.1429H21.4286C22.3754 23.1429 23.1429 22.3754 23.1429 21.4286V2.57146C23.1429 1.62469 22.3754 0.857178 21.4286 0.857178Z" stroke="#080517" stroke-width="1.5" stroke-linecap="round" stroke-linejoin="round"/>
<path d="M9.4115 18.1028V11.5371C9.41629 11.4362 9.44578 11.338 9.49737 11.2512C9.54896 11.1643 9.62108 11.0915 9.70739 11.039C9.79371 10.9865 9.89159 10.9561 9.99243 10.9502C10.0933 10.9444 10.194 10.9635 10.2858 11.0057L15.9772 14.2799C16.0694 14.3367 16.1455 14.4162 16.1983 14.5107C16.251 14.6052 16.2788 14.7117 16.2788 14.8199C16.2788 14.9282 16.251 15.0347 16.1983 15.1292C16.1455 15.2237 16.0694 15.3032 15.9772 15.3599L10.2858 18.6514C10.1924 18.6898 10.0913 18.7053 9.99068 18.6967C9.8901 18.6881 9.79303 18.6556 9.70752 18.602C9.62202 18.5483 9.55055 18.4751 9.49907 18.3882C9.44758 18.3014 9.41756 18.2036 9.4115 18.1028V18.1028Z" stroke="#080517" stroke-width="1.5" stroke-linecap="round" stroke-linejoin="round"/>
<path d="M0.857178 6.85718H23.1429" stroke="#080517" stroke-width="1.5" stroke-linecap="round" stroke-linejoin="round"/>
<path d="M6.85718 6.85718L9.42861 0.857178" stroke="#080517" stroke-width="1.5" stroke-linecap="round" stroke-linejoin="round"/>
<path d="M14.5714 6.85718L17.1428 0.857178" stroke="#080517" stroke-width="1.5" stroke-linecap="round" stroke-linejoin="round"/>
</g>
<defs>
<clipPath id="clip0_430_432">
<rect width="24" height="24" fill="white"/>
</clipPath>
</defs>
</svg>
