<svg width="24" height="24" viewBox="0 0 24 24" fill="none" xmlns="http://www.w3.org/2000/svg">
<g clip-path="url(#clip0_427_5367)">
<path d="M12 17.1771V18.9086" stroke="#080517" stroke-width="1.5" stroke-linecap="round" stroke-linejoin="round"/>
<path d="M12 8.5885V10.1999" stroke="#080517" stroke-width="1.5" stroke-linecap="round" stroke-linejoin="round"/>
<path d="M12 23.1257C18 23.1257 22.2857 20.9999 22.2857 16.2685C22.2857 11.1257 19.7143 7.69709 14.5714 5.12566L16.5943 2.51995C16.6971 2.34899 16.7528 2.15389 16.7559 1.95444C16.7589 1.75499 16.7092 1.55827 16.6118 1.38423C16.5143 1.21019 16.3725 1.06501 16.2009 0.963401C16.0292 0.861796 15.8338 0.807378 15.6343 0.805664H8.36572C8.16626 0.807378 7.97079 0.861796 7.79913 0.963401C7.62747 1.06501 7.48573 1.21019 7.38827 1.38423C7.2908 1.55827 7.24108 1.75499 7.24415 1.95444C7.24721 2.15389 7.30296 2.34899 7.40572 2.51995L9.42858 5.14281C4.28572 7.73138 1.71429 11.1599 1.71429 16.3028C1.71429 20.9999 6.00001 23.1257 12 23.1257Z" stroke="#080517" stroke-width="1.5" stroke-linecap="round" stroke-linejoin="round"/>
<path d="M10.2857 16.3885C10.4949 16.6368 10.7582 16.8339 11.0553 16.9646C11.3525 17.0954 11.6757 17.1563 12 17.1428C12.4958 17.1766 12.9854 17.0168 13.3658 16.6971C13.7463 16.3774 13.9879 15.9227 14.04 15.4285C13.9879 14.9343 13.7463 14.4796 13.3658 14.1599C12.9854 13.8402 12.4958 13.6804 12 13.7142C11.5042 13.748 11.0147 13.5883 10.6342 13.2686C10.2538 12.9489 10.0121 12.4941 9.96002 11.9999C10.0079 11.504 10.2484 11.0466 10.6299 10.7261C11.0113 10.4056 11.5033 10.2474 12 10.2856C12.3187 10.2661 12.6377 10.3175 12.9341 10.4361C13.2305 10.5547 13.497 10.7375 13.7143 10.9714" stroke="#080517" stroke-width="1.5" stroke-linecap="round" stroke-linejoin="round"/>
</g>
<defs>
<clipPath id="clip0_427_5367">
<rect width="24" height="24" fill="white"/>
</clipPath>
</defs>
</svg>
