<svg width="55" height="55" viewBox="0 0 55 55" fill="none" xmlns="http://www.w3.org/2000/svg">
<path d="M11.9675 33.631L10.0879 40.648L3.21775 40.7934C1.16459 36.9852 0 32.6282 0 27.9981C0 23.5208 1.08886 19.2987 3.01894 15.5811H3.02041L9.13676 16.7024L11.8161 22.782C11.2553 24.4169 10.9497 26.1719 10.9497 27.9981C10.9499 29.9801 11.3089 31.879 11.9675 33.631Z" fill="#FBBB00"/>
<path d="M53.5279 22.957C53.838 24.5903 53.9997 26.2771 53.9997 28.001C53.9997 29.934 53.7964 31.8196 53.4093 33.6384C52.0949 39.8276 48.6605 45.232 43.9029 49.0565L43.9015 49.0551L36.1976 48.662L35.1073 41.8556C38.2642 40.0042 40.7313 37.1068 42.0309 33.6384H27.5933V22.957H42.2415H53.5279Z" fill="#518EF8"/>
<path d="M43.902 49.0539L43.9034 49.0554C39.2764 52.7745 33.3986 54.9998 27.0003 54.9998C16.718 54.9998 7.77838 49.2527 3.21802 40.7952L11.9678 33.6328C14.2479 39.7181 20.1182 44.0501 27.0003 44.0501C29.9584 44.0501 32.7296 43.2504 35.1077 41.8544L43.902 49.0539Z" fill="#28B446"/>
<path d="M44.234 7.21591L35.4872 14.3768C33.026 12.8384 30.1168 11.9498 27 11.9498C19.9622 11.9498 13.9821 16.4804 11.8162 22.7839L3.0204 15.583H3.01892C7.51252 6.91922 16.5649 1 27 1C33.5512 1 39.5579 3.3336 44.234 7.21591Z" fill="#F14336"/>
</svg>
