<svg width="24" height="24" viewBox="0 0 24 24" fill="none" xmlns="http://www.w3.org/2000/svg">
<g clip-path="url(#clip0_443_147)">
<path d="M7.71456 22.2846C11.5017 22.2846 14.5717 19.2146 14.5717 15.4275C14.5717 11.6404 11.5017 8.57031 7.71456 8.57031C3.92747 8.57031 0.857422 11.6404 0.857422 15.4275C0.857422 19.2146 3.92747 22.2846 7.71456 22.2846Z" stroke="#080517" stroke-width="1.5" stroke-linecap="round" stroke-linejoin="round"/>
<path d="M16.286 22.2846C20.0731 22.2846 23.1431 19.2146 23.1431 15.4275C23.1431 11.6404 20.0731 8.57031 16.286 8.57031C12.4989 8.57031 9.42883 11.6404 9.42883 15.4275C9.42883 19.2146 12.4989 22.2846 16.286 22.2846Z" stroke="#080517" stroke-width="1.5" stroke-linecap="round" stroke-linejoin="round"/>
<path d="M12.0003 15.4291C15.7874 15.4291 18.8575 12.3591 18.8575 8.57199C18.8575 4.78489 15.7874 1.71484 12.0003 1.71484C8.21324 1.71484 5.14319 4.78489 5.14319 8.57199C5.14319 12.3591 8.21324 15.4291 12.0003 15.4291Z" stroke="#080517" stroke-width="1.5" stroke-linecap="round" stroke-linejoin="round"/>
</g>
<defs>
<clipPath id="clip0_443_147">
<rect width="24" height="24" fill="white"/>
</clipPath>
</defs>
</svg>
