<svg width="24" height="24" viewBox="0 0 24 24" fill="none" xmlns="http://www.w3.org/2000/svg">
<path d="M18.24 2.63989H5.76C5.47228 2.64779 5.19046 2.72329 4.93732 2.86028C4.68419 2.99728 4.46684 3.19192 4.30286 3.42846L1.18286 7.74846C0.951184 8.07585 0.835484 8.47123 0.854118 8.87186C0.872752 9.27249 1.02465 9.65543 1.28572 9.95989L10.6457 20.7428C10.806 20.9492 11.0113 21.1163 11.246 21.2313C11.4807 21.3462 11.7386 21.406 12 21.406C12.2614 21.406 12.5193 21.3462 12.754 21.2313C12.9887 21.1163 13.194 20.9492 13.3543 20.7428L22.7143 9.95989C22.9754 9.65543 23.1273 9.27249 23.1459 8.87186C23.1645 8.47123 23.0488 8.07585 22.8171 7.74846L19.6971 3.42846C19.5332 3.19192 19.3158 2.99728 19.0627 2.86028C18.8095 2.72329 18.5277 2.64779 18.24 2.63989V2.63989Z" stroke="#080517" stroke-width="1.5" stroke-linecap="round" stroke-linejoin="round"/>
<path d="M11.1086 2.6228L6.92572 9.1028L12 21.3599" stroke="#080517" stroke-width="1.5" stroke-linecap="round" stroke-linejoin="round"/>
<path d="M12.9429 2.6228L17.1086 9.1028L12 21.3599" stroke="#080517" stroke-width="1.5" stroke-linecap="round" stroke-linejoin="round"/>
<path d="M0.891418 9.10278H23.1086" stroke="#080517" stroke-width="1.5" stroke-linecap="round" stroke-linejoin="round"/>
</svg>
