<svg width="24" height="24" viewBox="0 0 24 24" fill="none" xmlns="http://www.w3.org/2000/svg">
<g clip-path="url(#clip0_430_377)">
<path d="M21.4285 2.57153L15.5828 8.41725" stroke="#080517" stroke-width="1.5" stroke-linecap="round" stroke-linejoin="round"/>
<path d="M2.57141 2.57153L8.41713 8.41725" stroke="#080517" stroke-width="1.5" stroke-linecap="round" stroke-linejoin="round"/>
<path d="M2.57141 21.4287L8.41713 15.583" stroke="#080517" stroke-width="1.5" stroke-linecap="round" stroke-linejoin="round"/>
<path d="M21.4285 21.4287L15.5828 15.583" stroke="#080517" stroke-width="1.5" stroke-linecap="round" stroke-linejoin="round"/>
<path d="M12 23.1429C18.154 23.1429 23.1428 18.1541 23.1428 12C23.1428 5.846 18.154 0.857178 12 0.857178C5.84594 0.857178 0.857117 5.846 0.857117 12C0.857117 18.1541 5.84594 23.1429 12 23.1429Z" stroke="#080517" stroke-width="1.5" stroke-linecap="round" stroke-linejoin="round"/>
<path d="M12 17.0572C14.7929 17.0572 17.0571 14.793 17.0571 12C17.0571 9.20703 14.7929 6.94287 12 6.94287C9.20697 6.94287 6.94281 9.20703 6.94281 12C6.94281 14.793 9.20697 17.0572 12 17.0572Z" stroke="#080517" stroke-width="1.5" stroke-linecap="round" stroke-linejoin="round"/>
</g>
<defs>
<clipPath id="clip0_430_377">
<rect width="24" height="24" fill="white"/>
</clipPath>
</defs>
</svg>
