<svg width="24" height="24" viewBox="0 0 24 24" fill="none" xmlns="http://www.w3.org/2000/svg">
<path d="M19.714 14.5715H4.28539L2.98254 21.0858C2.93347 21.3348 2.94031 21.5917 3.00256 21.8377C3.06482 22.0838 3.18094 22.313 3.34254 22.5087C3.50206 22.7053 3.70316 22.8642 3.9314 22.9739C4.15963 23.0835 4.40933 23.1413 4.66254 23.143H19.3368C19.59 23.1413 19.8397 23.0835 20.068 22.9739C20.2962 22.8642 20.4973 22.7053 20.6568 22.5087C20.8184 22.313 20.9345 22.0838 20.9968 21.8377C21.0591 21.5917 21.0659 21.3348 21.0168 21.0858L19.714 14.5715Z" stroke="#080517" stroke-width="1.5" stroke-linecap="round" stroke-linejoin="round"/>
<path d="M19.7141 9.42861C20.1688 9.42861 20.6048 9.60922 20.9263 9.93071C21.2478 10.2522 21.4284 10.6882 21.4284 11.1429V14.5715H2.57129V11.1429C2.57129 10.6882 2.7519 10.2522 3.07339 9.93071C3.39488 9.60922 3.83092 9.42861 4.28557 9.42861H6.857C7.31166 9.42861 7.7477 9.24799 8.06919 8.9265C8.39068 8.60501 8.57129 8.16898 8.57129 7.71432V4.28575C8.57129 3.37644 8.93251 2.50436 9.57549 1.86138C10.2185 1.2184 11.0905 0.857178 11.9999 0.857178C12.9092 0.857178 13.7812 1.2184 14.4242 1.86138C15.0672 2.50436 15.4284 3.37644 15.4284 4.28575V7.71432C15.4284 8.16898 15.609 8.60501 15.9305 8.9265C16.252 9.24799 16.6881 9.42861 17.1427 9.42861H19.7141Z" stroke="#080517" stroke-width="1.5" stroke-linecap="round" stroke-linejoin="round"/>
<path d="M14.5713 23.1429V18.8572" stroke="#080517" stroke-width="1.5" stroke-linecap="round" stroke-linejoin="round"/>
</svg>
