<svg width="24" height="24" viewBox="0 0 24 24" fill="none" xmlns="http://www.w3.org/2000/svg">
<path d="M13.7142 7.71456C15.6078 7.71456 17.1428 6.17954 17.1428 4.28599C17.1428 2.39245 15.6078 0.857422 13.7142 0.857422C11.8207 0.857422 10.2856 2.39245 10.2856 4.28599C10.2856 6.17954 11.8207 7.71456 13.7142 7.71456Z" stroke="#080517" stroke-width="1.5" stroke-linecap="round" stroke-linejoin="round"/>
<path d="M13.7141 7.71484V14.572H18.857C19.3116 14.572 19.7477 14.7526 20.0692 15.0741C20.3906 15.3956 20.5713 15.8316 20.5713 16.2863V23.1434" stroke="#080517" stroke-width="1.5" stroke-linecap="round" stroke-linejoin="round"/>
<path d="M9.4285 11.1426C8.34543 11.1437 7.28286 11.4379 6.3535 11.9941C5.42414 12.5502 4.66265 13.3476 4.14982 14.3016C3.63698 15.2555 3.39193 16.3305 3.44064 17.4125C3.48936 18.4944 3.83004 19.5431 4.42654 20.4471C5.02303 21.3511 5.8531 22.0768 6.82869 22.5471C7.80427 23.0175 8.88899 23.2151 9.96777 23.1188C11.0466 23.0226 12.0792 22.6361 12.9561 22.0005C13.833 21.3648 14.5215 20.5036 14.9485 19.5083" stroke="#080517" stroke-width="1.5" stroke-linecap="round" stroke-linejoin="round"/>
</svg>
