<svg width="50" height="50" viewBox="0 0 50 50" fill="none" xmlns="http://www.w3.org/2000/svg">
<path d="M50 25C50 38.8071 38.8071 50 25 50C11.1929 50 0 38.8071 0 25C0 11.1929 11.1929 0 25 0C38.8071 0 50 11.1929 50 25Z" fill="#D5EB45"/>
<path d="M33.3967 31.4918L18.5068 16.6025L16.6059 18.5034L31.4958 33.3926L33.3967 31.4918Z" fill="#D5EB45" stroke="#080517" stroke-miterlimit="10"/>
<path d="M21.2157 14.4953L18.3149 11.5947L11.5973 18.3121L14.498 21.2127L21.2157 14.4953Z" fill="#D5EB45" stroke="#080517" stroke-miterlimit="10"/>
<path d="M16.7475 13.1625L14.585 11L11.0026 14.5822L13.1652 16.7447L16.7475 13.1625Z" fill="#D5EB45" stroke="#080517" stroke-miterlimit="10"/>
<path d="M28.7843 35.5047L31.6851 38.4053L38.4027 31.6879L35.502 28.7873L28.7843 35.5047Z" fill="#D5EB45" stroke="#080517" stroke-miterlimit="10"/>
<path d="M33.253 36.8375L35.4155 39L38.9979 35.4178L36.8353 33.2553L33.253 36.8375Z" fill="#D5EB45" stroke="#080517" stroke-miterlimit="10"/>
<path d="M18.5081 33.3961L33.3979 18.5068L31.497 16.606L16.6071 31.4953L18.5081 33.3961Z" fill="#D5EB45" stroke="#080517" stroke-miterlimit="10"/>
<path d="M35.5046 21.217L38.4053 18.3164L31.6876 11.5991L28.7869 14.4996L35.5046 21.217Z" fill="#D5EB45" stroke="#080517" stroke-miterlimit="10"/>
<path d="M36.8374 16.7494L39 14.5869L35.4176 11.0047L33.2551 13.1672L36.8374 16.7494Z" fill="#D5EB45" stroke="#080517" stroke-miterlimit="10"/>
<path d="M14.494 28.785L11.5933 31.6855L18.3109 38.4029L21.2116 35.5023L14.494 28.785Z" fill="#D5EB45" stroke="#080517" stroke-miterlimit="10"/>
<path d="M13.1626 33.2516L11 35.4141L14.5823 38.9963L16.7449 36.8338L13.1626 33.2516Z" fill="#D5EB45" stroke="#080517" stroke-miterlimit="10"/>
</svg>
