<svg width="50" height="50" viewBox="0 0 50 50" fill="none" xmlns="http://www.w3.org/2000/svg">
<path d="M17.3075 23.0771H10.5767C9.77537 23.0771 9.09412 22.7967 8.53316 22.2358C7.97252 21.6748 7.69183 20.9938 7.69183 20.1922V19.2311C7.69183 17.1076 8.44317 15.2949 9.94576 13.7923C11.4482 12.2902 13.2613 11.5389 15.3846 11.5389H17.3075C17.8283 11.5389 18.2788 11.3485 18.6596 10.968C19.0402 10.5874 19.2305 10.1368 19.2305 9.61594V5.76944C19.2305 5.24869 19.0401 4.79771 18.6596 4.41704C18.2789 4.0369 17.8284 3.84619 17.3075 3.84619H15.3846C13.3011 3.84619 11.3133 4.25223 9.42006 5.06314C7.52702 5.87458 5.88962 6.97145 4.50722 8.35384C3.12493 9.73561 2.02839 11.3731 1.21705 13.2664C0.405719 15.1594 0 17.1477 0 19.231V40.3844C0 41.9878 0.56064 43.3492 1.68245 44.4715C2.80436 45.5931 4.16686 46.1538 5.76932 46.1538H17.3083C18.9106 46.1538 20.2727 45.5931 21.3947 44.4715C22.5163 43.3492 23.0773 41.9878 23.0773 40.3844V28.8465C23.0773 27.2434 22.5163 25.8819 21.394 24.7596C20.2725 23.6381 18.9099 23.0771 17.3075 23.0771Z" fill="#080517" fill-opacity="0.1"/>
<path d="M48.3183 24.7596C47.1969 23.6381 45.8347 23.0771 44.2319 23.0771H37.5012C36.7002 23.0771 36.0184 22.7967 35.4584 22.2358C34.8972 21.6748 34.617 20.9938 34.617 20.1922V19.2311C34.617 17.1076 35.3684 15.2949 36.8702 13.7923C38.3722 12.2902 40.1851 11.5389 42.3095 11.5389H44.232C44.7529 11.5389 45.2037 11.3485 45.5842 10.968C45.9644 10.5874 46.1555 10.1368 46.1555 9.61594V5.76944C46.1555 5.24869 45.9645 4.79771 45.5842 4.41704C45.2038 4.0369 44.753 3.84619 44.232 3.84619H42.3095C40.2248 3.84619 38.2375 4.25223 36.3437 5.06314C34.4509 5.87458 32.8141 6.97145 31.4317 8.35384C30.0493 9.73561 28.9522 11.3731 28.1412 13.2664C27.3301 15.1594 26.9238 17.1477 26.9238 19.231V40.3844C26.9238 41.9878 27.485 43.3492 28.6065 44.4715C29.7281 45.5931 31.0903 46.1538 32.6929 46.1538H44.2313C45.834 46.1538 47.1961 45.5931 48.3176 44.4715C49.4399 43.3492 49.9999 41.9878 49.9999 40.3844V28.8465C50.0001 27.2433 49.4399 25.8819 48.3183 24.7596Z" fill="#080517" fill-opacity="0.1"/>
</svg>
